<svg xmlns="http://www.w3.org/2000/svg" id="Layer_1" data-name="Layer 1" viewBox="0 0 24 24" width="300" height="300" version="1.1" xmlns:xlink="http://www.w3.org/1999/xlink" xmlns:svgjs="http://svgjs.dev/svgjs"><g transform="matrix(1,0,0,1,0,0)"><path d="M2,21V3A1,1,0,0,1,3,2H8V0H3A3,3,0,0,0,0,3V21a3,3,0,0,0,3,3H8V22H3A1,1,0,0,1,2,21Z" fill="#b15757ff" data-original-color="#000000ff" stroke="none"/><path d="M23.123,9.879,18.537,5.293,17.123,6.707l4.264,4.264L5,11l0,2,16.443-.029-4.322,4.322,1.414,1.414,4.586-4.586A3,3,0,0,0,23.123,9.879Z" fill="#b15757ff" data-original-color="#000000ff" stroke="none"/></g></svg>