<?xml version="1.0" encoding="utf-8"?>
<!-- Generator: Adobe Illustrator 27.5.0, SVG Export Plug-In . SVG Version: 6.00 Build 0)  -->
<svg version="1.1" xmlns="http://www.w3.org/2000/svg" xmlns:xlink="http://www.w3.org/1999/xlink" x="0px" y="0px"
	 viewBox="0 0 500 500" style="enable-background:new 0 0 500 500;" xml:space="preserve">
<g id="Background_Simple">
	<g>
		<path style="fill:#92E3A9;" d="M467.605,251.913c-4.936,41.801-24.022,90.403-62.141,112.73
			c-57.595,33.742-52.774,85.638-165.193,108.199c-17.527,3.519-34.161,5-49.846,4.708c-8.432-0.156-16.593-0.836-24.465-1.995
			C94.512,465.119,46.43,415.455,28.79,355.505C5.575,276.66,51.928,225.042,82.652,193.941
			c30.724-31.1,53.226-128.004,163.567-151.052c16.824-3.507,34.029-5.296,51.229-4.867c39.259,0.963,82.08,13.855,111.71,40.761
			c2.225,2.022,4.388,4.118,6.497,6.278C456.838,127.332,474.338,194.925,467.605,251.913z"/>
		<path style="opacity:0.7;fill:#FFFFFF;" d="M467.605,251.913c-4.936,41.801-24.022,90.403-62.141,112.73
			c-57.595,33.742-52.774,85.638-165.193,108.199c-17.527,3.519-34.161,5-49.846,4.708c-8.432-0.156-16.593-0.836-24.465-1.995
			C94.512,465.119,46.43,415.455,28.79,355.505C5.575,276.66,51.928,225.042,82.652,193.941
			c30.724-31.1,53.226-128.004,163.567-151.052c16.824-3.507,34.029-5.296,51.229-4.867c39.259,0.963,82.08,13.855,111.71,40.761
			c2.225,2.022,4.388,4.118,6.497,6.278C456.838,127.332,474.338,194.925,467.605,251.913z"/>
	</g>
</g>
<g id="Ladders_2">
	<g>
		<g>
			
				<line style="fill:none;stroke:#263238;stroke-width:2;stroke-linecap:round;stroke-linejoin:round;stroke-miterlimit:10;" x1="387.668" y1="254.529" x2="359.908" y2="254.529"/>
			
				<line style="fill:none;stroke:#263238;stroke-width:2;stroke-linecap:round;stroke-linejoin:round;stroke-miterlimit:10;" x1="387.668" y1="288.259" x2="359.908" y2="288.259"/>
			
				<line style="fill:none;stroke:#263238;stroke-width:2;stroke-linecap:round;stroke-linejoin:round;stroke-miterlimit:10;" x1="387.668" y1="321.989" x2="360.116" y2="321.989"/>
			
				<line style="fill:none;stroke:#263238;stroke-width:2;stroke-linecap:round;stroke-linejoin:round;stroke-miterlimit:10;" x1="387.668" y1="355.719" x2="359.908" y2="355.719"/>
			
				<line style="fill:none;stroke:#263238;stroke-width:2;stroke-linecap:round;stroke-linejoin:round;stroke-miterlimit:10;" x1="387.668" y1="389.449" x2="359.908" y2="389.449"/>
			
				<line style="fill:none;stroke:#263238;stroke-width:2;stroke-linecap:round;stroke-linejoin:round;stroke-miterlimit:10;" x1="387.668" y1="423.18" x2="359.908" y2="423.18"/>
			
				<line style="fill:none;stroke:#263238;stroke-width:2;stroke-linecap:round;stroke-linejoin:round;stroke-miterlimit:10;" x1="387.668" y1="456.91" x2="359.908" y2="456.91"/>
		</g>
		
			<line style="fill:none;stroke:#263238;stroke-width:2;stroke-linecap:round;stroke-linejoin:round;stroke-miterlimit:10;" x1="359.908" y1="247.328" x2="359.908" y2="482.307"/>
		
			<line style="fill:none;stroke:#263238;stroke-width:2;stroke-linecap:round;stroke-linejoin:round;stroke-miterlimit:10;" x1="387.967" y1="247.328" x2="387.967" y2="482.307"/>
	</g>
	<g>
		<g>
			
				<line style="fill:none;stroke:#263238;stroke-width:2;stroke-linecap:round;stroke-linejoin:round;stroke-miterlimit:10;" x1="123.455" y1="333.878" x2="105.366" y2="333.878"/>
			
				<line style="fill:none;stroke:#263238;stroke-width:2;stroke-linecap:round;stroke-linejoin:round;stroke-miterlimit:10;" x1="123.455" y1="355.858" x2="105.366" y2="355.858"/>
			
				<line style="fill:none;stroke:#263238;stroke-width:2;stroke-linecap:round;stroke-linejoin:round;stroke-miterlimit:10;" x1="123.455" y1="377.837" x2="105.501" y2="377.837"/>
			
				<line style="fill:none;stroke:#263238;stroke-width:2;stroke-linecap:round;stroke-linejoin:round;stroke-miterlimit:10;" x1="123.455" y1="399.817" x2="105.366" y2="399.817"/>
			
				<line style="fill:none;stroke:#263238;stroke-width:2;stroke-linecap:round;stroke-linejoin:round;stroke-miterlimit:10;" x1="123.455" y1="421.797" x2="105.366" y2="421.797"/>
			
				<line style="fill:none;stroke:#263238;stroke-width:2;stroke-linecap:round;stroke-linejoin:round;stroke-miterlimit:10;" x1="123.455" y1="443.777" x2="105.366" y2="443.777"/>
			
				<line style="fill:none;stroke:#263238;stroke-width:2;stroke-linecap:round;stroke-linejoin:round;stroke-miterlimit:10;" x1="123.455" y1="465.757" x2="105.366" y2="465.757"/>
		</g>
		
			<line style="fill:none;stroke:#263238;stroke-width:2;stroke-linecap:round;stroke-linejoin:round;stroke-miterlimit:10;" x1="105.366" y1="329.185" x2="105.366" y2="482.307"/>
		
			<line style="fill:none;stroke:#263238;stroke-width:2;stroke-linecap:round;stroke-linejoin:round;stroke-miterlimit:10;" x1="123.65" y1="329.185" x2="123.65" y2="482.307"/>
	</g>
</g>
<g id="Clouds_2">
	<path style="fill:#FFFFFF;stroke:#263238;stroke-linecap:round;stroke-linejoin:round;stroke-miterlimit:10;" d="M271.06,202.748
		c0,0,15.884-29.227,44.475-34.945c28.591-5.718,33.674,18.426,38.122,24.779c4.448,6.354,12.707-7.624,26.685-9.53
		c13.978-1.906,21.602,3.177,23.508,14.613c1.906,11.436,10.166,8.26,16.519,4.447c6.354-3.812,15.249-8.26,24.144,1.271
		c8.895,9.531,10.801,10.166,15.249,8.26c4.448-1.906,11.437-8.895,19.696-1.271c8.26,7.624,8.26,7.624,8.26,7.624H247.552
		c0,0-0.635-10.801,6.989-14.613C262.165,199.571,265.342,208.466,271.06,202.748z"/>
	<path style="fill:#FFFFFF;stroke:#263238;stroke-linecap:round;stroke-linejoin:round;stroke-miterlimit:10;" d="M41.064,273.709
		c0,0,5.547-10.207,15.533-12.204c9.985-1.997,11.76,6.435,13.314,8.654c1.553,2.219,4.438-2.663,9.32-3.328s7.544,1.109,8.21,5.104
		c0.666,3.994,3.55,2.885,5.769,1.553c2.219-1.331,5.326-2.885,8.432,0.444c3.106,3.329,3.772,3.55,5.325,2.885
		c1.553-0.666,3.994-3.107,6.879-0.444c2.885,2.663,2.885,2.663,2.885,2.663H32.854c0,0-0.222-3.772,2.441-5.104
		C37.958,272.599,39.068,275.706,41.064,273.709z"/>
</g>
<g id="Targets">
	<g>
		
			<circle style="fill:none;stroke:#263238;stroke-linecap:round;stroke-linejoin:round;stroke-miterlimit:10;" cx="372.083" cy="80.758" r="37.486"/>
		
			<circle style="fill:none;stroke:#263238;stroke-linecap:round;stroke-linejoin:round;stroke-miterlimit:10;" cx="372.083" cy="80.758" r="28.437"/>
		
			<circle style="fill:none;stroke:#263238;stroke-linecap:round;stroke-linejoin:round;stroke-miterlimit:10;" cx="372.083" cy="80.758" r="17.166"/>
		
			<circle style="fill:none;stroke:#263238;stroke-linecap:round;stroke-linejoin:round;stroke-miterlimit:10;" cx="372.083" cy="80.758" r="8.648"/>
	</g>
	<g>
		
			<ellipse transform="matrix(0.3701 -0.929 0.929 0.3701 -294.1133 424.7616)" style="fill:none;stroke:#263238;stroke-linecap:round;stroke-linejoin:round;stroke-miterlimit:10;" cx="166.155" cy="429.255" rx="27.638" ry="27.638"/>
		
			<ellipse transform="matrix(0.3686 -0.9296 0.9296 0.3686 -294.1198 425.4927)" style="fill:none;stroke:#263238;stroke-linecap:round;stroke-linejoin:round;stroke-miterlimit:10;" cx="166.155" cy="429.255" rx="20.966" ry="20.967"/>
		
			<circle style="fill:none;stroke:#263238;stroke-linecap:round;stroke-linejoin:round;stroke-miterlimit:10;" cx="166.155" cy="429.255" r="12.657"/>
		
			<circle style="fill:none;stroke:#263238;stroke-linecap:round;stroke-linejoin:round;stroke-miterlimit:10;" cx="166.155" cy="429.255" r="6.376"/>
	</g>
</g>
<g id="Money">
	<g>
		<g>
			<path style="fill:none;stroke:#263238;stroke-linecap:round;stroke-linejoin:round;stroke-miterlimit:10;" d="M75.197,203.002
				v-3.542c-2.896-0.112-5.053-1.054-6.472-2.824c-1.419-1.771-2.199-4.286-2.34-7.547l5.397-1.054
				c0.056,1.321,0.211,2.487,0.464,3.499c0.253,1.012,0.653,1.792,1.201,2.34c0.548,0.548,1.271,0.822,2.171,0.822
				c1.012,0,1.735-0.302,2.171-0.907c0.435-0.604,0.653-1.37,0.653-2.297c0-1.489-0.345-2.712-1.033-3.668
				c-0.689-0.955-1.581-1.911-2.677-2.867l-4.342-3.794c-0.787-0.702-1.476-1.44-2.066-2.213c-0.59-0.772-1.054-1.644-1.391-2.614
				c-0.337-0.97-0.506-2.101-0.506-3.394c0-2.558,0.73-4.56,2.192-6.008c1.461-1.447,3.429-2.241,5.902-2.382v-3.415h1.813v3.373
				c1.433,0.084,2.614,0.4,3.541,0.949c0.927,0.548,1.665,1.251,2.213,2.108c0.548,0.858,0.956,1.82,1.223,2.888
				c0.267,1.069,0.428,2.179,0.485,3.331l-5.312,0.928c-0.057-1.068-0.168-2.03-0.337-2.888c-0.169-0.857-0.485-1.532-0.949-2.024
				c-0.464-0.491-1.146-0.71-2.045-0.653c-0.956,0.028-1.68,0.337-2.171,0.927c-0.492,0.59-0.738,1.335-0.738,2.234
				c0,1.209,0.267,2.186,0.801,2.93c0.534,0.745,1.194,1.483,1.981,2.213l4.3,3.753c0.899,0.815,1.735,1.701,2.508,2.656
				c0.773,0.956,1.392,2.023,1.855,3.204c0.464,1.181,0.696,2.529,0.696,4.047c0,1.518-0.302,2.874-0.906,4.068
				c-0.605,1.195-1.455,2.157-2.551,2.888c-1.096,0.731-2.403,1.181-3.921,1.349v3.583H75.197z"/>
		</g>
		
			<circle style="fill:none;stroke:#263238;stroke-linecap:round;stroke-linejoin:round;stroke-miterlimit:10;" cx="75.387" cy="181.163" r="33.384"/>
		
			<circle style="fill:none;stroke:#263238;stroke-linecap:round;stroke-linejoin:round;stroke-miterlimit:10;" cx="75.387" cy="181.163" r="27.842"/>
	</g>
	<g>
		<g>
			<path style="fill:none;stroke:#263238;stroke-linecap:round;stroke-linejoin:round;stroke-miterlimit:10;" d="M322.732,338.733
				v-2.547c-2.082-0.081-3.634-0.758-4.654-2.031c-1.021-1.273-1.582-3.082-1.683-5.427l3.881-0.758
				c0.04,0.95,0.152,1.789,0.334,2.516c0.182,0.728,0.47,1.289,0.864,1.683c0.394,0.394,0.914,0.591,1.562,0.591
				c0.728,0,1.248-0.217,1.561-0.652c0.313-0.434,0.47-0.985,0.47-1.652c0-1.071-0.248-1.95-0.743-2.638
				c-0.496-0.687-1.137-1.374-1.925-2.062l-3.123-2.729c-0.566-0.505-1.061-1.035-1.486-1.592c-0.425-0.555-0.758-1.182-1-1.88
				c-0.243-0.697-0.364-1.511-0.364-2.44c0-1.839,0.525-3.279,1.576-4.32c1.051-1.041,2.466-1.612,4.245-1.713v-2.456h1.304v2.425
				c1.031,0.061,1.88,0.288,2.547,0.682c0.667,0.394,1.197,0.9,1.591,1.516c0.394,0.617,0.687,1.309,0.879,2.077
				c0.192,0.769,0.308,1.567,0.349,2.395l-3.82,0.667c-0.041-0.768-0.121-1.46-0.242-2.077c-0.122-0.617-0.349-1.102-0.682-1.456
				c-0.334-0.353-0.824-0.51-1.471-0.47c-0.687,0.02-1.208,0.243-1.561,0.667c-0.354,0.424-0.531,0.96-0.531,1.607
				c0,0.869,0.192,1.572,0.576,2.107c0.384,0.536,0.859,1.066,1.425,1.592l3.092,2.698c0.647,0.586,1.248,1.223,1.804,1.91
				c0.556,0.688,1.001,1.455,1.334,2.304c0.334,0.849,0.5,1.819,0.5,2.911c0,1.091-0.217,2.067-0.652,2.926
				c-0.435,0.859-1.046,1.551-1.834,2.077c-0.788,0.526-1.728,0.849-2.82,0.97v2.577H322.732z"/>
		</g>
		
			<circle style="fill:none;stroke:#263238;stroke-linecap:round;stroke-linejoin:round;stroke-miterlimit:10;" cx="322.868" cy="323.028" r="24.007"/>
		
			<circle style="fill:none;stroke:#263238;stroke-linecap:round;stroke-linejoin:round;stroke-miterlimit:10;" cx="322.868" cy="323.028" r="20.022"/>
	</g>
	<g>
		<g>
			<path style="fill:none;stroke:#263238;stroke-linecap:round;stroke-linejoin:round;stroke-miterlimit:10;" d="M77.089,333.889
				v-1.891c-1.546-0.06-2.698-0.563-3.455-1.508c-0.758-0.946-1.174-2.288-1.249-4.029l2.881-0.563
				c0.03,0.706,0.113,1.328,0.248,1.868c0.135,0.54,0.349,0.957,0.641,1.249c0.293,0.293,0.679,0.439,1.159,0.439
				c0.54,0,0.926-0.161,1.159-0.484c0.232-0.323,0.349-0.732,0.349-1.227c0-0.795-0.184-1.448-0.551-1.958
				c-0.368-0.51-0.844-1.02-1.429-1.531l-2.318-2.026c-0.42-0.375-0.788-0.769-1.103-1.182c-0.315-0.412-0.563-0.878-0.743-1.396
				c-0.18-0.518-0.27-1.121-0.27-1.812c0-1.366,0.39-2.435,1.17-3.207c0.78-0.773,1.831-1.197,3.151-1.272v-1.823h0.968v1.801
				c0.765,0.045,1.396,0.214,1.891,0.507c0.495,0.293,0.889,0.668,1.181,1.125c0.293,0.458,0.51,0.972,0.653,1.542
				c0.143,0.571,0.229,1.163,0.259,1.778l-2.836,0.495c-0.03-0.57-0.09-1.084-0.18-1.542c-0.09-0.458-0.259-0.818-0.507-1.081
				c-0.248-0.262-0.612-0.379-1.092-0.349c-0.51,0.015-0.897,0.18-1.159,0.495c-0.263,0.315-0.394,0.713-0.394,1.193
				c0,0.646,0.142,1.167,0.428,1.564c0.285,0.398,0.638,0.792,1.058,1.182l2.296,2.003c0.48,0.435,0.926,0.908,1.339,1.418
				c0.413,0.51,0.743,1.08,0.99,1.711c0.248,0.63,0.371,1.35,0.371,2.161c0,0.81-0.161,1.534-0.484,2.172
				c-0.323,0.638-0.777,1.152-1.362,1.542c-0.585,0.391-1.283,0.63-2.093,0.72v1.913H77.089z"/>
		</g>
		
			<ellipse transform="matrix(0.9871 -0.1602 0.1602 0.9871 -50.6188 16.5253)" style="fill:none;stroke:#263238;stroke-linecap:round;stroke-linejoin:round;stroke-miterlimit:10;" cx="77.19" cy="322.229" rx="17.823" ry="17.823"/>
		
			<ellipse transform="matrix(0.9871 -0.1602 0.1602 0.9871 -50.6188 16.5253)" style="fill:none;stroke:#263238;stroke-linecap:round;stroke-linejoin:round;stroke-miterlimit:10;" cx="77.19" cy="322.229" rx="14.865" ry="14.865"/>
	</g>
	<g>
		<g>
			<path style="fill:none;stroke:#263238;stroke-linecap:round;stroke-linejoin:round;stroke-miterlimit:10;" d="M190.903,65.733
				v-1.891c-1.546-0.06-2.698-0.563-3.455-1.508c-0.758-0.945-1.174-2.288-1.249-4.029l2.881-0.563
				c0.03,0.705,0.113,1.328,0.248,1.868c0.135,0.54,0.349,0.957,0.641,1.249c0.293,0.293,0.679,0.439,1.159,0.439
				c0.54,0,0.926-0.161,1.159-0.484c0.232-0.322,0.349-0.731,0.349-1.227c0-0.795-0.184-1.448-0.551-1.958
				c-0.368-0.51-0.844-1.02-1.429-1.531l-2.318-2.026c-0.42-0.375-0.788-0.769-1.103-1.182c-0.315-0.412-0.563-0.878-0.743-1.396
				c-0.18-0.518-0.27-1.121-0.27-1.812c0-1.366,0.39-2.435,1.17-3.208c0.78-0.773,1.831-1.197,3.151-1.272v-1.823h0.968v1.801
				c0.765,0.045,1.395,0.214,1.891,0.507c0.495,0.292,0.889,0.668,1.181,1.125c0.293,0.458,0.51,0.972,0.653,1.542
				c0.143,0.571,0.229,1.163,0.259,1.778l-2.836,0.495c-0.03-0.57-0.09-1.084-0.18-1.542c-0.09-0.458-0.259-0.818-0.507-1.081
				c-0.248-0.262-0.612-0.379-1.092-0.349c-0.51,0.015-0.897,0.18-1.159,0.495c-0.263,0.315-0.394,0.713-0.394,1.193
				c0,0.646,0.142,1.167,0.428,1.564c0.285,0.398,0.638,0.792,1.058,1.182l2.296,2.004c0.48,0.435,0.926,0.908,1.339,1.418
				c0.413,0.51,0.743,1.08,0.99,1.711c0.248,0.63,0.371,1.35,0.371,2.161c0,0.81-0.161,1.534-0.484,2.172
				c-0.323,0.638-0.777,1.152-1.362,1.542c-0.585,0.391-1.283,0.63-2.093,0.72v1.913H190.903z"/>
		</g>
		
			<circle style="fill:none;stroke:#263238;stroke-linecap:round;stroke-linejoin:round;stroke-miterlimit:10;" cx="191.005" cy="54.073" r="17.823"/>
		
			<circle style="fill:none;stroke:#263238;stroke-linecap:round;stroke-linejoin:round;stroke-miterlimit:10;" cx="191.005" cy="54.073" r="14.865"/>
	</g>
	<g>
		<g>
			<path style="fill:none;stroke:#263238;stroke-linecap:round;stroke-linejoin:round;stroke-miterlimit:10;" d="M441.605,449.322
				v-1.891c-1.546-0.06-2.698-0.563-3.455-1.508c-0.758-0.945-1.174-2.288-1.249-4.029l2.881-0.563
				c0.03,0.705,0.113,1.328,0.248,1.868c0.135,0.54,0.349,0.957,0.641,1.249c0.293,0.293,0.679,0.439,1.159,0.439
				c0.54,0,0.927-0.161,1.159-0.484c0.232-0.323,0.349-0.732,0.349-1.227c0-0.795-0.184-1.448-0.551-1.958
				c-0.368-0.51-0.844-1.02-1.429-1.531l-2.318-2.026c-0.42-0.375-0.788-0.769-1.103-1.182c-0.315-0.412-0.563-0.878-0.743-1.396
				c-0.18-0.518-0.27-1.121-0.27-1.812c0-1.365,0.39-2.435,1.17-3.208c0.78-0.773,1.831-1.197,3.151-1.272v-1.823h0.968v1.801
				c0.765,0.045,1.395,0.214,1.891,0.507c0.495,0.293,0.889,0.668,1.181,1.125c0.293,0.458,0.51,0.972,0.653,1.542
				c0.143,0.571,0.229,1.163,0.259,1.778l-2.836,0.495c-0.03-0.57-0.09-1.084-0.18-1.542c-0.09-0.458-0.259-0.818-0.507-1.081
				c-0.248-0.262-0.612-0.379-1.092-0.349c-0.51,0.015-0.897,0.18-1.159,0.495c-0.263,0.315-0.394,0.713-0.394,1.193
				c0,0.646,0.142,1.167,0.428,1.564c0.285,0.398,0.638,0.792,1.058,1.182l2.296,2.003c0.48,0.435,0.926,0.908,1.339,1.418
				c0.413,0.51,0.743,1.08,0.99,1.711c0.248,0.63,0.371,1.35,0.371,2.161c0,0.81-0.161,1.534-0.484,2.172
				c-0.323,0.638-0.777,1.152-1.362,1.542c-0.585,0.391-1.283,0.63-2.093,0.72v1.913H441.605z"/>
		</g>
		
			<circle style="fill:none;stroke:#263238;stroke-linecap:round;stroke-linejoin:round;stroke-miterlimit:10;" cx="441.706" cy="437.662" r="17.823"/>
		
			<circle style="fill:none;stroke:#263238;stroke-linecap:round;stroke-linejoin:round;stroke-miterlimit:10;" cx="441.706" cy="437.662" r="14.865"/>
	</g>
	<g>
		<g>
			<path style="fill:none;stroke:#263238;stroke-linecap:round;stroke-linejoin:round;stroke-miterlimit:10;" d="M447.531,174.525
				v-1.891c-1.546-0.06-2.698-0.563-3.455-1.508c-0.758-0.946-1.174-2.288-1.249-4.029l2.881-0.563
				c0.03,0.705,0.113,1.328,0.248,1.868c0.135,0.54,0.349,0.957,0.641,1.249c0.293,0.293,0.679,0.439,1.159,0.439
				c0.54,0,0.926-0.161,1.159-0.484c0.232-0.323,0.349-0.732,0.349-1.227c0-0.795-0.184-1.448-0.551-1.958
				c-0.368-0.51-0.844-1.02-1.429-1.531l-2.318-2.026c-0.42-0.375-0.788-0.769-1.103-1.182c-0.315-0.412-0.563-0.878-0.743-1.396
				c-0.18-0.518-0.27-1.121-0.27-1.812c0-1.365,0.39-2.435,1.17-3.208c0.78-0.773,1.831-1.197,3.151-1.272v-1.823h0.968v1.801
				c0.765,0.045,1.396,0.214,1.891,0.507c0.495,0.292,0.889,0.668,1.181,1.125c0.293,0.458,0.51,0.972,0.653,1.542
				c0.143,0.571,0.229,1.163,0.259,1.778l-2.836,0.495c-0.03-0.57-0.09-1.084-0.18-1.542c-0.09-0.458-0.259-0.818-0.507-1.081
				c-0.248-0.262-0.611-0.379-1.092-0.349c-0.51,0.015-0.897,0.18-1.159,0.495c-0.263,0.315-0.394,0.713-0.394,1.193
				c0,0.645,0.142,1.167,0.428,1.564c0.285,0.398,0.638,0.792,1.058,1.182l2.296,2.003c0.48,0.435,0.926,0.908,1.339,1.418
				c0.413,0.51,0.743,1.08,0.99,1.711c0.248,0.63,0.371,1.35,0.371,2.161c0,0.81-0.161,1.535-0.484,2.172
				c-0.323,0.638-0.777,1.152-1.362,1.542c-0.585,0.39-1.283,0.63-2.093,0.72v1.913H447.531z"/>
		</g>
		
			<circle style="fill:none;stroke:#263238;stroke-linecap:round;stroke-linejoin:round;stroke-miterlimit:10;" cx="447.632" cy="162.865" r="17.823"/>
		
			<circle style="fill:none;stroke:#263238;stroke-linecap:round;stroke-linejoin:round;stroke-miterlimit:10;" cx="447.632" cy="162.865" r="14.865"/>
	</g>
</g>
<g id="Ladder_1">
	<g>
		<g>
			
				<line style="fill:none;stroke:#263238;stroke-width:4;stroke-linecap:round;stroke-linejoin:round;stroke-miterlimit:10;" x1="287.644" y1="53.444" x2="235.377" y2="53.444"/>
			
				<line style="fill:none;stroke:#263238;stroke-width:4;stroke-linecap:round;stroke-linejoin:round;stroke-miterlimit:10;" x1="287.644" y1="116.952" x2="235.377" y2="116.952"/>
			
				<line style="fill:none;stroke:#263238;stroke-width:4;stroke-linecap:round;stroke-linejoin:round;stroke-miterlimit:10;" x1="287.644" y1="180.459" x2="235.768" y2="180.459"/>
			
				<line style="fill:none;stroke:#263238;stroke-width:4;stroke-linecap:round;stroke-linejoin:round;stroke-miterlimit:10;" x1="287.644" y1="243.967" x2="235.377" y2="243.967"/>
			
				<line style="fill:none;stroke:#263238;stroke-width:4;stroke-linecap:round;stroke-linejoin:round;stroke-miterlimit:10;" x1="287.644" y1="307.474" x2="235.377" y2="307.474"/>
			
				<line style="fill:none;stroke:#263238;stroke-width:4;stroke-linecap:round;stroke-linejoin:round;stroke-miterlimit:10;" x1="287.644" y1="370.981" x2="235.377" y2="370.981"/>
			
				<line style="fill:none;stroke:#263238;stroke-width:4;stroke-linecap:round;stroke-linejoin:round;stroke-miterlimit:10;" x1="287.644" y1="434.489" x2="235.377" y2="434.489"/>
		</g>
		
			<line style="fill:none;stroke:#263238;stroke-width:4;stroke-linecap:round;stroke-linejoin:round;stroke-miterlimit:10;" x1="235.377" y1="39.887" x2="235.377" y2="482.307"/>
		
			<line style="fill:none;stroke:#263238;stroke-width:4;stroke-linecap:round;stroke-linejoin:round;stroke-miterlimit:10;" x1="288.206" y1="39.887" x2="288.206" y2="482.307"/>
	</g>
</g>
<g id="Character">
	<g>
		<g>
			<path style="fill:#FFFFFF;stroke:#263238;stroke-linecap:round;stroke-linejoin:round;stroke-miterlimit:10;" d="
				M230.735,408.157l2.322,7.663c0,0,3.019,4.644,5.573,6.038c2.554,1.393,14.862,3.948,15.326,5.341
				c0.464,1.393-1.161,2.322-2.554,3.019c-1.393,0.697-10.217,5.109-14.629,5.805c-4.412,0.697-6.966-0.697-8.824-1.625
				c-1.858-0.929-3.948-1.393-3.948-1.393l3.251,6.966l-2.787,1.161c0,0-3.948-6.27-5.573-8.36
				c-1.626-2.09-2.322-7.431-1.393-10.914c0.929-3.483,1.161-4.644,1.393-5.805c0.232-1.161,0.232-5.573,0.232-5.573
				L230.735,408.157z"/>
			<path style="fill:#263238;stroke:#263238;stroke-linecap:round;stroke-linejoin:round;stroke-miterlimit:10;" d="
				M253.956,427.198c-0.317-0.952-6.159-2.445-10.645-3.74l1.821,3.972c0,0-3.019,1.393-6.966,1.161
				c-3.948-0.232-6.966-1.858-12.772-3.483c-2.834-0.793-5.883-0.921-8.268-0.846c-0.217,3.188,0.484,6.86,1.766,8.509
				c1.626,2.09,5.573,8.36,5.573,8.36l2.787-1.161L224,433.004c0,0,2.09,0.464,3.948,1.393c1.858,0.929,4.412,2.322,8.824,1.625
				c4.412-0.697,13.236-5.109,14.629-5.805C252.795,429.521,254.42,428.592,253.956,427.198z"/>
		</g>
		<path style="fill:#92E3A9;stroke:#263238;stroke-linecap:round;stroke-linejoin:round;stroke-miterlimit:10;" d="M218.66,211.291
			c0,0,9.056,26.705,10.914,48.301c1.858,21.596,2.322,73.612,2.322,73.612l2.787,77.508c0,0-3.948,2.786-9.289,3.715
			s-10.217,1.625-10.217,1.625l-3.251-71.47c0,0-6.27-24.15-7.199-27.633c-0.929-3.483-2.09-7.663-3.251-12.075
			c-1.161-4.412-12.307-39.244-12.307-39.244s-4.18-9.985-6.038-16.719c-1.858-6.734,5.805-34.832,5.805-34.832L218.66,211.291z"/>
		<polygon style="fill:#263238;stroke:#263238;stroke-linecap:round;stroke-linejoin:round;stroke-miterlimit:10;" points="
			231.573,265.629 196.155,286.575 189.168,265.629 		"/>
		<polygon style="fill:#FFFFFF;stroke:#263238;stroke-linecap:round;stroke-linejoin:round;stroke-miterlimit:10;" points="
			218.958,153.189 188.267,152.342 200.306,204.398 198.441,216.946 217.771,215.929 215.906,194.903 		"/>
		<path style="fill:#92E3A9;stroke:#263238;stroke-linecap:round;stroke-linejoin:round;stroke-miterlimit:10;" d="M228.285,166.755
			l2.256,25.049l18.451-9.607l4.049,13.215c0,0-19.331,12.717-23.23,14.583c-3.9,1.865-6.104,1.865-7.461,1.187
			c-1.357-0.678-1.017-7.291-1.017-7.291L228.285,166.755z"/>
		<g>
			<path style="fill:#FFFFFF;stroke:#263238;stroke-linecap:round;stroke-linejoin:round;stroke-miterlimit:10;" d="
				M246.293,337.585l-0.464,5.341c0,0,1.858,7.431,6.502,14.862c4.644,7.431,10.914,9.521,10.682,10.914s-0.464,2.09-8.36,1.625
				c-7.895-0.464-16.023-1.858-16.952-3.483c-0.929-1.626-4.18-8.128-5.573-9.521c-1.393-1.393-1.393-1.393-1.393-1.393
				l-0.464,11.611l-3.251-0.697c0,0-0.697-8.128,0-13.004c0.697-4.876,1.626-6.502,3.483-9.521s1.858-3.019,1.858-3.019l0.929-5.805
				L246.293,337.585z"/>
			<path style="fill:#263238;stroke:#263238;stroke-linecap:round;stroke-linejoin:round;stroke-miterlimit:10;" d="
				M254.635,360.929l-5.788,3.361c0,0-6.27-3.251-9.985-7.431c-2.8-3.15-7.179-8.669-9.169-11.2
				c-1.333,2.27-2.087,4.073-2.674,8.181c-0.697,4.877,0,13.004,0,13.004l3.251,0.697l0.464-11.611c0,0,0,0,1.393,1.393
				c1.393,1.393,4.644,7.895,5.573,9.521c0.929,1.625,9.056,3.019,16.952,3.483c7.895,0.464,8.127-0.232,8.36-1.625
				C263.208,367.529,258.803,365.851,254.635,360.929z"/>
		</g>
		<path style="fill:#92E3A9;stroke:#263238;stroke-linecap:round;stroke-linejoin:round;stroke-miterlimit:10;" d="M195.67,232.19
			c0,0,30.42,3.948,44.817,9.985c14.397,6.038,36.042,8.38,35.81,14.186c-0.232,5.805-16.326,53.502-18.392,63.059
			c-2.831,13.095-5.11,25.626-5.11,25.626s-7.199,1.393-13.933-1.161c-6.734-2.554-9.056-3.483-9.056-3.483
			s2.385-33.112,4.05-41.554c3.961-20.087,12.718-29.715,12.718-29.715s-39.525,2.302-51.368,0.908
			c-11.843-1.393-16.952-4.412-17.416-7.895c-0.464-3.483-1.625-13.004,2.554-21.596C184.524,231.958,192.187,231.029,195.67,232.19
			z"/>
		<g>
			<path style="fill:#92E3A9;stroke:#263238;stroke-linecap:round;stroke-linejoin:round;stroke-miterlimit:10;" d="
				M239.154,241.641l-14.43-33.004c0,0,5.935-40.865,7.122-49.174c1.187-8.309-6.783-8.478-10.174-8.648s-27.13-0.339-27.13-0.339
				s-28.318-10.344-30.692-10.683c-2.374-0.339-8.648,1.526-8.648,1.526l-11.191-3.391l23.909-20.857l-6.783-11.869
				c0,0-42.9,28.657-44.087,31.2c-1.187,2.544,5.087,5.087,14.413,12.378s32.896,22.722,32.896,22.722l13.057,36.287
				c0,0-14.074,28.657-19.161,35.609c-5.087,6.952,0,15.091,8.648,25.435c8.648,10.344,13.226,9.496,13.226,9.496
				s0.848-2.035,1.865-5.935c1.017-3.9,22.552-64.774,22.552-69.352c0-4.578-12.548-49.004-12.548-49.004s12.378,0,16.787,1.357
				c4.409,1.357,5.596,3.561,5.596,3.561s-1.526,41.883-1.356,44.087c0.114,1.484,6.226,21.27,10.206,34.035
				C229.015,238.386,234.701,239.923,239.154,241.641z"/>
			<g>
				<path style="fill:none;stroke:#263238;stroke-linecap:round;stroke-linejoin:round;stroke-miterlimit:10;" d="M218.63,155.522
					c0,0,1.639,19.197-0.542,29.289c-2.181,10.092-3.797,16.543-3.797,16.543"/>
				<polyline style="fill:none;stroke:#263238;stroke-linecap:round;stroke-linejoin:round;stroke-miterlimit:10;" points="
					157.612,145.217 164.391,169.353 155.171,148.471 				"/>
				<path style="fill:#92E3A9;stroke:#263238;stroke-linecap:round;stroke-linejoin:round;stroke-miterlimit:10;" d="
					M144.01,137.928c0,0-10.535,3.492-11.349,3.763"/>
				<polyline style="fill:none;stroke:#263238;stroke-linecap:round;stroke-linejoin:round;stroke-miterlimit:10;" points="
					169.002,234.439 184.46,244.473 185.002,239.863 172.256,231.999 				"/>
				<path style="fill:none;stroke:#263238;stroke-linecap:round;stroke-linejoin:round;stroke-miterlimit:10;" d="M181.748,147.115
					c0,0,0,11.661,6.78,25.492c6.78,13.831,13.56,24.407,13.56,24.407"/>
			</g>
		</g>
		<path style="fill:#263238;stroke:#263238;stroke-linecap:round;stroke-linejoin:round;stroke-miterlimit:10;" d="M191.939,94.242
			c0,0-5.622-3.373-10.119,2.249c-4.497,5.622-2.474,11.693-2.923,16.415c-0.45,4.722-9.669,5.397-5.397,18.214
			s11.693,17.539,17.314,15.965c5.622-1.574,9.444,1.124,18.214,4.272c8.77,3.148,14.616,4.272,18.888,0.9
			c4.272-3.373,2.698-9.219,11.243-6.746c8.545,2.474,12.817,6.746,17.764,2.249c4.947-4.497,4.272-8.77,10.119-8.545
			c5.846,0.225,13.492,3.598,19.788,2.024c6.296-1.574,10.344-11.018,7.87-14.391c-2.474-3.373-4.272-4.272-4.272-2.923
			c0,1.349,2.698,2.698,0.225,4.272c-2.474,1.574-3.373,2.698-5.397-2.923c-2.024-5.621,0-13.492-9.669-20.912
			c-9.669-7.421-19.338-6.746-25.859-3.373c-6.521,3.373-16.415,2.923-24.51-5.846c-8.095-8.77-17.764-9.894-24.06-7.87
			C194.863,89.295,191.939,94.242,191.939,94.242z"/>
		<path style="fill:#FFFFFF;stroke:#263238;stroke-linecap:round;stroke-linejoin:round;stroke-miterlimit:10;" d="M212.905,137.02
			l-3.456,36.424l-0.665,4.387c0,0-4.254-6.514-5.45-8.906c-1.196-2.393-2.127-4.786-2.127-4.786l1.728-6.913l-9.704-6.514
			l-1.462-8.109c0,0,2.792,3.057,7.976,1.196C204.929,141.938,212.905,137.02,212.905,137.02z"/>
		<polygon style="fill:#263238;stroke:#263238;stroke-linecap:round;stroke-linejoin:round;stroke-miterlimit:10;" points="
			208.975,142.097 193.839,151.852 192.83,144.62 		"/>
		<g>
			<path style="fill:#FFFFFF;stroke:#263238;stroke-linecap:round;stroke-linejoin:round;stroke-miterlimit:10;" d="
				M187.618,107.728c0,0-1.555,9.2-2.203,12.827c-0.648,3.628-1.425,11.143-0.389,13.994c1.037,2.851,7.904,13.087,10.884,13.216
				c2.98,0.13,14.771-5.701,16.196-7.774c1.425-2.073,2.462-7.515,2.462-7.515s0.777,1.296,2.462-0.518
				c1.684-1.814,2.721-7.645,2.721-7.645s-4.924-2.721-10.107-8.552c-5.183-5.831-5.96-7.904-10.366-10.625
				C194.874,102.415,189.302,104.359,187.618,107.728z"/>
			
				<line style="fill:none;stroke:#263238;stroke-linecap:round;stroke-linejoin:round;stroke-miterlimit:10;" x1="188.286" y1="112.813" x2="194.405" y2="113.406"/>
			<path style="fill:none;stroke:#263238;stroke-linecap:round;stroke-linejoin:round;stroke-miterlimit:10;" d="M201.115,113.8
				c0,0,3.75-2.961,7.303,1.776"/>
			
				<circle style="fill:none;stroke:#263238;stroke-linecap:round;stroke-linejoin:round;stroke-miterlimit:10;" cx="190.209" cy="119.648" r="5.053"/>
			<path style="fill:none;stroke:#263238;stroke-linecap:round;stroke-linejoin:round;stroke-miterlimit:10;" d="M208.997,121.462
				c0-3.149-2.552-5.701-5.701-5.701c-3.149,0-5.701,2.552-5.701,5.701c0,3.149,2.553,5.701,5.701,5.701
				C206.445,127.163,208.997,124.611,208.997,121.462z"/>
			<path style="fill:#263238;" d="M191.635,118.806c0,0.895-0.464,1.62-1.037,1.62c-0.573,0-1.037-0.725-1.037-1.62
				s0.464-1.62,1.037-1.62C191.171,117.186,191.635,117.911,191.635,118.806z"/>
			<path style="fill:#263238;" d="M203.426,120.426c0,0.895-0.464,1.62-1.037,1.62c-0.573,0-1.037-0.725-1.037-1.62
				s0.464-1.62,1.037-1.62C202.962,118.806,203.426,119.531,203.426,120.426z"/>
			<path style="fill:none;stroke:#263238;stroke-linecap:round;stroke-linejoin:round;stroke-miterlimit:10;" d="M195.522,122.11
				c0,0-0.389,1.555-2.203,2.721c-1.814,1.166-4.276,1.425-3.628,2.462c0.648,1.036,2.851,2.073,4.146,1.814"/>
			<path style="fill:none;stroke:#263238;stroke-linecap:round;stroke-linejoin:round;stroke-miterlimit:10;" d="M195.263,119.648
				c0,0,1.036-1.425,2.203,0"/>
			
				<line style="fill:none;stroke:#263238;stroke-linecap:round;stroke-linejoin:round;stroke-miterlimit:10;" x1="208.997" y1="121.462" x2="219.752" y2="124.313"/>
			<path style="fill:none;stroke:#263238;stroke-linecap:round;stroke-linejoin:round;stroke-miterlimit:10;" d="M195.263,132.735
				c0,0,5.442,0.648,7.774-3.239"/>
		</g>
		<g>
			<path style="fill:#FFFFFF;stroke:#263238;stroke-linecap:round;stroke-linejoin:round;stroke-miterlimit:10;" d="
				M162.123,106.834c0,0,5.8-3.9,7.355-4.289c1.555-0.389,18.788-0.259,19.825-0.13c1.036,0.13,14.253,7.256,14.253,7.256
				s0.648,1.037-0.907,1.425c-1.555,0.389-2.98-0.259-5.96-0.907c-2.98-0.648-8.292-1.296-8.292-1.296s-2.98,0.518-3.369,2.721
				c-0.389,2.203,1.037,3.498,1.037,3.498l-0.518,2.591c0,0-1.814-0.518-4.665-2.332c-2.851-1.814-7.126-4.276-8.422-4.276
				s-6.397,2.6-6.397,2.6L162.123,106.834z"/>
			<path style="fill:#FFFFFF;stroke:#263238;stroke-linecap:round;stroke-linejoin:round;stroke-miterlimit:10;" d="
				M197.465,106.173c0,0,7.385,1.944,7.385,2.851s-1.425,1.166-4.794,1.166s-10.625-2.721-10.625-2.721l-4.535-0.389
				c0,0,2.203-2.462,4.665-2.591C192.023,104.359,197.465,106.173,197.465,106.173z"/>
			<path style="fill:#FFFFFF;stroke:#263238;stroke-linecap:round;stroke-linejoin:round;stroke-miterlimit:10;" d="
				M178.289,103.322c0,0,10.625-0.518,11.921-0.129c1.296,0.389,7.385,1.425,9.07,1.943c1.684,0.518,3.887-0.389,3.498,0.648
				c-0.389,1.037-2.721,1.425-4.535,1.555c-1.814,0.13-8.033-1.036-8.033-1.036s-4.794,1.555-9.329,2.462
				c-4.535,0.907-10.754-1.814-10.625-2.332"/>
		</g>
		<g>
			<polygon style="fill:#FFFFFF;stroke:#263238;stroke-linecap:round;stroke-linejoin:round;stroke-miterlimit:10;" points="
				209.448,173.443 215.528,157.564 211.336,153.825 			"/>
			<polygon style="fill:#FFFFFF;stroke:#263238;stroke-linecap:round;stroke-linejoin:round;stroke-miterlimit:10;" points="
				215.528,157.564 219.721,169.574 212.243,166.628 			"/>
		</g>
		<g>
			<polygon style="fill:#FFFFFF;stroke:#263238;stroke-linecap:round;stroke-linejoin:round;stroke-miterlimit:10;" points="
				204.399,156.832 204.538,170.707 198.533,164.022 			"/>
			<polygon style="fill:#FFFFFF;stroke:#263238;stroke-linecap:round;stroke-linejoin:round;stroke-miterlimit:10;" points="
				204.399,156.832 195.34,168.419 187.755,149.669 190.815,147.084 			"/>
		</g>
		<g>
			<path style="fill:#FFFFFF;stroke:#263238;stroke-linecap:round;stroke-linejoin:round;stroke-miterlimit:10;" d="
				M249.438,184.153c0,0,3.663-2.74,4.642-3.914c0.978-1.174,2.152-7.632,4.305-7.827s3.522,0.587,3.522,0.587
				s3.327-0.783,4.109-0.391c0.783,0.391,1.761,0.783,1.761,0.783s1.174-0.196,1.761,0c0.587,0.196,1.565,0.978,2.348,2.348
				c0.783,1.37,0.196,4.696,0.196,4.696s1.566-1.174,2.544-1.761c0.978-0.587,4.501,0,2.152,1.761
				c-2.348,1.761-4.305,3.327-6.066,5.088c-1.761,1.761-10.762,2.935-10.762,2.935l-7.773,4.109L249.438,184.153z"/>
			<path style="fill:#FFFFFF;stroke:#263238;stroke-linecap:round;stroke-linejoin:round;stroke-miterlimit:10;" d="
				M272.082,180.435c0,0-3.122,2.374-6.153,2.879"/>
			<path style="fill:#FFFFFF;stroke:#263238;stroke-linecap:round;stroke-linejoin:round;stroke-miterlimit:10;" d="M269.466,181.63
				c0,0,0.674-1.347,0.505-2.695"/>
		</g>
	</g>
</g>
<g id="Clouds_1">
	<path style="fill:#FFFFFF;stroke:#263238;stroke-linecap:round;stroke-linejoin:round;stroke-miterlimit:10;" d="M49.602,388.418
		c0,0,19.508-35.894,54.621-42.917c35.114-7.023,41.356,22.629,46.818,30.432c5.462,7.803,15.606-9.364,32.773-11.705
		s26.53,3.901,28.871,17.947c2.341,14.046,12.485,10.144,20.288,5.462c7.803-4.682,18.727-10.144,29.652,1.561
		c10.924,11.704,13.265,12.485,18.727,10.144c5.462-2.341,14.046-10.924,24.189-1.561c10.144,9.364,10.144,9.364,10.144,9.364H20.73
		c0,0-0.78-13.265,8.583-17.947C38.678,384.516,42.579,395.44,49.602,388.418z"/>
	<path style="fill:#FFFFFF;stroke:#263238;stroke-linecap:round;stroke-linejoin:round;stroke-miterlimit:10;" d="M354.693,357.754
		c0,0,9.289-17.092,26.01-20.436c16.721-3.344,19.693,10.775,22.294,14.491c2.601,3.716,7.431-4.459,15.606-5.573
		c8.174-1.115,12.633,1.858,13.748,8.546c1.115,6.688,5.945,4.83,9.661,2.601c3.716-2.229,8.918-4.83,14.12,0.743
		c5.202,5.574,6.317,5.945,8.918,4.83c2.601-1.115,6.688-5.202,11.519-0.743c4.83,4.459,4.83,4.459,4.83,4.459H340.945
		c0,0-0.372-6.317,4.087-8.546C349.491,355.896,351.349,361.098,354.693,357.754z"/>
</g>
</svg>
