<?xml version="1.0" encoding="utf-8"?>
<!-- Generator: Adobe Illustrator 27.5.0, SVG Export Plug-In . SVG Version: 6.00 Build 0)  -->
<svg version="1.1" id="Layer_1" xmlns="http://www.w3.org/2000/svg" xmlns:xlink="http://www.w3.org/1999/xlink" x="0px" y="0px"
	 viewBox="0 0 4981.146 4981.146" style="enable-background:new 0 0 4981.146 4981.146;" xml:space="preserve">
<rect x="0" style="fill:#FFFFFF;" width="4981.146" height="4981.146"/>
<g>
	<g>
		<path style="fill:#FFFFFF;stroke:#B5D4FF;stroke-width:12;stroke-linecap:round;stroke-linejoin:round;stroke-miterlimit:10;" d="
			M1799.432,1425.031H699.141c-51.815,0-93.819-42.004-93.819-93.819V457.005c0-51.815,42.004-93.819,93.819-93.819h1100.291
			c51.815,0,93.819,42.004,93.819,93.819v874.206C1893.25,1383.026,1851.246,1425.031,1799.432,1425.031z"/>
		<rect x="761.845" y="433.371" style="fill:#B5D4FF;" width="681.951" height="69.247"/>
		<g>
			
				<line style="fill:none;stroke:#B5D4FF;stroke-width:12;stroke-linecap:round;stroke-linejoin:round;stroke-miterlimit:10;" x1="694.747" y1="860.951" x2="1785.238" y2="860.951"/>
			<path style="fill:none;stroke:#B5D4FF;stroke-width:12;stroke-linecap:round;stroke-linejoin:round;stroke-miterlimit:10;" d="
				M694.747,945.515c111.768-316.736,212.421-343.471,276.446-289.959c66.347,55.454,116.252,240.383,179.687,267.925
				c63.436,27.542,99.685-129.449,148.017-112.923c48.332,16.525,77.893,195.55,162.474,195.55
				c84.581,0,132.695-328.766,232.711-326.785c47.78,0.946,85.162,106.948,85.162,106.948"/>
		</g>
		<rect x="761.845" y="1057.62" style="fill:#B5D4FF;" width="449.356" height="34.623"/>
		<rect x="761.845" y="542.063" style="fill:#B5D4FF;" width="449.356" height="34.623"/>
		<rect x="761.845" y="1132.642" style="fill:#B5D4FF;" width="352.133" height="34.623"/>
		<rect x="761.845" y="1207.664" style="fill:#B5D4FF;" width="381.025" height="34.623"/>
		<rect x="761.845" y="1282.686" style="fill:#B5D4FF;" width="146.22" height="34.623"/>
		<rect x="1352.798" y="1057.62" style="fill:#B5D4FF;" width="449.356" height="34.623"/>
		<rect x="1352.798" y="1132.642" style="fill:#B5D4FF;" width="352.133" height="34.623"/>
		<rect x="1352.798" y="1207.664" style="fill:#B5D4FF;" width="381.025" height="34.623"/>
		<rect x="1352.798" y="1282.686" style="fill:#B5D4FF;" width="190.512" height="34.623"/>
	</g>
	<g>
		<path style="fill:#FFFFFF;stroke:#B5D4FF;stroke-width:12;stroke-linecap:round;stroke-linejoin:round;stroke-miterlimit:10;" d="
			M1296.017,3248.914V936.958c0-76.147,61.729-137.875,137.875-137.875h3102.138c76.146,0,137.875,61.729,137.875,137.875v2311.956
			c0,76.146-61.729,137.875-137.875,137.875H1433.892C1357.746,3386.789,1296.017,3325.06,1296.017,3248.914z"/>
		<g>
			<g>
				
					<path style="fill:#FFFFFF;stroke:#B5D4FF;stroke-width:12;stroke-linecap:round;stroke-linejoin:round;stroke-miterlimit:10;" d="
					M2714.352,3245.085c0,0.428-0.115,0.77-0.115,1.285c0,10.104-3.679,20.637-8.853,30.572h-76.456
					c-70.133-55.148-168.664-99.164-248.34-133.245c-163.72-69.962-350.089-124.34-495.529-212.628
					c-46.104-27.917-90.943-62.426-103.819-104.815c-8.853-29.372-7.014-61.141-5.749-91.798c0.114-17.212,0.46-35.795,1.034-49.924
					c0.69-14.643,1.495-24.32,2.53-22.265c1.954,4.453,1.609,9.591,3.794,14.13c4.484,9.334,8.508,18.411,14.947,27.317
					c1.034,1.37,2.069,2.826,3.219,4.11c32.767,42.817,91.518,75.442,147.624,103.187
					c158.201,78.27,338.247,133.074,499.553,208.346C2569.948,3076.131,2686.299,3145.836,2714.352,3245.085z"/>
				
					<line style="fill:none;stroke:#B5D4FF;stroke-width:12;stroke-linecap:round;stroke-linejoin:round;stroke-miterlimit:10;" x1="1937.854" y1="2981.677" x2="2219.454" y2="2978.252"/>
				
					<line style="fill:none;stroke:#B5D4FF;stroke-width:12;stroke-linecap:round;stroke-linejoin:round;stroke-miterlimit:10;" x1="1862.816" y1="2837.179" x2="2073.602" y2="2873.833"/>
				
					<line style="fill:none;stroke:#B5D4FF;stroke-width:12;stroke-linecap:round;stroke-linejoin:round;stroke-miterlimit:10;" x1="1862.816" y1="2579.687" x2="2443.227" y2="2741.304"/>
				
					<line style="fill:none;stroke:#B5D4FF;stroke-width:12;stroke-linecap:round;stroke-linejoin:round;stroke-miterlimit:10;" x1="1970.707" y1="2476.964" x2="2706.959" y2="2576.263"/>
				
					<path style="fill:#FFFFFF;stroke:#B5D4FF;stroke-width:12;stroke-linecap:round;stroke-linejoin:round;stroke-miterlimit:10;" d="
					M2746.282,2039.73c-1.689-15.142-7.437-27.889-18.143-41.254c-32.456-40.79-85.987-74.551-135.347-105.607
					c-70.096-44.267-144.701-85.057-219.756-125.307c-153.605-82.353-313.857-159.762-460.136-248.296
					c-35.049-21.168-75.168-44.112-104.018-70.92c0,0-52.87,66.984-7.994,141.068c1.889,3.119,10.015,13.778,11.27,16.757
					c15.611,12.956,33.868,24.698,49.353,35.08c53.305,35.846,111.681,68.216,170.058,100.122
					c149.434,81.426,304.39,157.986,451.796,241.112c64.011,36.155,138.615,75.014,194.511,121.444
					c1.804-0.85,3.495-1.777,5.185-2.704c17.693-9.58,35.386-20.241,47.669-33.297c5.073-5.485,8.115-11.047,12.058-16.842
					c1.466-2.086,2.818-3.863,4.17-5.176C2746.734,2043.824,2746.508,2041.739,2746.282,2039.73z"/>
				<path style="fill:none;stroke:#B5D4FF;stroke-width:12;stroke-linecap:round;stroke-linejoin:round;stroke-miterlimit:10;" d="
					M1771.208,1896.921c4.697,0,450.244-135.594,450.244-135.594"/>
				
					<line style="fill:none;stroke:#B5D4FF;stroke-width:12;stroke-linecap:round;stroke-linejoin:round;stroke-miterlimit:10;" x1="1955.256" y1="1640.113" x2="2181.492" y2="1640.113"/>
				
					<line style="fill:none;stroke:#B5D4FF;stroke-width:12;stroke-linecap:round;stroke-linejoin:round;stroke-miterlimit:10;" x1="1816.863" y1="1527.117" x2="2383.288" y2="1564.098"/>
				<path style="fill:none;stroke:#B5D4FF;stroke-width:12;stroke-linecap:round;stroke-linejoin:round;stroke-miterlimit:10;" d="
					M1797.882,1377.142c9.99,2.739,857.129,78.069,857.129,78.069"/>
				
					<path style="fill:#FFFFFF;stroke:#B5D4FF;stroke-width:12;stroke-linecap:round;stroke-linejoin:round;stroke-miterlimit:10;" d="
					M2710.22,1326.593c0,0,87.126-47.293,40.667-119.448c-27.785-29.419-67.248-54.407-107.721-74.847v154.509
					C2667.171,1298.935,2689.934,1311.992,2710.22,1326.593z"/>
				<path style="fill:none;stroke:#B5D4FF;stroke-width:12;stroke-linecap:round;stroke-linejoin:round;stroke-miterlimit:10;" d="
					M1855.747,1278.68c3.533,0,848.1-49.235,848.1-49.235"/>
				
					<path style="fill:#FFFFFF;stroke:#B5D4FF;stroke-width:12;stroke-linecap:round;stroke-linejoin:round;stroke-miterlimit:10;" d="
					M2723.18,2451.883c-54.995-76.868-191.357-130.097-291.656-174.905c-142.222-63.581-290.191-121.058-430.384-186.724
					c-72.577-33.992-175.468-77.641-227.307-134.037c0,0-31.45,75.028-19.862,114.748c1.926,6.602,4.075,13.265,6.304,19.807
					c8.137,11.855,18.875,23.132,32.379,34.401c93.988,78.491,234.406,133.11,358.259,186.184
					c143.122,61.263,291.43,118.663,425.2,189.428c37.866,20.086,76.633,41.64,108.187,66.903
					c17.018-12.824,31.218-26.73,41.135-42.104c4.846-7.416,6.987-14.91,10.254-22.635c0.903-2.009,1.691-3.631,2.48-4.944
					c-0.113-2.009-0.225-4.017-0.451-5.948C2736.479,2477.686,2732.421,2464.939,2723.18,2451.883z"/>
				
					<path style="fill:#FFFFFF;stroke:#B5D4FF;stroke-width:12;stroke-linecap:round;stroke-linejoin:round;stroke-miterlimit:10;" d="
					M2738.169,2498.004c-0.789,1.313-1.578,2.936-2.48,4.944c-3.267,7.726-5.408,15.219-10.254,22.635
					c-9.917,15.374-24.117,29.28-41.135,42.104c-61.08,45.889-159.012,76.714-232.039,102.671
					c-141.884,50.524-288.838,94.946-423.736,154.2c-127.908,56.241-263.819,133.573-282.977,243.893
					c-8.114,46.739-3.606,95.332-3.156,142.148c0.161,13.51-0.613,26.3,1.974,39.061c11.292-57.179,30.82-97.929,30.82-97.929
					c39.556-56.01,111.23-102.826,182.116-138.981c125.543-64.199,269.004-110.242,408.633-157.908
					c110.218-37.623,239.366-74.937,323.663-138.672c28.963-22.017,45.642-45.503,48.121-75.169
					c0.225-2.781,0.451-5.485,0.563-8.266C2741.662,2588.392,2741.775,2542.194,2738.169,2498.004z"/>
				
					<path style="fill:#FFFFFF;stroke:#B5D4FF;stroke-width:12;stroke-linecap:round;stroke-linejoin:round;stroke-miterlimit:10;" d="
					M1957.606,3258.786v18.155h-202.121c-2.299-4.025-4.369-8.136-6.323-12.332c-2.3-5.052-3.794-10.02-4.829-14.986
					c11.382-57.118,30.812-97.879,30.812-97.879C1817.686,3198.586,1893.567,3234.894,1957.606,3258.786z"/>
				
					<path style="fill:#FFFFFF;stroke:#B5D4FF;stroke-width:12;stroke-linecap:round;stroke-linejoin:round;stroke-miterlimit:10;" d="
					M1873.344,1368.465c15.101-14.292,31.442-28.353,50.037-40.559c0,0-2.705-152.732,0-154.509
					c-53.192,34.765-98.303,76.819-125.337,123.312c-41.765,71.827-32.324,227.038-19.252,267.365
					c4.944,15.136,17.845,29.216,33.366,42.097c-1.255-2.979-6.614-8.314-8.428-11.454c-35.139-60.827,5.152-146.37,5.152-146.37
					C1825.223,1419.993,1847.198,1393.109,1873.344,1368.465z"/>
				
					<path style="fill:#FFFFFF;stroke:#B5D4FF;stroke-width:12;stroke-linecap:round;stroke-linejoin:round;stroke-miterlimit:10;" d="
					M2791.807,1280.038c-9.747-35.378-37.697-66.962-40.92-72.893c39.78,69.037-40.667,119.447-40.667,119.447
					c-119.908,69.761-249.283,133.187-384.066,187.497c-105.934,42.722-215.586,81.04-318.477,127.084
					c-89.255,39.941-180.426,87.761-229.448,154.355c-53.756,72.928-38.767,165.788-35.386,244.356
					c0.765,18.974,6.827,35.435,17.433,50.888c-2.229-6.542-4.378-13.205-6.304-19.807c-11.587-39.72,19.862-114.748,19.862-114.748
					c17.017-24.876,40.569-47.434,67.505-67.83c74.604-56.473,172.312-97.109,267.538-135.118
					c110.963-44.29,222.096-88.45,330.441-135.716c54.085-23.596,107.469-47.959,159.698-73.449
					c49.026-23.927,103.142-47.647,145.439-77.202C2818.096,1415.444,2810.087,1346.384,2791.807,1280.038z"/>
				
					<line style="fill:none;stroke:#B5D4FF;stroke-width:12;stroke-linecap:round;stroke-linejoin:round;stroke-miterlimit:10;" x1="1794.885" y1="2060.593" x2="2473.196" y2="1894.181"/>
				
					<line style="fill:none;stroke:#B5D4FF;stroke-width:12;stroke-linecap:round;stroke-linejoin:round;stroke-miterlimit:10;" x1="1995.681" y1="2153.043" x2="2626.041" y2="2184.545"/>
				
					<line style="fill:none;stroke:#B5D4FF;stroke-width:12;stroke-linecap:round;stroke-linejoin:round;stroke-miterlimit:10;" x1="2146.528" y1="2247.549" x2="2324.347" y2="2294.801"/>
				
					<line style="fill:none;stroke:#B5D4FF;stroke-width:12;stroke-linecap:round;stroke-linejoin:round;stroke-miterlimit:10;" x1="2278.394" y1="2358.49" x2="2533.135" y2="2391.361"/>
				
					<line style="fill:none;stroke:#B5D4FF;stroke-width:12;stroke-linecap:round;stroke-linejoin:round;stroke-miterlimit:10;" x1="1846.685" y1="3080.642" x2="2427.243" y2="3094.672"/>
				
					<line style="fill:none;stroke:#B5D4FF;stroke-width:12;stroke-linecap:round;stroke-linejoin:round;stroke-miterlimit:10;" x1="1797.882" y1="3221.343" x2="2626.041" y2="3245.109"/>
				
					<path style="fill:#FFFFFF;stroke:#B5D4FF;stroke-width:12;stroke-linecap:round;stroke-linejoin:round;stroke-miterlimit:10;" d="
					M2746.958,2045.91c-1.352,1.313-2.704,3.09-4.17,5.176c-3.943,5.794-6.986,11.356-12.058,16.842
					c-12.283,13.056-29.976,23.717-47.669,33.297c-1.69,0.927-3.381,1.854-5.185,2.704c-49.698,26.421-107.172,46.43-162.844,66.053
					c-150.448,53.229-305.405,101.512-444.697,168.183c-134.109,64.199-262.58,150.878-288.05,266.683
					c-2.619,12.004-3.341,0.171-4.133,12.292l-3.038,24.988c0,0-9.113,110.368-3.038,158.262
					c6.077,47.895,42.529,81.213,42.529,81.213s-6.075-14.577-18.226-58.307c-12.151-43.73,4.613-115.468,4.613-115.468
					c5.298-10.352,11.383-20.55,18.258-30.438c78.774-113.178,244.211-187.96,398.491-247.524
					c144.25-55.701,303.826-96.955,440.413-161.617c37.415-17.691,79.902-39.786,87.566-72.542
					c0.789-3.399,1.465-6.875,2.141-10.352C2755.862,2141.088,2751.805,2090.023,2746.958,2045.91z"/>
			</g>
			
				<path style="fill:#FFFFFF;stroke:#B5D4FF;stroke-width:12;stroke-linecap:round;stroke-linejoin:round;stroke-miterlimit:10;" d="
				M2264.513,1911.36c15.822-10.718,39.111,11.601,63.164,52.313c-20.481-103.259,11.684-113.029,23.759-107.745
				c13.733,6.008,26.349,78.537,19.381,108.059c0,0,13.521-81.207,45.212-86.912c30.466-5.486,2.681,101.633-0.473,155.921
				c60.176,36.813,113.533,62.289,113.533,62.289s3.685,7.048-21.408-49.877c-25.091-56.925,10.481-87.016,37.103-39.149
				c26.122,46.965,149.973,129.548,92.886,223.296c65.738,123.471,152.999,369.705,152.999,369.705s369.627-394.312,541.641-247.104
				c244.693,209.406-566.724,547.295-642.48,564.018c-75.312,16.626-159.82-359.257-172.166-681.664
				C2408.679,2145.322,2224.763,1938.287,2264.513,1911.36z"/>
			<path style="fill:#B5D4FF;" d="M2497.183,2335.853l184.309-69.45l116.195,297.833c0,0,359.269-301.84,503.511-297.833
				c144.242,4.007,173.612,356.598-221.043,519.538c-394.656,162.94-374.622,190.987-428.045,142.906
				C2598.687,2880.767,2497.183,2335.853,2497.183,2335.853z"/>
			<g>
				<g>
					<g>
						
							<path style="fill:#FFFFFF;stroke:#B5D4FF;stroke-width:12;stroke-linecap:round;stroke-linejoin:round;stroke-miterlimit:10;" d="
							M4372.669,1926.71c0,0-124.662-365.421-153.21-406.34c-28.549-40.92-148.452-91.92-148.452-91.92
							s-106.287-147.37-149.257-109.564s114.047,220.516,114.047,220.516s-6.515,117.398,110.461,180.982l12.297,217.745
							L4372.669,1926.71z"/>
						<path style="fill:#B5D4FF;" d="M3908.643,3244.596h-678.057c-5.125-54.536-134.456-442.499-117.475-527.096
							c26.694-132.937,34.77-342.58,87.624-406.831c52.854-64.327,617.646-325.153,780.643-87.427
							C4030.637,2294.989,3905.659,3195.49,3908.643,3244.596z"/>
						<path style="fill:#B5D4FF;" d="M3796.675,2239.214c-202.552,294.647,382.694,569.13,523.678,510.871
							S4001.051,1941.913,3796.675,2239.214z"/>
						<path style="fill:#B5D4FF;" d="M4332.922,1730.727l-199.153,146.649c0,0-53.193,860.758,101.21,880.584
							C4713.701,2819.428,4332.922,1730.727,4332.922,1730.727z"/>
						<g>
							<g>
								<g>
									<g>
										<path style="fill:#B5D4FF;" d="M3908.643,1757.937c0.026-23.782-32.359-37.239-33.842-60.975
											c-1.606-25.703,34.088-44.007,29.02-69.256c-4.964-24.728-42.563-27.108-54.769-49.178
											c-14.028-25.366,13.839-58.35,2.166-84.883c-13.198-30-62.625-24.154-80.753-51.458
											c-11.632-17.519-6.887-44.39-23.344-57.481c-17.645-14.037-45.14-0.729-65.648-10.097
											c-19.623-8.964-26.617-35.752-46.685-43.668c-30.241-11.928-66.437,27.087-93.736,9.435
											c-11.548-7.467-16.286-22.946-28.35-29.543c-16.099-8.802-35.839,2.541-48.746,15.582
											c-12.906,13.041-25.263,29.183-43.359,32.212c-26.646,4.462-51.887-22.14-78.157-15.833
											c-16.588,3.982-27.389,19.958-33.887,35.731c-6.499,15.772-10.606,32.987-21.287,46.288
											c-11.205,13.955-28.131,21.737-43.065,31.599c-14.935,9.862-29.275,24.244-29.794,42.133
											c-0.575,19.801,16.068,37.7,13.242,57.307c-4.657,32.333-57.066,43.443-56.356,76.102
											c0.506,23.209,29.495,39.383,27.361,62.5c-2.538,27.472-45.994,36.852-47.861,64.378
											c-1.351,19.911,20.428,33.775,25.458,53.088c3.84,14.743-2.628,29.911-6.569,44.628
											c-3.94,14.716-4.19,33.082,7.994,42.229c9.5,7.132,23.427,5.971,32.797,13.274c20.937,16.319,0.9,55.455,19.515,74.38
											c13.593,13.819,36.876,6.486,55.765,10.836c32.8,7.555,26.153,50.893,51.384,80.052
											c25.232,29.16,74.603-15.509,109.98-11.596c10.512,1.163,17.412,25.647,27.724,23.297
											c17.015-3.878,104.519,33.455,195.763-52.299c19.114-17.964,23.753-43.603,38.705-65.154
											c11.723-16.899,33.672-23.423,54.187-24.884c20.516-1.461,41.4,0.931,61.515-3.359
											c20.115-4.29,40.346-17.633,44.217-37.832c5.539-28.903-23.889-58.228-12.904-85.53
											C3866.743,1794.057,3908.613,1785.856,3908.643,1757.937z"/>
									</g>
								</g>
							</g>
							<g>
								<path style="fill:#B5D4FF;" d="M3545.494,2006.41c82.951-32.505,127.111-32.678,165.435-24.218
									c32.525,7.18,122.573,39.066,117.666,184.23c-4.908,145.165-49.679,197.245-49.679,197.245
									s-103.442-144.863-156.243-105.142c-52.802,39.721-143.689,173.544-143.689,173.544s-39.945-145.985-113.051-147.853
									c-73.106-1.868-135.346,87.606-135.346,87.606S3344.965,2084.989,3545.494,2006.41z"/>
								
									<path style="fill:#FFFFFF;stroke:#B5D4FF;stroke-width:12;stroke-linecap:round;stroke-linejoin:round;stroke-miterlimit:10;" d="
									M3646.045,1700.783l47.877,343.764l-213.696,362.632c0,0-52.729-150.058-52.729-195.407
									c0-45.349-8.503-257.922-8.503-257.922s121.875-11.337,164.39-36.846
									C3625.899,1891.494,3646.045,1700.783,3646.045,1700.783z"/>
							</g>
							<g>
								<g>
									<path style="fill:#FFFFFF;" d="M3640.193,1685.184c0,0,19.062,128.008-11.619,197.267
										c-25.985,58.659-108.812,122.626-143.845,126.667c-31.635,3.648-93.408-33.677-125.049-89.323
										c-32.023-56.318-49.725-105.714-48.371-191.259c-55.284-201.584,142.021-242.296,142.021-242.296
										S3628.574,1498.627,3640.193,1685.184z"/>
									
										<path style="fill:none;stroke:#B5D4FF;stroke-width:12;stroke-linecap:round;stroke-linejoin:round;stroke-miterlimit:10;" d="
										M3628.574,1882.451c-25.985,58.659-108.812,122.626-143.845,126.667c-31.635,3.648-93.408-33.677-125.049-89.323
										c-32.023-56.318-43.41-108.621-48.371-191.259"/>
									
										<path style="fill:none;stroke:#383838;stroke-width:12;stroke-linecap:round;stroke-linejoin:round;stroke-miterlimit:10;" d="
										M3581.939,1619.445c0,0-33.485-31.093-81.321-11.959"/>
								</g>
							</g>
							<path style="fill:#B5D4FF;" d="M3340.484,1532.303c7.766,8.962,9.156,46.499,16.77,55.438
								c13.931,16.354,43.763-10.922,59.039,3.973c8.259,8.052,6.74,24.559,16.316,30.709c12.037,7.729,27.275-8.876,40.916-5.206
								c17.355,4.67,17.552,36.734,35.033,40.854c12.997,3.063,28.633-11.938,38.518-2.444c4.93,4.735,4.798,12.921,6.567,19.803
								c9.096,31.277,46.223,31.324,72.441,25.193c15.591,72.732,17.617,92.575,47.625,83.391
								c9.736-2.849,21.464-15.304,30.65-19.853c32.32-15.325,41.068-24.461,68.279-11.513
								c23.901,6.572,55.405-28.093,60.308-52.486c-8.681-22.951-27.675-41.594-40.273-62.764
								c-24.216-28.981-32.208-52.057-9.654-76.742c43.421-58.76,6.408-68.228-39.38-74.155
								c-31.729-1.135-46.979-15.793-30.93-46.425c5.245-20.064-13.555-39.023-32.622-41.745
								c-35.395-7.017-74.513,33.327-72.42-12.516c-5.258-56.968-74.942-63.324-112.844-32.009
								c-7.331,5.047-15.156,11.027-23.737,10.08c-11.151-1.23-17.127-14.273-26.646-20.64
								C3398.886,1312.775,3256.674,1435.589,3340.484,1532.303z"/>
						</g>
						<g>
							<path style="fill:#B5D4FF;" d="M4085.176,1176.742c25.162-102.488,164.929-86.303,244.278,3.804
								C4263.217,1254.297,4121.731,1261.115,4085.176,1176.742z"/>
							<path style="fill:#B5D4FF;" d="M3938.969,1209.702c50.353-92.744-63.927-174.823-183.257-161.564
								C3755.08,1147.264,3855.153,1247.516,3938.969,1209.702z"/>
							<g>
								<path style="fill:#FFFFFF;" d="M3913.364,1349.267c0-20.204-16.379-36.584-36.584-36.584h204.141
									c-20.205,0-36.584,16.379-36.584,36.584v289.788h-130.974V1349.267z"/>
								<path style="fill:#B5D4FF;stroke:#B5D4FF;stroke-miterlimit:10;" d="M4044.338,1639.055v347.036
									c0,36.167-29.319,65.487-65.487,65.487s-65.487-29.319-65.487-65.487v-347.036H4044.338z"/>
							</g>
							
								<path style="fill:none;stroke:#B5D4FF;stroke-width:12;stroke-linecap:round;stroke-linejoin:round;stroke-miterlimit:10;" d="
								M3876.78,1312.683c20.205,0,36.584,16.379,36.584,36.584v636.824c0,36.167,29.319,65.487,65.487,65.487l0,0
								c36.167,0,65.487-29.319,65.487-65.487v-636.824c0-20.205,16.379-36.584,36.584-36.584H3876.78z"/>
							
								<path style="fill:none;stroke:#B5D4FF;stroke-width:12;stroke-linecap:round;stroke-linejoin:round;stroke-miterlimit:10;" d="
								M4251.571,1168.956c-293.895-68.716-285.391,248.311-285.825,456.281"/>
							
								<path style="fill:none;stroke:#B5D4FF;stroke-width:12;stroke-linecap:round;stroke-linejoin:round;stroke-miterlimit:10;" d="
								M3796.675,1072.548c135.932,64.898,162.795,190.012,162.795,190.012"/>
						</g>
						<g>
							<path style="fill:#FFFFFF;" d="M4218.508,1680.242c-115.955-6.902-75.021-159.101-75.021-159.101
								s-193.7-21.793-214.222-39.224c-24.363-20.693,1.585-33.626,1.585-33.626s-37.355,0-45.36-13.683
								c-6.813-11.645-5.408-29.18,43.901-47.362s140.558-51.303,168.684-49.493c28.126,1.81,147.65,89.517,150.219,133.212
								C4250.863,1514.66,4298.443,1685,4218.508,1680.242z"/>
							
								<path style="fill:none;stroke:#B5D4FF;stroke-width:12;stroke-linecap:round;stroke-linejoin:round;stroke-miterlimit:10;" d="
								M4159.041,1653.868c-39.056-45.345-15.554-132.728-15.554-132.728s-193.7-21.793-214.222-39.224
								c-24.363-20.693,1.585-33.626,1.585-33.626s-37.355,0-45.36-13.683c-6.813-11.645-5.408-29.18,43.901-47.362
								s140.558-51.303,168.684-49.493c28.126,1.81,147.65,89.517,150.219,133.212c1.813,30.837,26.044,124.747,12.053,175.676"/>
							
								<polyline style="fill:none;stroke:#B5D4FF;stroke-width:12;stroke-linecap:round;stroke-linejoin:round;stroke-miterlimit:10;" points="
								4104.313,1402.37 3930.85,1448.29 4143.487,1457.409 							"/>
							
								<line style="fill:none;stroke:#B5D4FF;stroke-width:12;stroke-linecap:round;stroke-linejoin:round;stroke-miterlimit:10;" x1="4073.329" y1="1362.402" x2="3930.85" y2="1448.29"/>
						</g>
					</g>
					<path style="fill:none;stroke:#383838;stroke-width:12;stroke-linecap:round;stroke-linejoin:round;stroke-miterlimit:10;" d="
						M3471.48,3345.878c0.523,5.414,1.053,10.828,1.587,16.242"/>
				</g>
			</g>
			<g>
				<g>
					<g>
						<path style="fill:#FFFFFF;stroke:#4187E8;stroke-miterlimit:10;" d="M2803.172,2434.037c0-16.563,13.427-29.99,29.99-29.99
							h-167.344c16.563,0,29.99,13.427,29.99,29.99v237.553h107.365V2434.037z"/>
						<path style="fill:#4187E8;" d="M2695.806,2671.591v284.483c0,29.648,24.034,53.683,53.683,53.683
							c29.648,0,53.683-24.035,53.683-53.683v-284.483H2695.806z"/>
					</g>
					<path style="fill:none;stroke:#4187E8;stroke-width:12;stroke-linecap:round;stroke-linejoin:round;stroke-miterlimit:10;" d="
						M2833.161,2404.048c-16.563,0-29.99,13.427-29.99,29.99v522.036c0,29.648-24.034,53.683-53.683,53.683l0,0
						c-29.648,0-53.683-24.035-53.683-53.683v-522.036c0-16.563-13.427-29.99-29.99-29.99H2833.161z"/>
				</g>
				<g>
					<g>
						<path style="fill:#FFFFFF;stroke:#4187E8;stroke-miterlimit:10;" d="M3014.543,2434.037c0-16.563,13.427-29.99,29.99-29.99
							h-167.344c16.563,0,29.99,13.427,29.99,29.99v237.553h107.365V2434.037z"/>
						<path style="fill:#4187E8;" d="M2907.177,2671.591v284.483c0,29.648,24.034,53.683,53.683,53.683
							c29.648,0,53.683-24.035,53.683-53.683v-284.483H2907.177z"/>
					</g>
					<path style="fill:none;stroke:#4187E8;stroke-width:12;stroke-linecap:round;stroke-linejoin:round;stroke-miterlimit:10;" d="
						M3044.532,2404.048c-16.563,0-29.99,13.427-29.99,29.99v522.036c0,29.648-24.034,53.683-53.683,53.683l0,0
						c-29.648,0-53.683-24.035-53.683-53.683v-522.036c0-16.563-13.427-29.99-29.99-29.99H3044.532z"/>
				</g>
				<g>
					<g>
						<path style="fill:#FFFFFF;stroke:#4187E8;stroke-miterlimit:10;" d="M3225.914,2434.037c0-16.563,13.427-29.99,29.99-29.99
							h-167.344c16.563,0,29.99,13.427,29.99,29.99v237.553h107.365V2434.037z"/>
						<path style="fill:#4187E8;" d="M3118.549,2671.591v284.483c0,29.648,24.034,53.683,53.683,53.683
							c29.648,0,53.683-24.035,53.683-53.683v-284.483H3118.549z"/>
					</g>
					<path style="fill:none;stroke:#4187E8;stroke-width:12;stroke-linecap:round;stroke-linejoin:round;stroke-miterlimit:10;" d="
						M3255.904,2404.048c-16.563,0-29.99,13.427-29.99,29.99v522.036c0,29.648-24.034,53.683-53.683,53.683l0,0
						c-29.648,0-53.683-24.035-53.683-53.683v-522.036c0-16.563-13.427-29.99-29.99-29.99H3255.904z"/>
				</g>
				<g>
					<rect x="2541.113" y="2489.722" style="fill:#4187E8;" width="73.376" height="638.375"/>
					<rect x="2482.412" y="2470.36" style="fill:#4187E8;" width="837.787" height="63.388"/>
					<path style="fill:#4187E8;" d="M2482.412,3186.798h837.787v-45.769c0-35.509-28.786-64.295-64.295-64.295h-709.197
						c-35.509,0-64.295,28.786-64.295,64.295V3186.798z"/>
				</g>
			</g>
			
				<rect x="2146.528" y="3167.411" style="fill:#FFFFFF;stroke:#B5D4FF;stroke-width:12;stroke-linecap:round;stroke-linejoin:round;stroke-miterlimit:10;" width="2374.401" height="109.531"/>
			
				<path style="fill:#FFFFFF;stroke:#B5D4FF;stroke-width:12;stroke-linecap:round;stroke-linejoin:round;stroke-miterlimit:10;" d="
				M2621.227,2154.702c-37.321-52.502-92.138-59.418-92.138-59.418"/>
		</g>
		<path style="fill:none;stroke:#B5D4FF;stroke-width:12;stroke-linecap:round;stroke-linejoin:round;stroke-miterlimit:10;" d="
			M2327.676,1920.547c12.549,63.629,39.547,122.498,39.547,122.498s-11.062-51.888,3.594-122.185"/>
		
			<line style="fill:none;stroke:#B5D4FF;stroke-width:12;stroke-linecap:round;stroke-linejoin:round;stroke-miterlimit:10;" x1="1296.017" y1="988.918" x2="4673.906" y2="988.918"/>
		
			<ellipse transform="matrix(0.1602 -0.9871 0.9871 0.1602 329.7559 2200.7292)" style="fill:none;stroke:#B5D4FF;stroke-width:12;stroke-linecap:round;stroke-linejoin:round;stroke-miterlimit:10;" cx="1458.202" cy="906.574" rx="39.353" ry="39.353"/>
		
			<ellipse transform="matrix(0.7071 -0.7071 0.7071 0.7071 -167.4862 1408.8003)" style="fill:none;stroke:#B5D4FF;stroke-width:12;stroke-linecap:round;stroke-linejoin:round;stroke-miterlimit:10;" cx="1616.829" cy="906.574" rx="39.353" ry="39.353"/>
		
			<ellipse transform="matrix(0.1602 -0.9871 0.9871 0.1602 596.1923 2513.8879)" style="fill:none;stroke:#B5D4FF;stroke-width:12;stroke-linecap:round;stroke-linejoin:round;stroke-miterlimit:10;" cx="1775.457" cy="906.574" rx="39.353" ry="39.353"/>
		<g>
			
				<rect x="4311.363" y="848.68" style="fill:#FFFFFF;stroke:#B5D4FF;stroke-width:12;stroke-linecap:round;stroke-linejoin:round;stroke-miterlimit:10;" width="90.856" height="68.047"/>
			
				<rect x="4281.814" y="871.49" style="fill:#FFFFFF;stroke:#B5D4FF;stroke-width:12;stroke-linecap:round;stroke-linejoin:round;stroke-miterlimit:10;" width="90.856" height="68.046"/>
			<g>
				
					<line style="fill:none;stroke:#B5D4FF;stroke-width:12;stroke-linecap:round;stroke-linejoin:round;stroke-miterlimit:10;" x1="4458.471" y1="856.43" x2="4533.829" y2="931.787"/>
				
					<line style="fill:none;stroke:#B5D4FF;stroke-width:12;stroke-linecap:round;stroke-linejoin:round;stroke-miterlimit:10;" x1="4533.829" y1="856.43" x2="4458.471" y2="931.787"/>
			</g>
			
				<line style="fill:none;stroke:#B5D4FF;stroke-width:12;stroke-linecap:round;stroke-linejoin:round;stroke-miterlimit:10;" x1="4204.982" y1="916.727" x2="4143.487" y2="916.727"/>
		</g>
	</g>
	<g>
		<path style="fill:#FFFFFF;stroke:#B5D4FF;stroke-width:12;stroke-linecap:round;stroke-linejoin:round;stroke-miterlimit:10;" d="
			M1462.138,1196.142H302.472c-55.533,0-100.55,45.018-100.55,100.55v745.839c0,55.532,45.018,100.55,100.55,100.55h1159.666
			c55.532,0,100.55-45.018,100.55-100.55v-745.839C1562.689,1241.16,1517.671,1196.142,1462.138,1196.142z"/>
		<rect x="307.959" y="1703.222" style="fill:#B5D4FF;" width="244.233" height="332.589"/>
		<rect x="606.366" y="1385.293" style="fill:#B5D4FF;" width="244.233" height="650.518"/>
		<rect x="904.773" y="1569.357" style="fill:#B5D4FF;" width="244.233" height="466.454"/>
		<rect x="1203.18" y="1265.372" style="fill:#B5D4FF;" width="244.233" height="770.438"/>
		
			<polyline style="fill:none;stroke:#FFFFFF;stroke-width:12;stroke-linecap:round;stroke-linejoin:round;stroke-miterlimit:10;" points="
			1339.898,1338.046 1401.865,1338.046 978.423,1737.39 787.932,1497.554 356.457,1948.537 		"/>
		
			<line style="fill:none;stroke:#FFFFFF;stroke-width:12;stroke-linecap:round;stroke-linejoin:round;stroke-miterlimit:10;" x1="1401.865" y1="1397.718" x2="1401.865" y2="1338.046"/>
	</g>
	
		<line style="fill:none;stroke:#B5D4FF;stroke-width:12;stroke-linecap:round;stroke-linejoin:round;stroke-miterlimit:10;" x1="4670.314" y1="3276.941" x2="2349.247" y2="3276.941"/>
	<g>
		
			<rect x="1071.714" y="3642.041" transform="matrix(6.123234e-17 -1 1 6.123234e-17 -2804.4963 5287.7017)" style="fill:#B5D4FF;stroke:#383838;stroke-width:12;stroke-linecap:round;stroke-linejoin:round;stroke-miterlimit:10;" width="339.778" height="808.117"/>
		<path style="fill:#B5D4FF;" d="M846.604,3694.155h1391.555l-229.038-886.511c-46.501-179.988-208.862-305.732-394.76-305.732
			H781.857c-123.188,0-213.239,116.274-182.424,235.545L846.604,3694.155z"/>
		<g>
			
				<path style="fill:#FFFFFF;stroke:#383838;stroke-width:12;stroke-linecap:round;stroke-linejoin:round;stroke-miterlimit:10;" d="
				M2800.29,4737.578c0-198.354,0-1481.908,0-1481.908h-159.449c0,0,0,1283.553,0,1481.908H2800.29z"/>
			
				<path style="fill:#B5D4FF;stroke:#383838;stroke-width:12;stroke-linecap:round;stroke-linejoin:round;stroke-miterlimit:10;" d="
				M2720.566,4737.578c0-198.354,0-1481.908,0-1481.908h-79.724c0,0,0,1283.553,0,1481.908H2720.566z"/>
			
				<rect x="1249.286" y="3813.742" transform="matrix(-1 -1.224647e-16 1.224647e-16 -1 3969.8518 8029.73)" style="fill:#FFFFFF;stroke:#383838;stroke-width:12;stroke-linecap:round;stroke-linejoin:round;stroke-miterlimit:10;" width="1471.28" height="402.246"/>
			<g>
				
					<path style="fill:#B5D4FF;stroke:#383838;stroke-width:12;stroke-linecap:round;stroke-linejoin:round;stroke-miterlimit:10;" d="
					M2175.825,3305.691h636.813c26.927,0,48.756-21.829,48.756-48.756l0,0c0-26.927-21.829-48.756-48.756-48.756h-636.813
					c-26.927,0-48.756,21.829-48.756,48.756l0,0C2127.069,3283.863,2148.898,3305.691,2175.825,3305.691z"/>
			</g>
			<path style="fill:#B5D4FF;" d="M2738.685,3864.476c-607.455,79.233-1315.454,57.981-1551.004,39.862
				c-235.55-18.119-445.732-17.759-445.732-17.759l32.615-351.873c0,0,263.563-9.119,561.695,10.871
				c198.473,13.308,432.772,58.846,539.953,57.981c449.356-3.624,637.796-166.697,818.988-97.844
				C2853.005,3565.682,2988.73,3831.861,2738.685,3864.476z"/>
			
				<path style="fill:#FFFFFF;stroke:#383838;stroke-width:12;stroke-linecap:round;stroke-linejoin:round;stroke-miterlimit:10;" d="
				M2735.027,3305.691h77.612c26.927,0,48.756-21.829,48.756-48.756l0,0c0-26.927-21.829-48.756-48.756-48.756h-77.612
				c-26.927,0-48.756,21.829-48.756,48.756l0,0C2686.271,3283.863,2708.099,3305.691,2735.027,3305.691z"/>
		</g>
		<g>
			
				<polygon style="fill:#FFFFFF;stroke:#383838;stroke-width:12;stroke-linecap:round;stroke-linejoin:round;stroke-miterlimit:10;" points="
				2800.422,4434.493 2923.136,4642.011 3229.425,4556.21 3099.726,4480.386 2999.958,4289.829 			"/>
			<g>
				<g>
					<polygon style="fill:#4187E8;" points="3081.714,3994.982 2423.045,3709.013 2507.052,3600.015 2776.125,3656.673 					"/>
					<g>
						<g>
							<g>
								<path style="fill:#FFFFFF;" d="M3095.669,4001.041c-4.298,8.576-16.228,32.862-20.934,42.253l-683.445-296.726
									c4.427-8.834,16.35-33.104,20.934-42.253L3095.669,4001.041z"/>
							</g>
							
								<line style="fill:none;stroke:#383838;stroke-width:12;stroke-linecap:round;stroke-linejoin:round;stroke-miterlimit:10;" x1="3095.669" y1="4001.041" x2="2412.224" y2="3704.315"/>
							
								<line style="fill:none;stroke:#383838;stroke-width:12;stroke-linecap:round;stroke-linejoin:round;stroke-miterlimit:10;" x1="3074.735" y1="4049.878" x2="2391.29" y2="3742.237"/>
						</g>
					</g>
				</g>
				<path style="fill:#A9B5C4;stroke:#383838;stroke-width:12;stroke-miterlimit:10;" d="M1531.304,3397.226
					c30.963,5.938,653.4-866.932,944.434-805.065c223.808,47.576,314.343,1054.614,314.343,1054.614l-326.751,79.191l-87.821-499.01
					l-400.717,561.758L1531.304,3397.226z"/>
			</g>
			<path style="fill:#878787;stroke:#383838;stroke-width:12;stroke-linecap:round;stroke-miterlimit:10;" d="M1747.919,3496.405
				c-179.092-8.068-289.952,55.281-289.952,55.281"/>
			<path style="fill:none;stroke:#383838;stroke-width:12;stroke-linecap:round;stroke-miterlimit:10;" d="M2304.04,2939.629
				c0,0,72.313,286.105,71.469,287.326"/>
			<path style="fill:#A9B5C4;stroke:#383838;stroke-width:12;stroke-miterlimit:10;" d="M1073.046,3366.29
				c-69.375,412.574,53.755,628.692,424.376,560.33c220.02-40.583,740.178-146.46,740.178-146.46l582.377,842.545l310.774-188.732
				c0,0-481.683-1092.329-736.774-1097.822s-728.592,143.918-728.592,143.918l-96.243-218.852L1073.046,3366.29z"/>
			<path style="fill:#4187E8;" d="M3563.32,4688.388l-687.889,2.056l15.779-89.338c92.563-11.472,256.531-100.153,256.531-100.153
				L3563.32,4688.388z"/>
			<g>
				<g>
					<g>
						<path style="fill:#FFFFFF;" d="M3578.534,4688.344c-0.499,9.58-1.694,36.611-2.24,47.101l-714.9,2.133
							c0.514-9.869,1.708-36.882,2.24-47.102L3578.534,4688.344z"/>
					</g>
					
						<line style="fill:none;stroke:#383838;stroke-width:12;stroke-linecap:round;stroke-linejoin:round;stroke-miterlimit:10;" x1="3578.534" y1="4688.344" x2="2863.635" y2="4690.477"/>
					
						<line style="fill:none;stroke:#383838;stroke-width:12;stroke-linecap:round;stroke-linejoin:round;stroke-miterlimit:10;" x1="3578.534" y1="4736.512" x2="2863.635" y2="4738.644"/>
				</g>
			</g>
		</g>
		<g>
			<g>
				<path style="fill:#4187E8;" d="M1805.002,2413.907c-136.168-137.32-732.705-129.366-858.615,185.29
					c16.544,197.67,115.162,753.275,115.162,753.275l531.61-36.644C1593.158,3315.829,1948.629,2558.75,1805.002,2413.907z"/>
				
					<path style="fill:#FFFFFF;stroke:#383838;stroke-width:12;stroke-linecap:round;stroke-linejoin:round;stroke-miterlimit:10;" d="
					M1786.045,2504.796c-75.186,8.656-94.343,167.269-26.703,306.265c83.444,171.469,189.027,266.165,337.947,238.845l25.326-25.019
					C2122.615,3024.887,1964.724,2484.226,1786.045,2504.796z"/>
				<path style="fill:#4187E8;" d="M1635.991,2489.685c47.573-119.079,200.651-211.75,370.779,188.846
					c-56.711,149.845-224.892,258.512-224.892,258.512S1577.145,2636.984,1635.991,2489.685z"/>
				<path style="fill:none;stroke:#383838;stroke-width:12;stroke-linecap:round;stroke-linejoin:round;stroke-miterlimit:10;" d="
					M1839.182,2607.534c12.366,114.286-105.955,367.634-105.955,367.634"/>
				<path style="fill:none;stroke:#383838;stroke-width:12;stroke-linecap:round;stroke-linejoin:round;stroke-miterlimit:10;" d="
					M2006.77,2678.531c-88.993,185.99-224.892,258.512-224.892,258.512"/>
				
					<path style="fill:#FFFFFF;stroke:#383838;stroke-width:12;stroke-linecap:round;stroke-linejoin:round;stroke-miterlimit:10;" d="
					M1440.664,2340.022c-264.99-31.761-256.534,214.021-7.512,254.979C1714.114,2641.211,1661.231,2366.458,1440.664,2340.022z"/>
				
					<line style="fill:none;stroke:#383838;stroke-width:12;stroke-linecap:round;stroke-linejoin:round;stroke-miterlimit:10;" x1="1061.549" y1="3352.472" x2="1593.158" y2="3315.829"/>
			</g>
			<g>
				
					<path style="fill:#FFFFFF;stroke:#383838;stroke-width:12;stroke-linecap:round;stroke-linejoin:round;stroke-miterlimit:10;" d="
					M1106.666,2612.697c90.499,69.481,54.431,321.417-84.583,481.781c172.495,48.777,388.809,195.508,388.809,195.508
					c152.907,19.175,263.83,11.881,298.436,98.63c9.47,23.738,9.704,48.748,6.268,70.79h-223.656
					c-1.318-18.372-2.481-34.572-2.481-34.572s-80.829,26.375-135.313-15.235c-197.453-30.901-357.086-33.823-515.854-113.208
					C638.867,3196.68,898.976,2453.243,1106.666,2612.697z"/>
				<path style="fill:#4187E8;" d="M1074.092,2506.991c126.098-23.288,295.451,94.136,47.379,451.74
					c-156.995,31.971-347.935-89.693-347.935-89.693S918.11,2535.798,1074.092,2506.991z"/>
				<path style="fill:none;stroke:#383838;stroke-width:12;stroke-linecap:round;stroke-linejoin:round;stroke-miterlimit:10;" d="
					M1648.324,3396.023c13.993,24.694,11.524,63.382,11.524,63.382"/>
				<path style="fill:none;stroke:#383838;stroke-width:12;stroke-linecap:round;stroke-linejoin:round;stroke-miterlimit:10;" d="
					M1596.466,3406.313c13.993,24.694,8.374,53.091,8.374,53.091"/>
				<path style="fill:none;stroke:#383838;stroke-width:12;stroke-linecap:round;stroke-linejoin:round;stroke-miterlimit:10;" d="
					M1544.28,3411.663c11.853,21.196,7.408,47.742,7.408,47.742"/>
				<path style="fill:none;stroke:#383838;stroke-width:12;stroke-linecap:round;stroke-linejoin:round;stroke-miterlimit:10;" d="
					M1212.913,2755.107c-13.891,121.587-91.443,203.625-91.443,203.625s-152.306,33.279-347.935-89.693"/>
			</g>
			<g>
				
					<path style="fill:#FFFFFF;stroke:#383838;stroke-width:12;stroke-linecap:round;stroke-linejoin:round;stroke-miterlimit:10;" d="
					M1248.744,3451.93l445.115,3.558l222.903-489.177c8.327-18.273,26.604-29.958,46.684-29.844l694.603,3.915
					c17.779,0.1,28.575,19.642,19.196,34.746l-293.269,472.289c-14.899,23.993-41.162,38.558-69.404,38.49l-975.525-2.35
					L1248.744,3451.93z"/>
				
					<line style="fill:#B5D4FF;stroke:#383838;stroke-width:12;stroke-linecap:round;stroke-linejoin:round;stroke-miterlimit:10;" x1="2182.043" y1="3457.635" x2="1772.813" y2="3455.835"/>
			</g>
		</g>
		<g>
			
				<path style="fill:#FFFFFF;stroke:#383838;stroke-width:12;stroke-linecap:round;stroke-linejoin:round;stroke-miterlimit:10;" d="
				M1249.286,4737.578c0-198.355,0-1481.908,0-1481.908h-159.449c0,0,0,1283.553,0,1481.908H1249.286z"/>
			
				<rect x="694.838" y="3255.67" transform="matrix(-1 -1.224647e-16 1.224647e-16 -1 1549.1254 7451.0688)" style="fill:#FFFFFF;stroke:#383838;stroke-width:12;stroke-linecap:round;stroke-linejoin:round;stroke-miterlimit:10;" width="159.449" height="939.728"/>
			
				<path style="fill:#B5D4FF;stroke:#383838;stroke-width:12;stroke-linecap:round;stroke-linejoin:round;stroke-miterlimit:10;" d="
				M1089.837,4366.587c0,174.221,0,315.331,0,370.991h79.725c0-198.355,0-1481.908,0-1481.908h-79.725
				C1089.837,3255.67,1089.837,3919.94,1089.837,4366.587"/>
			
				<rect x="694.838" y="3255.67" transform="matrix(-1 -1.224647e-16 1.224647e-16 -1 1469.401 7502.9424)" style="fill:#B5D4FF;stroke:#383838;stroke-width:12;stroke-linecap:round;stroke-linejoin:round;stroke-miterlimit:10;" width="79.725" height="991.602"/>
			<g>
				<g>
					
						<path style="fill:#B5D4FF;stroke:#383838;stroke-width:12;stroke-linecap:round;stroke-linejoin:round;stroke-miterlimit:10;" d="
						M694.838,3305.691h557.487c26.927,0,48.756-21.829,48.756-48.756l0,0c0-26.927-21.829-48.756-48.756-48.756H694.838V3305.691z"
						/>
				</g>
				
					<path style="fill:#FFFFFF;stroke:#383838;stroke-width:12;stroke-linecap:round;stroke-linejoin:round;stroke-miterlimit:10;" d="
					M1174.714,3305.691h77.612c26.927,0,48.756-21.829,48.756-48.756l0,0c0-26.927-21.829-48.756-48.756-48.756h-77.612
					c-26.927,0-48.756,21.829-48.756,48.756l0,0C1125.958,3283.863,1147.786,3305.691,1174.714,3305.691z"/>
			</g>
			
				<path style="fill:#B5D4FF;stroke:#383838;stroke-width:12;stroke-linecap:round;stroke-linejoin:round;stroke-miterlimit:10;" d="
				M566.599,4737.578c37.564-64.504,523.19-898.413,523.19-898.413v-355.201c0,0-607.919,1073.137-710.157,1253.614H566.599z"/>
			
				<path style="fill:#B5D4FF;stroke:#383838;stroke-width:12;stroke-linecap:round;stroke-linejoin:round;stroke-miterlimit:10;" d="
				M566.599,4737.578c37.564-64.504,523.19-898.413,523.19-898.413v-73.771c0,0-485.312,843.87-558.008,972.184H566.599z"/>
		</g>
		<g>
			<path style="fill:#383838;" d="M1278.763,1962.576c-61.924,86.116-79.419,124.264-27.464,194.497
				c51.954,70.233,142.016,185.69,184.163,203.417C1477.61,2378.218,1278.763,1962.576,1278.763,1962.576z"/>
			<g>
				<path style="fill:#FFFFFF;" d="M1557.375,2269.829l4.775,245.405c-1.824,74.71-280.51,30.9-280.73-46.521l69.812-327.082
					C1351.23,2141.63,1538.453,2064.534,1557.375,2269.829z"/>
				<path style="fill:none;stroke:#383838;stroke-width:12;stroke-linecap:round;stroke-linejoin:round;stroke-miterlimit:10;" d="
					M1281.419,2468.712l69.812-327.082c0,0,187.222-77.096,206.144,128.199l2.286,156.354"/>
			</g>
			<path style="fill:#FFFFFF;" d="M1351.254,1854.42c-322.758,137.293,86.353,541.045,209.851,493.335
				c113.58-43.878,92.329-184.893,42.239-309.267C1552.419,1912.041,1493.401,1793.954,1351.254,1854.42z"/>
			<path style="fill:none;stroke:#383838;stroke-width:12;stroke-linecap:round;stroke-linejoin:round;stroke-miterlimit:10;" d="
				M1561.105,2347.755c113.58-43.878,92.329-184.893,42.239-309.267c-50.924-126.446-109.943-244.533-252.09-184.068"/>
			<g>
				<path style="fill:#383838;" d="M1555.843,1935.922c-34.049-60.255-69.416-51.643-87.033-26.845
					c-17.618,24.798-42.534,75.134-186.356,130.568c0,0,60.38,134.619,49.559,161.46c-10.821,26.841-49.663,23.278-102.526-20.603
					c-158.661-131.7-60.376-229.803,24.651-294.061c21.257-16.065,104.454-48.383,81.496-82.214
					C1421.5,1739.519,1604.019,1824.221,1555.843,1935.922z"/>
			</g>
			<g>
				<path style="fill:#FFFFFF;" d="M1383.442,2237.066c17.609-71.635-107.999-110.895-113.399-52.217
					S1366.967,2304.09,1383.442,2237.066z"/>
				<path style="fill:none;stroke:#383838;stroke-width:12;stroke-linecap:round;stroke-linejoin:round;stroke-miterlimit:10;" d="
					M1335.265,2162.05c-29.847-11.383-62.525-6.505-65.222,22.799c-4.624,50.251,69.755,101.885,101.562,73.583"/>
			</g>
			<path style="fill:#383838;" d="M1568.746,2148.031c-54.008,12.504-84.221,60.241-73.549,98.077
				c-43.04,19.436-134.59-69.526-134.59-69.526s23.774,71.946,22.349,95.105c-1.425,23.159,171.42,131.314,262.111,92.653
				c71.288-30.39-7.474-212.623-7.474-212.623s-0.891,26.876-14.357,30.149C1624.679,2157.162,1595.639,2141.805,1568.746,2148.031z
				"/>
			<path style="fill:none;stroke:#383838;stroke-width:12;stroke-linecap:round;stroke-linejoin:round;stroke-miterlimit:10;" d="
				M1495.433,2062.021c15.937,37.466,5.814,77.639-22.61,89.73c-28.424,12.091-64.386-8.48-80.323-45.946
				c-15.937-37.466,5.674-50.634,34.098-62.724C1455.022,2030.99,1479.496,2024.555,1495.433,2062.021z"/>
			<path style="fill:none;stroke:#383838;stroke-width:12;stroke-linecap:round;stroke-linejoin:round;stroke-miterlimit:10;" d="
				M1633.99,2003.082c15.937,37.466,5.814,77.639-22.61,89.73c-28.424,12.091-64.386-8.479-80.323-45.945
				c-15.937-37.466,5.673-50.634,34.097-62.724C1593.579,1972.052,1618.053,1965.616,1633.99,2003.082z"/>
			
				<line style="fill:none;stroke:#383838;stroke-width:12;stroke-linecap:round;stroke-linejoin:round;stroke-miterlimit:10;" x1="1297.239" y1="2157.127" x2="1389.529" y2="2098.962"/>
			
				<line style="fill:none;stroke:#383838;stroke-width:12;stroke-linecap:round;stroke-linejoin:round;stroke-miterlimit:10;" x1="1474.752" y1="2031.652" x2="1523.524" y2="2010.905"/>
		</g>
	</g>
</g>
</svg>
