<?xml version="1.0" encoding="utf-8"?>
<!-- Generator: Adobe Illustrator 27.5.0, SVG Export Plug-In . SVG Version: 6.00 Build 0)  -->
<svg version="1.1" id="Layer_1" xmlns="http://www.w3.org/2000/svg" xmlns:xlink="http://www.w3.org/1999/xlink" x="0px" y="0px"
	 viewBox="0 0 4981.146 4981.146" style="enable-background:new 0 0 4981.146 4981.146;" xml:space="preserve">
<rect x="0" style="fill:#FFFFFF;" width="4981.146" height="4981.146"/>
<g>
	<path style="fill:#FFFFFF;stroke:#B5D4FF;stroke-width:12;stroke-linecap:round;stroke-linejoin:round;stroke-miterlimit:10;" d="
		M2775.992,3922.914H430.046c-80.487,0-145.735-65.248-145.735-145.735V2712.552c0-80.487,65.248-145.735,145.735-145.735h2345.946
		c80.487,0,145.735,65.248,145.735,145.735v1064.628C2921.727,3857.667,2856.479,3922.914,2775.992,3922.914z"/>
	<g>
		
			<line style="fill:none;stroke:#B5D4FF;stroke-width:12;stroke-linecap:round;stroke-linejoin:round;stroke-miterlimit:10;" x1="723.88" y1="2566.817" x2="723.88" y2="3922.914"/>
		
			<line style="fill:none;stroke:#B5D4FF;stroke-width:12;stroke-linecap:round;stroke-linejoin:round;stroke-miterlimit:10;" x1="1163.449" y1="2566.817" x2="1163.449" y2="3922.914"/>
		
			<line style="fill:none;stroke:#B5D4FF;stroke-width:12;stroke-linecap:round;stroke-linejoin:round;stroke-miterlimit:10;" x1="1603.019" y1="2566.817" x2="1603.019" y2="3922.914"/>
		
			<line style="fill:none;stroke:#B5D4FF;stroke-width:12;stroke-linecap:round;stroke-linejoin:round;stroke-miterlimit:10;" x1="2042.588" y1="2566.817" x2="2042.588" y2="3922.914"/>
		
			<line style="fill:none;stroke:#B5D4FF;stroke-width:12;stroke-linecap:round;stroke-linejoin:round;stroke-miterlimit:10;" x1="2482.157" y1="2566.817" x2="2482.157" y2="3922.914"/>
	</g>
	<g>
		
			<line style="fill:none;stroke:#B5D4FF;stroke-width:12;stroke-linecap:round;stroke-linejoin:round;stroke-miterlimit:10;" x1="284.311" y1="3583.89" x2="2921.727" y2="3583.89"/>
		
			<line style="fill:none;stroke:#B5D4FF;stroke-width:12;stroke-linecap:round;stroke-linejoin:round;stroke-miterlimit:10;" x1="284.311" y1="3244.866" x2="2921.727" y2="3244.866"/>
		
			<line style="fill:none;stroke:#B5D4FF;stroke-width:12;stroke-linecap:round;stroke-linejoin:round;stroke-miterlimit:10;" x1="284.311" y1="2905.841" x2="2921.727" y2="2905.841"/>
	</g>
</g>
<g>
	<g>
		<g>
			<g>
				
					<path style="fill:#FFFFFF;stroke:#B5D4FF;stroke-width:12;stroke-linecap:round;stroke-linejoin:round;stroke-miterlimit:10;" d="
					M1908.381,1326.551H632.952c-64.472,0-116.737-52.265-116.737-116.737V292.336c0-64.472,52.265-116.737,116.737-116.737
					h1275.429c64.472,0,116.737,52.265,116.737,116.737v917.478C2025.117,1274.286,1972.853,1326.551,1908.381,1326.551z"/>
			</g>
		</g>
		
			<polyline style="fill:none;stroke:#B5D4FF;stroke-width:12;stroke-linecap:round;stroke-linejoin:round;stroke-miterlimit:10;" points="
			616.689,1099.475 964.035,805.055 1385.835,851.542 1808.077,439.354 		"/>
		
			<circle style="fill:#FFFFFF;stroke:#B5D4FF;stroke-width:12;stroke-linecap:round;stroke-linejoin:round;stroke-miterlimit:10;" cx="964.035" cy="805.055" r="39.974"/>
		
			<ellipse transform="matrix(0.8548 -0.5189 0.5189 0.8548 -480.1184 482.7326)" style="fill:#FFFFFF;stroke:#B5D4FF;stroke-width:12;stroke-linecap:round;stroke-linejoin:round;stroke-miterlimit:10;" cx="622.722" cy="1099.475" rx="39.975" ry="39.975"/>
		
			<ellipse transform="matrix(0.3827 -0.9239 0.9239 0.3827 76.7066 1804.8578)" style="fill:#FFFFFF;stroke:#B5D4FF;stroke-width:12;stroke-linecap:round;stroke-linejoin:round;stroke-miterlimit:10;" cx="1388.934" cy="845.029" rx="39.975" ry="39.975"/>
		
			<ellipse transform="matrix(0.2898 -0.9571 0.9571 0.2898 863.6233 2042.532)" style="fill:#FFFFFF;stroke:#B5D4FF;stroke-width:12;stroke-linecap:round;stroke-linejoin:round;stroke-miterlimit:10;" cx="1808.077" cy="439.354" rx="39.974" ry="39.975"/>
		
			<polyline style="fill:none;stroke:#B5D4FF;stroke-width:12;stroke-linecap:round;stroke-linejoin:round;stroke-miterlimit:10;" points="
			604.416,845.029 1004.009,640.799 1406.062,1009.599 1925.089,640.799 		"/>
		
			<ellipse transform="matrix(0.9871 -0.1602 0.1602 0.9871 -127.5537 107.7277)" style="fill:#FFFFFF;stroke:#B5D4FF;stroke-width:12;stroke-linecap:round;stroke-linejoin:round;stroke-miterlimit:10;" cx="604.415" cy="845.029" rx="39.974" ry="39.975"/>
		
			<circle style="fill:#FFFFFF;stroke:#B5D4FF;stroke-width:12;stroke-linecap:round;stroke-linejoin:round;stroke-miterlimit:10;" cx="1004.009" cy="640.799" r="39.975"/>
		
			<circle style="fill:#FFFFFF;stroke:#B5D4FF;stroke-width:12;stroke-linecap:round;stroke-linejoin:round;stroke-miterlimit:10;" cx="1407.081" cy="1009.599" r="39.975"/>
		
			<circle style="fill:#FFFFFF;stroke:#B5D4FF;stroke-width:12;stroke-linecap:round;stroke-linejoin:round;stroke-miterlimit:10;" cx="1925.089" cy="640.799" r="39.975"/>
	</g>
	<g>
		<path style="fill:#FFFFFF;stroke:#B5D4FF;stroke-width:12;stroke-linecap:round;stroke-linejoin:round;stroke-miterlimit:10;" d="
			M1034.275,3254.876V1980.4c0-71.582,58.029-129.611,129.611-129.611h3228.742c71.582,0,129.61,58.029,129.61,129.611v1274.477
			c0,71.582-58.028,129.611-129.61,129.611H1163.886C1092.304,3384.487,1034.275,3326.458,1034.275,3254.876z"/>
		<path style="fill:#B5D4FF;" d="M1143.922,3078.723c282.138-316.545,416.326-333.749,791.363-89.458
			s569.925-495.719,1056.297-361.274c423.207,116.984,543.632,264.935,894.584,48.17
			c317.344-196.006,526.428-220.205,526.428-220.205v773.088c0,25.295-20.506,45.8-45.8,45.8H1189.722
			c-25.295,0-45.8-20.505-45.8-45.8V3078.723z"/>
		
			<line style="fill:none;stroke:#B5D4FF;stroke-width:12;stroke-linecap:round;stroke-linejoin:round;stroke-miterlimit:10;" x1="1384.651" y1="2221.987" x2="4412.594" y2="2221.987"/>
		
			<line style="fill:none;stroke:#FFFFFF;stroke-width:12;stroke-linecap:round;stroke-linejoin:round;stroke-miterlimit:10;" x1="1756.368" y1="2221.987" x2="1756.368" y2="3274.843"/>
		
			<line style="fill:none;stroke:#FFFFFF;stroke-width:12;stroke-linecap:round;stroke-linejoin:round;stroke-miterlimit:10;" x1="2454.831" y1="2221.987" x2="2454.831" y2="3274.843"/>
		
			<polyline style="fill:none;stroke:#FFFFFF;stroke-width:12;stroke-linecap:round;stroke-linejoin:round;stroke-miterlimit:10;" points="
			3153.295,2677.984 3153.295,3274.843 3153.295,2221.987 		"/>
		
			<line style="fill:none;stroke:#FFFFFF;stroke-width:12;stroke-linecap:round;stroke-linejoin:round;stroke-miterlimit:10;" x1="3851.759" y1="2251.182" x2="3851.759" y2="3274.843"/>
		<polygon style="fill:#B5D4FF;" points="4029.824,2411.777 4091.439,2513.612 4188.892,2385.125 		"/>
		<path style="fill:none;stroke:#B5D4FF;stroke-width:12;stroke-linecap:round;stroke-linejoin:round;stroke-miterlimit:10;" d="
			M1143.922,2947.249c254.612-258.053,326.867-282.138,467.936-271.816c141.069,10.322,333.749,189.966,502.343,148.677
			c168.595-41.288,519.547-354.393,763.837-333.749s478.258,220.205,712.226,172.035c233.968-48.17,533.31-237.409,533.31-237.409"
			/>
	</g>
	<g>
		<path style="fill:#FFFFFF;" d="M4272.066,1373.358H2965.909c-17.377,0-31.463-14.086-31.463-31.463V450.451
			c0-17.376,14.086-31.463,31.463-31.463h1306.158c17.376,0,31.463,14.086,31.463,31.463v891.444
			C4303.529,1359.271,4289.443,1373.358,4272.066,1373.358z"/>
		<g>
			<g style="opacity:0.46;">
				
					<path style="fill:#B5D4FF;stroke:#B5D4FF;stroke-width:12;stroke-linecap:round;stroke-linejoin:round;stroke-miterlimit:10;" d="
					M3997.913,965.734c-7.145,77.91-77.142,135.477-156.343,128.58c-12.164-1.059-23.835-3.583-34.856-7.37l-65.615,183.552
					c26.152,8.985,53.846,14.974,82.71,17.488c187.935,16.366,354.031-120.233,370.985-305.104
					c9.097-99.198-26.611-192.124-90.68-259.489l-144.416,132.987C3986.698,884.768,4001.747,923.929,3997.913,965.734z"/>
				
					<path style="fill:#FFFFFF;stroke:#B5D4FF;stroke-width:12;stroke-linecap:round;stroke-linejoin:round;stroke-miterlimit:10;" d="
					M3711.378,969.167l-196.497,21.858c14.402,128.32,103.17,237.196,226.217,279.471l65.615-183.552
					C3754.858,1069.128,3717.448,1023.245,3711.378,969.167z"/>
				
					<path style="fill:#B5D4FF;stroke:#B5D4FF;stroke-width:12;stroke-linecap:round;stroke-linejoin:round;stroke-miterlimit:10;" d="
					M3711.378,969.167c-1.039-9.263-1.162-18.766-0.278-28.411c7.145-77.91,77.142-135.477,156.343-128.579
					c36.704,3.196,68.936,19.682,92.255,44.201l144.416-132.987c-55.334-58.18-131.817-97.299-218.91-104.883
					c-187.935-16.367-354.03,120.233-370.984,305.104c-2.098,22.884-1.806,45.433,0.661,67.414L3711.378,969.167z"/>
			</g>
			<path style="fill:none;stroke:#B5D4FF;stroke-width:12;stroke-linecap:round;stroke-linejoin:round;stroke-miterlimit:10;" d="
				M4272.066,1373.358H2965.909c-17.377,0-31.463-14.086-31.463-31.463V450.451c0-17.376,14.086-31.463,31.463-31.463h1306.158
				c17.376,0,31.463,14.086,31.463,31.463v891.444C4303.529,1359.271,4289.443,1373.358,4272.066,1373.358z"/>
			
				<path style="fill:#B5D4FF;stroke:#B5D4FF;stroke-width:12;stroke-linecap:round;stroke-linejoin:round;stroke-miterlimit:10;" d="
				M2934.446,514.868c0-40.3,0-64.417,0-64.417c0-17.376,14.086-31.463,31.463-31.463h1306.158
				c17.376,0,31.463,14.086,31.463,31.463c0,0,0,24.117,0,64.417L2934.446,514.868z"/>
			
				<line style="fill:#B5D4FF;stroke:#B5D4FF;stroke-width:12;stroke-linecap:round;stroke-linejoin:round;stroke-miterlimit:10;" x1="3018.578" y1="669.069" x2="3414.108" y2="669.069"/>
			
				<line style="fill:#B5D4FF;stroke:#B5D4FF;stroke-width:12;stroke-linecap:round;stroke-linejoin:round;stroke-miterlimit:10;" x1="3018.578" y1="852.562" x2="3375.37" y2="852.562"/>
			
				<line style="fill:#B5D4FF;stroke:#B5D4FF;stroke-width:12;stroke-linecap:round;stroke-linejoin:round;stroke-miterlimit:10;" x1="3018.578" y1="925.959" x2="3332.555" y2="925.959"/>
			
				<line style="fill:#B5D4FF;stroke:#B5D4FF;stroke-width:12;stroke-linecap:round;stroke-linejoin:round;stroke-miterlimit:10;" x1="3018.578" y1="999.357" x2="3414.108" y2="999.357"/>
			
				<line style="fill:#B5D4FF;stroke:#B5D4FF;stroke-width:12;stroke-linecap:round;stroke-linejoin:round;stroke-miterlimit:10;" x1="3018.578" y1="1072.754" x2="3230.615" y2="1072.754"/>
			
				<line style="fill:#B5D4FF;stroke:#B5D4FF;stroke-width:12;stroke-linecap:round;stroke-linejoin:round;stroke-miterlimit:10;" x1="3018.578" y1="1146.151" x2="3442.651" y2="1146.151"/>
			
				<line style="fill:#B5D4FF;stroke:#B5D4FF;stroke-width:12;stroke-linecap:round;stroke-linejoin:round;stroke-miterlimit:10;" x1="3018.578" y1="1219.549" x2="3375.37" y2="1219.549"/>
			
				<circle style="fill:#B5D4FF;stroke:#FFFFFF;stroke-width:12;stroke-linecap:round;stroke-linejoin:round;stroke-miterlimit:10;" cx="2995.112" cy="468.989" r="21.368"/>
			
				<circle style="fill:#B5D4FF;stroke:#FFFFFF;stroke-width:12;stroke-linecap:round;stroke-linejoin:round;stroke-miterlimit:10;" cx="3068.798" cy="468.989" r="21.368"/>
			
				<circle style="fill:#B5D4FF;stroke:#FFFFFF;stroke-width:12;stroke-linecap:round;stroke-linejoin:round;stroke-miterlimit:10;" cx="3142.484" cy="468.989" r="21.368"/>
			
				<line style="fill:#B5D4FF;stroke:#FFFFFF;stroke-width:12;stroke-linecap:round;stroke-linejoin:round;stroke-miterlimit:10;" x1="4230.843" y1="450.474" x2="4265.869" y2="485.5"/>
			
				<line style="fill:#B5D4FF;stroke:#FFFFFF;stroke-width:12;stroke-linecap:round;stroke-linejoin:round;stroke-miterlimit:10;" x1="4265.869" y1="450.474" x2="4230.843" y2="485.5"/>
		</g>
	</g>
	<g>
		<g>
			<path style="fill:#FFFFFF;" d="M3414.491,2702.344H982.562c-32.353,0-58.581-26.228-58.581-58.581V983.99
				c0-32.353,26.228-58.581,58.581-58.581h2431.928c32.353,0,58.581,26.228,58.581,58.581v1659.774
				C3473.072,2676.117,3446.844,2702.344,3414.491,2702.344z"/>
			<g>
				<path style="fill:none;stroke:#B5D4FF;stroke-width:12;stroke-linecap:round;stroke-linejoin:round;stroke-miterlimit:10;" d="
					M3414.491,2702.344H982.562c-32.353,0-58.581-26.228-58.581-58.581V983.99c0-32.353,26.228-58.581,58.581-58.581h2431.928
					c32.353,0,58.581,26.228,58.581,58.581v1659.774C3473.072,2676.117,3446.844,2702.344,3414.491,2702.344z"/>
				
					<path style="fill:#B5D4FF;stroke:#B5D4FF;stroke-width:12;stroke-linecap:round;stroke-linejoin:round;stroke-miterlimit:10;" d="
					M923.981,1103.927c0-75.035,0-119.938,0-119.938c0-32.353,26.228-58.581,58.581-58.581h2431.928
					c32.353,0,58.581,26.228,58.581,58.581c0,0,0,44.903,0,119.938H923.981z"/>
				
					<line style="fill:#B5D4FF;stroke:#B5D4FF;stroke-width:12;stroke-linecap:round;stroke-linejoin:round;stroke-miterlimit:10;" x1="1080.627" y1="1391.033" x2="1817.062" y2="1391.033"/>
				
					<line style="fill:#B5D4FF;stroke:#B5D4FF;stroke-width:12;stroke-linecap:round;stroke-linejoin:round;stroke-miterlimit:10;" x1="1080.627" y1="1732.678" x2="1997.519" y2="1732.678"/>
				
					<line style="fill:#B5D4FF;stroke:#B5D4FF;stroke-width:12;stroke-linecap:round;stroke-linejoin:round;stroke-miterlimit:10;" x1="1080.627" y1="1869.336" x2="1817.062" y2="1869.336"/>
				
					<line style="fill:#B5D4FF;stroke:#B5D4FF;stroke-width:12;stroke-linecap:round;stroke-linejoin:round;stroke-miterlimit:10;" x1="1080.627" y1="2005.994" x2="1953.053" y2="2005.994"/>
				
					<line style="fill:#B5D4FF;stroke:#B5D4FF;stroke-width:12;stroke-linecap:round;stroke-linejoin:round;stroke-miterlimit:10;" x1="1080.627" y1="2142.652" x2="1475.417" y2="2142.652"/>
				
					<line style="fill:#B5D4FF;stroke:#B5D4FF;stroke-width:12;stroke-linecap:round;stroke-linejoin:round;stroke-miterlimit:10;" x1="1080.627" y1="2279.31" x2="1763.68" y2="2279.31"/>
				
					<line style="fill:#B5D4FF;stroke:#B5D4FF;stroke-width:12;stroke-linecap:round;stroke-linejoin:round;stroke-miterlimit:10;" x1="1080.627" y1="2415.968" x2="1933.996" y2="2415.968"/>
				
					<line style="fill:#B5D4FF;stroke:#FFFFFF;stroke-width:12;stroke-linecap:round;stroke-linejoin:round;stroke-miterlimit:10;" x1="3337.737" y1="984.032" x2="3402.952" y2="1049.247"/>
				
					<line style="fill:#B5D4FF;stroke:#FFFFFF;stroke-width:12;stroke-linecap:round;stroke-linejoin:round;stroke-miterlimit:10;" x1="3402.952" y1="984.032" x2="3337.737" y2="1049.247"/>
			</g>
		</g>
		<rect x="2198.527" y="2199.903" style="fill:#B5D4FF;" width="204.753" height="352.82"/>
		<rect x="2499.464" y="1322.57" style="fill:#B5D4FF;" width="204.753" height="1230.152"/>
		<rect x="2800.402" y="1800.198" style="fill:#B5D4FF;" width="204.753" height="752.524"/>
		<rect x="3101.34" y="1506.797" style="fill:#B5D4FF;" width="204.753" height="1045.926"/>
	</g>
	<g>
		<path style="fill:#4187E8;stroke:#383838;stroke-width:12;stroke-linecap:round;stroke-linejoin:round;stroke-miterlimit:10;" d="
			M1813.721,1942.197c150.47-54.554,308.06,26.515,308.06,26.515s-3.727,330.457,70.011,432.977
			c26.948,37.467-136.824,78.9-308.909,113.006C1710.798,2548.8,1813.721,1942.197,1813.721,1942.197z"/>
		<g>
			<g>
				
					<path style="fill:#FFFFFF;stroke:#383838;stroke-width:12;stroke-linecap:round;stroke-linejoin:round;stroke-miterlimit:10;" d="
					M2902.786,1462.7c-4.306-1.961-8.901-2.241-13.178-1.256c4.346-6.786,4.521-15.785-0.287-22.877
					c-3.471-5.119-8.833-8.12-14.519-8.866c0.87-2.182,1.494-4.491,1.554-6.983c0.28-11.467-8.785-20.989-20.247-21.28
					c0.312-0.495,0.681-0.933,0.955-1.461c5.285-10.19,1.31-22.733-8.879-28.019c-7.563-3.921-33.425-18.67-40.989-22.595
					c-1.908-0.99-3.904-1.552-5.915-1.912c0.455-12.009-9.378-22.24-21.966-21.537c-10.38,0.58-18.59,9.068-19.463,19.428
					l-11.436,135.617c-0.506,6.002,1.529,11.759,5.266,16.011c-12.376,31.67-37.511,14.43-37.511,14.43
					c-22.262,12.374-25.275,39.328-17.904,62.712c3.729,11.83,9.255,26.674,13.81,38.466
					c-36.677,32.26-107.492,113.835-166.383,165.632l21.547,209.363c91.087-118.894,247.359-322.873,247.359-322.873
					c0.415-0.519,0.707-1.056,1.108-1.577c10.951-6.367,20.618-17.853,30.364-34.638l57.478-117.058
					c0.2-0.699,0.145-1.395,0.273-2.098c3.896-7.905,7.642-15.525,9.272-19.108
					C2917.848,1479.776,2913.233,1467.454,2902.786,1462.7z M2797.671,1391.498c4.236,2.347,9.07,5.05,13.805,7.694
					c-0.723-0.028-1.583-0.066-2.138-0.08c-4.735-0.114-9.088,1.426-12.647,4.008
					C2797.025,1399.161,2797.353,1395.276,2797.671,1391.498z"/>
				<g>
					<path style="fill:none;stroke:#383838;stroke-width:12;stroke-linecap:round;stroke-linejoin:round;stroke-miterlimit:10;" d="
						M2796.127,1403.442c-4.778,3.695-7.913,9.432-8.071,15.941c-0.28,11.474,8.796,21.002,20.27,21.282
						c8.519,0.208,38.229,2.115,46.747,2.323"/>
				</g>
				<g>
					<path style="fill:none;stroke:#383838;stroke-width:12;stroke-linecap:round;stroke-linejoin:round;stroke-miterlimit:10;" d="
						M2860.457,1433.025c-7.053,4.781-32.341,20.493-39.395,25.274c-9.5,6.44-11.982,19.363-5.542,28.863
						c6.44,9.5,19.363,11.982,28.863,5.542"/>
				</g>
				<g>
					<path style="fill:none;stroke:#383838;stroke-width:12;stroke-linecap:round;stroke-linejoin:round;stroke-miterlimit:10;" d="
						M2875.263,1473.008c-3.529,7.756-16.928,34.341-20.458,42.097c-4.754,10.447-0.139,22.769,10.308,27.523
						s22.769,0.139,27.523-10.308"/>
				</g>
				<g>
					<g>
						<path style="fill:#383838;" d="M2788.45,987.45c47.802,3.712,81.119,76.695,74.415,163.012
							c-6.703,86.317-50.889,153.281-98.691,149.568c-47.802-3.712-81.119-76.695-74.416-163.012
							C2696.463,1050.702,2740.648,983.737,2788.45,987.45z M2719.754,1139.347c-6.703,86.317,26.613,159.3,74.415,163.012
							c47.802,3.712,91.987-63.252,98.69-149.568c6.704-86.316-26.613-159.299-74.415-163.012
							C2770.643,986.067,2726.457,1053.031,2719.754,1139.347"/>
						
							<path style="fill:none;stroke:#383838;stroke-width:12;stroke-linecap:round;stroke-linejoin:round;stroke-miterlimit:10;" d="
							M2794.169,1302.359c47.802,3.712,91.987-63.252,98.69-149.568c6.704-86.316-26.613-159.299-74.415-163.012"/>
						
							<path style="fill:none;stroke:#383838;stroke-width:12;stroke-linecap:round;stroke-linejoin:round;stroke-miterlimit:10;" d="
							M2732.522,1144.192c0.082-1.274,0.173-2.552,0.272-3.832c4.035-51.958,21.651-96.904,45.462-123.643"/>
						
							<path style="fill:none;stroke:#383838;stroke-width:12;stroke-linecap:round;stroke-linejoin:round;stroke-miterlimit:10;" d="
							M2689.518,1136.999c-6.703,86.317,26.614,159.299,74.415,163.012c47.802,3.713,91.987-63.252,98.691-149.568
							c6.703-86.317-26.614-159.299-74.416-163.012C2740.406,983.719,2696.221,1050.683,2689.518,1136.999"/>
					</g>
					<path style="fill:#383838;" d="M2758.724,1297.686c-7.687,98.982-20.953,261.888-20.953,261.888
						c-0.911,11.733,7.861,21.982,19.594,22.894l0,0c11.732,0.911,21.982-7.861,22.893-19.594c0,0,12.6-162.716,20.287-261.698
						L2758.724,1297.686z"/>
				</g>
				<path style="fill:#FFFFFF;" d="M2720.129,1409.479c0,0-12.593,75.847-18.538,111.19c-5.945,35.342,29.571,34.253,43.099,6.556
					c12.28-25.14,14.292-66.687,6.905-97.156C2745.962,1406.839,2721.717,1400.043,2720.129,1409.479z"/>
				<path style="fill:none;stroke:#383838;stroke-width:12;stroke-linecap:round;stroke-linejoin:round;stroke-miterlimit:10;" d="
					M2744.69,1527.225c12.28-25.14,14.292-66.687,6.905-97.156c-5.633-23.231-29.878-30.027-31.466-20.591
					c0,0-12.593,75.847-18.538,111.19l-6.448,23.831"/>
			</g>
			<polygon style="fill:#FFFFFF;" points="2702.12,1615.117 2603.281,1702.563 2690.174,1817.405 2808.486,1728.521 			"/>
			<path style="fill:#4187E8;" d="M2219.543,1413.576c80.686,139.941,241.454,399.139,241.454,399.139
				c84.383-71.993,169.513-144.624,218.798-186.673l89.243,155.054c-92.469,119.161-252.685,302.313-252.685,302.313
				c-7.201,9.194-16.245,17.817-26.495,24.645c-51.679,34.424-121.48,20.435-155.904-31.244c0,0-113.558-170.482-219.071-328.885
				c0,0-17.563-170.655-31.955-310.5L2219.543,1413.576z"/>
		</g>
		<g>
			<g>
				<g>
					<g>
						<g>
							<path style="fill:#383838;" d="M934.614,4399.45c-79.194,79.949-85.652,101.618-162.026,198.371
								c-75.641,95.825,106.973,309.736,176.631,148.048c92.89-215.613,46.009-157.302,102.314-259.795
								C1107.839,4383.58,1045.158,4287.851,934.614,4399.45z"/>
							
								<path style="fill:#FFFFFF;stroke:#383838;stroke-width:12;stroke-linecap:round;stroke-linejoin:round;stroke-miterlimit:10;" d="
								M1812.001,2691.933l-351.805-103.615L969.704,4363.311c-13.439,12.65-28.183,28.046-44.32,46.546
								c-64.931,74.434-153.046,188.014-152.796,187.963c-15.579,46.35,6.129,86.577,37.077,128.688
								c17.531,23.854,49.181,10.059,49.181,10.059s-12.169,33.75,5.212,48.271c19.124,15.976,43.51,12.414,57.972-11.918
								c10.486-17.644,46.667-111.087,87.232-200.203L1812.001,2691.933z"/>
						</g>
					</g>
					<path style="fill:#383838;" d="M960.418,4710.718c-19.405-75.214-173.558-137.881-183.615-127.542
						c2.895-8.257,31.531-44.969,31.531-44.969s49.255-7.481,141.376,51.879c92.121,59.361,34.633,73.554,34.633,73.554
						L960.418,4710.718z"/>
				</g>
			</g>
			<g>
				<g>
					
						<path style="fill:#FFFFFF;stroke:#383838;stroke-width:12;stroke-linecap:round;stroke-linejoin:round;stroke-miterlimit:10;" d="
						M2046.959,4460.624c0,0,0-0.002,0-0.002l99.328-1273.808l-63.359-563.399l-233.636-35.096
						c-21.34,370.918,57.945,1847.607,57.945,1847.607l-19.272,87.499l24.453,269.348l228.325-2.313
						c0,0-60.13-165.974-80.603-223.85C2051.137,4541.158,2047.835,4499.413,2046.959,4460.624z"/>
					<g>
						<path style="fill:#383838;" d="M1907.349,4792.772c-2.514-39.092,37.516-87.793,145.992-87.793
							c80.219,0,92.07,71.703,92.947,86.867L1907.349,4792.772z"/>
						<path style="fill:#FFFFFF;" d="M1959.137,4792.539c-32.502-36.57-11.426-61.025,15.506-61.759
							c28.718-0.782,47.863,23.062,47.863,23.062s36.626-20.716,93.229-11.726c39.621,6.293,32.344,37.556,23.928,48.344
							L1959.137,4792.539z"/>
						<g>
							<g>
								<rect x="1903.041" y="4783.919" style="fill:#383838;" width="247.654" height="38.028"/>
							</g>
						</g>
					</g>
				</g>
			</g>
			<path style="fill:#383838;" d="M1934.887,4746.122l-46.922-222.697c0,0-26.083,23.491,2.21,149.261
				c8.831,39.255,12.866,149.261,12.866,149.261L1934.887,4746.122z"/>
			<path style="fill:#383838;" d="M2184.383,3205.68c15.053-700.049-127.817-1008.323-127.817-1008.323l-5.488-83.985
				l-453.736-12.385v98.466c0,0-175.509,319.982-362.261,1006.222L2184.383,3205.68z"/>
			
				<line style="fill:none;stroke:#383838;stroke-width:12;stroke-linecap:round;stroke-linejoin:round;stroke-miterlimit:10;" x1="2056.566" y1="2197.356" x2="1640.764" y2="2197.356"/>
		</g>
		<path style="fill:#A9B5C4;stroke:#383838;stroke-width:12;stroke-linecap:round;stroke-linejoin:round;stroke-miterlimit:10;" d="
			M2202.686,1571.809c37.993-184.227-60.716-266.271-228.018-284.786s-267.741,14.749-346.457,112.244
			s-47.625,615.682-47.625,615.682s-50.411,290.675-44.386,414.946l611.629-33.936l-64.899-305.73
			C2082.929,2090.228,2180.746,1678.199,2202.686,1571.809z"/>
		<path style="fill:#4187E8;" d="M1878.155,1291.044c-116.715,36.422-194.435,415.827-188.236,671.532
			c6.169,254.453-105.848,636.257-105.848,636.257s-133.069-27.458-182.296-121.617l166.359-428.222
			c0,0-60.639-657.397,1.249-713.434c42.767-38.724,150.437-52.904,209.806-50.042c40.202-39.847,78.243-47.715,115.55-40.728
			L1878.155,1291.044z"/>
		<path style="fill:#4187E8;" d="M2082.929,1300.158c110.749,160.404-36.123,587.41-13.635,792.998
			c9.646,88.185,122.499,308.532,122.499,308.532s-104.098-258.415-35.179-531.617
			C2205.887,1674.745,2359.295,1415.826,2082.929,1300.158z"/>
		<g>
			<g>
				<g>
					<g>
						<g>
							<g>
								<g>
									<g>
										
											<path style="fill:#FFFFFF;stroke:#383838;stroke-width:12;stroke-linecap:round;stroke-linejoin:round;stroke-miterlimit:10;" d="
											M2083.939,1335.443c73.383,54.465-23.352,215.71-52.432,280.378c-42.268-100.969-320.39-255.388-156.167-324.837
											C1937.228,1242.512,2088.498,1315.767,2083.939,1335.443z"/>
									</g>
								</g>
							</g>
						</g>
					</g>
				</g>
			</g>
		</g>
		<path style="fill:none;stroke:#383838;stroke-width:12;stroke-linecap:round;stroke-linejoin:round;stroke-miterlimit:10;" d="
			M1779.188,1285.518c-54.98,49.032-181.061,299.079-181.061,299.079l78.859,15.915l-76.529,37c0,0,22.052,64.544,44.202,141.983"/>
		
			<line style="fill:none;stroke:#383838;stroke-width:12;stroke-linecap:round;stroke-linejoin:round;stroke-miterlimit:10;" x1="1447.443" y1="1675.942" x2="1492.622" y2="1710.227"/>
		<g>
			<g>
				<g>
					<g>
						<g>
							
								<path style="fill:#FFFFFF;stroke:#383838;stroke-width:12;stroke-linecap:round;stroke-linejoin:round;stroke-miterlimit:10;" d="
								M1393.366,2327.394c-26.066-25.898-49.725-18.59-59.983-9.234l-222.491,209.853c-6.141,5.908-6.22,15.71-0.175,21.716
								c5.555,5.521,14.398,5.91,20.417,0.9l29.464-24.524c-10.225,20.044-19.767,38.747-21.203,41.528
								c-4.229,8.184-1.022,18.248,7.163,22.475c8.185,4.229,18.247,1.021,22.476-7.163c1.606-3.108,13.337-26.104,24.838-48.649
								c-3.608,15.942-6.544,28.912-7.093,31.281c-2.079,8.977,3.512,17.936,12.487,20.014c8.975,2.08,17.935-3.511,20.014-12.486
								c0.37-1.596,1.831-8.039,3.836-16.892c2.227,2.56,5.026,4.659,8.585,5.482c8.975,2.08,17.935-3.51,20.014-12.484
								c1.076-4.652,11.275-49.783,17.87-78.928c0.554-0.325,1.158-0.533,1.69-0.902l14.436-8.788l-16.03,42.696
								c-3.221,8.579,0.209,18.229,8.121,22.851h0.001c8.385,4.898,19.12,2.606,24.775-5.287l89.835-125.408
								c1.603-2.238,2.835-4.602,3.805-7.028C1405.894,2372.078,1409.703,2343.623,1393.366,2327.394z"/>
							
								<line style="fill:none;stroke:#383838;stroke-width:12;stroke-linecap:round;stroke-linejoin:round;stroke-miterlimit:10;" x1="1302.932" y1="2414.721" x2="1285.88" y2="2460.139"/>
						</g>
						<g>
							
								<path style="fill:none;stroke:#383838;stroke-width:12;stroke-linecap:round;stroke-linejoin:round;stroke-miterlimit:10;" d="
								M1222.425,2559.261c1.032-4.458,7.312-32.322,13.901-61.44"/>
						</g>
						<g>
							
								<path style="fill:none;stroke:#383838;stroke-width:12;stroke-linecap:round;stroke-linejoin:round;stroke-miterlimit:10;" d="
								M1193.189,2535.629c2.58-5.058,5.159-10.114,7.62-14.937"/>
						</g>
						
							<line style="fill:none;stroke:#383838;stroke-width:12;stroke-linecap:round;stroke-linejoin:round;stroke-miterlimit:10;" x1="1220.481" y1="2476.582" x2="1158.767" y2="2527.057"/>
					</g>
				</g>
			</g>
			<g>
				<g>
					<g>
						<polygon style="fill:#FFFFFF;" points="1401.464,2241.053 1423.364,2352.815 1274.812,2350.677 1289.269,2258.092 						"/>
						<path style="fill:#4187E8;" d="M1588.007,1714.058l-141.989,139.599c0,0-6.372,338.603-14.376,467.819l-152.169-1.919
							c-16.474-158.752-51.948-506.274-51.948-506.274c-2.065-20.132,2.819-41.208,15.365-59.068
							c0,0,241.922-298.256,326.493-418.656L1588.007,1714.058z"/>
					</g>
				</g>
			</g>
		</g>
		<path style="fill:none;stroke:#383838;stroke-width:12;stroke-linecap:round;stroke-linejoin:round;stroke-miterlimit:10;" d="
			M1401.775,2477.216c92.347,73.364,120.849,67.847,120.849,67.847"/>
		
			<line style="fill:none;stroke:#383838;stroke-width:12;stroke-linecap:round;stroke-linejoin:round;stroke-miterlimit:10;" x1="2698.054" y1="1613.329" x2="2811.175" y2="1734.834"/>
		<path style="fill:none;stroke:#383838;stroke-width:12;stroke-linecap:round;stroke-linejoin:round;stroke-miterlimit:10;" d="
			M2206.26,1734.346c-11.792,31.534-34.213,87.729-34.213,87.729"/>
		<path style="fill:#4187E8;" d="M2062.15,1274.695c55.676,51.765,124.809,193.307,127.979,263.262l-50.426,1.187l33.505,42.133
			c0,0-105.699,371.036-97.975,457.966c0,0-8.113-249.741,28.441-436.268c34.1-174-56.985-298.035-56.985-298.035L2062.15,1274.695z
			"/>
		<path style="fill:none;stroke:#383838;stroke-width:12;stroke-linecap:round;stroke-linejoin:round;stroke-miterlimit:10;" d="
			M2062.15,1274.695c55.676,51.765,124.809,193.307,127.979,263.262l-50.426,1.187l33.505,42.133c0,0-40.193,135.182-47.507,178.207
			"/>
		<path style="fill:none;stroke:#383838;stroke-width:12;stroke-linecap:round;stroke-linejoin:round;stroke-miterlimit:10;" d="
			M2046.69,1304.941c0,0,91.084,124.035,56.985,298.035c-36.554,186.527-34.9,421.732-34.9,421.732
			c6.03,217.361,123.018,376.98,123.018,376.98"/>
		
			<line style="fill:none;stroke:#383838;stroke-width:12;stroke-linecap:round;stroke-linejoin:round;stroke-miterlimit:10;" x1="2679.795" y1="1626.042" x2="2769.038" y2="1781.095"/>
	</g>
	<path style="fill:#383838;" d="M1972.162,1152.333c-167.288-165.197-120.628-342.865,9.021-386.779
		c129.648-43.913,309.307,5.657,299.588,237.484C2273.216,1183.209,1972.162,1152.333,1972.162,1152.333z"/>
	<path style="fill:#FFFFFF;" d="M2132.606,845.466c-106.244,0.287-133.291,138.788-133.291,138.788s-6.87-26.109-45.346-16.49
		c-38.476,9.619,0,104.434,0,104.434s-70.081,208.868-76.951,219.861l159.399,32.979l51.25-100.264
		c0,0,43.477,30.828,109.436-72.232C2263.061,1049.483,2298.699,845.019,2132.606,845.466z"/>
	<path style="fill:none;stroke:#383838;stroke-width:12;stroke-linecap:round;stroke-linejoin:round;stroke-miterlimit:10;" d="
		M1870.421,1318.557l83.548-246.359c0,0-40.701-76.286,0-104.434c32.619-22.559,45.346,16.49,45.346,16.49
		s27.047-138.501,133.291-138.787c166.093-0.448,130.454,204.017,64.496,307.077c-65.958,103.06-109.435,72.232-109.435,72.232
		l-70.309,149.119"/>
	
		<ellipse transform="matrix(0.7071 -0.7071 0.7071 0.7071 -121.0031 1521.8134)" style="fill:#383838;" cx="1776.49" cy="906.97" rx="114.625" ry="114.625"/>
	
		<ellipse transform="matrix(0.7071 -0.7071 0.7071 0.7071 -245.0837 1429.5012)" style="fill:#383838;" cx="1603.019" cy="1010.593" rx="95.134" ry="95.134"/>
	
		<ellipse transform="matrix(0.7071 -0.7071 0.7071 0.7071 -369.9686 1429.9653)" style="fill:#383838;" cx="1541.137" cy="1161.574" rx="82.254" ry="82.254"/>
	
		<ellipse transform="matrix(0.7071 -0.7071 0.7071 0.7071 -464.5462 1386.9224)" style="fill:#383838;" cx="1441.89" cy="1254.218" rx="66.663" ry="66.663"/>
	<path style="fill:#383838;" d="M1424.784,1304.32c-87.768-70.249-63.083,134.698-197.975,120.714
		C1387.912,1517.258,1463.551,1335.349,1424.784,1304.32z"/>
	<path style="fill:none;stroke:#383838;stroke-width:12;stroke-linecap:round;stroke-linejoin:round;stroke-miterlimit:10;" d="
		M2013.92,1142.097c29.772,67.483,76.851,84.308,76.851,84.308"/>
</g>
</svg>
