<?xml version="1.0" encoding="utf-8"?>
<!-- Generator: Adobe Illustrator 27.5.0, SVG Export Plug-In . SVG Version: 6.00 Build 0)  -->
<svg version="1.1" id="Layer_1" xmlns="http://www.w3.org/2000/svg" xmlns:xlink="http://www.w3.org/1999/xlink" x="0px" y="0px"
	 viewBox="0 0 4981.146 4981.146" style="enable-background:new 0 0 4981.146 4981.146;" xml:space="preserve">
<rect x="0" style="fill:#FFFFFF;" width="4981.146" height="4981.146"/>
<g>
	<g>
		<path style="fill:#FFFFFF;stroke:#B5D4FF;stroke-width:12;stroke-linecap:round;stroke-linejoin:round;stroke-miterlimit:10;" d="
			M3491.803,548.008h-757.433c-29.361,0-53.164,23.802-53.164,53.164v552.183c0,29.361,23.802,53.164,53.164,53.164h757.433
			c29.361,0,53.164-23.802,53.164-53.164V601.171C3544.966,571.81,3521.164,548.008,3491.803,548.008z"/>
		<g>
			
				<polyline style="fill:none;stroke:#B5D4FF;stroke-width:12;stroke-linecap:round;stroke-linejoin:round;stroke-miterlimit:10;" points="
				2796.621,677.807 2796.621,1095.612 3468.145,1095.612 			"/>
			
				<line style="fill:#FFFFFF;stroke:#B5D4FF;stroke-width:12;stroke-linecap:round;stroke-linejoin:round;stroke-miterlimit:10;" x1="2871.96" y1="980.995" x2="2871.96" y2="1095.612"/>
			
				<line style="fill:#FFFFFF;stroke:#B5D4FF;stroke-width:12;stroke-linecap:round;stroke-linejoin:round;stroke-miterlimit:10;" x1="2955.819" y1="841.817" x2="2955.819" y2="1095.612"/>
			
				<line style="fill:#FFFFFF;stroke:#B5D4FF;stroke-width:12;stroke-linecap:round;stroke-linejoin:round;stroke-miterlimit:10;" x1="3039.679" y1="886.845" x2="3039.679" y2="1095.612"/>
			
				<line style="fill:#FFFFFF;stroke:#B5D4FF;stroke-width:12;stroke-linecap:round;stroke-linejoin:round;stroke-miterlimit:10;" x1="3123.538" y1="688.312" x2="3123.538" y2="1095.612"/>
			
				<line style="fill:#FFFFFF;stroke:#B5D4FF;stroke-width:12;stroke-linecap:round;stroke-linejoin:round;stroke-miterlimit:10;" x1="3207.397" y1="737.433" x2="3207.397" y2="1095.612"/>
			
				<line style="fill:#FFFFFF;stroke:#B5D4FF;stroke-width:12;stroke-linecap:round;stroke-linejoin:round;stroke-miterlimit:10;" x1="3291.257" y1="903.797" x2="3291.257" y2="1095.612"/>
			
				<line style="fill:#FFFFFF;stroke:#B5D4FF;stroke-width:12;stroke-linecap:round;stroke-linejoin:round;stroke-miterlimit:10;" x1="3375.116" y1="800.882" x2="3375.116" y2="1095.612"/>
			
				<polyline style="fill:none;stroke:#B5D4FF;stroke-width:12;stroke-linecap:round;stroke-linejoin:round;stroke-miterlimit:10;" points="
				2775.612,698.817 2796.621,677.807 2817.63,698.817 			"/>
			
				<polyline style="fill:none;stroke:#B5D4FF;stroke-width:12;stroke-linecap:round;stroke-linejoin:round;stroke-miterlimit:10;" points="
				3447.342,1074.603 3468.351,1095.612 3447.342,1116.621 			"/>
		</g>
	</g>
	<g>
		<path style="fill:#FFFFFF;stroke:#B5D4FF;stroke-width:12;stroke-linecap:round;stroke-linejoin:round;stroke-miterlimit:10;" d="
			M2240.098,4347.822H715.577c-42.073,0-76.181-34.107-76.181-76.18V3041.483c0-42.073,34.107-76.181,76.181-76.181h1524.521
			c42.073,0,76.181,34.107,76.181,76.181v1230.159C2316.279,4313.715,2282.172,4347.822,2240.098,4347.822z"/>
		<rect x="843.19" y="3056.682" style="fill:#B5D4FF;" width="887.899" height="90.159"/>
		<g>
			
				<line style="fill:none;stroke:#B5D4FF;stroke-width:12;stroke-linecap:round;stroke-linejoin:round;stroke-miterlimit:10;" x1="755.829" y1="3613.391" x2="2175.646" y2="3613.391"/>
			<path style="fill:none;stroke:#B5D4FF;stroke-width:12;stroke-linecap:round;stroke-linejoin:round;stroke-miterlimit:10;" d="
				M755.829,3723.493c145.521-412.39,276.572-447.199,359.932-377.526c86.384,72.202,151.36,312.978,233.953,348.838
				s129.789-168.542,192.718-147.026c62.928,21.516,101.417,254.606,211.541,254.606s172.768-428.053,302.989-425.474
				c62.21,1.232,110.881,139.246,110.881,139.246"/>
		</g>
		<rect x="843.19" y="3869.453" style="fill:#B5D4FF;" width="585.061" height="45.08"/>
		<rect x="843.19" y="3198.199" style="fill:#B5D4FF;" width="585.061" height="45.08"/>
		<rect x="843.19" y="3967.132" style="fill:#B5D4FF;" width="458.476" height="45.08"/>
		<rect x="843.19" y="4064.811" style="fill:#B5D4FF;" width="496.094" height="45.08"/>
		<rect x="843.19" y="4162.49" style="fill:#B5D4FF;" width="190.379" height="45.08"/>
		<rect x="1612.61" y="3869.453" style="fill:#B5D4FF;" width="585.061" height="45.08"/>
		<rect x="1612.61" y="3967.132" style="fill:#B5D4FF;" width="458.476" height="45.08"/>
		<rect x="1612.61" y="4064.811" style="fill:#B5D4FF;" width="496.094" height="45.08"/>
		<rect x="1612.61" y="4162.49" style="fill:#B5D4FF;" width="248.047" height="45.08"/>
	</g>
	<g>
		
			<circle style="fill:none;stroke:#B5D4FF;stroke-width:12;stroke-linecap:round;stroke-linejoin:round;stroke-miterlimit:10;" cx="3366.999" cy="401.184" r="85.611"/>
		<path style="fill:none;stroke:#B5D4FF;stroke-width:12;stroke-linecap:round;stroke-linejoin:round;stroke-miterlimit:10;" d="
			M254.512,2769.837c0-47.283,38.33-85.611,85.613-85.611c47.281,0,85.611,38.328,85.611,85.611s-38.33,85.611-85.611,85.611
			C292.842,2855.448,254.512,2817.12,254.512,2769.837z"/>
		<path style="fill:none;stroke:#B5D4FF;stroke-width:12;stroke-linecap:round;stroke-linejoin:round;stroke-miterlimit:10;" d="
			M4577.883,1098.569c0-47.283,38.33-85.613,85.611-85.613c47.282,0,85.613,38.33,85.613,85.613
			c0,47.281-38.331,85.611-85.613,85.611C4616.213,1184.18,4577.883,1145.85,4577.883,1098.569z"/>
		<path style="fill:none;stroke:#B5D4FF;stroke-width:12;stroke-linecap:round;stroke-linejoin:round;stroke-miterlimit:10;" d="
			M2403.956,3617.617c0-47.281,38.33-85.611,85.613-85.611c47.281,0,85.611,38.33,85.611,85.611
			c0,47.283-38.33,85.613-85.611,85.613C2442.286,3703.23,2403.956,3664.9,2403.956,3617.617z"/>
		<g>
			<g>
				<path style="fill:none;stroke:#B5D4FF;stroke-width:12;stroke-linecap:round;stroke-linejoin:round;stroke-miterlimit:10;" d="
					M4577.883,1098.569H4205.54c-175.969,0-348.84,46.32-501.233,134.304L1042.209,2769.837H425.736"/>
			</g>
			<g>
				<path style="fill:none;stroke:#B5D4FF;stroke-width:12;stroke-linecap:round;stroke-linejoin:round;stroke-miterlimit:10;" d="
					M3281.388,401.184h-507.705c-156.911,0-284.113,127.202-284.113,284.114v2846.708"/>
			</g>
		</g>
	</g>
	<g>
		<path style="fill:none;stroke:#B5D4FF;stroke-width:12;stroke-linecap:round;stroke-linejoin:round;stroke-miterlimit:10;" d="
			M1974.334,1279.014H479.414c-51.289,0-92.867-41.577-92.867-92.868V507.729c0-51.291,41.579-92.868,92.867-92.868h1494.92
			c51.289,0,92.867,41.577,92.867,92.868v678.417C2067.201,1237.437,2025.623,1279.014,1974.334,1279.014z"/>
		<g>
			
				<line style="fill:none;stroke:#B5D4FF;stroke-width:12;stroke-linecap:round;stroke-linejoin:round;stroke-miterlimit:10;" x1="666.655" y1="414.862" x2="666.655" y2="1279.014"/>
			
				<line style="fill:none;stroke:#B5D4FF;stroke-width:12;stroke-linecap:round;stroke-linejoin:round;stroke-miterlimit:10;" x1="946.765" y1="414.862" x2="946.765" y2="1279.014"/>
			
				<line style="fill:none;stroke:#B5D4FF;stroke-width:12;stroke-linecap:round;stroke-linejoin:round;stroke-miterlimit:10;" x1="1226.874" y1="414.862" x2="1226.874" y2="1279.014"/>
			
				<line style="fill:none;stroke:#B5D4FF;stroke-width:12;stroke-linecap:round;stroke-linejoin:round;stroke-miterlimit:10;" x1="1506.983" y1="414.862" x2="1506.983" y2="1279.014"/>
			
				<line style="fill:none;stroke:#B5D4FF;stroke-width:12;stroke-linecap:round;stroke-linejoin:round;stroke-miterlimit:10;" x1="1787.092" y1="414.862" x2="1787.092" y2="1279.014"/>
		</g>
		<g>
			
				<line style="fill:none;stroke:#B5D4FF;stroke-width:12;stroke-linecap:round;stroke-linejoin:round;stroke-miterlimit:10;" x1="386.546" y1="1062.977" x2="2067.201" y2="1062.977"/>
			
				<line style="fill:none;stroke:#B5D4FF;stroke-width:12;stroke-linecap:round;stroke-linejoin:round;stroke-miterlimit:10;" x1="386.546" y1="846.938" x2="2067.201" y2="846.938"/>
			
				<line style="fill:none;stroke:#B5D4FF;stroke-width:12;stroke-linecap:round;stroke-linejoin:round;stroke-miterlimit:10;" x1="386.546" y1="630.899" x2="2067.201" y2="630.899"/>
		</g>
		
			<polyline style="fill:none;stroke:#B5D4FF;stroke-width:12;stroke-linecap:round;stroke-linejoin:round;stroke-miterlimit:10;" points="
			519.033,1161.231 1049.607,710.989 1422.575,928.822 1900.246,534.764 		"/>
		<path style="fill:#FFFFFF;stroke:#B5D4FF;stroke-width:12;stroke-linecap:round;stroke-linejoin:round;stroke-miterlimit:10;" d="
			M486.824,1161.231c0-17.787,14.421-32.209,32.209-32.209c17.789,0,32.209,14.421,32.209,32.209
			c0,17.789-14.42,32.211-32.209,32.211C501.246,1193.442,486.824,1179.02,486.824,1161.231z"/>
		
			<circle style="fill:#FFFFFF;stroke:#B5D4FF;stroke-width:12;stroke-linecap:round;stroke-linejoin:round;stroke-miterlimit:10;" cx="1049.607" cy="710.989" r="32.209"/>
		
			<ellipse transform="matrix(0.1602 -0.9871 0.9871 0.1602 1070.0934 2323.0339)" style="fill:#FFFFFF;stroke:#B5D4FF;stroke-width:12;stroke-linecap:round;stroke-linejoin:round;stroke-miterlimit:10;" cx="1900.246" cy="532.645" rx="32.209" ry="32.209"/>
		
			<circle style="fill:#FFFFFF;stroke:#B5D4FF;stroke-width:12;stroke-linecap:round;stroke-linejoin:round;stroke-miterlimit:10;" cx="1422.575" cy="927.734" r="32.209"/>
	</g>
	<g>
		
			<ellipse transform="matrix(0.7071 -0.7071 0.7071 0.7071 -716.0898 2380.0679)" style="fill:#FFFFFF;stroke:#B5D4FF;stroke-width:12;stroke-linecap:round;stroke-linejoin:round;stroke-miterlimit:10;" cx="2514.951" cy="2054.431" rx="1350.546" ry="1350.545"/>
		
			<ellipse transform="matrix(0.7071 -0.7071 0.7071 0.7071 -716.09 2380.0676)" style="fill:#B5D4FF;" cx="2514.951" cy="2054.431" rx="1288.077" ry="1288.076"/>
	</g>
	<g>
		<g>
			
				<path style="fill:#B5D4FF;stroke:#383838;stroke-width:12;stroke-linecap:round;stroke-linejoin:round;stroke-miterlimit:10;" d="
				M3189.292,1745.53c0-379.104-312.833-685.14-694.433-674.05c-349.033,10.145-636.609,291.868-653.442,640.643
				c-11.724,242.889,105.17,459.177,288.432,586.872c80.763,56.275,130.549,146.996,130.549,245.432v138.928h509.105v-138.836
				c0-95.869,45.278-187.419,124.524-241.372C3072.233,2181.816,3189.292,1977.383,3189.292,1745.53z"/>
			
				<path style="fill:#B5D4FF;stroke:#383838;stroke-width:12;stroke-linecap:round;stroke-linejoin:round;stroke-miterlimit:10;" d="
				M2635.528,2987.032h-241.156c-73.993,0-133.975-59.982-133.975-133.974v-169.702h509.105v169.702
				C2769.503,2927.05,2709.519,2987.032,2635.528,2987.032z"/>
			<path style="fill:none;stroke:#383838;stroke-width:12;stroke-linecap:round;stroke-linejoin:round;stroke-miterlimit:10;" d="
				M2398.289,2987.032c0,69.061,55.983,125.043,125.043,125.043c46.258,0,86.651-25.119,108.28-62.462"/>
			
				<line style="fill:none;stroke:#383838;stroke-width:12;stroke-linecap:round;stroke-linejoin:round;stroke-miterlimit:10;" x1="2421.354" y1="2890.367" x2="2764.214" y2="2890.367"/>
			
				<line style="fill:none;stroke:#383838;stroke-width:12;stroke-linecap:round;stroke-linejoin:round;stroke-miterlimit:10;" x1="2260.398" y1="2788.117" x2="2608.547" y2="2788.117"/>
			
				<line style="fill:none;stroke:#383838;stroke-width:12;stroke-linecap:round;stroke-linejoin:round;stroke-miterlimit:10;" x1="2607.749" y1="2495.828" x2="2781.362" y2="1510.711"/>
			
				<line style="fill:none;stroke:#383838;stroke-width:12;stroke-linecap:round;stroke-linejoin:round;stroke-miterlimit:10;" x1="2248.537" y1="1510.711" x2="2421.354" y2="2491.299"/>
			<path style="fill:none;stroke:#383838;stroke-width:12;stroke-linecap:round;stroke-linejoin:round;stroke-miterlimit:10;" d="
				M2755.553,1535.683c-81.093-6.344-76.759-111.006-111.083-107.835c-34.324,3.173-0.768,218.84-51.103,222.011
				c-50.333,3.171-24.111-222.211-73.156-222.211c-49.044,0-22.821,225.382-73.156,222.211
				c-50.333-3.171-16.777-218.838-51.101-222.011c-34.326-3.171-29.992,101.49-111.084,107.835"/>
		</g>
	</g>
	<g>
		<path style="fill:#FFFFFF;stroke:#B5D4FF;stroke-width:12;stroke-linecap:round;stroke-linejoin:round;stroke-miterlimit:10;" d="
			M3530.011,2989.919h-681.438c-32.631,0-59.085,26.452-59.085,59.083v438.266c0,32.633,26.454,59.085,59.085,59.085h681.438
			c32.631,0,59.084-26.452,59.084-59.085v-438.266C3589.095,3016.371,3562.642,2989.919,3530.011,2989.919z"/>
		<rect x="2851.797" y="3287.885" style="fill:#B5D4FF;" width="143.514" height="195.435"/>
		<rect x="3027.145" y="3101.067" style="fill:#B5D4FF;" width="143.516" height="382.254"/>
		<rect x="3202.495" y="3209.226" style="fill:#B5D4FF;" width="143.514" height="274.095"/>
		<rect x="3377.842" y="3030.6" style="fill:#B5D4FF;" width="143.516" height="452.721"/>
		
			<polyline style="fill:none;stroke:#FFFFFF;stroke-width:12;stroke-linecap:round;stroke-linejoin:round;stroke-miterlimit:10;" points="
			3458.181,3073.302 3494.592,3073.302 3245.773,3307.964 3133.836,3167.033 2880.294,3432.037 		"/>
		
			<line style="fill:none;stroke:#FFFFFF;stroke-width:12;stroke-linecap:round;stroke-linejoin:round;stroke-miterlimit:10;" x1="3494.592" y1="3108.367" x2="3494.592" y2="3073.302"/>
	</g>
	<g>
		<g>
			<path style="fill:none;stroke:#FFFFFF;stroke-miterlimit:10;" d="M2967.091,968.097c6.275-11.046,12.522-22.108,18.738-33.188"/>
			<path style="fill:none;stroke:#FFFFFF;stroke-miterlimit:10;" d="M2888.658,1103.737c7.488-12.791,14.965-25.588,22.423-38.396"
				/>
			<path style="fill:none;stroke:#FFFFFF;stroke-miterlimit:10;" d="M2055.906,2545.571c13.717-23.76,27.433-47.521,41.149-71.281"
				/>
			<path style="fill:none;stroke:#FFFFFF;stroke-miterlimit:10;" d="M1855.85,2892.098
				c43.054-74.571,86.106-149.142,129.156-223.714"/>
			<path style="fill:none;stroke:#FFFFFF;stroke-miterlimit:10;" d="M1764.634,3050.083c6.651-11.52,13.303-23.039,19.954-34.559"/>
			<path style="fill:none;stroke:#FFFFFF;stroke-width:12;stroke-linecap:round;stroke-linejoin:round;stroke-miterlimit:10;" d="
				M2967.091,968.097c6.275-11.046,12.522-22.108,18.738-33.188"/>
			<path style="fill:none;stroke:#FFFFFF;stroke-width:12;stroke-linecap:round;stroke-linejoin:round;stroke-miterlimit:10;" d="
				M2888.658,1103.737c7.488-12.791,14.965-25.588,22.423-38.396"/>
			<path style="fill:none;stroke:#FFFFFF;stroke-width:12;stroke-linecap:round;stroke-linejoin:round;stroke-miterlimit:10;" d="
				M2055.906,2545.571c13.717-23.76,27.433-47.521,41.149-71.281"/>
			<path style="fill:none;stroke:#FFFFFF;stroke-width:12;stroke-linecap:round;stroke-linejoin:round;stroke-miterlimit:10;" d="
				M1855.85,2892.098c43.054-74.571,86.106-149.142,129.156-223.714"/>
			<path style="fill:none;stroke:#FFFFFF;stroke-width:12;stroke-linecap:round;stroke-linejoin:round;stroke-miterlimit:10;" d="
				M1764.634,3050.083c6.651-11.52,13.303-23.039,19.954-34.559"/>
		</g>
		<g>
			<path style="fill:none;stroke:#FFFFFF;stroke-miterlimit:10;" d="M3152.626,1383.931
				c76.24-44.483,152.654-88.293,228.674-132.042"/>
			<path style="fill:none;stroke:#FFFFFF;stroke-miterlimit:10;" d="M1725.502,2207.32c39.027-22.473,78.047-44.958,117.048-67.478"
				/>
			<path style="fill:none;stroke:#FFFFFF;stroke-miterlimit:10;" d="M1456.918,2362.109c53.151-31.32,107.15-60.867,160.136-92.359"
				/>
			<path style="fill:none;stroke:#FFFFFF;stroke-miterlimit:10;" d="M1313.014,2445.501c9.776-5.761,19.563-11.502,29.361-17.226"/>
			<path style="fill:none;stroke:#FFFFFF;stroke-width:12;stroke-linecap:round;stroke-linejoin:round;stroke-miterlimit:10;" d="
				M3152.626,1383.931c76.24-44.483,152.654-88.293,228.674-132.042"/>
			<path style="fill:none;stroke:#FFFFFF;stroke-width:12;stroke-linecap:round;stroke-linejoin:round;stroke-miterlimit:10;" d="
				M1725.502,2207.32c39.027-22.473,78.047-44.958,117.048-67.478"/>
			<path style="fill:none;stroke:#FFFFFF;stroke-width:12;stroke-linecap:round;stroke-linejoin:round;stroke-miterlimit:10;" d="
				M1456.918,2362.109c53.151-31.32,107.15-60.867,160.136-92.359"/>
			<path style="fill:none;stroke:#FFFFFF;stroke-width:12;stroke-linecap:round;stroke-linejoin:round;stroke-miterlimit:10;" d="
				M1313.014,2445.501c9.776-5.761,19.563-11.502,29.361-17.226"/>
		</g>
		<g>
			<path style="fill:none;stroke:#FFFFFF;stroke-miterlimit:10;" d="M3254.203,1752.084c159.076-0.002,318.016-0.002,476.991,0.008"
				/>
			<path style="fill:none;stroke:#FFFFFF;stroke-miterlimit:10;" d="M1308.95,1752.096c155.27-0.014,310.135-0.014,464.815-0.011"/>
			<path style="fill:none;stroke:#FFFFFF;stroke-width:12;stroke-linecap:round;stroke-linejoin:round;stroke-miterlimit:10;" d="
				M3254.203,1752.084c159.076-0.002,318.016-0.002,476.991,0.008"/>
			<path style="fill:none;stroke:#FFFFFF;stroke-width:12;stroke-linecap:round;stroke-linejoin:round;stroke-miterlimit:10;" d="
				M1308.95,1752.096c155.27-0.014,310.135-0.014,464.815-0.011"/>
		</g>
		<g>
			<path style="fill:none;stroke:#FFFFFF;stroke-miterlimit:10;" d="M3625.755,2393.629c11.275,6.51,22.548,13.022,33.82,19.538"/>
			<path style="fill:none;stroke:#FFFFFF;stroke-miterlimit:10;" d="M3401.794,2264.548c36.956,21.411,72.616,41.788,109.53,63.105"
				/>
			<path style="fill:none;stroke:#FFFFFF;stroke-miterlimit:10;" d="M3190.356,2142.177c33.757,19.648,67.545,39.244,101.352,58.806
				"/>
			<path style="fill:none;stroke:#FFFFFF;stroke-miterlimit:10;" d="M1718.97,1293.171c55.73,32.634,114.391,64.798,168.878,97.008"
				/>
			<path style="fill:none;stroke:#FFFFFF;stroke-miterlimit:10;" d="M1604.771,1227.137c4.227,2.491,8.458,4.976,12.691,7.457"/>
			<path style="fill:none;stroke:#FFFFFF;stroke-width:12;stroke-linecap:round;stroke-linejoin:round;stroke-miterlimit:10;" d="
				M3625.755,2393.629c11.275,6.51,22.548,13.022,33.82,19.538"/>
			<path style="fill:none;stroke:#FFFFFF;stroke-width:12;stroke-linecap:round;stroke-linejoin:round;stroke-miterlimit:10;" d="
				M3401.794,2264.548c36.956,21.411,72.616,41.788,109.53,63.105"/>
			<path style="fill:none;stroke:#FFFFFF;stroke-width:12;stroke-linecap:round;stroke-linejoin:round;stroke-miterlimit:10;" d="
				M3190.356,2142.177c33.757,19.648,67.545,39.244,101.352,58.806"/>
			<path style="fill:none;stroke:#FFFFFF;stroke-width:12;stroke-linecap:round;stroke-linejoin:round;stroke-miterlimit:10;" d="
				M1718.97,1293.171c55.73,32.634,114.391,64.798,168.878,97.008"/>
			<path style="fill:none;stroke:#FFFFFF;stroke-width:12;stroke-linecap:round;stroke-linejoin:round;stroke-miterlimit:10;" d="
				M1604.771,1227.137c4.227,2.491,8.458,4.976,12.691,7.457"/>
		</g>
		<g>
			<path style="fill:none;stroke:#FFFFFF;stroke-miterlimit:10;" d="M2979.102,2558.25
				c61.456,104.676,121.868,211.59,182.297,316.855"/>
			<path style="fill:none;stroke:#FFFFFF;stroke-miterlimit:10;" d="M2884.281,2393.639c8.893,15.416,17.782,30.834,26.669,46.254"
				/>
			<path style="fill:none;stroke:#FFFFFF;stroke-miterlimit:10;" d="M2101.388,1036.455c12.807,22.396,25.571,44.817,38.344,67.232"
				/>
			<path style="fill:none;stroke:#FFFFFF;stroke-miterlimit:10;" d="M2022.713,901.116c8.22,13.802,16.379,27.64,24.492,41.506"/>
			<path style="fill:none;stroke:#FFFFFF;stroke-width:12;stroke-linecap:round;stroke-linejoin:round;stroke-miterlimit:10;" d="
				M2979.102,2558.25c61.456,104.676,121.868,211.59,182.297,316.855"/>
			<path style="fill:none;stroke:#FFFFFF;stroke-width:12;stroke-linecap:round;stroke-linejoin:round;stroke-miterlimit:10;" d="
				M2884.281,2393.639c8.893,15.416,17.782,30.834,26.669,46.254"/>
			<path style="fill:none;stroke:#FFFFFF;stroke-width:12;stroke-linecap:round;stroke-linejoin:round;stroke-miterlimit:10;" d="
				M2101.388,1036.455c12.807,22.396,25.571,44.817,38.344,67.232"/>
			<path style="fill:none;stroke:#FFFFFF;stroke-width:12;stroke-linecap:round;stroke-linejoin:round;stroke-miterlimit:10;" d="
				M2022.713,901.116c8.22,13.802,16.379,27.64,24.492,41.506"/>
		</g>
		<g>
			<path style="fill:none;stroke:#FFFFFF;stroke-miterlimit:10;" d="M2513.701,989.906c0.015,16.836,0.044,33.672,0.084,50.507"/>
			<path style="fill:none;stroke:#FFFFFF;stroke-miterlimit:10;" d="M2513.986,850.575c-0.054,9.642-0.099,19.283-0.137,28.925"/>
			<path style="fill:none;stroke:#FFFFFF;stroke-width:12;stroke-linecap:round;stroke-linejoin:round;stroke-miterlimit:10;" d="
				M2513.701,989.906c0.015,16.836,0.044,33.672,0.084,50.507"/>
			<path style="fill:none;stroke:#FFFFFF;stroke-width:12;stroke-linecap:round;stroke-linejoin:round;stroke-miterlimit:10;" d="
				M2513.986,850.575c-0.054,9.642-0.099,19.283-0.137,28.925"/>
		</g>
	</g>
	<g>
		<path style="fill:#FFFFFF;stroke:#383838;stroke-width:12;stroke-linecap:round;stroke-linejoin:round;stroke-miterlimit:10;" d="
			M3277.325,1331.729c-47.056,1.238-47.295,66.749-37.793,126.041c7.918,49.401,22.599,94.486,22.599,94.486h179.771
			L3277.325,1331.729z"/>
		<g>
			<g>
				<g>
					<g>
						<g>
							<path style="fill:#A9B5C4;" d="M4273.542,4690.964c-4.125-38.76,33.075-196.085,33.075-196.085s1.817-61.162,73.349-60.334
								c101.855,1.179,84.499,75.236,84.499,75.236s73.66,110.829,68.711,148.072c-3.224,24.27,3.792,23.8-0.072,33.112H4273.542z"
								/>
							
								<path style="fill:#FFFFFF;stroke:#383838;stroke-width:12;stroke-linecap:round;stroke-linejoin:round;stroke-miterlimit:10;" d="
								M4533.105,4658.395c-3.243,23.989,3.834,23.328,0,32.57h-259.563c-2.135-20.046-0.302-18.382,2.914-32.57H4533.105z"/>
						</g>
					</g>
				</g>
				<g>
					<g>
						<g>
							<path style="fill:#A9B5C4;" d="M3784.271,4689.747c3.636-38.706-17.707-66.022-16.452-114.898
								c1.063-41.38-14.343-142.35-77.476-141.521c-89.896,1.179-124.171,33.88-139.608,72.779
								c-15.439,38.897-199.616,150.528-199.616,150.528c2.847,24.271-3.497,23.802-0.086,33.112H3784.271z"/>
							
								<path style="fill:#FFFFFF;stroke:#383838;stroke-width:12;stroke-linecap:round;stroke-linejoin:round;stroke-miterlimit:10;" d="
								M3351.183,4657.177c2.861,23.992-3.536,23.329-0.151,32.57h433.239c1.884-20.046,0.267-18.382-2.571-32.57H3351.183z"/>
						</g>
					</g>
				</g>
			</g>
			<g>
				<g>
					<path style="fill:#4187E8;" d="M3887.229,2135.168c-199.56,867.946-335.853,2355.166-335.853,2355.166
						c33.772,51.622,233.707,55.251,233.707,55.251l352.122-1507.842l105.591,1476.467c19.785,41.296,248.166,15.221,248.166,15.221
						s130.328-1604.491-61.022-2239.402C4235.075,1643.447,3887.229,2135.168,3887.229,2135.168z"/>
				</g>
			</g>
		</g>
		<path style="fill:#FFFFFF;stroke:#383838;stroke-width:12;stroke-linecap:round;stroke-linejoin:round;stroke-miterlimit:10;" d="
			M4605.713,1796.789c108.677,222.182,103.846,299.463,57.961,350.178c-45.887,50.715-323.614,155.91-323.614,155.91l-113.507-418.5
			L4605.713,1796.789z"/>
		<path style="fill:#A9B5C4;stroke:#383838;stroke-width:12;stroke-linecap:round;stroke-linejoin:round;stroke-miterlimit:10;" d="
			M3764.641,1419.37c130.543-42.763,402.276-88.228,628.958-10.896c7.419,2.068,15.957,5.106,25.9,9.293
			c7.53,2.866,14.949,5.825,22.232,8.884c4.167,1.752,8.193,4.283,12.14,7.234c0.267,0.135,0.5,0.242,0.766,0.381
			c151.314,76.91,234.709,467.718,234.709,467.718l-178.896,67.675c21.01,286.071,0,600.981,0,600.981
			c-198.939,154.361-746.541,34.487-746.541,34.487l58.473-272.883C3822.381,2332.243,3624.569,1465.254,3764.641,1419.37z"/>
		<path style="fill:none;stroke:#383838;stroke-width:12;stroke-linecap:round;stroke-linejoin:round;stroke-miterlimit:10;" d="
			M4460.485,1543.948c59.785,179.359,49.963,425.709,49.963,425.709"/>
		<path style="fill:#383838;" d="M4137.94,915.677c-117.86-62.03-214.85-76.918-233.349-26.052
			c-18.498,50.864,70.827,160.041,106.805,181.131C4047.374,1091.846,4137.94,915.677,4137.94,915.677z"/>
		<path style="fill:#FFFFFF;stroke:#383838;stroke-width:12;stroke-linecap:round;stroke-linejoin:round;stroke-miterlimit:10;" d="
			M3835.592,1487.16c-160.756-57.11-303.408,441.6-303.408,441.6s-120.904-358.834-196.327-361.053
			c-75.426-2.219,27.729,638.599,196.327,674.094C3700.781,2277.295,4004.19,1547.057,3835.592,1487.16z"/>
		<path style="fill:#FFFFFF;stroke:#383838;stroke-width:12;stroke-linecap:round;stroke-linejoin:round;stroke-miterlimit:10;" d="
			M3470.705,1137.762l-320.623,42.62c-16.728,2.224-25.845,20.713-17.426,35.336l300.431,521.811
			c9.872,17.147,30.311,25.159,49.207,19.289l314.023-97.556c14.928-4.638,21.362-22.197,12.967-35.382l-297.327-466.909
			C3503.115,1143.088,3487.022,1135.593,3470.705,1137.762z"/>
		<path style="fill:#A9B5C4;" d="M3814.696,1417.289c-229.19-28.082-282.512,447.385-282.512,447.385l292.828,124.231
			C3825.012,1988.905,3998.879,1439.856,3814.696,1417.289z"/>
		<path style="fill:none;stroke:#383838;stroke-width:12;stroke-linecap:round;stroke-linejoin:round;stroke-miterlimit:10;" d="
			M3814.696,1417.289c-229.19-28.082-282.512,447.385-282.512,447.385l292.828,124.231c0,0,32.782-103.525,54.799-222.516"/>
		<path style="fill:#FFFFFF;" d="M3315.119,1410.096c-22.311-33.086-37.195,51.11-48.009,72.509
			c-10.813,21.399-15.828,115.156,43.664,176.612c35.148,36.31,78.211,19.801,68.901-15.402l-66.58-122.661
			C3313.095,1521.154,3329.23,1431.021,3315.119,1410.096z"/>
		<path style="fill:none;stroke:#383838;stroke-width:12;stroke-linecap:round;stroke-linejoin:round;stroke-miterlimit:10;" d="
			M3379.675,1643.815l-66.58-122.661c0,0,16.135-90.133,2.024-111.058c-22.311-33.086-37.195,51.11-48.009,72.509
			c-10.813,21.399-15.828,115.156,43.664,176.612"/>
		<path style="fill:#FFFFFF;stroke:#383838;stroke-width:12;stroke-linecap:round;stroke-linejoin:round;stroke-miterlimit:10;" d="
			M3922.955,932.353c0,0,223.746-45.888,157.637,176.386l16.616-6.492l85.517,260.824c46.418,6.744,81.052,16.384,81.052,16.384
			c-17.303,49.084-314.589,62.937-338.982,3.261c15.71-1.682,58.217-8.53,73.693-10.163l-20.555-87.504
			c-52.201,24.74-107.448,6.364-117.202-39.849C3836.439,1130.108,3855.189,1003.127,3922.955,932.353z"/>
		<path style="fill:#383838;" d="M3922.955,932.353c-78.01-48.404,62.386-200.288,286.029-44.362
			c193.665,135.023-57.169,380.805-57.169,380.805l-91.324,9.168l-67.268-149.823c0,0,51.168-63.918,19.708-90.884
			c-31.46-26.964-48.177,17.521-48.177,17.521S3991.977,931.318,3922.955,932.353z"/>
		
			<line style="fill:none;stroke:#383838;stroke-width:12;stroke-linecap:round;stroke-linejoin:round;stroke-miterlimit:10;" x1="3969.231" y1="1245.2" x2="3977.933" y2="1285.05"/>
	</g>
	<g>
		<g>
			<g>
				<g>
					<polygon style="fill:#383838;" points="828.925,4429.825 836.75,4690.964 891.987,4690.964 891.987,4429.825 					"/>
					<g>
						
							<path style="fill:#FFFFFF;stroke:#383838;stroke-width:12;stroke-linecap:round;stroke-linejoin:round;stroke-miterlimit:10;" d="
							M1012.189,4299.086c1.416,39.462,5.32,79.809,14.385,105.435c22.969,64.926,90.424,251.119,90.424,251.119l-256.141,2.594
							c0,0-33.679-213.726-27.433-302.161c0-21.108,2.984-39.66,8.13-56.025c9.643-37.927,30.872-80.374,44.508-105.344
							l48.237-105.614C996.436,4096.127,1012.189,4299.086,1012.189,4299.086z"/>
						<g>
							<path style="fill:#383838;" d="M855.169,4658.235c-2.82-43.854,42.087-98.488,163.777-98.488
								c89.993,0,103.286,80.437,104.272,97.449L855.169,4658.235z"/>
							
								<path style="fill:#FFFFFF;stroke:#383838;stroke-width:12;stroke-linecap:round;stroke-linejoin:round;stroke-miterlimit:10;" d="
								M1118.194,4657.973c36.462-41.024,12.818-68.46-17.395-69.281c-32.218-0.877-53.695,25.872-53.695,25.872
								s-41.088-23.242-104.586-13.155c-44.446,7.059-36.283,42.131-26.841,54.232L1118.194,4657.973z"/>
							<g>
								<g>
									<rect x="850.336" y="4648.304" style="fill:#383838;" width="277.824" height="42.661"/>
								</g>
							</g>
						</g>
					</g>
				</g>
				<path style="fill:#383838;" d="M886.062,4605.902l-52.638-249.828c0,0-29.26,26.354,2.48,167.444
					c9.907,44.038,14.432,167.446,14.432,167.446L886.062,4605.902z"/>
			</g>
			<g>
				<g>
					<path style="fill:#383838;" d="M1727.244,4675.515c0,0-103.158,0-133.487,0c-58.2,0-226.538-217.442-226.538-217.442v-62.127
						l166.706-13.978c0,0,133.718,215.687,149.422,231.39c15.709,15.709,67.138,25.773,89.298,31.839
						C1770.403,4662.335,1748.615,4675.515,1727.244,4675.515z"/>
					
						<path style="fill:#FFFFFF;stroke:#383838;stroke-width:12;stroke-linecap:round;stroke-linejoin:round;stroke-miterlimit:10;" d="
						M1566.472,4381.405c19.162,29.615,69.406,144.057,126.46,193.763c12.731,11.091,18.591,16.679,42.738,16.66
						c24.146-0.021,39.297,44.278,0.009,43.477c-39.29-0.802-96.751,0-122.41,0c-25.658,0-33.656-3.659-109.427-79.432
						c-62.713-62.711-115.471-123.232-131.517-185.868c-4.794-4.996-7.391-12.543-6.751-24.156c0,0,5.325-77.895,13.648-201.109
						C1437.514,4151.436,1540.567,4341.37,1566.472,4381.405z"/>
					<polygon style="fill:#383838;" points="1354.292,4416.891 1408.762,4675.515 1451.13,4675.515 1451.13,4530.794 					"/>
					<path style="fill:#383838;" d="M1551.077,4618.776c22.05-46.905,120.498-60.804,143.092-42.531
						c-2.824-2.786-42.698-54.576-42.698-54.576s-94.255-7.241-125.631,33.156l-158.622-224.262c0,0-38.016,65.119,0,127.509
						c0,0,131.863,152.324,153.111,166.356C1541.577,4638.46,1551.077,4618.776,1551.077,4618.776z"/>
				</g>
				<g>
					<g>
						<rect x="1597.912" y="4634.996" style="fill:#383838;" width="174.732" height="40.519"/>
					</g>
				</g>
			</g>
			<path style="fill:#383838;" d="M690.718,2273.038C437.544,2999.247,798.393,4411.69,798.393,4411.69l224.079-55.616
				c0,0,30.699-1382.703,4.048-1535.939c111.269,434.665,202.147,614.678,202.147,614.678s-21.864,324.763,74.424,955.215
				l219.152-111.427c0,0,141.194-1232.718-238.567-1925.614S690.718,2273.038,690.718,2273.038z"/>
		</g>
		<g>
			
				<path style="fill:#FFFFFF;stroke:#383838;stroke-width:12;stroke-linecap:round;stroke-linejoin:round;stroke-miterlimit:10;" d="
				M1176.483,1468.545c53.129-79.097,403.374,406.482,403.374,406.482s-6.304-74.749,44.129-88.4
				c66.759-18.068,176.516,240.73,20.713,273.151C1488.896,2092.198,1014.129,1710.252,1176.483,1468.545z"/>
			
				<path style="fill:#4187E8;stroke:#383838;stroke-width:12;stroke-linecap:round;stroke-linejoin:round;stroke-miterlimit:10;" d="
				M572.52,1471.958c140.294-164.399,403.303-178.491,574.97-108.424c1.57,0.642,34.838,24.525,36.201,25.538
				c77.837,22.976,177.389,170.773,223.178,241.137l-161.284,219.13l-28.159-29.995c0,0-63.172,177.474-79.772,229.162
				l110.776,206.411l-647.235,277.015l41.719-402C615.179,1861.5,559.587,1571.615,572.52,1471.958z"/>
			<path style="fill:#383838;" d="M1231.362,884.028c128.926,72.87-32.833,445.624,29.813,540.916
				c-160.17,65.865-360.536-117.704-419.393-232.616c-58.857-114.912,69.597-368.558,213.731-372.763
				C1199.645,815.361,1231.362,884.028,1231.362,884.028z"/>
			
				<path style="fill:#FFFFFF;stroke:#383838;stroke-width:12;stroke-linecap:round;stroke-linejoin:round;stroke-miterlimit:10;" d="
				M955.292,1067.606l-123.571,256.156c-79.767,0-30.727,187.51,213.441,253.406c105.828,28.56,86.748-174.145-11.906-204.641
				l46.758-218.037L955.292,1067.606z"/>
			
				<line style="fill:#FFFFFF;stroke:#383838;stroke-width:12;stroke-linecap:round;stroke-linejoin:round;stroke-miterlimit:10;" x1="819.062" y1="1345.429" x2="955.292" y2="1067.606"/>
			
				<line style="fill:#FFFFFF;stroke:#383838;stroke-width:12;stroke-linecap:round;stroke-linejoin:round;stroke-miterlimit:10;" x1="1026.521" y1="1403.024" x2="1084.575" y2="1138.011"/>
			
				<path style="fill:#FFFFFF;stroke:#383838;stroke-width:12;stroke-linecap:round;stroke-linejoin:round;stroke-miterlimit:10;" d="
				M633.464,1477.729c132.213-15.149,174.922,436.386,174.922,436.386s189.318-283.826,296.016-290.293
				c106.699-6.467,200.465,64.667,219.866,93.766c19.399,29.101-90.533-12.932-90.533-12.932
				c34.421,29.85,6.976,48.717-16.181,41.856c28.303,40.31-38.595,22.165-38.595,22.165c23.156,41.303-84.91,0-84.91,0
				s-219.615,421.952-330.254,392.792C653.156,2132.305,423.803,1501.753,633.464,1477.729z"/>
			<path style="fill:#4187E8;" d="M560.366,1860.017c-46.551-165.05-63.33-401.692,53.632-426.37
				c158.031-33.344,206.066,216.613,210.296,346.161L560.366,1860.017z"/>
			<path style="fill:none;stroke:#383838;stroke-width:12;stroke-linecap:round;stroke-linejoin:round;stroke-miterlimit:10;" d="
				M824.295,1779.809l-263.929,80.209c-46.551-165.05-63.33-401.692,53.632-426.37"/>
			<path style="fill:none;stroke:#383838;stroke-width:12;stroke-linecap:round;stroke-linejoin:round;stroke-miterlimit:10;" d="
				M763.796,1518.753c41.88,77.215,58.119,188.184,60.499,261.056"/>
			<path style="fill:#383838;" d="M1070.204,961.103c-105.102,148.545-165.873,553.239-165.873,553.239
				s-147.849-75.021-181.482-168.912C689.217,1251.538,887.177,846.385,1070.204,961.103z"/>
			<path style="fill:#FFFFFF;" d="M1039.449,1047.033c70.771-90.072,145.667-6.053,166.341-107.301
				c38.507,7.83,58.458,48.551,55,90.038c-9.81,117.715-91.391,221.289-159.158,223.862s-114.949-142.22-101.224-159.037
				C950.757,1077.374,1011.999,951.815,1039.449,1047.033z"/>
			<path style="fill:none;stroke:#383838;stroke-width:12;stroke-linecap:round;stroke-linejoin:round;stroke-miterlimit:10;" d="
				M1205.791,939.732c38.507,7.83,58.458,48.551,55,90.038c-9.81,117.715-91.391,221.289-159.158,223.862
				c-38.023,1.443-69.566-43.503-87.504-86.209"/>
			
				<path style="fill:#C9C9C9;stroke:#383838;stroke-width:12;stroke-linecap:round;stroke-linejoin:round;stroke-miterlimit:10;" d="
				M1479.42,1525.25h241.23c23.956,0,35.969,19.419,26.834,43.375l-178.584,468.286c-9.135,23.956-35.959,43.375-59.915,43.375
				h-241.23c-23.956,0-35.969-19.419-26.834-43.375l178.584-468.286C1428.64,1544.668,1455.466,1525.25,1479.42,1525.25z"/>
			<path style="fill:#FFFFFF;" d="M1587.457,1698.942c-28.21,19.913,52.436,84.271,52.436,84.271s-88.953-27.154-98.315,0
				c-9.365,27.154,44.008,30.281,44.008,30.281s-54.309-14.176-51.499,7.267c2.808,21.443,52.852,33.614,52.852,33.614
				s-34.124-13.108-38.807,7.491c-4.681,20.599,105.809,98.317,143.262,74.908c37.455-23.409,22.613-128.968,6.695-158.932
				C1682.169,1747.879,1603.376,1687.706,1587.457,1698.942z"/>
			<path style="fill:none;stroke:#383838;stroke-width:12;stroke-linecap:round;stroke-linejoin:round;stroke-miterlimit:10;" d="
				M1711.307,1902.922c9.442-41.077-1.603-103.213-13.22-125.08c-15.918-29.964-94.711-90.136-110.63-78.9
				c-28.21,19.913,52.436,84.271,52.436,84.271s-88.953-27.154-98.315,0c-9.365,27.154,44.008,30.281,44.008,30.281
				s-54.309-14.176-51.499,7.267c2.808,21.443,52.852,33.614,52.852,33.614s-34.124-13.108-38.807,7.491
				c-3.038,13.367,42.417,50.782,84.945,69.013"/>
		</g>
	</g>
</g>
</svg>
