<?xml version="1.0" encoding="utf-8"?>
<!-- Generator: Adobe Illustrator 27.5.0, SVG Export Plug-In . SVG Version: 6.00 Build 0)  -->
<svg version="1.1" id="Layer_1" xmlns="http://www.w3.org/2000/svg" xmlns:xlink="http://www.w3.org/1999/xlink" x="0px" y="0px"
	 viewBox="0 0 4981.146 4981.146" style="enable-background:new 0 0 4981.146 4981.146;" xml:space="preserve">
<rect x="0" style="fill:#FFFFFF;" width="4981.146" height="4981.146"/>
<g>
	
		<rect x="2244.019" y="2810.837" style="fill:#FFFFFF;stroke:#B5D4FF;stroke-width:12;stroke-linecap:round;stroke-linejoin:round;stroke-miterlimit:10;" width="1648.607" height="939.892"/>
	<g>
		<path style="fill:#B5D4FF;" d="M2850.065,3439.473c7.63-24.15,11.793-49.839,11.793-76.511c0-29.234-5.193-57.196-14.29-83.33
			l-239.466,83.33L2850.065,3439.473z"/>
		<path style="fill:#B5D4FF;" d="M2701.695,3127.252c-28.985-11.521-60.502-18.045-93.592-18.045
			c-140.145,0-253.755,113.61-253.755,253.755c0,40.448,9.71,78.543,26.543,112.477l227.212-112.477L2701.695,3127.252z"/>
		<path style="fill:#4187E8;" d="M2608.103,3362.961l-227.212,112.477c41.492,83.641,127.514,141.278,227.212,141.278
			c113.472,0,209.5-74.502,241.962-177.244L2608.103,3362.961z"/>
		<path style="fill:#4187E8;" d="M2847.569,3279.631c-24.216-69.57-77.706-125.285-145.874-152.38l-93.592,235.71L2847.569,3279.631
			z"/>
	</g>
	<rect x="2608.103" y="2901.598" style="fill:#B5D4FF;" width="1129.368" height="108.317"/>
	<rect x="3000.311" y="3161.914" style="fill:#B5D4FF;" width="702.894" height="54.159"/>
	<rect x="3000.311" y="3279.266" style="fill:#B5D4FF;" width="550.815" height="54.159"/>
	<rect x="3000.311" y="3396.617" style="fill:#B5D4FF;" width="596.008" height="54.159"/>
	<rect x="3000.311" y="3513.969" style="fill:#B5D4FF;" width="228.721" height="54.159"/>
	<g>
		<path style="fill:#FFFFFF;stroke:#B5D4FF;stroke-width:12;stroke-linecap:round;stroke-linejoin:round;stroke-miterlimit:10;" d="
			M4436.977,2854.43H544.169c-133.559,0-241.829-108.271-241.829-241.829V845.982c0-133.559,108.271-241.829,241.829-241.829
			h3892.808c133.559,0,241.83,108.271,241.83,241.829V2612.6C4678.807,2746.159,4570.536,2854.43,4436.977,2854.43z"/>
		<g>
			
				<line style="fill:none;stroke:#B5D4FF;stroke-width:12;stroke-linecap:round;stroke-linejoin:round;stroke-miterlimit:10;" x1="1031.751" y1="604.153" x2="1031.751" y2="2854.43"/>
			
				<line style="fill:none;stroke:#B5D4FF;stroke-width:12;stroke-linecap:round;stroke-linejoin:round;stroke-miterlimit:10;" x1="1761.162" y1="604.153" x2="1761.162" y2="2854.43"/>
			
				<line style="fill:none;stroke:#B5D4FF;stroke-width:12;stroke-linecap:round;stroke-linejoin:round;stroke-miterlimit:10;" x1="2490.573" y1="604.153" x2="2490.573" y2="2854.43"/>
			
				<line style="fill:none;stroke:#B5D4FF;stroke-width:12;stroke-linecap:round;stroke-linejoin:round;stroke-miterlimit:10;" x1="3219.984" y1="604.153" x2="3219.984" y2="2854.43"/>
			
				<line style="fill:none;stroke:#B5D4FF;stroke-width:12;stroke-linecap:round;stroke-linejoin:round;stroke-miterlimit:10;" x1="3949.395" y1="604.153" x2="3949.395" y2="2854.43"/>
		</g>
		<g>
			
				<line style="fill:none;stroke:#B5D4FF;stroke-width:12;stroke-linecap:round;stroke-linejoin:round;stroke-miterlimit:10;" x1="302.339" y1="2291.861" x2="4678.806" y2="2291.861"/>
			
				<line style="fill:none;stroke:#B5D4FF;stroke-width:12;stroke-linecap:round;stroke-linejoin:round;stroke-miterlimit:10;" x1="302.339" y1="1729.291" x2="4678.806" y2="1729.291"/>
			
				<line style="fill:none;stroke:#B5D4FF;stroke-width:12;stroke-linecap:round;stroke-linejoin:round;stroke-miterlimit:10;" x1="302.339" y1="1166.722" x2="4678.806" y2="1166.722"/>
		</g>
	</g>
	<g>
		<polygon style="fill:#B5D4FF;" points="4511.483,883.813 4517.416,829.361 4022.758,838.441 4016.825,892.893 4103.925,1005.774 
			2744.765,2036.702 2165.91,1355.2 593.762,2450.142 587.83,2504.594 771.444,2756.685 2115.571,1777.679 2698.109,2463.508 
			4294.443,1252.687 4381.516,1365.531 		"/>
		
			<polygon style="fill:#FFFFFF;stroke:#B5D4FF;stroke-width:12;stroke-linecap:round;stroke-linejoin:round;stroke-miterlimit:10;" points="
			4517.416,829.361 4022.758,838.441 4109.858,951.322 2750.698,1982.25 2171.843,1300.749 593.762,2450.142 777.377,2702.233 
			2121.503,1723.228 2704.042,2409.056 4300.375,1198.235 4387.448,1311.08 		"/>
	</g>
	<g>
		<g>
			<path style="fill:#383838;" d="M1387.967,1210.579c-6.037-15.568-4.247-32.098,3.127-45.714c-3.509-4.322-6.6-9.066-8.721-14.536
				c-10.548-27.201,2.274-57.508,28.536-69.388c0.817-1.615,1.763-3.137,2.647-4.707c-0.401-22.273,12.738-43.458,34.718-51.981
				c6.774-2.627,13.748-3.738,20.591-3.633c0.053-21.864,13.18-42.486,34.795-50.868c14.8-5.739,30.495-4.456,43.714,2.005
				c5.407-13.684,16.135-25.213,30.935-30.952c15.355-5.954,31.65-4.3,45.16,2.815c0.848-0.38,1.581-0.91,2.457-1.249
				c28.154-10.918,59.829,3.056,70.747,31.211c1.184,3.053,1.946,6.157,2.558,9.262c50.201,24.41,69.621,67.336,66.704,103.497
				c6.331,5.597,11.603,12.556,14.869,20.978c10.918,28.155-3.055,59.83-31.21,70.748c-13.935,5.404-28.718,4.673-41.434-0.82
				c-44.877,53.701-99.957,125.188-93.05,158.614c9.43,45.64-59.865,97.442-111.709,37.626c-3.591-4.141-6.696-8.216-10.097-12.333
				c-14.49-5.136-26.822-16.093-32.816-31.551c-2.106-5.432-3.02-10.982-3.35-16.5c-6.826-10.212-12.964-20.271-18.601-30.216
				c-15.459-4.744-28.751-16.045-35.05-32.29c-2.756-7.107-3.907-14.432-3.664-21.597
				C1394.811,1223.872,1390.723,1217.687,1387.967,1210.579z"/>
			<path style="fill:#383838;" d="M1738.147,1553.425l-12.619,91.509c0,0,119.541,292.507,154.417,946.982l-95.789,122.032
				l-79.384-123.36c0,0,39.926-246.896,11.369-489.814s-29.891-450.409-29.891-450.409l-70.307-67.08
				C1615.944,1583.285,1668.24,1531.576,1738.147,1553.425z"/>
			<g>
				<g>
					<g>
						<path style="fill:#4187E8;" d="M2012.456,4593.143c-29.83-17.907-60.767-47.58-91.363-83.977l-172.772-8.465l-35.933,209.577
							c2.368,18.7,7.938,23.087,17.972,37.834l551.615-7.836C2231.964,4657.699,2187.07,4697.963,2012.456,4593.143z"/>
						<path style="fill:#FFFFFF;" d="M2265.566,4717.231c5.526,6.445,10.937,14.009,16.409,23.044l-564.393,7.836
							c-8.5-12.492-1.686-25.115-5.195-37.834L2265.566,4717.231z"/>
					</g>
					
						<line style="fill:none;stroke:#383838;stroke-width:12;stroke-linecap:round;stroke-linejoin:round;stroke-miterlimit:10;" x1="1712.387" y1="4710.277" x2="2265.566" y2="4717.231"/>
					
						<line style="fill:none;stroke:#383838;stroke-width:12;stroke-linecap:round;stroke-linejoin:round;stroke-miterlimit:10;" x1="1717.582" y1="4748.111" x2="2281.975" y2="4740.275"/>
				</g>
			</g>
			<g>
				<path style="fill:#FFFFFF;" d="M1021.169,4670.054c1.74-0.58,124.075,43.701,124.075,43.701l2.808,30.439H825.08l4.117-30.439
					L1021.169,4670.054z"/>
				<g>
					<polygon style="fill:#4187E8;" points="968.824,4483.164 825.08,4713.754 1148.052,4713.754 1163.478,4444.233 					"/>
					
						<line style="fill:none;stroke:#383838;stroke-width:12;stroke-linecap:round;stroke-linejoin:round;stroke-miterlimit:10;" x1="1148.052" y1="4713.754" x2="825.08" y2="4713.754"/>
					
						<line style="fill:none;stroke:#383838;stroke-width:12;stroke-linecap:round;stroke-linejoin:round;stroke-miterlimit:10;" x1="1148.052" y1="4744.193" x2="825.08" y2="4744.193"/>
				</g>
			</g>
			<path style="fill:#A9B5C4;" d="M1395.362,2368.446c-166.003,230.662-494.6,2195.895-494.6,2195.895l335.767,60.065
				c0,0,226.935-1225.605,367.262-1497.617c117.187,552.861,113.791,1490.338,113.791,1490.338l325.012-59.529
				c0,0,60.793-1908.036-87.313-2170.553S1561.365,2137.784,1395.362,2368.446z"/>
			<path style="fill:#4187E8;" d="M1970.731,1625.932c-61.674-97.171-237.595-144.99-237.595-144.99
				c133.409,225.78,22.175,570.834,22.175,570.834s-97.128-471.302-276.86-577.181c-60.98,4.153-166.145,34.429-222.206,64.4
				c-215.647,115.287,38.867,1296.12,38.867,1296.12l727.638-105.326C2022.749,2729.789,2083.541,1803.671,1970.731,1625.932z"/>
			<path style="fill:#FFFFFF;" d="M1649.943,1422.825c192.494,48.427,160.574,224.019,160.574,224.019s-90.611-87.033-140.098-75.95
				c-49.487,11.083-91.448,99.694-91.448,99.694s-162.885-133.5-128.982-188.112
				C1515.019,1377.722,1649.943,1422.825,1649.943,1422.825z"/>
			<path style="fill:none;stroke:#383838;stroke-width:12;stroke-linecap:round;stroke-linejoin:round;stroke-miterlimit:10;" d="
				M1810.517,1646.844c0,0-90.611-87.033-140.098-75.95c-49.487,11.083-91.448,99.694-91.448,99.694s-162.885-133.5-128.982-188.112
				"/>
			<g>
				<g>
					
						<line style="fill:#FFFFFF;stroke:#383838;stroke-width:12;stroke-linecap:round;stroke-linejoin:round;stroke-miterlimit:10;" x1="1654.743" y1="1214.848" x2="1513.279" y2="1231.268"/>
					
						<path style="fill:#FFFFFF;stroke:#383838;stroke-width:12;stroke-linecap:round;stroke-linejoin:round;stroke-miterlimit:10;" d="
						M1727.156,1203.424c0,0-12.743,240.878-17.282,297.492c-4.136,51.591-137.003,61.594-209.187-31.749l-25.471-206.432
						L1727.156,1203.424z"/>
					<g>
						<path style="fill:#FFFFFF;" d="M1513.279,1231.268c0,0-45.031-90.032,55.459-132.769
							c63.096-26.835,102.782-42.743,122.184-64.042c96.002,99.808,98.467,279.062,92.998,324.879
							c-6.37,53.361-182.447,41.181-201.994,12.497c-19.547-28.685-33.512-55.447-33.512-55.447s-41.322,8.37-64.21-30.953
							C1451.817,1229.791,1513.279,1231.268,1513.279,1231.268z"/>
					</g>
					<g>
						
							<path style="fill:#FFFFFF;stroke:#383838;stroke-width:12;stroke-linecap:round;stroke-linejoin:round;stroke-miterlimit:10;" d="
							M1548.414,1316.387c0,0-41.322,8.37-64.21-30.953c-32.387-55.644,29.075-54.167,29.075-54.167s-45.031-90.032,55.459-132.769
							c63.096-26.835,102.782-42.743,122.184-64.042c96.002,99.808,98.467,279.062,92.998,324.879"/>
					</g>
				</g>
				<path style="fill:#383838;" d="M1569.9,1271.69c60.97,87.954,94.205-23.109,211.936-25.968
					c32.366,20.491,55.016,136.114,3.439,177.372c-98.05,78.432-211.72-48.051-222.919-88.666
					C1551.156,1293.813,1569.9,1271.69,1569.9,1271.69z"/>
			</g>
			
				<ellipse transform="matrix(0.9146 -0.4044 0.4044 0.9146 -258.5261 772.4617)" style="fill:#383838;" cx="1699.473" cy="998.269" rx="54.678" ry="54.678"/>
			
				<line style="fill:none;stroke:#383838;stroke-width:12;stroke-linecap:round;stroke-linejoin:round;stroke-miterlimit:10;" x1="1236.529" y1="4624.406" x2="900.762" y2="4564.341"/>
			
				<line style="fill:none;stroke:#383838;stroke-width:12;stroke-linecap:round;stroke-linejoin:round;stroke-miterlimit:10;" x1="2042.594" y1="4557.597" x2="1717.582" y2="4617.126"/>
			<path style="fill:none;stroke:#383838;stroke-width:12;stroke-linecap:round;stroke-linejoin:round;stroke-miterlimit:10;" d="
				M2035.337,2288.938c-0.043,128.535-3.769,267.912-3.769,267.912"/>
		</g>
		<path style="fill:#FFFFFF;stroke:#383838;stroke-width:12;stroke-linecap:round;stroke-linejoin:round;stroke-miterlimit:10;" d="
			M2390.309,2782.932L2390.309,2782.932c-6.646,10.691-20.699,13.97-31.39,7.325l-38.774-24.102
			c-10.691-6.646-13.97-20.699-7.324-31.39l0,0c6.645-10.691,20.699-13.97,31.39-7.325l38.774,24.102
			C2393.675,2758.188,2396.954,2772.241,2390.309,2782.932z"/>
		<path style="fill:#4187E8;" d="M1359.752,1499.219c-136.056,29.479-265.225,116.623-279.943,332.435
			c-2.99,43.833-244.727-6.597-233.697,33.678c88.159,321.888,201.081,610.45,301.303,578.434
			C1333.63,2384.278,1359.752,1499.219,1359.752,1499.219z"/>
		<path style="fill:#4187E8;" d="M1870.879,1550.033c77.201,24.948,180.224,57.949,221.085,280.775
			c19.026,103.754,36.776,203.833,40.819,289.03c3.418,72.035,191.537,529.293,167.842,573.275
			c-28.121,52.195-149.527,4.775-238.977-3.405C1807.676,2666.486,1870.879,1550.033,1870.879,1550.033z"/>
		<g>
			
				<path style="fill:#FFFFFF;stroke:#383838;stroke-width:12;stroke-linecap:round;stroke-linejoin:round;stroke-miterlimit:10;" d="
				M973.799,1728.073L973.799,1728.073c-10.158-3.749-15.354-15.023-11.605-25.181l12.115-32.828
				c3.749-10.158,15.023-15.354,25.181-11.605l0,0c10.158,3.749,15.354,15.023,11.605,25.181l-12.115,32.828
				C995.231,1726.626,983.957,1731.822,973.799,1728.073z"/>
			<g>
				
					<path style="fill:#B5D4FF;stroke:#383838;stroke-width:12;stroke-linecap:round;stroke-linejoin:round;stroke-miterlimit:10;" d="
					M2267.333,2523.752c-142.162-5.137-264.54-111.472-285.098-257.247c-20.558-145.776,67.64-281.808,202.837-326.06
					c25.753-8.429,42.916-32.005,44.02-58.304l-50.348-357.007l-1399.521,197.37l48.713,345.414
					c4.341,30.779,30.06,54.177,61.123,55.299c142.162,5.137,264.54,111.472,285.098,257.248
					c20.558,145.775-67.64,281.807-202.837,326.059c-29.541,9.67-47.787,39.268-43.447,70.047l48.713,345.414l1399.521-197.37
					l-50.347-357.007C2317.427,2542.64,2294.413,2524.73,2267.333,2523.752z"/>
			</g>
			
				<path style="fill:#FFFFFF;stroke:#383838;stroke-width:12;stroke-linecap:round;stroke-linejoin:round;stroke-miterlimit:10;" d="
				M2304.831,2965.454L2304.831,2965.454c-9.425,4.336-20.58,0.211-24.916-9.213l-21.029-45.703
				c-4.336-9.425-0.211-20.58,9.213-24.916h0c9.425-4.336,20.58-0.211,24.916,9.213l21.029,45.703
				C2318.38,2949.962,2314.255,2961.118,2304.831,2965.454z"/>
			
				<path style="fill:#FFFFFF;stroke:#383838;stroke-width:12;stroke-linecap:round;stroke-linejoin:round;stroke-miterlimit:10;" d="
				M2412.873,2879.569l-1.662,1.499c-7.246,6.533-18.416,5.955-24.949-1.291l-26.694-29.607c-6.533-7.246-5.955-18.416,1.291-24.949
				l1.662-1.499c7.246-6.533,18.416-5.955,24.949,1.291l26.694,29.607C2420.696,2861.866,2420.118,2873.036,2412.873,2879.569z"/>
			
				<path style="fill:#FFFFFF;stroke:#383838;stroke-width:12;stroke-linecap:round;stroke-linejoin:round;stroke-miterlimit:10;" d="
				M2338.768,2952.636L2338.768,2952.636c-9.425,4.336-20.58,0.211-24.916-9.213l-28.806-62.606
				c-4.336-9.425-0.211-20.58,9.213-24.916h0c9.425-4.336,20.58-0.211,24.916,9.213l28.806,62.606
				C2352.317,2937.144,2348.192,2948.299,2338.768,2952.636z"/>
			
				<path style="fill:#FFFFFF;stroke:#383838;stroke-width:12;stroke-linecap:round;stroke-linejoin:round;stroke-miterlimit:10;" d="
				M2376.059,2941.77L2376.059,2941.77c-9.424,4.336-20.58,0.211-24.916-9.213l-33.288-72.346
				c-4.336-9.425-0.211-20.58,9.213-24.916h0c9.425-4.336,20.58-0.212,24.916,9.213l33.287,72.346
				C2389.609,2926.278,2385.484,2937.433,2376.059,2941.77z"/>
			<g>
				
					<path style="fill:#FFFFFF;stroke:#383838;stroke-width:12;stroke-linecap:round;stroke-linejoin:round;stroke-miterlimit:10;" d="
					M826.338,1739.241L826.338,1739.241c-10.374,0-18.784-8.41-18.784-18.784v-50.308c0-10.374,8.41-18.784,18.784-18.784l0,0
					c10.374,0,18.784,8.41,18.784,18.784v50.308C845.123,1730.831,836.713,1739.241,826.338,1739.241z"/>
				
					<path style="fill:#FFFFFF;stroke:#383838;stroke-width:12;stroke-linecap:round;stroke-linejoin:round;stroke-miterlimit:10;" d="
					M939.141,1731.688L939.141,1731.688c-10.374,0-18.784-8.41-18.784-18.784v-50.308c0-10.374,8.41-18.784,18.784-18.784l0,0
					c10.374,0,18.784,8.41,18.784,18.784v50.308C957.925,1723.278,949.515,1731.688,939.141,1731.688z"/>
				
					<path style="fill:#FFFFFF;stroke:#383838;stroke-width:12;stroke-linecap:round;stroke-linejoin:round;stroke-miterlimit:10;" d="
					M901.726,1741.398L901.726,1741.398c-10.374,0-18.784-8.41-18.784-18.784v-64.233c0-10.374,8.41-18.784,18.784-18.784l0,0
					c10.374,0,18.784,8.41,18.784,18.784v64.233C920.511,1732.988,912.101,1741.398,901.726,1741.398z"/>
				
					<path style="fill:#FFFFFF;stroke:#383838;stroke-width:12;stroke-linecap:round;stroke-linejoin:round;stroke-miterlimit:10;" d="
					M863.907,1761.355L863.907,1761.355c-10.374,0-18.784-8.41-18.784-18.784v-89.009c0-10.374,8.41-18.784,18.784-18.784l0,0
					c10.374,0,18.784,8.41,18.784,18.784v89.009C882.691,1752.945,874.281,1761.355,863.907,1761.355z"/>
			</g>
		</g>
	</g>
	<g>
		<g>
			<path style="fill:#383838;" d="M3489.252,1216.046c-40.648-90.351,37.465-148.892,112.137-124.106
				c74.673,24.786,95.283,135.463,89.963,263.574s99.429,47.907,147.652,171.231s-136.848,250.428-225.127,221.703
				c-40.671-13.234-125.362-75.374-90.468-246.433C3467.609,1376.749,3489.252,1216.046,3489.252,1216.046z"/>
			<path style="fill:none;stroke:#383838;stroke-width:12;stroke-linecap:round;stroke-linejoin:round;stroke-miterlimit:10;" d="
				M3590.466,1100.21c76.444,18.62,106.001,127.251,111.135,255.37s113.883,37.763,171.991,156.749"/>
		</g>
		<g>
			<path style="fill:#C92627;" d="M2556.818,2538.172c-9.266-21.355-83.347-131.832-83.347-131.832l385.874-438.447
				c0,0,123.792-411.2,140.391-453.934c16.6-42.734,231.849,177.849,231.849,177.849s-121.738,310.984-273.052,489.1
				C2797.059,2370.982,2556.818,2538.172,2556.818,2538.172z"/>
			<g>
				<path style="fill:#A9B5C4;" d="M3038.439,1638.856c17.204-90.8,52.155-164.771,146.552-175.909
					c92.262-10.886,225.544-17.651,325.591,5.144c54.868,12.502-132.839,267.777-136.662,268.255
					C3370.097,1736.824,3038.439,1638.856,3038.439,1638.856z"/>
				<g>
					<path style="fill:#FFFFFF;" d="M3428.037,1552.917c0-119.767-410.883-115.27-410.883,2.432
						c0,117.702,5.542,219.811,5.542,219.811l-26.312,451.382l458.5-30.474l-41.099-142.948
						C3413.786,2053.119,3428.037,1672.683,3428.037,1552.917z"/>
					<g>
						<g>
							<g>
								<g>
									<g>
										<g>
											<path style="fill:#FFFFFF;" d="M3218.937,1269.568l-3.648,219.688c1.824,66.873,186.38,127.925,186.38,58.62
												c0-69.305,1.472-393.593,1.472-393.593S3235.352,1085.748,3218.937,1269.568z"/>
											
												<path style="fill:#FFFFFF;stroke:#383838;stroke-width:12;stroke-linecap:round;stroke-linejoin:round;stroke-miterlimit:10;" d="
												M3403.142,1481.961c0-69.305,0-327.678,0-327.678s-167.791-68.535-184.205,115.285l-3.648,219.688"/>
											
												<path style="fill:#FFFFFF;stroke:#383838;stroke-width:12;stroke-linecap:round;stroke-linejoin:round;stroke-miterlimit:10;" d="
												M3334.173,978.273c258.302,68.153,40.408,423.812-134.592,392.553c-35.032-6.257-59.41-126.993-35.269-226.221
												C3188.854,1043.724,3220.413,948.258,3334.173,978.273z"/>
										</g>
									</g>
								</g>
							</g>
							<g>
								<g>
									<g>
										
											<path style="fill:none;stroke:#383838;stroke-width:12;stroke-linecap:round;stroke-linejoin:round;stroke-miterlimit:10;" d="
											M3231.414,1064.087c29.494-29.33,94.169-17.385,108.857-39.104"/>
										<path style="fill:#383838;" d="M3186.631,1068.907c35.574-81.475,119.61-11.952,153.64-43.925
											c-15.02,47.227,42.164,89.591,42.164,89.591s21.306,22.224,1.766,123.172c14.774,10.925,17.873,27.604,18.759,54.172
											c40.738-14.613,103.41-57.113,123.115-141.496c19.705-84.383-46.758-174.494-154.396-208.013
											C3264.04,908.889,3171.44,990.674,3186.631,1068.907z"/>
									</g>
								</g>
								<g>
									<path style="fill:#FFFFFF;" d="M3367.748,1235.156c-21.113-52.066,69.264-95.407,79.757-51.771
										S3387.503,1283.871,3367.748,1235.156z"/>
									
										<path style="fill:none;stroke:#383838;stroke-width:12;stroke-linecap:round;stroke-linejoin:round;stroke-miterlimit:10;" d="
										M3384.055,1181.549c22.488-19.272,57.19-24.201,63.45,1.836c8.986,37.37-41.425,84.429-68.496,66.579"/>
								</g>
							</g>
						</g>
					</g>
				</g>
			</g>
			<g>
				<g>
					<polygon style="fill:#4187E8;" points="4187.375,4453.882 4178.934,4735.543 4119.356,4735.543 4119.356,4453.882 					"/>
					<g>
						
							<path style="fill:#FFFFFF;stroke:#383838;stroke-width:12;stroke-linecap:round;stroke-linejoin:round;stroke-miterlimit:10;" d="
							M4182.521,4374.335c0-22.766-3.218-42.776-8.769-60.427c-10.4-40.908-33.298-86.69-48.005-113.623l-447.539-979.876
							c0,0-28.072-356.868-47.374-602.252l-323.439-0.001c37.46,249.43,98.84,658.127,98.84,658.127l1.421,9.656
							c2.373,15.335,7.845,30.447,16.622,44.42l565.43,982.51c-1.528,42.562-5.738,86.081-15.516,113.72
							c-24.773,70.029-97.529,270.855-97.529,270.855l276.27,2.799C4152.933,4700.243,4189.258,4469.72,4182.521,4374.335z"/>
						<g>
							<path style="fill:#4187E8;" d="M4159.068,4700.243c3.042-47.301-45.395-106.229-176.648-106.229
								c-97.064,0-111.403,86.76-112.465,105.107L4159.068,4700.243z"/>
							
								<path style="fill:#FFFFFF;stroke:#383838;stroke-width:12;stroke-linecap:round;stroke-linejoin:round;stroke-miterlimit:10;" d="
								M3875.372,4699.96c-39.327-44.249-13.825-73.84,18.763-74.727c34.748-0.946,57.914,27.905,57.914,27.905
								s44.316-25.067,112.805-14.188c47.94,7.614,39.135,45.442,28.952,58.495L3875.372,4699.96z"/>
							<g>
								<g>
									
										<rect x="3864.622" y="4689.53" transform="matrix(-1 -1.224647e-16 1.224647e-16 -1 8028.9014 9425.0732)" style="fill:#4187E8;" width="299.658" height="46.013"/>
								</g>
							</g>
						</g>
					</g>
				</g>
				<path style="fill:#4187E8;" d="M4125.747,4643.796l56.774-269.461c0,0,31.56,28.424-2.674,180.604
					c-10.685,47.499-15.567,180.604-15.567,180.604L4125.747,4643.796z"/>
			</g>
			<g>
				<g>
					<path style="fill:#4187E8;" d="M3037.722,4735.543c0,0,111.267,0,143.979,0c62.772,0,244.342-234.531,244.342-234.531v-67.008
						l-179.807-15.078c0,0-144.227,232.637-161.166,249.575c-16.943,16.943-72.415,27.8-96.316,34.341
						C2991.172,4721.328,3014.672,4735.543,3037.722,4735.543z"/>
					
						<path style="fill:#FFFFFF;stroke:#383838;stroke-width:12;stroke-linecap:round;stroke-linejoin:round;stroke-miterlimit:10;" d="
						M3427.816,4379.969c0,0-87.594-1281.5-114.1-1761.813h-324.961c46.671,375.027,194.804,1310.024,246.171,1631.686h-0.001
						c0,0,4.146,125.296-23.796,168.479c-20.668,31.941-74.86,155.377-136.398,208.99c-13.731,11.962-20.051,17.989-46.095,17.968
						c-26.044-0.022-43.34,53.727-0.963,52.862c42.377-0.864,104.75,0.215,132.424,0.215c27.674,0,36.861-10.132,118.587-91.858
						c67.64-67.639,124.545-132.918,141.852-200.477C3425.706,4400.635,3428.507,4392.495,3427.816,4379.969z"/>
					<polygon style="fill:#4187E8;" points="3439.986,4456.593 3381.233,4735.543 3335.536,4735.543 3335.536,4579.449 					"/>
					<path style="fill:#4187E8;" d="M3227.735,4674.346c-23.783-50.592-129.969-65.582-154.337-45.873
						c-29.492-2.705,40.886-59.069,43.254-59.091c0,0,104.461-7.584,138.302,35.988l171.088-241.886c0,0,41.003,70.235,0,137.529
						c0,0-142.226,164.295-165.144,179.43C3237.981,4695.577,3227.735,4674.346,3227.735,4674.346z"/>
					<path style="fill:none;stroke:#383838;stroke-width:12;stroke-linecap:round;stroke-linejoin:round;stroke-miterlimit:10;" d="
						M3102.206,4655.166c-4.037,19.176,7.872,34.55,24.02,35.239"/>
					<path style="fill:none;stroke:#383838;stroke-width:12;stroke-linecap:round;stroke-linejoin:round;stroke-miterlimit:10;" d="
						M3055.579,4655.166c-4.239,18.57,5.663,35.402,21.401,35.17"/>
				</g>
				<g>
					<g>
						<path style="fill:#4187E8;" d="M2988.754,4735.543h188.464l66.363-67.759l-21.47-19.836l-33.558,28.869
							c-11.268,9.693-25.639,15.024-40.503,15.024h-159.295V4735.543z"/>
					</g>
				</g>
			</g>
			<path style="fill:#A9B5C4;" d="M3690.896,3213.179c0,0-43.309-699.389-117.182-845.632
				c-73.874-146.243-67.716-194.732-67.716-194.732l-446.085-23.232c0,0-42.307,57.582-72.066,293.432
				c-29.76,235.849,114.253,1071.323,114.253,1071.323l386.71-13.463l-28.285-229.423l121.27,182.895l214.63-26.842
				L3690.896,3213.179z"/>
			<path style="fill:#A9B5C4;" d="M3459.925,1461.76c-170.276,9.007-166.082,980.251-166.082,980.251l346.123-23.996
				c0,0-191.284-307.319-173.646-343.97c17.638-36.651,256.914-414.661,223.016-502.308S3459.925,1461.76,3459.925,1461.76z"/>
			<path style="fill:#A9B5C4;" d="M3208.098,1459.828c-140.57,156.921-182.584,958.157-182.584,958.157l-158.742-39.308
				l5.915-348.686l-14.383-231.927c0,0,48.278-228.171,70.117-262.491C2950.262,1501.254,3208.098,1459.828,3208.098,1459.828z"/>
			<path style="fill:#A9B5C4;" d="M4075.407,2581.205c9.266-21.355,83.347-131.832,83.347-131.832l-385.875-438.447
				c0,0-121.005-426.599-137.605-469.333c-16.6-42.734-234.635,193.248-234.635,193.248s121.738,310.984,273.052,489.1
				C3835.167,2414.015,4075.407,2581.205,4075.407,2581.205z"/>
			<path style="fill:none;stroke:#383838;stroke-width:12;stroke-linecap:round;stroke-linejoin:round;stroke-miterlimit:10;" d="
				M3694.551,2043.526c0,0,73.958-30.816,70.166-27.497s-75.38,74.906-75.38,74.906"/>
			<path style="fill:none;stroke:#383838;stroke-width:12;stroke-linecap:round;stroke-linejoin:round;stroke-miterlimit:10;" d="
				M3550.921,1845.802c0,14.001-96.037,245.133-96.037,245.133"/>
		</g>
		<g>
			<g>
				
					<path style="fill:#FFFFFF;stroke:#383838;stroke-width:12;stroke-linecap:round;stroke-linejoin:round;stroke-miterlimit:10;" d="
					M4086.947,2713.152l138.625-82.315c0,0,50.484,36.399,43.688,38.985c-62.956,36.997-108.29,5.547-129.197,70.809
					C4125.518,2739.837,4086.947,2713.152,4086.947,2713.152z"/>
			</g>
			
				<path style="fill:#4187E8;stroke:#383838;stroke-width:12;stroke-linecap:round;stroke-linejoin:round;stroke-miterlimit:10;" d="
				M2470.895,2054.178c29.085-5.179,51.203-28.017,56.399-56.24v-393.077h1.169h1539.704h1.169v393.076
				c5.196,28.223,27.314,51.061,56.399,56.24c152.69,27.189,268.616,160.617,268.616,321.12
				c0,160.503-115.925,293.93-268.616,321.119c-29.085,5.179-51.203,28.017-56.399,56.241v393.076h-1.169H2528.462h-1.169v-393.076
				c-5.196-28.223-27.314-51.061-56.399-56.24c-152.69-27.189-268.616-160.616-268.616-321.119
				C2202.279,2214.795,2318.205,2081.368,2470.895,2054.178z"/>
			<g>
				<g>
					
						<path style="fill:#FFFFFF;stroke:#383838;stroke-width:12;stroke-linecap:round;stroke-linejoin:round;stroke-miterlimit:10;" d="
						M4160.972,2601.005c-3.68-9.582-14.43-14.367-24.012-10.688c-9.582,3.679-14.366,14.43-10.688,24.012l0.618,1.609
						c-3.398-1.112-7.032-1.582-10.729-0.531h-0.001c-9.873,2.806-15.601,13.084-12.795,22.957l25.596,90.057
						c2.806,9.874,13.084,15.602,22.957,12.796c9.873-2.805,15.602-13.083,12.796-22.956l-4.185-14.726l6.339,16.51
						c3.679,9.582,14.429,14.366,24.011,10.688c9.582-3.68,14.367-14.43,10.688-24.012L4160.972,2601.005z"/>
					
						<path style="fill:#FFFFFF;stroke:#383838;stroke-width:12;stroke-linecap:round;stroke-linejoin:round;stroke-miterlimit:10;" d="
						M4272.037,2641.948l-64.127-68.216c-5.854-6.228-14.864-7.215-22.075-3.414c-4.923-3.583-11.318-4.961-17.424-2.616
						c-9.582,3.68-14.366,14.43-10.688,24.012l40.595,105.716c3.68,9.582,14.43,14.366,24.012,10.688
						c9.582-3.679,14.367-14.43,10.688-24.012l-19.086-49.702l31.024,33.001c7.03,7.479,18.792,7.842,26.27,0.812
						S4279.067,2649.426,4272.037,2641.948z"/>
				</g>
				
					<line style="fill:none;stroke:#383838;stroke-width:12;stroke-linecap:round;stroke-linejoin:round;stroke-miterlimit:10;" x1="4192.421" y1="2578.39" x2="4211.89" y2="2629.421"/>
				
					<line style="fill:none;stroke:#383838;stroke-width:12;stroke-linecap:round;stroke-linejoin:round;stroke-miterlimit:10;" x1="4198.317" y1="2697.43" x2="4160.971" y2="2601.005"/>
			</g>
			
				<line style="fill:none;stroke:#383838;stroke-width:12;stroke-linecap:round;stroke-linejoin:round;stroke-miterlimit:10;" x1="4128.668" y1="2620.569" x2="4163.919" y2="2715.468"/>
			<g>
				<g>
					
						<path style="fill:#FFFFFF;stroke:#383838;stroke-width:12;stroke-linecap:round;stroke-linejoin:round;stroke-miterlimit:10;" d="
						M2763.69,1539.667c-1.096-0.242-2.146-0.015-3.23-0.06c-0.225-0.397-0.549-0.603-1.024-0.519
						c-12.96,0.461-25.534,2.022-37.695,3.91c-2.847-8.573-11.3-14.184-20.475-12.606c-9.143,1.573-15.219,9.637-15.084,18.631
						c-0.285,0.047-0.563,0.089-0.848,0.135l-1.195-6.946c-1.74-10.115-11.35-16.905-21.465-15.165
						c-10.116,1.74-16.906,11.35-15.166,21.465l0.713,4.151c-0.418-0.007-0.838-0.011-1.254-0.022l-0.397-1.494
						c-2.64-9.918-12.819-15.82-22.739-13.181c-4.064,1.081-7.204,3.624-9.607,6.701c-0.09-0.05-0.188-0.081-0.278-0.132
						c-12.093,8.122-40.905,54.864-40.905,54.864l49.741,0.3l11.94,51.482c2.639,9.919,12.819,15.821,22.737,13.181
						c3.715-0.988,6.599-3.251,8.949-5.944l0.292,1.699c1.74,10.115,11.35,16.905,21.466,15.165
						c10.115-1.74,16.905-11.35,15.165-21.465l1.961,9.644c1.74,10.116,11.35,16.906,21.465,15.166
						c6.448-1.109,11.236-5.564,13.635-11.16c8.141-0.422,15.376-5.879,17.222-14.225l20.21-91.417
						C2780.04,1551.803,2773.712,1541.882,2763.69,1539.667z"/>
					
						<line style="fill:none;stroke:#383838;stroke-width:12;stroke-linecap:round;stroke-linejoin:round;stroke-miterlimit:10;" x1="2740.244" y1="1667.119" x2="2722.265" y2="1543.664"/>
					
						<line style="fill:none;stroke:#383838;stroke-width:12;stroke-linecap:round;stroke-linejoin:round;stroke-miterlimit:10;" x1="2686.008" y1="1548.758" x2="2703.687" y2="1654.534"/>
				</g>
				
					<line style="fill:none;stroke:#383838;stroke-width:12;stroke-linecap:round;stroke-linejoin:round;stroke-miterlimit:10;" x1="2646.569" y1="1551.148" x2="2665.342" y2="1652.214"/>
			</g>
		</g>
	</g>
	<g>
		
			<rect x="473.156" y="193.492" style="fill:#FFFFFF;stroke:#B5D4FF;stroke-width:12;stroke-linecap:round;stroke-linejoin:round;stroke-miterlimit:10;" width="969.539" height="739.153"/>
		<g>
			
				<polyline style="fill:none;stroke:#B5D4FF;stroke-width:12;stroke-linecap:round;stroke-linejoin:round;stroke-miterlimit:10;" points="
				602.706,339.187 602.706,808.157 1356.465,808.157 			"/>
			
				<line style="fill:#FFFFFF;stroke:#B5D4FF;stroke-width:12;stroke-linecap:round;stroke-linejoin:round;stroke-miterlimit:10;" x1="687.27" y1="679.504" x2="687.27" y2="808.157"/>
			
				<line style="fill:#FFFFFF;stroke:#B5D4FF;stroke-width:12;stroke-linecap:round;stroke-linejoin:round;stroke-miterlimit:10;" x1="781.399" y1="523.282" x2="781.399" y2="808.157"/>
			
				<line style="fill:#FFFFFF;stroke:#B5D4FF;stroke-width:12;stroke-linecap:round;stroke-linejoin:round;stroke-miterlimit:10;" x1="875.528" y1="573.825" x2="875.528" y2="808.157"/>
			
				<line style="fill:#FFFFFF;stroke:#B5D4FF;stroke-width:12;stroke-linecap:round;stroke-linejoin:round;stroke-miterlimit:10;" x1="969.657" y1="350.978" x2="969.657" y2="808.157"/>
			
				<line style="fill:#FFFFFF;stroke:#B5D4FF;stroke-width:12;stroke-linecap:round;stroke-linejoin:round;stroke-miterlimit:10;" x1="1063.786" y1="406.116" x2="1063.786" y2="808.157"/>
			
				<line style="fill:#FFFFFF;stroke:#B5D4FF;stroke-width:12;stroke-linecap:round;stroke-linejoin:round;stroke-miterlimit:10;" x1="1157.915" y1="592.853" x2="1157.915" y2="808.157"/>
			
				<line style="fill:#FFFFFF;stroke:#B5D4FF;stroke-width:12;stroke-linecap:round;stroke-linejoin:round;stroke-miterlimit:10;" x1="1252.044" y1="477.334" x2="1252.044" y2="808.157"/>
			
				<polyline style="fill:none;stroke:#B5D4FF;stroke-width:12;stroke-linecap:round;stroke-linejoin:round;stroke-miterlimit:10;" points="
				579.123,362.77 602.706,339.187 626.288,362.77 			"/>
			
				<polyline style="fill:none;stroke:#B5D4FF;stroke-width:12;stroke-linecap:round;stroke-linejoin:round;stroke-miterlimit:10;" points="
				1333.114,784.575 1356.696,808.157 1333.114,831.74 			"/>
		</g>
	</g>
</g>
</svg>
