<?xml version="1.0" encoding="utf-8"?>
<!-- Generator: Adobe Illustrator 27.5.0, SVG Export Plug-In . SVG Version: 6.00 Build 0)  -->
<svg version="1.1" id="Layer_1" xmlns="http://www.w3.org/2000/svg" xmlns:xlink="http://www.w3.org/1999/xlink" x="0px" y="0px"
	 viewBox="0 0 4981.146 4981.146" style="enable-background:new 0 0 4981.146 4981.146;" xml:space="preserve">
<rect x="0" style="fill:#FFFFFF;" width="4981.146" height="4981.146"/>
<g>
	<g>
		
			<rect x="2145.632" y="3215.099" style="fill:none;stroke:#B5D4FF;stroke-width:12;stroke-linecap:round;stroke-linejoin:round;stroke-miterlimit:10;" width="1191.777" height="679.447"/>
		<g>
			
				<path style="fill:#B5D4FF;stroke:#B5D4FF;stroke-width:12;stroke-linecap:round;stroke-linejoin:round;stroke-miterlimit:10;" d="
				M2583.743,3669.539c5.516-17.458,8.525-36.029,8.525-55.31c0-21.133-3.754-41.347-10.33-60.239l-173.109,60.239
				L2583.743,3669.539z"/>
			
				<path style="fill:#B5D4FF;stroke:#B5D4FF;stroke-width:12;stroke-linecap:round;stroke-linejoin:round;stroke-miterlimit:10;" d="
				M2476.486,3443.834c-20.953-8.329-43.737-13.045-67.657-13.045c-101.311,0-183.439,82.128-183.439,183.439
				c0,29.24,7.019,56.779,19.188,81.31l164.251-81.31L2476.486,3443.834z"/>
			
				<path style="fill:#FFFFFF;stroke:#B5D4FF;stroke-width:12;stroke-linecap:round;stroke-linejoin:round;stroke-miterlimit:10;" d="
				M2408.829,3614.229l-164.251,81.31c29.994,60.464,92.18,102.13,164.251,102.13c82.029,0,151.447-53.858,174.914-128.129
				L2408.829,3614.229z"/>
			
				<path style="fill:#FFFFFF;stroke:#B5D4FF;stroke-width:12;stroke-linecap:round;stroke-linejoin:round;stroke-miterlimit:10;" d="
				M2581.938,3553.989c-17.505-50.292-56.174-90.568-105.452-110.155l-67.657,170.394L2581.938,3553.989z"/>
		</g>
		<rect x="2692.355" y="3468.892" style="fill:#B5D4FF;" width="508.122" height="39.151"/>
		<rect x="2692.355" y="3553.725" style="fill:#B5D4FF;" width="398.184" height="39.151"/>
		<rect x="2692.355" y="3638.558" style="fill:#B5D4FF;" width="430.854" height="39.151"/>
		<rect x="2692.355" y="3723.392" style="fill:#B5D4FF;" width="165.342" height="39.151"/>
	</g>
	<g>
		<path style="fill:#FFFFFF;stroke:#B5D4FF;stroke-width:12;stroke-linecap:round;stroke-linejoin:round;stroke-miterlimit:10;" d="
			M4515.212,3358.832H990.232c-120.939,0-218.979-98.04-218.979-218.979V1540.161c0-120.939,98.04-218.979,218.979-218.979h3524.979
			c120.938,0,218.979,98.04,218.979,218.979v1599.692C4734.191,3260.792,4636.15,3358.832,4515.212,3358.832z"/>
		<g>
			
				<line style="fill:none;stroke:#B5D4FF;stroke-width:12;stroke-linecap:round;stroke-linejoin:round;stroke-miterlimit:10;" x1="1431.743" y1="1321.182" x2="1431.743" y2="3358.832"/>
			
				<line style="fill:none;stroke:#B5D4FF;stroke-width:12;stroke-linecap:round;stroke-linejoin:round;stroke-miterlimit:10;" x1="2092.233" y1="1321.182" x2="2092.233" y2="3358.832"/>
			
				<line style="fill:none;stroke:#B5D4FF;stroke-width:12;stroke-linecap:round;stroke-linejoin:round;stroke-miterlimit:10;" x1="2752.722" y1="1321.182" x2="2752.722" y2="3358.832"/>
			
				<line style="fill:none;stroke:#B5D4FF;stroke-width:12;stroke-linecap:round;stroke-linejoin:round;stroke-miterlimit:10;" x1="3413.212" y1="1321.182" x2="3413.212" y2="3358.832"/>
			
				<line style="fill:none;stroke:#B5D4FF;stroke-width:12;stroke-linecap:round;stroke-linejoin:round;stroke-miterlimit:10;" x1="4073.701" y1="1321.182" x2="4073.701" y2="3358.832"/>
		</g>
		<g>
			
				<line style="fill:none;stroke:#B5D4FF;stroke-width:12;stroke-linecap:round;stroke-linejoin:round;stroke-miterlimit:10;" x1="771.253" y1="2849.42" x2="4734.191" y2="2849.42"/>
			
				<line style="fill:none;stroke:#B5D4FF;stroke-width:12;stroke-linecap:round;stroke-linejoin:round;stroke-miterlimit:10;" x1="771.253" y1="2340.007" x2="4734.191" y2="2340.007"/>
			
				<line style="fill:none;stroke:#B5D4FF;stroke-width:12;stroke-linecap:round;stroke-linejoin:round;stroke-miterlimit:10;" x1="771.253" y1="1830.595" x2="4734.191" y2="1830.595"/>
		</g>
	</g>
	<g>
		<polygon style="fill:#B5D4FF;" points="4574.51,1456.163 4580.176,1404.158 4107.749,1412.831 4102.083,1464.835 
			4185.269,1572.643 2887.191,2557.24 2334.351,1906.365 832.858,2952.099 827.192,3004.104 1002.554,3244.865 2286.273,2309.858 
			2842.632,2964.864 4367.224,1808.459 4450.383,1916.233 		"/>
		
			<polygon style="fill:#FFFFFF;stroke:#B5D4FF;stroke-width:12;stroke-linecap:round;stroke-linejoin:round;stroke-miterlimit:10;" points="
			4580.176,1404.158 4107.749,1412.831 4190.935,1520.639 2892.857,2505.235 2340.017,1854.361 832.858,2952.099 1008.22,3192.861 
			2291.939,2257.853 2848.298,2912.86 4372.89,1756.455 4456.05,1864.228 		"/>
	</g>
	<g>
		<g>
			<path style="fill:#FFFFFF;" d="M2890.813,1661.297H1287.468c-33.844,0-61.535-27.691-61.535-61.535V461.608
				c0-33.844,27.691-61.535,61.535-61.535h1603.345c33.844,0,61.535,27.691,61.535,61.535v1138.154
				C2952.348,1633.607,2924.657,1661.297,2890.813,1661.297z"/>
			<path style="fill:#B5D4FF;" d="M1225.933,505.779c0-28.184,0-44.17,0-44.17c0-33.844,27.691-61.535,61.535-61.535h1603.345
				c33.844,0,61.535,27.691,61.535,61.535c0,0,0,15.987,0,44.17H1225.933z"/>
			<path style="fill:none;stroke:#B5D4FF;stroke-width:12;stroke-linecap:round;stroke-linejoin:round;stroke-miterlimit:10;" d="
				M2890.813,1661.297H1287.468c-33.844,0-61.535-27.691-61.535-61.535V461.608c0-33.844,27.691-61.535,61.535-61.535h1603.345
				c33.844,0,61.535,27.691,61.535,61.535v1138.154C2952.348,1633.607,2924.657,1661.297,2890.813,1661.297z"/>
			
				<line style="fill:none;stroke:#B5D4FF;stroke-width:12;stroke-linecap:round;stroke-linejoin:round;stroke-miterlimit:10;" x1="1225.933" y1="506.304" x2="2952.348" y2="506.304"/>
			<g>
				<g>
					
						<circle style="fill:none;stroke:#FFFFFF;stroke-width:12;stroke-linecap:round;stroke-linejoin:round;stroke-miterlimit:10;" cx="1291.881" cy="458.998" r="20.856"/>
					
						<circle style="fill:none;stroke:#FFFFFF;stroke-width:12;stroke-linecap:round;stroke-linejoin:round;stroke-miterlimit:10;" cx="1369.395" cy="458.998" r="20.856"/>
					
						<circle style="fill:none;stroke:#FFFFFF;stroke-width:12;stroke-linecap:round;stroke-linejoin:round;stroke-miterlimit:10;" cx="1446.909" cy="458.998" r="20.856"/>
				</g>
				<g>
					
						<line style="fill:none;stroke:#FFFFFF;stroke-width:12;stroke-linecap:round;stroke-linejoin:round;stroke-miterlimit:10;" x1="2701.661" y1="474.413" x2="2735.579" y2="474.413"/>
					<g>
						
							<line style="fill:none;stroke:#FFFFFF;stroke-width:12;stroke-linecap:round;stroke-linejoin:round;stroke-miterlimit:10;" x1="2860.293" y1="439.243" x2="2896.64" y2="475.591"/>
						
							<line style="fill:none;stroke:#FFFFFF;stroke-width:12;stroke-linecap:round;stroke-linejoin:round;stroke-miterlimit:10;" x1="2896.64" y1="439.243" x2="2860.293" y2="475.591"/>
					</g>
					<g>
						
							<rect x="2768.383" y="443.728" style="fill:none;stroke:#FFFFFF;stroke-width:12;stroke-linecap:round;stroke-linejoin:round;stroke-miterlimit:10;" width="33.115" height="33.115"/>
						
							<polyline style="fill:none;stroke:#FFFFFF;stroke-width:12;stroke-linecap:round;stroke-linejoin:round;stroke-miterlimit:10;" points="
							2781.515,443.728 2781.515,430.596 2814.63,430.596 2814.63,463.711 2801.498,463.711 						"/>
					</g>
				</g>
			</g>
			<g>
				<g>
					<g>
						<g>
							<g>
								<g>
									<g>
										<g>
											<g>
												<g>
													<g>
														
															<path style="fill:#FFFFFF;stroke:#383838;stroke-width:12;stroke-linecap:round;stroke-linejoin:round;stroke-miterlimit:10;" d="
															M1850.945,630.06l-27.09,217.835c-11.149,65.899-194.497,35.093-184.812-33.466
															c9.684-68.559,45.788-324.153,45.788-324.153S1860.393,445.923,1850.945,630.06z"/>
													</g>
												</g>
											</g>
											<path style="fill:#FFFFFF;" d="M1618.669,765.033l28.867-78.629c0,0,51.499,52.439,110.141,56.425
												c0,0,59.122,79.138,65.954,156.568s0,113.868,0,113.868S1626.071,886.303,1618.669,765.033z"/>
											<path style="fill:#FFFFFF;" d="M1852.434,791.555l-73.828,278.527l93.253,67.978c0,0,22.945-187.173,24.653-232.72
												C1898.219,859.792,1852.434,791.555,1852.434,791.555z"/>
											
												<path style="fill:#383838;stroke:#383838;stroke-width:12;stroke-linecap:round;stroke-linejoin:round;stroke-miterlimit:10;" d="
												M1779.576,1605.759c2.286-115.515,7.836-268.159,21.212-376.761c24.345-197.679,8.592-279.308,8.592-279.308
												l-31.359-67.245l69.226-13.158v80.403c0,0,131.52,457.392,77.034,656.07H1779.576z"/>
											<path style="fill:#A9B5C4;" d="M2045.483,1661.302h-494.864c35.31-167.43,84.606-430.563,68.047-525.06
												c-25.049-142.902-59.773-317.629-59.773-317.629l70.979-84.073c22.389,60.099,231.927,326.001,231.927,326.001
												s45.897-124.476,0-255.098c0,0,149.257,114.518,167.477,148.112C2046.181,984.739,2047.644,1547.131,2045.483,1661.302z"
												/>
											<path style="fill:#B5D4FF;" d="M1693.249,1541.039c-4.93,44.898-17.959,84.942-35.658,120.263h-188.365
												c9.881-70.295,21.173-138.038,31.021-165.237c-26.765-50.099-190.438-485.733-188.701-511.064
												c8.969-130.676,318.324-250.462,318.324-250.462c-22.4,67.993,71.022,177.507,81.033,341.918
												C1715.953,1159.435,1717.734,1317.864,1693.249,1541.039z"/>
											
												<path style="fill:none;stroke:#383838;stroke-width:12;stroke-linecap:round;stroke-linejoin:round;stroke-miterlimit:10;" d="
												M1629.871,734.539c-22.4,67.993,71.022,177.507,81.033,341.918c5.049,82.977,6.83,241.406-17.655,464.581
												c-4.93,44.898-17.959,84.942-35.658,120.263"/>
											<path style="fill:#B5D4FF;" d="M2082.02,1661.302h-51.543c-6.721-62.64-11.021-133.988-11.357-214.652
												c-1.672-404.146-61.033-488.914-181.535-673.478c0,0,144.618,59.035,184.836,145.019
												c81.098,173.337,63.867,515.484,57.189,640.231C2078.122,1586.241,2079.251,1621.953,2082.02,1661.302z"/>
											
												<path style="fill:none;stroke:#383838;stroke-width:12;stroke-linecap:round;stroke-linejoin:round;stroke-miterlimit:10;" d="
												M1870.93,830.394c94.063,147.18,146.724,262.177,148.19,616.257c0.337,80.664,4.636,152.012,11.357,214.652"/>
											<path style="fill:#0981C9;" d="M1422.671,930.682"/>
											<g>
												<path style="fill:#B5D4FF;" d="M1376.12,1503.199c0,5.809,27.34,78.916,57.623,158.103h-143.098
													c-35.593,0-64.714-29.132-64.714-64.725v-497.742c57.526-140.785,137.43-252.959,236.466-220.7
													C1624.214,930.852,1376.12,1490.18,1376.12,1503.199z"/>
											</g>
											
												<path style="fill:none;stroke:#383838;stroke-width:12;stroke-linecap:round;stroke-linejoin:round;stroke-miterlimit:10;" d="
												M1618.669,1579.318c-53.144-16.214-118.422-83.253-118.422-83.253s19.12,53.913,35.636,70.79"/>
											
												<path style="fill:none;stroke:#383838;stroke-width:12;stroke-linecap:round;stroke-linejoin:round;stroke-miterlimit:10;" d="
												M1576.448,896.173v145.442l77.536,20.781l-57.049,34.595c0,0,115.293,273.177,103.036,375.885"/>
											<path style="fill:#FFFFFF;" d="M1835.983,862.418c0,0,28.661-16.362,60.528,6.868
												c-7.006-48.058-41.625-77.731-41.625-77.731l-17.305-18.384l-23.324,71.922L1835.983,862.418z"/>
											
												<path style="fill:none;stroke:#383838;stroke-width:12;stroke-linecap:round;stroke-linejoin:round;stroke-miterlimit:10;" d="
												M1896.511,869.286c0,0-11.374-52.03-44.078-77.731l-38.176,61.048"/>
											
												<path style="fill:none;stroke:#383838;stroke-width:12;stroke-linecap:round;stroke-linejoin:round;stroke-miterlimit:10;" d="
												M1934.629,855.513c50.347,54.987,72.876,106.186,72.876,106.186l-28.008,42.268l42.926,32.322
												c0,0,0.22,51.363,0.111,116.661"/>
											
												<path style="fill:none;stroke:#383838;stroke-width:12;stroke-linecap:round;stroke-linejoin:round;stroke-miterlimit:10;" d="
												M1691.495,896.173"/>
											
												<path style="fill:none;stroke:#383838;stroke-width:12;stroke-linecap:round;stroke-linejoin:round;stroke-miterlimit:10;" d="
												M1715.053,839.263c17.17-52.127,41.943-89.989,41.943-89.989s69.672,88.393,75.257,186.794"/>
										</g>
									</g>
								</g>
							</g>
							<g>
								<g>
									<path style="fill:#383838;" d="M1737.958,356.452c-77.339,46.907-113.153,109.306-105.699,183.431
										c5.049,50.201,12.012,85.202,28.691,125.628L1737.958,356.452z"/>
									<g>
										<g>
											<g>
												<g>
													<g>
														<path style="fill:#FFFFFF;" d="M1830.946,295.776c-299.103,0-137.93,462.674,37.113,462.674
															c41.994,0,97.056-119.765,99.266-234.085C1969.571,408.142,1962.675,295.776,1830.946,295.776z"/>
														
															<path style="fill:none;stroke:#383838;stroke-width:12;stroke-linecap:round;stroke-linejoin:round;stroke-miterlimit:10;" d="
															M1742.144,680.832c35.797,46.318,80.387,77.618,125.915,77.618c41.994,0,97.056-119.765,99.266-234.085
															c2.246-116.223-4.649-228.589-136.379-228.589"/>
													</g>
													<g>
														<path style="fill:#383838;" d="M1964.286,428.025c-6.606-58.649-37.234-63.697-59.336-50.118
															c-22.103,13.579-58.456,44.761-189.821,40.254c0,0,2.445,125.793-15.005,143.244
															c-17.451,17.451-57.384,13.755-81.455-39.659c-76.135-168.943,64.929-231.111,158.628-231.089
															c22.721,0.005,64.868-5.271,58.145-39.482C1904.005,246.7,1975.26,308.237,1964.286,428.025z"/>
													</g>
													<g>
														<path style="fill:#FFFFFF;" d="M1728.477,606.792c37.729-50.336-47.733-123.072-71.556-78.828
															C1633.098,572.207,1693.177,653.888,1728.477,606.792z"/>
														
															<path style="fill:none;stroke:#383838;stroke-width:12;stroke-linecap:round;stroke-linejoin:round;stroke-miterlimit:10;" d="
															M1715.712,531.844c-19.622-18.896-46.893-25.976-58.791-3.88c-20.402,37.89,20.729,103.235,55.136,91.644"/>
													</g>
												</g>
											</g>
										</g>
									</g>
								</g>
							</g>
						</g>
					</g>
				</g>
				
					<polygon style="fill:#383838;stroke:#383838;stroke-width:12;stroke-linecap:round;stroke-linejoin:round;stroke-miterlimit:10;" points="
					1726.533,808.635 1820.419,872.557 1815.999,852.002 1837.582,815.304 1843.099,902.201 1814.257,910.287 1717.726,831.431 				
					"/>
			</g>
			<path style="fill:#B5D4FF;" d="M2983.996,672.122h-715.063c-48.761,0-88.29,39.529-88.29,88.29v28.576l-162.117-37.239
				l162.117,130.989v315.295c0,48.761,39.529,88.29,88.29,88.29h715.063c48.761,0,88.29-39.529,88.29-88.29V760.412
				C3072.286,711.651,3032.757,672.122,2983.996,672.122z"/>
			
				<line style="fill:none;stroke:#FFFFFF;stroke-width:12;stroke-linecap:round;stroke-linejoin:round;stroke-miterlimit:10;" x1="2327.506" y1="801.999" x2="2833.288" y2="801.999"/>
			
				<line style="fill:none;stroke:#FFFFFF;stroke-width:12;stroke-linecap:round;stroke-linejoin:round;stroke-miterlimit:10;" x1="2327.506" y1="889.738" x2="2913.913" y2="889.738"/>
			
				<line style="fill:none;stroke:#FFFFFF;stroke-width:12;stroke-linecap:round;stroke-linejoin:round;stroke-miterlimit:10;" x1="2327.506" y1="977.476" x2="2837.104" y2="977.476"/>
		</g>
		
			<line style="fill:none;stroke:#FFFFFF;stroke-width:12;stroke-linecap:round;stroke-linejoin:round;stroke-miterlimit:10;" x1="2327.506" y1="1065.215" x2="2870.179" y2="1065.215"/>
		
			<line style="fill:none;stroke:#FFFFFF;stroke-width:12;stroke-linecap:round;stroke-linejoin:round;stroke-miterlimit:10;" x1="2327.506" y1="1152.954" x2="2579.558" y2="1152.954"/>
	</g>
	<g>
		<path style="fill:#FFFFFF;" d="M3089.272,1452.792v1138.157c0,33.842-27.689,61.531-61.531,61.531H1424.392
			c-33.842,0-61.532-27.689-61.532-61.531V1452.792c0-33.842,27.689-61.531,61.532-61.531h1603.349
			C3061.583,1391.26,3089.272,1418.949,3089.272,1452.792z"/>
		<path style="fill:#B5D4FF;" d="M1362.861,1496.966c0-28.184,0-44.17,0-44.17c0-33.844,27.691-61.535,61.535-61.535H3027.74
			c33.844,0,61.535,27.691,61.535,61.535c0,0,0,15.987,0,44.17L1362.861,1496.966z"/>
		<path style="fill:none;stroke:#B5D4FF;stroke-width:12;stroke-linecap:round;stroke-linejoin:round;stroke-miterlimit:10;" d="
			M3027.74,2652.485H1424.396c-33.844,0-61.535-27.691-61.535-61.535V1452.795c0-33.844,27.691-61.535,61.535-61.535H3027.74
			c33.844,0,61.535,27.691,61.535,61.535v1138.154C3089.275,2624.794,3061.584,2652.485,3027.74,2652.485z"/>
		<g>
			<g>
				
					<ellipse transform="matrix(0.9926 -0.1216 0.1216 0.9926 -165.7034 184.4591)" style="fill:none;stroke:#FFFFFF;stroke-width:12;stroke-linecap:round;stroke-linejoin:round;stroke-miterlimit:10;" cx="1428.809" cy="1450.185" rx="20.856" ry="20.856"/>
				
					<ellipse transform="matrix(0.9259 -0.3779 0.3779 0.9259 -436.2933 676.6945)" style="fill:none;stroke:#FFFFFF;stroke-width:12;stroke-linecap:round;stroke-linejoin:round;stroke-miterlimit:10;" cx="1506.323" cy="1450.185" rx="20.856" ry="20.856"/>
				
					<ellipse transform="matrix(0.9259 -0.3779 0.3779 0.9259 -430.5466 705.9841)" style="fill:none;stroke:#FFFFFF;stroke-width:12;stroke-linecap:round;stroke-linejoin:round;stroke-miterlimit:10;" cx="1583.837" cy="1450.185" rx="20.856" ry="20.856"/>
			</g>
			<g>
				
					<line style="fill:none;stroke:#383838;stroke-width:12;stroke-linecap:round;stroke-linejoin:round;stroke-miterlimit:10;" x1="2838.589" y1="1465.6" x2="2872.507" y2="1465.6"/>
				<g>
					
						<line style="fill:none;stroke:#383838;stroke-width:12;stroke-linecap:round;stroke-linejoin:round;stroke-miterlimit:10;" x1="2997.22" y1="1430.43" x2="3033.568" y2="1466.777"/>
					
						<line style="fill:none;stroke:#383838;stroke-width:12;stroke-linecap:round;stroke-linejoin:round;stroke-miterlimit:10;" x1="3033.568" y1="1430.43" x2="2997.22" y2="1466.777"/>
				</g>
				<g>
					
						<rect x="2905.31" y="1434.915" style="fill:none;stroke:#383838;stroke-width:12;stroke-linecap:round;stroke-linejoin:round;stroke-miterlimit:10;" width="33.115" height="33.115"/>
					
						<polyline style="fill:none;stroke:#383838;stroke-width:12;stroke-linecap:round;stroke-linejoin:round;stroke-miterlimit:10;" points="
						2918.442,1434.915 2918.442,1421.783 2951.557,1421.783 2951.557,1454.898 2938.425,1454.898 					"/>
				</g>
			</g>
		</g>
		<g>
			
				<path style="fill:#FFFFFF;stroke:#B5D4FF;stroke-width:12;stroke-linecap:round;stroke-linejoin:round;stroke-miterlimit:10;" d="
				M3174.932,1215.739h-715.063c-48.761,0-88.29,39.529-88.29,88.29v347.36l-162.005,62.579l162.844,39.729
				c5.878,43.059,42.778,76.243,87.45,76.243h715.063c48.761,0,88.29-39.529,88.29-88.29v-437.621
				C3263.222,1255.267,3223.694,1215.739,3174.932,1215.739z"/>
			
				<line style="fill:#FBD969;stroke:#B5D4FF;stroke-width:12;stroke-linecap:round;stroke-linejoin:round;stroke-miterlimit:10;" x1="2533.367" y1="1338.163" x2="3108.807" y2="1338.163"/>
			
				<line style="fill:#FBD969;stroke:#B5D4FF;stroke-width:12;stroke-linecap:round;stroke-linejoin:round;stroke-miterlimit:10;" x1="2533.367" y1="1425.902" x2="3048.448" y2="1425.902"/>
			
				<line style="fill:#FBD969;stroke:#B5D4FF;stroke-width:12;stroke-linecap:round;stroke-linejoin:round;stroke-miterlimit:10;" x1="2533.367" y1="1513.641" x2="3122.085" y2="1513.641"/>
			
				<line style="fill:#FBD969;stroke:#B5D4FF;stroke-width:12;stroke-linecap:round;stroke-linejoin:round;stroke-miterlimit:10;" x1="2533.367" y1="1601.379" x2="3088.454" y2="1601.379"/>
			
				<line style="fill:#FBD969;stroke:#B5D4FF;stroke-width:12;stroke-linecap:round;stroke-linejoin:round;stroke-miterlimit:10;" x1="2533.367" y1="1689.118" x2="2842.024" y2="1689.118"/>
		</g>
		<g>
			<path style="fill:#383838;" d="M1950.331,1329.582c-145.146-14.7-350.949,140.718-331.839,432.186
				c19.11,291.468,206.702,482.167,206.702,482.167s230.044,28.326,321.036-87.305c195.513-248.455-81.487-602.318-81.487-602.318
				L1950.331,1329.582z"/>
			<g>
				<g>
					<path style="fill:#FFFFFF;" d="M2527.14,2652.569h-217.016c-6.259-5.807-11.885-12.497-16.69-20.03l-4.844-7.603
						l-335.38-525.787c-0.772-1.223-1.775-2.868-2.507-4.122c-32.868-56.478-13.731-128.904,42.747-161.772
						c56.478-32.868,128.914-13.721,161.772,42.757L2527.14,2652.569z"/>
					<path style="fill:none;stroke:#383838;stroke-width:12;stroke-linecap:round;stroke-linejoin:round;stroke-miterlimit:10;" d="
						M2288.589,2624.937l-335.38-525.787c-0.772-1.223-1.775-2.868-2.507-4.122c-32.868-56.478-13.731-128.904,42.747-161.772
						c56.478-32.868,128.914-13.721,161.772,42.757l371.918,676.556"/>
					
						<path style="fill:#A9B5C4;stroke:#383838;stroke-width:12;stroke-linecap:round;stroke-linejoin:round;stroke-miterlimit:10;" d="
						M2347.462,2281.345c-105.892,139.915-234.397,158.627-234.397,158.627s-138.571-233.989-188.574-346.587
						c-50.003-112.598,118.187-306.552,250.444-101.938C2310.531,2201.226,2347.462,2281.345,2347.462,2281.345z"/>
					<path style="fill:#A9B5C4;" d="M1943.39,2652.569h-482.277c20.14-64.161,55.385-184.901,81.302-319.643
						c-14.634-161.963-109.145-301.037-95.896-349.05c28.064-101.743,148.984-147.128,373.523-150.639
						c0,0,275.682,15.797,338.83,145.614C2209.353,2082.601,2021.032,2492.292,1943.39,2652.569z"/>
					<path style="fill:none;stroke:#383838;stroke-width:12;stroke-linecap:round;stroke-linejoin:round;stroke-miterlimit:10;" d="
						M1943.4,2652.57c40.651-83.94,111.673-236.294,162.845-377.274"/>
					<path style="fill:none;stroke:#383838;stroke-width:12;stroke-linecap:round;stroke-linejoin:round;stroke-miterlimit:10;" d="
						M1469.967,2616.222c20.14-64.161,46.531-148.554,72.448-283.296c-14.634-161.963-109.145-301.037-95.896-349.05
						c28.064-101.743,148.984-147.128,373.523-150.639c0,0,275.682,15.797,338.83,145.614c3.882,7.964,6.349,17.733,7.563,29.057"/>
					<path style="fill:#FFFFFF;" d="M1886.701,2652.399l-2.658,0.17h-461.405c-32.878,0-59.778-26.9-59.778-59.778v-406.642
						l94.732-221.972c0.572-1.324,1.354-3.069,1.976-4.383c28.063-59.006,98.654-84.091,157.66-56.027
						c59.016,28.064,84.101,98.654,56.037,157.67l-203.296,427.434l416.732,26.78c33.891,2.146,61.734,29.187,63.971,63.981
						C1953.099,2617.385,1924.454,2649.972,1886.701,2652.399z"/>
					<path style="fill:none;stroke:#383838;stroke-width:12;stroke-linecap:round;stroke-linejoin:round;stroke-miterlimit:10;" d="
						M1363.004,2186.149l94.732-221.972c0.572-1.324,1.354-3.069,1.976-4.383c28.064-59.006,98.654-84.091,157.66-56.027
						c59.016,28.064,84.101,98.654,56.037,157.67l-203.296,427.434l416.732,26.78c33.891,2.146,61.734,29.187,63.971,63.981"/>
					<path style="fill:none;stroke:#383838;stroke-width:12;stroke-linecap:round;stroke-linejoin:round;stroke-miterlimit:10;" d="
						M1950.816,2652.569"/>
					<g>
						<path style="fill:#FFFFFF;" d="M1965.155,2407.246c-13.14-8.746-39.607,51.424-83.746,76.159
							c-43.221,24.22-102.084,55.585-46.72,74.306c55.365,18.72,108.748,38.077,117.748,0.251c9-37.826-15.499-45.05-4.378-62.633
							C1959.18,2477.745,1989.6,2423.516,1965.155,2407.246z"/>
						
							<path style="fill:none;stroke:#383838;stroke-width:12;stroke-linecap:round;stroke-linejoin:round;stroke-miterlimit:10;" d="
							M1952.437,2557.961c9-37.826-15.499-45.05-4.378-62.633c11.121-17.583,41.541-71.812,17.097-88.082
							c-13.14-8.746-39.607,51.424-83.746,76.159c-27.013,15.137-60.136,33.066-67.664,48.954"/>
						<g>
							
								<path style="fill:#B5D4FF;stroke:#383838;stroke-width:12;stroke-linecap:round;stroke-linejoin:round;stroke-miterlimit:10;" d="
								M2113.642,2649.622c1.831,0.958,3.844-0.922,3.007-2.812c-5.076-11.456-16.321-36.515-18.9-39.583l-282.284-326.667
								c-5.556-6.432-15.272-7.139-21.706-1.581c-6.43,5.557-7.139,15.275-1.581,21.706l282.284,326.667
								C2076.977,2630.265,2102.255,2643.667,2113.642,2649.622z"/>
							
								<path style="fill:#FFFFFF;stroke:#383838;stroke-width:12;stroke-linecap:round;stroke-linejoin:round;stroke-miterlimit:10;" d="
								M1848.957,2319.318c-26.156-30.269-33.492-38.758-33.492-38.758c-5.556-6.432-15.272-7.139-21.706-1.581
								c-6.43,5.557-7.139,15.275-1.581,21.706c0,0,17.787,20.583,33.979,39.322L1848.957,2319.318z"/>
						</g>
						<g>
							<path style="fill:#FFFFFF;" d="M2024.971,2654.256c5.578-2.159,10.14-6.771,12.009-12.94
								c3.221-10.637-2.789-21.872-13.426-25.094l-71.356-21.616c-10.638-3.225-21.872,2.788-25.095,13.425
								c-3.222,10.637,2.789,21.872,13.427,25.094l71.355,21.615C2016.354,2656.096,2020.93,2655.82,2024.971,2654.256z"/>
						</g>
						<path style="fill:#FFFFFF;" d="M1815.036,2540.787c15.668-3.089,29.888-27.447,47.088-33.081
							c68.681-22.496,167.143-30.255,167.143-30.255c8.626-1.457,17.207,2.827,21.226,10.597l39.474,76.314
							c5.107,9.872,1.244,22.015-8.628,27.12c-1.663,0.861-3.388,1.466-5.135,1.831c-8.626,1.804-17.739-2.25-21.985-10.459
							l-19.081-36.888c-11.868,31.644-32.563,65.856-50.58,85.801c-2.995,3.315-22.524,7.029-18.625,18.113
							c-42.306,6.946-130.7,3.792-151.893-24.084C1788.978,2592.831,1815.036,2540.787,1815.036,2540.787z"/>
						
							<path style="fill:none;stroke:#383838;stroke-width:12;stroke-linecap:round;stroke-linejoin:round;stroke-miterlimit:10;" d="
							M1923.968,2492.129c54.233-10.655,105.3-14.679,105.3-14.679c8.626-1.457,17.207,2.827,21.226,10.597l39.474,76.314
							c5.107,9.872,1.244,22.015-8.628,27.12c-1.663,0.861-3.388,1.466-5.135,1.831c-8.626,1.804-17.739-2.25-21.985-10.459"/>
						<g>
							<path style="fill:#FFFFFF;" d="M2046.04,2641.111c4.234-0.886,8.216-3.137,11.226-6.695
								c7.179-8.485,6.123-21.182-2.361-28.362l-72.938-61.727c-8.486-7.179-21.186-6.121-28.362,2.36
								c-7.18,8.485-6.123,21.182,2.36,28.362l72.938,61.727C2033.831,2640.946,2040.177,2642.338,2046.04,2641.111z"/>
						</g>
						<g>
							
								<path style="fill:none;stroke:#383838;stroke-width:12;stroke-linecap:round;stroke-linejoin:round;stroke-miterlimit:10;" d="
								M1978.047,2593.736l50.857,43.04c4.927,4.169,11.274,5.562,17.136,4.335c4.234-0.886,8.216-3.137,11.226-6.695
								c7.179-8.485,6.123-21.182-2.361-28.362"/>
						</g>
						<g>
							<g>
								<path style="fill:#FFFFFF;" d="M2068.904,2616.941c3.754-0.785,7.325-2.65,10.214-5.59
									c7.791-7.928,7.679-20.669-0.248-28.459l-71.188-69.955c-7.928-7.791-20.67-7.678-28.459,0.248
									c-7.791,7.928-7.68,20.669,0.248,28.459l71.188,69.955C2055.645,2616.499,2062.538,2618.273,2068.904,2616.941z"/>
							</g>
							<g>
								
									<path style="fill:none;stroke:#383838;stroke-width:12;stroke-linecap:round;stroke-linejoin:round;stroke-miterlimit:10;" d="
									M1996.505,2558.678l54.153,52.92c4.987,4.901,11.88,6.675,18.246,5.343c3.754-0.785,7.325-2.65,10.214-5.59
									c7.791-7.928,7.679-20.669-0.248-28.459l-61.225-59.991"/>
							</g>
						</g>
					</g>
					<path style="fill:#A9B5C4;" d="M1708.63,2060.435c-59.868,236.164-139.927,328.228-139.927,328.228
						c-87.671,2.878-157.71-19.679-205.844-42.948v-199.033c34.724-70.54,74.031-149.877,99.978-200.688
						C1518.875,1836.277,1768.499,1824.271,1708.63,2060.435z"/>
					<path style="fill:none;stroke:#383838;stroke-width:12;stroke-linecap:round;stroke-linejoin:round;stroke-miterlimit:10;" d="
						M1362.86,2146.682c34.724-70.54,74.031-149.877,99.978-200.688c22.708-44.453,77.2-72.867,130.007-75.234"/>
					<path style="fill:none;stroke:#383838;stroke-width:12;stroke-linecap:round;stroke-linejoin:round;stroke-miterlimit:10;" d="
						M1362.86,2345.715c48.134,23.269,118.172,45.826,205.843,42.948c0,0,50.33-57.873,101.011-199.555"/>
					<path style="fill:#FFFFFF;" d="M1653.985,1919.658c0,51.1,154.265,210.1,268.302,210.1
						c114.037,0,131.931-138.312,121.478-190.431c-10.048-50.102-92.445-92.525-206.482-92.525S1653.985,1868.558,1653.985,1919.658
						z"/>
					<path style="fill:none;stroke:#383838;stroke-width:12;stroke-linecap:round;stroke-linejoin:round;stroke-miterlimit:10;" d="
						M1837.282,1846.802c-114.037,0-183.297,21.756-183.297,72.856c0,51.1,154.265,210.1,268.302,210.1
						c83.427,0,115.397-74.025,122.457-134.172"/>
					<g>
						<path style="fill:#383838;" d="M1717.798,1472.779c48.42-135.453,256.101-146.307,332.704-58.746
							c75.839,86.687,10.846,226.72-111.357,231.613C1816.942,1650.538,1717.798,1472.779,1717.798,1472.779z"/>
						<g>
							<g>
								<g>
									<g>
										<g>
											<g>
												<path style="fill:#FFFFFF;" d="M2017.238,1733.334l-76.461,233.899c-26.381,70.126-221.535-3.038-196.196-76.405
													c25.339-73.367,119.805-346.884,119.805-346.884S2067.069,1532.738,2017.238,1733.334z"/>
												
													<path style="fill:none;stroke:#383838;stroke-width:12;stroke-linecap:round;stroke-linejoin:round;stroke-miterlimit:10;" d="
													M1744.582,1890.827c25.339-73.367,119.805-346.884,119.805-346.884s202.683-11.205,152.851,189.39l-76.461,233.899"/>
												<path style="fill:#FFFFFF;" d="M1903.418,1381.342c-289.291,76.33-34.037,501.347,145.462,447.446
													c31.905-9.581,71.814-150.026,44.777-261.159C2066.17,1454.646,2030.826,1347.726,1903.418,1381.342z"/>
												
													<path style="fill:none;stroke:#383838;stroke-width:12;stroke-linecap:round;stroke-linejoin:round;stroke-miterlimit:10;" d="
													M1896.583,1781.878c47.902,40.36,102.961,61.725,152.297,46.911c31.905-9.581,71.814-150.026,44.777-261.159
													c-27.487-112.984-62.832-219.904-190.24-186.287"/>
											</g>
										</g>
									</g>
								</g>
								<g>
									<g>
										<g>
											<path style="fill:#383838;" d="M2082.073,1494.703c-43.427-103.725-147.372-24.002-185.486-59.81
												c4.702,96.794-80.635,103.428-49.2,238.288c-16.546,12.236-37.235,27.353-47.217,56.694
												c-45.448-38.638-86.21-85.201-108.279-179.707c-22.069-94.506,40.606-212.931,170.236-228.501
												C2009.692,1303.941,2099.087,1407.084,2082.073,1494.703z"/>
										</g>
									</g>
									<g>
										<path style="fill:#FFFFFF;" d="M1865.814,1670.28c23.646-58.313-77.574-106.854-89.325-57.982
											C1764.738,1661.17,1843.69,1724.839,1865.814,1670.28z"/>
										
											<path style="fill:none;stroke:#383838;stroke-width:12;stroke-linecap:round;stroke-linejoin:round;stroke-miterlimit:10;" d="
											M1776.489,1612.298c-10.064,41.853,46.394,94.559,76.714,74.567"/>
										
											<path style="fill:none;stroke:#383838;stroke-width:12;stroke-linecap:round;stroke-linejoin:round;stroke-miterlimit:10;" d="
											M1847.551,1610.242c-25.186-21.584-64.051-27.104-71.063,2.056"/>
									</g>
								</g>
							</g>
						</g>
					</g>
					
						<line style="fill:#FDF1DC;stroke:#383838;stroke-width:12;stroke-linecap:round;stroke-linejoin:round;stroke-miterlimit:10;" x1="1469.967" y1="2488.867" x2="1436.042" y2="2486.799"/>
				</g>
			</g>
		</g>
		<path style="fill:none;stroke:#B5D4FF;stroke-width:12;stroke-linecap:round;stroke-linejoin:round;stroke-miterlimit:10;" d="
			M3089.275,1907.608v683.341c0,33.844-27.691,61.535-61.535,61.535H1424.396c-33.844,0-61.535-27.691-61.535-61.535V1452.795"/>
	</g>
	<g>
		<g>
			<g>
				<g>
					<path style="fill:#FFFFFF;" d="M4021.762,2254.537c-21.844-59.015-58.892-48.828-97.407-45.599
						c-38.515,3.229-105.273-7.726-105.273-7.726s-1.282,22.19,22.073,27.873c23.356,5.683,32.754,2.707,39.64,17.382
						c14.702,31.333-121.035,117.981-110.371,130.947c13.613,16.551,93.249-72.539,108.705-56.853
						c15.456,15.686-86.694,100.919-75.239,109.965c19.292,15.236,91.732-82.347,99.907-76.562
						c14.14,10.007-72.05,94.028-61.359,101.203c14.041,9.424,95.319-82.505,95.319-82.505s-31.616,70.519-23.929,73.5
						c9.404,3.646,28.841-31.223,50.751-66.313c29.981-35.383,61.72-75.785,66.954-86.27
						C4041.505,2273.609,4021.762,2254.537,4021.762,2254.537z"/>
				</g>
				<g>
					<path style="fill:none;stroke:#383838;stroke-width:12;stroke-linecap:round;stroke-linejoin:round;stroke-miterlimit:10;" d="
						M3924.355,2208.938c-38.515,3.229-105.273-7.726-105.273-7.726s-1.282,22.19,22.073,27.873
						c23.356,5.683,32.754,2.707,39.64,17.382c14.702,31.333-121.035,117.981-110.371,130.947
						c13.613,16.551,93.249-72.539,108.705-56.853c15.456,15.686-86.694,100.919-75.239,109.965
						c19.292,15.236,91.732-82.347,99.907-76.562c14.14,10.007-72.05,94.028-61.359,101.203
						c14.041,9.424,95.319-82.505,95.319-82.505s-31.616,70.519-23.929,73.5c9.404,3.646,28.841-31.223,50.751-66.313
						c29.981-35.383,61.72-75.785,66.954-86.27c3.367-6.744,3.345-13.386,1.839-19.226"/>
				</g>
			</g>
			<g>
				
					<path style="fill:#FFFFFF;stroke:#383838;stroke-width:12;stroke-linecap:round;stroke-linejoin:round;stroke-miterlimit:10;" d="
					M3760.645,3935.747l-2.003,528.359c0,0-21.591,93.435-49.271,134.402c-61.436,90.925,167.701,10.053,167.701,10.053
					l97.869-711.785L3760.645,3935.747z"/>
				
					<path style="fill:#FFFFFF;stroke:#383838;stroke-width:12;stroke-linecap:round;stroke-linejoin:round;stroke-miterlimit:10;" d="
					M3265.279,4007.036l-14.487,415.835l-179.566,248.554c0,0,325.988,22.551,312.398-80.017
					c-9.14-68.986,42.98-295.094,99.023-584.372H3265.279z"/>
				<g>
					
						<path style="fill:#A9B5C4;stroke:#383838;stroke-width:12;stroke-linecap:round;stroke-linejoin:round;stroke-miterlimit:10;" d="
						M3397.74,4489.42v144.538l-215.108-34.301l-12.292-76.935l48.065-65.88C3218.404,4456.842,3305.32,4514.507,3397.74,4489.42z"
						/>
					<g>
						<g>
							<g>
								
									<path style="fill:#FFFFFF;stroke:#383838;stroke-width:12;stroke-linecap:round;stroke-linejoin:round;stroke-miterlimit:10;" d="
									M3388.074,4645.743c3.463,1.821,48.446,72.294,19.587,69.286c-40.053-4.176-334.837-0.894-433.844-6.901
									c-99.298-6.024-154.224-35.502-152.504-50.686c1.719-15.184,124.978-24.112,124.978-24.112L3388.074,4645.743z"/>
								
									<path style="fill:#4187E8;stroke:#383838;stroke-width:12;stroke-linecap:round;stroke-linejoin:round;stroke-miterlimit:10;" d="
									M3168.044,4513.971c-166.745,105.381-324.977,105.306-334.542,127.09c-9.564,21.784,133.34,33.19,335.839,30.445
									c192.673-2.612,236.445,0.683,236.445,0.683s17.974-130.286-9.507-142.292c-46.572,25.149-148.728,4.562-151.116-5.215
									c-6.802-27.846-25.556-58.53-43.228-61.868C3178.059,4458.304,3168.044,4513.971,3168.044,4513.971z"/>
							</g>
						</g>
					</g>
				</g>
				<g>
					
						<path style="fill:#A9B5C4;stroke:#383838;stroke-width:12;stroke-linecap:round;stroke-linejoin:round;stroke-miterlimit:10;" d="
						M3919.911,4453.54c-94.689-39.244-165.412-13.377-165.412-13.377s-8.495,95.998-27.393,123.791s171.718,26.718,171.718,26.718
						L3919.911,4453.54z"/>
					
						<path style="fill:#4187E8;stroke:#383838;stroke-width:12;stroke-linecap:round;stroke-linejoin:round;stroke-miterlimit:10;" d="
						M3730.387,4531.143c12.065,27.615,49.848,38.011,70.504,17.916c20.656-20.096,88.98-6.917,106.13,31.665
						c0,0,14.099,43.316,19.543,87.414c5.443,44.098-72.579,39.864-145.157,34.42c-72.579-5.443-140.242,16.396-170.483,4.904
						c-30.241-11.492-1.925-35.051,28.954-55.752C3682.215,4623.325,3730.387,4531.143,3730.387,4531.143z"/>
					<path style="fill:#FFFFFF;" d="M3926.833,4727.373c31.786-1.229,14.851-55.662-12.366-53.848
						c-10.603,0.707-33.112-0.505-61.087,4.33c-43.838,7.577-99.469,22.328-131.257,23.777
						c-52.074,2.374-92.528,13.626-121.383-0.484c-9.428-4.61,0.515,27.915,33.694,27.666
						C3667.613,4728.564,3926.833,4727.373,3926.833,4727.373z"/>
					<path style="fill:none;stroke:#383838;stroke-width:12;stroke-linecap:round;stroke-linejoin:round;stroke-miterlimit:10;" d="
						M3927.72,4677.228c-3.955-2.588-8.443-4.023-13.253-3.703c-10.603,0.707-33.112-0.505-61.087,4.33
						c-43.838,7.577-99.469,22.328-131.257,23.777c-52.074,2.374-92.528,13.626-121.383-0.484"/>
					<path style="fill:none;stroke:#383838;stroke-width:12;stroke-linecap:round;stroke-linejoin:round;stroke-miterlimit:10;" d="
						M3943.701,4703.736c7.661,30.271-11.7,24.264-150.802,24.264c-139.102,0-185.451,9.237-195.545-26.853"/>
				</g>
				<path style="fill:#383838;" d="M3231.6,4267.146c4.402-236.223,17.48-746.307,51.018-985.156
					c27.833-282.94,101.545-904.454,220.32-1042.383c-9.59-25.407-19.048-110.191-19.048-110.191s365.884-32.969,365.491-28.263
					c0,0,42.848,138.139,41.314,135.983c26.248,37.75,145.877,212.424,154.473,390.083
					c7.208,148.976-88.964,1639.925-88.964,1639.925h-221.314c-6.778-332.364-24.751-1213.672-24.751-1213.672
					c-69.994,207.721-115.428,385.492-130.999,450.57c-25.468,106.44-86.321,542.741-126.193,763.101H3231.6z"/>
			</g>
			<path style="fill:#FFFFFF;" d="M3815.128,2208.348c66.108,7.512,136.724-12.79,172.505,5.877
				c-5.346,24.925-48.324,47.743-102.46,30.589C3844.915,2243.363,3810.317,2239.34,3815.128,2208.348z"/>
			<path style="fill:none;stroke:#383838;stroke-width:12;stroke-linecap:round;stroke-linejoin:round;stroke-miterlimit:10;" d="
				M3912.504,2259.126c-5.885-7.532-12.075-13.763-27.332-14.312c-40.258-1.451-74.856-5.474-70.045-36.466
				c66.108,7.512,136.724-12.79,172.505,5.877"/>
			
				<path style="fill:#4187E8;stroke:#383838;stroke-width:12;stroke-linecap:round;stroke-linejoin:round;stroke-miterlimit:10;" d="
				M3968.082,2204.831c57.77-88.933,156.135-300.031,156.135-300.031l-296.896-265.717c-2.361-2.127-4.859-4.534-7.086-6.876
				c-46.602-49.02-44.641-126.537,4.379-173.139c49.02-46.602,126.537-44.641,173.139,4.379l332.284,349.528l7.677,8.066
				c33,34.965,6.851,91.526-21.165,135.11c0,0-164.636,255.87-246.727,368.779L3968.082,2204.831z"/>
			
				<ellipse transform="matrix(0.9995 -0.0312 0.0312 0.9995 -32.0193 111.2431)" style="fill:none;stroke:#383838;stroke-width:12;stroke-linecap:round;stroke-linejoin:round;stroke-miterlimit:10;" cx="3546.093" cy="1080.909" rx="31.911" ry="50.556"/>
			<path style="fill:#4187E8;" d="M3488.793,2167.838c-66.369-400.419-84.349-577.87-18.693-650.373
				c80.392-88.774,412.74-146.188,494.826-40.729c116.632,149.843-86.63,471.483-95.438,631.443l13.146,48.56
				c0,0-34.087,34.732-185.474,43.748C3588.285,2206.971,3488.793,2167.838,3488.793,2167.838z"/>
			<path style="fill:none;stroke:#383838;stroke-width:12;stroke-linecap:round;stroke-linejoin:round;stroke-miterlimit:10;" d="
				M3990.847,1688.146c-29.796,147.795-115.701,317.275-121.359,420.033l13.146,48.56c0,0-34.087,34.732-185.474,43.748
				c-108.875,6.484-208.368-32.649-208.368-32.649c-66.369-400.419-84.349-577.87-18.693-650.373
				c80.392-88.774,412.74-146.188,494.826-40.729c17.425,22.386,27.709,48.607,32.569,77.549"/>
			<g>
				<g>
					
						<path style="fill:#FFFFFF;stroke:#383838;stroke-width:12;stroke-linecap:round;stroke-linejoin:round;stroke-miterlimit:10;" d="
						M3897.849,1053.123c27.133-86.703-21.159-178.985-107.862-206.117c-86.703-27.133-186.445,27.756-213.577,114.459
						c-11.759,37.576-15.734,37.189-11.517,83.573c1.51,16.613-21.022,39.1-23.145,70.988
						c-5.389,80.975,17.594,182.204,49.942,192.327c6.7,2.096,15.632,3.277,31.437-1.138l33.502,122.421l188.118-9.786
						l-17.942-233.822l-21.817,2.944c6.308-14.825,11.925-33.967,11.209-45.307
						C3859.587,1125.624,3882.718,1101.477,3897.849,1053.123z"/>
					<g>
						<path style="fill:#383838;" d="M3801.542,824.441c87.738,30.727,167.083,113.86,170.111,204.957
							c3.29,98.955-113.908,245.785-156.729,245.046c-76.165-1.315-146.272-48.274-155.956-216.634
							c-84.332-33.952-103.37-100.433-96.995-140.921C3561.973,916.89,3616.535,759.65,3801.542,824.441z"/>
					</g>
				</g>
			</g>
			
				<path style="fill:#4187E8;stroke:#383838;stroke-width:12;stroke-linecap:round;stroke-linejoin:round;stroke-miterlimit:10;" d="
				M3596.361,1449.765c0,0,107.479-102.475,240.485-60.739c42.627,13.376,52.832,46.558,52.832,46.558
				C3889.677,1468.689,3734.964,1481.193,3596.361,1449.765z"/>
			
				<line style="fill:#FFFFFF;stroke:#383838;stroke-width:12;stroke-linecap:round;stroke-linejoin:round;stroke-miterlimit:10;" x1="3607.322" y1="1245.488" x2="3623.127" y2="1307.215"/>
			<path style="fill:none;stroke:#383838;stroke-width:12;stroke-linecap:round;stroke-linejoin:round;stroke-miterlimit:10;" d="
				M3549.016,918.918c24.503-99.438,156.776-116.409,215.401-101.406"/>
			
				<line style="fill:none;stroke:#383838;stroke-width:12;stroke-linecap:round;stroke-linejoin:round;stroke-miterlimit:10;" x1="3507.625" y1="1072.118" x2="3673.946" y2="1059.133"/>
			<g>
				<path style="fill:#383838;" d="M3898.638,1097.189c-13.265-117.713,75.783-140.28,151.74-84.778
					c75.957,55.501,58.983,189.036,6.118,332.943c-52.865,143.908,95.693,90.871,105.535,248.891
					c2.409,38.68-1.523,86.896,48.355,125.499c-73.591,37.266-234.922,6.786-294.12-52.568
					c-110.724-111.016-99.182-202.9,30.417-476.052C3988.621,1102.736,3898.638,1097.189,3898.638,1097.189z"/>
			</g>
			<g>
				<path style="fill:#FFFFFF;" d="M3621.697,1120.665c-19.146-50.844,69.272-90.547,78.355-48.11
					C3709.136,1114.992,3639.611,1168.237,3621.697,1120.665z"/>
				<path style="fill:none;stroke:#383838;stroke-width:12;stroke-linecap:round;stroke-linejoin:round;stroke-miterlimit:10;" d="
					M3638.761,1069.24c22.207-18.084,55.872-22.006,61.292,3.315c7.779,36.343-42.093,80.611-67.83,62.698"/>
			</g>
			<path style="fill:none;stroke:#FFFFFF;stroke-width:12;stroke-linecap:round;stroke-linejoin:round;stroke-miterlimit:10;" d="
				M3952.434,985.926c-64.032,10.546-34.784,80.433-34.784,80.433"/>
			<g>
				<g>
					
						<path style="fill:#FFFFFF;stroke:#383838;stroke-width:12;stroke-linecap:round;stroke-linejoin:round;stroke-miterlimit:10;" d="
						M3167.111,1642.624c-52.178,34.573-110.387-37.234-127.856-36.932c-17.47,0.302-57.188-8.657-78.947-13.872
						c-21.759-5.215-74.408-26.253-69.072-41.025c5.336-14.771,78.333,18.776,78.333,18.776s49.282,4.18,50.019-1.704
						c0.737-5.884-158.427-107.001-149.965-118.891c8.462-11.89,145.687,65.562,145.687,65.562s-146.484-90.614-136.761-108.795
						c9.723-18.181,149.335,76.004,149.335,76.004s-112.463-68.373-103.204-82.653c9.259-14.28,201.764,106.951,209.489,100.946
						c7.725-6.005-10.888-32.353-25.531-51.216c-13.76-17.727-8.73-58.158,1.774-61.331c18.407-5.561,15.255,33.288,35.293,60.202
						s45.472,42.551,57.72,87.914C3215.673,1580.971,3205.673,1617.073,3167.111,1642.624z"/>
				</g>
				<g>
					<path style="fill:#4187E8;" d="M3231.6,1565.509l79.07,220.308l137.345-246.837c1.312-2.094,2.868-4.443,4.327-6.479
						c38.044-53.091,111.923-65.289,165.014-27.245c53.091,38.044,65.289,111.923,27.245,165.014l-267.95,311.252
						c-99.53,78.282-192.35,48.088-285.171-318.72L3231.6,1565.509z"/>
				</g>
				<g>
					<path style="fill:none;stroke:#383838;stroke-width:12;stroke-linecap:round;stroke-linejoin:round;stroke-miterlimit:10;" d="
						M3523.854,1810.531l-147.203,170.992c-99.53,78.282-192.35,48.088-285.171-318.72l140.12-97.294l79.07,220.308l137.345-246.837
						c1.312-2.094,2.868-4.443,4.327-6.479c38.044-53.091,111.923-65.289,165.014-27.245"/>
				</g>
			</g>
		</g>
		
			<line style="fill:none;stroke:#383838;stroke-width:12;stroke-linecap:round;stroke-linejoin:round;stroke-miterlimit:10;" x1="3310.67" y1="1785.817" x2="3250.281" y2="1875.144"/>
	</g>
	<g>
		<path style="fill:#FFFFFF;stroke:#383838;stroke-width:12;stroke-linecap:round;stroke-linejoin:round;stroke-miterlimit:10;" d="
			M1724.074,1225.566c49.077,1.292,49.326,69.615,39.415,131.454c-8.257,51.522-23.568,98.543-23.568,98.543h-187.493
			L1724.074,1225.566z"/>
		<g>
			<g>
				<g>
					<g>
						<g>
							
								<path style="fill:#4187E8;stroke:#383838;stroke-width:12;stroke-linecap:round;stroke-linejoin:round;stroke-miterlimit:10;" d="
								M685.077,4729.06c4.302-40.425-34.496-204.505-34.496-204.505s-1.895-63.79-76.5-62.926
								c-106.23,1.229-88.128,78.467-88.128,78.467s-76.822,115.589-71.662,154.431c3.363,25.313-3.954,24.823,0.076,34.534H685.077
								z"/>
							
								<path style="fill:#FFFFFF;stroke:#383838;stroke-width:12;stroke-linecap:round;stroke-linejoin:round;stroke-miterlimit:10;" d="
								M414.367,4695.092c3.382,25.02-4,24.33,0,33.968h270.71c2.225-20.908,0.314-19.171-3.039-33.968H414.367z"/>
						</g>
					</g>
				</g>
				<g>
					<g>
						<g>
							
								<path style="fill:#4187E8;stroke:#383838;stroke-width:12;stroke-linecap:round;stroke-linejoin:round;stroke-miterlimit:10;" d="
								M1195.357,4727.791c-3.792-40.368,18.468-68.858,17.159-119.833c-1.109-43.158,14.959-148.462,80.803-147.599
								c93.756,1.229,129.504,35.336,145.605,75.904c16.101,40.568,208.187,156.994,208.187,156.994
								c-2.968,25.313,3.647,24.823,0.091,34.534H1195.357z"/>
							
								<path style="fill:#FFFFFF;stroke:#383838;stroke-width:12;stroke-linecap:round;stroke-linejoin:round;stroke-miterlimit:10;" d="
								M1647.044,4693.823c-2.985,25.02,3.688,24.33,0.158,33.968h-451.845c-1.964-20.908-0.278-19.171,2.682-33.968H1647.044z"/>
						</g>
					</g>
				</g>
			</g>
			<g>
				<g>
					<path style="fill:#383838;" d="M1087.978,2063.509c208.129,905.218,350.276,2456.306,350.276,2456.306
						c-35.222,53.838-243.743,57.623-243.743,57.623L827.267,3004.844L717.142,4544.715
						c-20.636,43.07-258.823,15.875-258.823,15.875s-135.924-1673.394,63.642-2335.572
						C725.194,1550.671,1087.978,2063.509,1087.978,2063.509z"/>
				</g>
			</g>
		</g>
		<path style="fill:#FFFFFF;stroke:#383838;stroke-width:12;stroke-linecap:round;stroke-linejoin:round;stroke-miterlimit:10;" d="
			M338.64,1710.598c-113.343,231.723-108.305,312.323-60.45,365.217c47.856,52.893,337.51,162.605,337.51,162.605l118.38-436.471
			L338.64,1710.598z"/>
		<path style="fill:#4187E8;stroke:#383838;stroke-width:12;stroke-linecap:round;stroke-linejoin:round;stroke-miterlimit:10;" d="
			M1215.832,1316.97c-136.149-44.598-419.552-92.016-655.969-11.363c-7.738,2.156-16.641,5.324-27.012,9.692
			c-7.854,2.989-15.592,6.075-23.186,9.265c-4.347,1.827-8.545,4.468-12.662,7.544c-0.276,0.141-0.52,0.254-0.798,0.397
			c-157.813,80.214-244.788,487.804-244.788,487.804l186.578,70.581c-21.911,298.357,0,626.79,0,626.79
			c207.484,160.991,778.602,35.969,778.602,35.969l-60.984-284.602C1155.612,2269.045,1361.918,1364.826,1215.832,1316.97z"/>
		<path style="fill:none;stroke:#383838;stroke-width:12;stroke-linecap:round;stroke-linejoin:round;stroke-miterlimit:10;" d="
			M490.105,1446.898c-62.354,187.062-52.11,443.991-52.11,443.991"/>
		<path style="fill:#383838;" d="M826.502,791.648c122.921-64.695,224.075-80.222,243.368-27.172
			c19.294,53.05-73.867,166.913-111.39,188.91C920.957,975.382,826.502,791.648,826.502,791.648z"/>
		<path style="fill:#FFFFFF;stroke:#383838;stroke-width:12;stroke-linecap:round;stroke-linejoin:round;stroke-miterlimit:10;" d="
			M1141.833,1387.673c167.66-59.563,316.438,460.564,316.438,460.564s126.094-374.244,204.759-376.558
			c78.664-2.314-28.921,666.023-204.759,703.042C1282.433,2211.739,965.995,1450.142,1141.833,1387.673z"/>
		<path style="fill:#FFFFFF;stroke:#383838;stroke-width:12;stroke-linecap:round;stroke-linejoin:round;stroke-miterlimit:10;" d="
			M1522.391,1023.269l334.392,44.451c17.445,2.319,26.954,21.603,18.173,36.854l-313.332,544.219
			c-10.296,17.883-31.614,26.24-51.32,20.118l-327.509-101.746c-15.568-4.837-22.28-23.15-13.523-36.901l310.094-486.961
			C1488.588,1028.823,1505.373,1021.007,1522.391,1023.269z"/>
		<path style="fill:#4187E8;" d="M1163.626,1314.801c239.033-29.288,294.645,466.598,294.645,466.598l-305.403,129.565
			C1152.868,1910.964,971.534,1338.337,1163.626,1314.801z"/>
		<path style="fill:none;stroke:#383838;stroke-width:12;stroke-linecap:round;stroke-linejoin:round;stroke-miterlimit:10;" d="
			M1163.626,1314.801c239.033-29.288,294.645,466.598,294.645,466.598l-305.403,129.565c0,0-34.191-107.97-57.152-232.071"/>
		<path style="fill:#FFFFFF;" d="M1684.657,1307.299c23.269-34.506,38.793,53.305,50.071,75.623
			c11.278,22.318,16.508,120.1-45.539,184.196c-36.659,37.87-81.571,20.653-71.859-16.063l69.438-127.929
			C1686.767,1423.126,1669.94,1329.123,1684.657,1307.299z"/>
		<path style="fill:none;stroke:#383838;stroke-width:12;stroke-linecap:round;stroke-linejoin:round;stroke-miterlimit:10;" d="
			M1617.329,1551.055l69.438-127.929c0,0-16.828-94.003-2.11-115.827c23.269-34.506,38.793,53.305,50.071,75.623
			c11.278,22.318,16.508,120.1-45.539,184.196"/>
		<path style="fill:#FFFFFF;stroke:#383838;stroke-width:12;stroke-linecap:round;stroke-linejoin:round;stroke-miterlimit:10;" d="
			M1050.718,809.039c0,0-233.354-47.858-164.406,183.961l-17.329-6.77l-89.19,272.025c-48.411,7.033-84.532,17.087-84.532,17.087
			c18.046,51.192,328.098,65.639,353.539,3.401c-16.385-1.756-60.718-8.897-76.859-10.599l21.439-91.263
			c54.442,25.803,112.063,6.638,122.235-41.559C1140.949,1015.287,1121.393,882.854,1050.718,809.039z"/>
		<path style="fill:#383838;" d="M1050.717,809.039c81.36-50.481-65.065-208.888-298.311-46.268
			c-201.982,140.823,59.625,397.159,59.625,397.159l95.247,9.56l70.157-156.257c0,0-53.367-66.661-20.556-94.785
			s50.247,18.272,50.247,18.272S978.732,807.96,1050.717,809.039z"/>
		
			<line style="fill:none;stroke:#383838;stroke-width:12;stroke-linecap:round;stroke-linejoin:round;stroke-miterlimit:10;" x1="1002.454" y1="1135.323" x2="993.38" y2="1176.882"/>
	</g>
</g>
</svg>
