<?xml version="1.0" encoding="utf-8"?>
<!-- Generator: Adobe Illustrator 27.5.0, SVG Export Plug-In . SVG Version: 6.00 Build 0)  -->
<svg version="1.1" id="Layer_1" xmlns="http://www.w3.org/2000/svg" xmlns:xlink="http://www.w3.org/1999/xlink" x="0px" y="0px"
	 viewBox="0 0 4981.146 4981.146" style="enable-background:new 0 0 4981.146 4981.146;" xml:space="preserve">
<rect x="0" style="fill:#FFFFFF;" width="4981.146" height="4981.146"/>
<g>
	<g>
		<path style="fill:#FFFFFF;stroke:#B5D4FF;stroke-width:12;stroke-linecap:round;stroke-linejoin:round;stroke-miterlimit:10;" d="
			M2051.065,1277.463H598.503c-49.836,0-90.236-40.4-90.236-90.236V528.031c0-49.836,40.4-90.236,90.236-90.236h1452.562
			c49.836,0,90.236,40.4,90.236,90.236v659.196C2141.302,1237.063,2100.901,1277.463,2051.065,1277.463z"/>
		<g>
			
				<line style="fill:none;stroke:#B5D4FF;stroke-width:12;stroke-linecap:round;stroke-linejoin:round;stroke-miterlimit:10;" x1="780.44" y1="437.795" x2="780.44" y2="1277.463"/>
			
				<line style="fill:none;stroke:#B5D4FF;stroke-width:12;stroke-linecap:round;stroke-linejoin:round;stroke-miterlimit:10;" x1="1052.612" y1="437.795" x2="1052.612" y2="1277.463"/>
			
				<line style="fill:none;stroke:#B5D4FF;stroke-width:12;stroke-linecap:round;stroke-linejoin:round;stroke-miterlimit:10;" x1="1324.784" y1="437.795" x2="1324.784" y2="1277.463"/>
			
				<line style="fill:none;stroke:#B5D4FF;stroke-width:12;stroke-linecap:round;stroke-linejoin:round;stroke-miterlimit:10;" x1="1596.957" y1="437.795" x2="1596.957" y2="1277.463"/>
			
				<line style="fill:none;stroke:#B5D4FF;stroke-width:12;stroke-linecap:round;stroke-linejoin:round;stroke-miterlimit:10;" x1="1869.129" y1="437.795" x2="1869.129" y2="1277.463"/>
		</g>
		<g>
			
				<line style="fill:none;stroke:#B5D4FF;stroke-width:12;stroke-linecap:round;stroke-linejoin:round;stroke-miterlimit:10;" x1="508.267" y1="1067.546" x2="2141.302" y2="1067.546"/>
			
				<line style="fill:none;stroke:#B5D4FF;stroke-width:12;stroke-linecap:round;stroke-linejoin:round;stroke-miterlimit:10;" x1="508.267" y1="857.629" x2="2141.302" y2="857.629"/>
			
				<line style="fill:none;stroke:#B5D4FF;stroke-width:12;stroke-linecap:round;stroke-linejoin:round;stroke-miterlimit:10;" x1="508.267" y1="647.712" x2="2141.302" y2="647.712"/>
		</g>
		
			<polyline style="fill:none;stroke:#B5D4FF;stroke-width:12;stroke-linecap:round;stroke-linejoin:round;stroke-miterlimit:10;" points="
			637,1163.018 1152.54,764.602 1412.585,1035.84 1979.077,554.3 		"/>
		
			<ellipse transform="matrix(0.2329 -0.9725 0.9725 0.2329 -642.381 1511.6753)" style="fill:#FFFFFF;stroke:#B5D4FF;stroke-width:12;stroke-linecap:round;stroke-linejoin:round;stroke-miterlimit:10;" cx="637" cy="1163.017" rx="31.296" ry="31.296"/>
		
			<ellipse transform="matrix(0.1602 -0.9871 0.9871 0.1602 213.1943 1779.7845)" style="fill:#FFFFFF;stroke:#B5D4FF;stroke-width:12;stroke-linecap:round;stroke-linejoin:round;stroke-miterlimit:10;" cx="1152.54" cy="764.602" rx="31.296" ry="31.296"/>
		
			<ellipse transform="matrix(0.7071 -0.7071 0.7071 0.7071 189.1647 1561.1663)" style="fill:#FFFFFF;stroke:#B5D4FF;stroke-width:12;stroke-linecap:round;stroke-linejoin:round;stroke-miterlimit:10;" cx="1979.077" cy="552.241" rx="31.296" ry="31.296"/>
		
			<ellipse transform="matrix(0.0687 -0.9976 0.9976 0.0687 280.9081 2371.4753)" style="fill:#FFFFFF;stroke:#B5D4FF;stroke-width:12;stroke-linecap:round;stroke-linejoin:round;stroke-miterlimit:10;" cx="1410.615" cy="1035.283" rx="31.296" ry="31.296"/>
	</g>
	<g>
		<g>
			<g>
				<g>
					
						<path style="fill:#FFFFFF;stroke:#B5D4FF;stroke-width:12;stroke-linecap:round;stroke-linejoin:round;stroke-miterlimit:10;" d="
						M998.735,3293.437V1027.609c0-42.908,34.784-77.692,77.692-77.692h3121.158c42.913,0,77.701,34.788,77.701,77.701v2265.818
						c0,42.908-34.784,77.692-77.692,77.692H1076.427C1033.519,3371.128,998.735,3336.345,998.735,3293.437z"/>
					<g>
						<g>
							<g>
								<rect x="2651.801" y="2860.278" style="fill:#B5D4FF;" width="375.585" height="55.023"/>
								<rect x="2651.801" y="2960.309" style="fill:#B5D4FF;" width="488.275" height="55.023"/>
								<rect x="2651.801" y="3060.34" style="fill:#B5D4FF;" width="431.366" height="55.023"/>
								<rect x="2651.801" y="3160.371" style="fill:#B5D4FF;" width="506.064" height="55.023"/>
							</g>
							<rect x="2182.137" y="2854.237" style="fill:#B5D4FF;" width="395.639" height="361.156"/>
						</g>
						<g>
							<g>
								<g>
									<rect x="2651.801" y="1751.699" style="fill:#B5D4FF;" width="481.992" height="55.023"/>
									<rect x="2651.801" y="1851.73" style="fill:#B5D4FF;" width="403.122" height="55.023"/>
									<rect x="2651.801" y="1951.761" style="fill:#B5D4FF;" width="431.366" height="55.023"/>
									<rect x="2651.801" y="2051.792" style="fill:#B5D4FF;" width="259.548" height="55.023"/>
								</g>
								<rect x="2182.137" y="1745.658" style="fill:#B5D4FF;" width="395.639" height="361.156"/>
							</g>
							<g>
								<g>
									<rect x="2651.801" y="1193.406" style="fill:#B5D4FF;" width="481.992" height="55.023"/>
									<rect x="2651.801" y="1293.437" style="fill:#B5D4FF;" width="403.122" height="55.023"/>
									<rect x="2651.801" y="1393.468" style="fill:#B5D4FF;" width="431.366" height="55.023"/>
									<rect x="2651.801" y="1493.499" style="fill:#B5D4FF;" width="259.548" height="55.023"/>
								</g>
								<rect x="2182.137" y="1187.365" style="fill:#B5D4FF;" width="395.639" height="361.156"/>
							</g>
							<g>
								<g>
									<rect x="2651.801" y="2305.988" style="fill:#B5D4FF;" width="538.436" height="55.023"/>
									<rect x="2651.801" y="2406.019" style="fill:#B5D4FF;" width="450.33" height="55.023"/>
									<rect x="2651.801" y="2506.05" style="fill:#B5D4FF;" width="310.307" height="55.023"/>
								</g>
								<rect x="2182.137" y="2299.948" style="fill:#B5D4FF;" width="395.639" height="361.156"/>
							</g>
						</g>
					</g>
					<g>
						<g>
							<rect x="1225.866" y="1380.714" style="fill:#B5D4FF;" width="496.995" height="50.788"/>
							<rect x="1225.866" y="1473.046" style="fill:#B5D4FF;" width="415.67" height="50.788"/>
							<rect x="1225.866" y="1565.378" style="fill:#B5D4FF;" width="286.424" height="50.788"/>
						</g>
						<g>
							<rect x="1225.866" y="1196.258" style="fill:#B5D4FF;" width="496.995" height="50.788"/>
						</g>
						<g>
							<rect x="1225.866" y="2210.308" style="fill:#B5D4FF;" width="496.995" height="50.788"/>
							<rect x="1225.866" y="2302.64" style="fill:#B5D4FF;" width="415.67" height="50.788"/>
							<rect x="1225.866" y="2394.973" style="fill:#B5D4FF;" width="286.424" height="50.788"/>
						</g>
						<rect x="1225.866" y="1670.104" style="fill:#B5D4FF;" width="496.995" height="50.788"/>
						<rect x="1225.866" y="1762.436" style="fill:#B5D4FF;" width="415.67" height="50.788"/>
						<rect x="1225.866" y="1854.768" style="fill:#B5D4FF;" width="286.424" height="50.788"/>
						
							<path style="fill:#B5D4FF;stroke:#B5D4FF;stroke-width:12;stroke-linecap:round;stroke-linejoin:round;stroke-miterlimit:10;" d="
							M1592.88,2149.625h-278.448c-48.913,0-88.565-39.652-88.565-88.565v0c0-48.913,39.652-88.565,88.565-88.565h278.448
							c48.913,0,88.565,39.652,88.565,88.565v0C1681.446,2109.973,1641.793,2149.625,1592.88,2149.625z"/>
						
							<path style="fill:#B5D4FF;stroke:#B5D4FF;stroke-width:12;stroke-linecap:round;stroke-linejoin:round;stroke-miterlimit:10;" d="
							M3957.905,3225.524h-495.654c-48.913,0-88.565-39.652-88.565-88.565v0c0-48.913,39.652-88.565,88.565-88.565h495.654
							c48.913,0,88.565,39.652,88.565,88.565v0C4046.47,3185.872,4006.818,3225.524,3957.905,3225.524z"/>
					</g>
				</g>
				<g>
					<rect x="3373.686" y="2178.89" style="fill:#B5D4FF;" width="742.539" height="45.658"/>
					<rect x="3373.686" y="2261.896" style="fill:#B5D4FF;" width="621.034" height="45.658"/>
					<rect x="3373.686" y="1991.58" style="fill:#B5D4FF;" width="664.546" height="82.181"/>
					<path style="fill:#B5D4FF;" d="M3997.142,2719.462h-582.365c-22.694,0-41.091-18.397-41.091-41.091l0,0
						c0-22.694,18.397-41.091,41.091-41.091h582.365c22.694,0,41.091,18.397,41.091,41.091l0,0
						C4038.232,2701.065,4019.835,2719.462,3997.142,2719.462z"/>
					<path style="fill:none;stroke:#B5D4FF;stroke-width:12;stroke-linecap:round;stroke-linejoin:round;stroke-miterlimit:10;" d="
						M3997.142,2855.733h-582.365c-22.694,0-41.091-18.397-41.091-41.091l0,0c0-22.694,18.397-41.091,41.091-41.091h582.365
						c22.694,0,41.091,18.397,41.091,41.091l0,0C4038.232,2837.336,4019.835,2855.733,3997.142,2855.733z"/>
				</g>
				<g>
					
						<rect x="1948.148" y="1300.955" style="fill:none;stroke:#B5D4FF;stroke-width:12;stroke-linecap:round;stroke-linejoin:round;stroke-miterlimit:10;" width="117.887" height="117.887"/>
					
						<polyline style="fill:none;stroke:#B5D4FF;stroke-width:12;stroke-linecap:round;stroke-linejoin:round;stroke-miterlimit:10;" points="
						1964.503,1338.521 2001.115,1385.099 2097.304,1297.105 					"/>
				</g>
				<g>
					
						<rect x="1948.148" y="1868.333" style="fill:none;stroke:#B5D4FF;stroke-width:12;stroke-linecap:round;stroke-linejoin:round;stroke-miterlimit:10;" width="117.887" height="117.887"/>
				</g>
				<g>
					
						<rect x="1948.148" y="2409.896" style="fill:none;stroke:#B5D4FF;stroke-width:12;stroke-linecap:round;stroke-linejoin:round;stroke-miterlimit:10;" width="117.887" height="117.887"/>
				</g>
			</g>
			<rect x="3373" y="1646.9" style="fill:#B5D4FF;" width="142.587" height="194.171"/>
			<rect x="3547.215" y="1461.288" style="fill:#B5D4FF;" width="142.587" height="379.783"/>
			<rect x="3721.43" y="1568.748" style="fill:#B5D4FF;" width="142.587" height="272.323"/>
			<rect x="3895.645" y="1391.277" style="fill:#B5D4FF;" width="142.587" height="449.794"/>
			
				<polyline style="fill:none;stroke:#FFFFFF;stroke-width:12;stroke-linecap:round;stroke-linejoin:round;stroke-miterlimit:10;" points="
				3975.463,1433.705 4011.641,1433.705 3764.428,1666.848 3653.216,1526.828 3401.314,1790.119 			"/>
			
				<line style="fill:none;stroke:#FFFFFF;stroke-width:12;stroke-linecap:round;stroke-linejoin:round;stroke-miterlimit:10;" x1="4011.641" y1="1468.542" x2="4011.641" y2="1433.705"/>
		</g>
		<g>
			<g>
				<path style="fill:#383838;" d="M3526.258,3513.162h-615.133c-41.703,0-75.51-33.807-75.51-75.51l0,0
					c0-41.703,33.807-75.51,75.51-75.51h615.133c41.703,0,75.51,33.807,75.51,75.51l0,0
					C3601.768,3479.355,3567.961,3513.162,3526.258,3513.162z"/>
				
					<line style="fill:none;stroke:#383838;stroke-width:12;stroke-linecap:round;stroke-linejoin:round;stroke-miterlimit:10;" x1="2959.323" y1="3480.011" x2="2754.579" y2="4599.774"/>
				
					<line style="fill:none;stroke:#383838;stroke-width:12;stroke-linecap:round;stroke-linejoin:round;stroke-miterlimit:10;" x1="3483.856" y1="3480.011" x2="3688.6" y2="4599.774"/>
			</g>
			<g>
				<g>
					
						<polygon style="fill:#FFFFFF;stroke:#383838;stroke-width:12;stroke-linecap:round;stroke-linejoin:round;stroke-miterlimit:10;" points="
						3817.228,3951.064 3739.708,4454.246 3891.976,4566.948 4038.101,3942.6 					"/>
					<g>
						<g>
							<path style="fill:#4187E8;" d="M4047.401,4433.887c-32.432-20.024-65.915-52.954-98.933-93.244
								c-78.521,9.757-154.55,34.368-225.307,78.911c18.392,59.881-25.436,123.07,12.413,180.219l605.054-1.02
								C4286.975,4507.612,4237.245,4551.104,4047.401,4433.887z"/>
							<path style="fill:#FFFFFF;" d="M4322.969,4573.287c5.965,7.135,11.789,15.496,17.659,25.468l-605.054,1.019
								c-9.14-13.8-14.817-27.701-18.486-41.682L4322.969,4573.287z"/>
						</g>
						
							<line style="fill:none;stroke:#383838;stroke-width:12;stroke-linecap:round;stroke-linejoin:round;stroke-miterlimit:10;" x1="3717.088" y1="4558.092" x2="4322.969" y2="4573.287"/>
						
							<line style="fill:none;stroke:#383838;stroke-width:12;stroke-linecap:round;stroke-linejoin:round;stroke-miterlimit:10;" x1="3735.574" y1="4599.774" x2="4340.628" y2="4598.755"/>
					</g>
				</g>
				<g>
					
						<polygon style="fill:#FFFFFF;stroke:#383838;stroke-width:12;stroke-linecap:round;stroke-linejoin:round;stroke-miterlimit:10;" points="
						4182.548,3913.617 4265.384,4402.592 4454.818,4403.915 4356.008,3792.049 					"/>
					<g>
						<g>
							<path style="fill:#4187E8;" d="M4523.427,4318.732c-23.313-30.155-43.07-72.759-59.801-122.09
								c-76.933-18.493-156.76-22.205-238.666-5.405c-3.852,62.523-67.109,106.252-51.788,173.064l566.728,211.924
								C4721.745,4472.033,4659.892,4495.248,4523.427,4318.732z"/>
							<path style="fill:#FFFFFF;" d="M4732.331,4546.172c3.073,8.778,5.583,18.653,7.569,30.053l-566.727-211.924
								c-3.7-16.133-4.124-31.143-2.639-45.521L4732.331,4546.172z"/>
						</g>
						
							<line style="fill:none;stroke:#383838;stroke-width:12;stroke-linecap:round;stroke-linejoin:round;stroke-miterlimit:10;" x1="4170.534" y1="4318.78" x2="4732.331" y2="4546.172"/>
						
							<line style="fill:none;stroke:#383838;stroke-width:12;stroke-linecap:round;stroke-linejoin:round;stroke-miterlimit:10;" x1="4173.173" y1="4364.301" x2="4739.9" y2="4576.225"/>
					</g>
				</g>
				<path style="fill:#4187E8;" d="M2840.796,2909.375c99.735-247.727,287.009-144.26,547.589-97.17l82.909,213.089
					c242.984,43.773,452.364,81.426,589.033,105.439c318.861,56.025,174.723,449.145,154.866,630.852
					c-22.689,207.635-90.883,484.974-90.883,484.974h-388.737l120.868-715.201c0,0-663.33-14.386-857.556-150.917
					C2698.129,3169.025,2840.796,2909.375,2840.796,2909.375z"/>
				<path style="fill:#4187E8;" d="M4437.769,4105.441l-383.702,79.326l-93.996-1041.683l-589.033-105.439
					c0,0,575.657-306.841,806.452-184.113C4408.284,2976.26,4437.769,4105.441,4437.769,4105.441z"/>
				
					<polyline style="fill:none;stroke:#383838;stroke-width:12;stroke-linecap:round;stroke-linejoin:round;stroke-miterlimit:10;" points="
					4054.066,4052.244 3960.07,3143.085 3371.037,3037.646 				"/>
				
					<line style="fill:none;stroke:#383838;stroke-width:12;stroke-linecap:round;stroke-linejoin:round;stroke-miterlimit:10;" x1="4437.769" y1="4105.441" x2="4054.066" y2="4184.768"/>
				
					<line style="fill:none;stroke:#383838;stroke-width:12;stroke-linecap:round;stroke-linejoin:round;stroke-miterlimit:10;" x1="4124.311" y1="4246.559" x2="3735.574" y2="4246.559"/>
				<path style="fill:#A9B5C4;" d="M3510.731,2024.573c-144.543-112.33-693.575-122.458-812.76,175.395
					c15.661,187.113,109.011,713.046,109.011,713.046l594.092-68.199C3401.073,2844.815,3568.282,2069.298,3510.731,2024.573z"/>
				
					<path style="fill:#FFFFFF;stroke:#383838;stroke-width:12;stroke-linecap:round;stroke-linejoin:round;stroke-miterlimit:10;" d="
					M3492.787,2110.607c-71.64,0.265-89.304,158.336-25.277,289.909c78.987,162.312,178.932,251.951,319.899,226.09l10.681-91.045
					C3798.089,2535.561,3656.688,2110,3492.787,2110.607z"/>
				<path style="fill:#A9B5C4;" d="M3350.747,2096.303c45.032-112.719,189.936-200.442,350.978,178.761
					c-53.683,141.843-212.882,244.706-212.882,244.706S3295.043,2235.736,3350.747,2096.303z"/>
				<path style="fill:none;stroke:#383838;stroke-width:12;stroke-linecap:round;stroke-linejoin:round;stroke-miterlimit:10;" d="
					M3565.268,2216.86c-31.851,126.457-105.704,253.073-105.704,253.073"/>
				<path style="fill:none;stroke:#383838;stroke-width:12;stroke-linecap:round;stroke-linejoin:round;stroke-miterlimit:10;" d="
					M3701.724,2275.064c-84.241,176.057-212.882,244.706-212.882,244.706"/>
				<path style="fill:#FFFFFF;" d="M3165.851,1954.633c-250.838-30.064-242.834,202.592-7.111,241.362
					C3424.697,2239.738,3374.639,1979.657,3165.851,1954.633z"/>
				
					<line style="fill:none;stroke:#383838;stroke-width:12;stroke-linecap:round;stroke-linejoin:round;stroke-miterlimit:10;" x1="2806.982" y1="2913.014" x2="3411.302" y2="2843.64"/>
				<g>
					<path style="fill:#383838;" d="M2833.817,1590.473c-0.048-0.176-0.144-0.326-0.192-0.503
						c-6.8-24.95,7.915-50.688,32.864-57.488c7.49-2.041,14.991-1.94,22.089-0.409c-0.012-14.453,9.455-27.723,24.071-31.706
						c9.136-2.49,18.375-0.792,25.844,3.819c5.814-6.492,13.448-11.492,22.482-13.955c20.047-5.463,40.43,3.106,51.261,19.572
						c6.337-7.028,14.621-12.447,24.429-15.12c25.792-7.029,52.135,7.127,61.201,31.754c6.432-4.906,13.843-8.745,22.128-11.003
						c34.418-9.38,69.923,10.918,79.303,45.336c4.398,16.138,2.074,32.416-4.974,46.226c19.351,4.392,35.776,18.801,41.358,39.281
						c5.136,18.846-0.158,38.009-12.281,51.556c6.904,5.895,12.181,13.842,14.748,23.262c5.834,21.407-4.237,43.307-22.953,53.415
						c1.827,2.797,3.375,5.822,4.301,9.217c4.768,17.497-5.55,35.546-23.046,40.314c-0.234,0.064-0.468,0.059-0.703,0.118
						c-2.02,9.578-4.031,19.143-6.442,29.21c-19.789,82.597-111.39,67.535-124.981,19.412
						c-13.588-48.125-172.474-106.771-230.928-131.166C2789.917,1723.475,2801.319,1636.141,2833.817,1590.473z"/>
					
						<line style="fill:#FFFFFF;stroke:#383838;stroke-width:12;stroke-linecap:round;stroke-linejoin:round;stroke-miterlimit:10;" x1="2966.743" y1="1777.151" x2="3109.569" y2="1722.831"/>
					<polygon style="fill:#FFFFFF;" points="2951.296,1804.861 3018.697,2071.188 3275.299,2072.944 3113.298,1718.476 					"/>
					
						<polyline style="fill:none;stroke:#383838;stroke-width:12;stroke-linecap:round;stroke-linejoin:round;stroke-miterlimit:10;" points="
						3267.66,2052.871 3120.004,1718.476 2951.296,1804.861 3022.373,2068.292 					"/>
					<g>
						<path style="fill:#FFFFFF;" d="M3109.569,1722.831c0,0-1.642-108-118.466-99.002c-73.353,5.649-119.01,10.126-148.018-0.561
							c-42.06,142.515,44.236,314.426,72.102,355.35c32.454,47.662,194.097-51.008,198.526-87.988
							c4.428-36.981,4.492-69.371,4.492-69.371s43.487-12.464,45.836-61.227C3167.365,1691.03,3109.569,1722.831,3109.569,1722.831z
							"/>
					</g>
					<g>
						
							<path style="fill:none;stroke:#383838;stroke-width:12;stroke-linecap:round;stroke-linejoin:round;stroke-miterlimit:10;" d="
							M3118.206,1821.259c0,0,43.487-12.464,45.836-61.227c3.324-69.002-54.472-37.201-54.472-37.201s-1.642-108-118.466-99.002
							c-73.353,5.649-119.01,10.126-148.018-0.561c-42.06,142.515,44.236,314.426,72.102,355.35
							c26.983,39.628,143.273-21.901,184.256-65.025"/>
					</g>
					
						<ellipse transform="matrix(0.9794 -0.2017 0.2017 0.9794 -276.5883 603.4456)" style="fill:#383838;" cx="2822.868" cy="1658.967" rx="32.836" ry="32.835"/>
					
						<ellipse transform="matrix(0.4979 -0.8672 0.8672 0.4979 26.8127 3293.9668)" style="fill:#383838;" cx="2858.048" cy="1623.828" rx="46.824" ry="46.824"/>
				</g>
			</g>
			<g>
				
					<path style="fill:#FFFFFF;stroke:#383838;stroke-width:12;stroke-linecap:round;stroke-linejoin:round;stroke-miterlimit:10;" d="
					M2849.69,2212.746c85.666,65.77,51.524,304.252-80.066,456.051c163.282,46.172,368.044,185.067,368.044,185.067
					c144.741,18.151,249.74,11.246,282.498,93.362c8.964,22.47,9.185,46.145,5.933,67.009h-211.712
					c-1.248-17.391-2.349-32.725-2.349-32.725s-76.512,24.966-128.087-14.421c-186.908-29.25-338.016-32.017-488.305-107.161
					C2406.873,2765.542,2653.092,2061.807,2849.69,2212.746z"/>
				<path style="fill:#A9B5C4;" d="M2818.855,2112.685c119.363-22.044,279.673,89.109,44.848,427.615
					c-148.611,30.264-329.354-84.903-329.354-84.903S2671.204,2139.954,2818.855,2112.685z"/>
				<path style="fill:none;stroke:#383838;stroke-width:12;stroke-linecap:round;stroke-linejoin:round;stroke-miterlimit:10;" d="
					M3362.42,2954.239c13.246,23.375,10.908,59.997,10.908,59.997"/>
				<path style="fill:none;stroke:#383838;stroke-width:12;stroke-linecap:round;stroke-linejoin:round;stroke-miterlimit:10;" d="
					M3313.332,2963.979c13.246,23.375,7.927,50.256,7.927,50.256"/>
				<path style="fill:none;stroke:#383838;stroke-width:12;stroke-linecap:round;stroke-linejoin:round;stroke-miterlimit:10;" d="
					M3263.933,2969.043c11.219,20.064,7.012,45.192,7.012,45.192"/>
				<path style="fill:none;stroke:#383838;stroke-width:12;stroke-linecap:round;stroke-linejoin:round;stroke-miterlimit:10;" d="
					M2950.263,2347.551c-13.149,115.094-86.56,192.75-86.56,192.75s-144.172,31.502-329.354-84.903"/>
			</g>
			<g>
				
					<path style="fill:#A9B5C4;stroke:#383838;stroke-width:12;stroke-linecap:round;stroke-linejoin:round;stroke-miterlimit:10;" d="
					M2984.18,3007.16l421.344,3.368l210.999-463.053c7.882-17.297,25.183-28.357,44.191-28.25l657.508,3.706
					c16.829,0.095,27.049,18.593,18.171,32.89l-277.606,447.067c-14.103,22.712-38.963,36.499-65.698,36.435l-923.427-2.225
					L2984.18,3007.16z"/>
				
					<line style="fill:#C9C9C9;stroke:#383838;stroke-width:12;stroke-linecap:round;stroke-linejoin:round;stroke-miterlimit:10;" x1="3867.636" y1="3012.56" x2="3480.261" y2="3010.857"/>
			</g>
		</g>
		<g>
			<g>
				<path style="fill:#383838;" d="M2315.205,3513.162h-615.133c-41.703,0-75.51-33.807-75.51-75.51l0,0
					c0-41.703,33.807-75.51,75.51-75.51h615.133c41.703,0,75.51,33.807,75.51,75.51l0,0
					C2390.715,3479.355,2356.908,3513.162,2315.205,3513.162z"/>
				
					<line style="fill:none;stroke:#383838;stroke-width:12;stroke-linecap:round;stroke-linejoin:round;stroke-miterlimit:10;" x1="1748.271" y1="3480.011" x2="1543.526" y2="4599.774"/>
				
					<line style="fill:none;stroke:#383838;stroke-width:12;stroke-linecap:round;stroke-linejoin:round;stroke-miterlimit:10;" x1="2272.803" y1="3480.011" x2="2477.547" y2="4599.774"/>
			</g>
			<path style="fill:#383838;" d="M2347.155,1537.007c194.605,54.254,16.281,523.72,132.143,607.569
				c-150.247,112.258-652.018,238.485-744.727,133.821c-51.866-58.554-72.213-233.183,114.327-349.514
				c132.646-82.722,192.503-318.947,235.022-372.38C2195.69,1416.045,2347.155,1537.007,2347.155,1537.007z"/>
			
				<polygon style="fill:#FFFFFF;stroke:#383838;stroke-width:12;stroke-linecap:round;stroke-linejoin:round;stroke-miterlimit:10;" points="
				1009.678,4145.062 760.847,4521.987 563.088,4498.323 812.404,4014.913 			"/>
			
				<polygon style="fill:#FFFFFF;stroke:#383838;stroke-width:12;stroke-linecap:round;stroke-linejoin:round;stroke-miterlimit:10;" points="
				1454.426,3720.81 1657.256,4112.947 1500.063,4234.645 1178.916,3662.347 			"/>
			<g>
				<path style="fill:#4187E8;" d="M1714.713,4158.268c29.02,62.695-242.033,501.571-284.513,437.749
					c-42.48-63.822,50.289-316.981,21.971-413.626c-2.926-9.986-8.249-23.216-15.31-38.738
					c56.244-47.365,124.13-82.309,198.813-100.939C1667.957,4093.792,1692.035,4109.274,1714.713,4158.268z"/>
				<path style="fill:#FFFFFF;" d="M1714.706,4158.283c-5.805-12.634-11.759-23.032-17.899-32.352
					c-60.908-26.593-314.862,392.818-259.639,475.669C1496.178,4621.632,1742.453,4218.138,1714.706,4158.283z"/>
				<path style="fill:none;stroke:#383838;stroke-width:12;stroke-linecap:round;stroke-linejoin:round;stroke-miterlimit:10;" d="
					M1696.807,4125.931c-60.908-26.593-314.862,392.818-259.639,475.669"/>
				<path style="fill:#A9B5C4;" d="M1714.729,4158.334l-0.023-0.051c-50.89-51.576-301.266,392.209-278.635,441.467l0.188,0.409
					c0.286,0.488,0.623,0.953,0.91,1.441C1496.178,4621.632,1742.319,4218.385,1714.729,4158.334z"/>
			</g>
			<g>
				<path style="fill:#4187E8;" d="M521.961,4442.094c31.09-18.136,63.479-48.429,95.602-85.682
					c73.894,11.07,145.084,36.103,210.826,79.828c-18.78,56.093,21.098,116.783-15.985,169.836l-571.158-15.287
					C294.053,4506.019,339.97,4548.254,521.961,4442.094z"/>
				<path style="fill:#FFFFFF;" d="M258.519,4567.165c-5.8,6.595-11.496,14.35-17.273,23.625l571.158,15.287
					c8.955-12.811,14.643-25.8,18.438-38.911H258.519z"/>
			</g>
			<path style="fill:#A9B5C4;" d="M1974.308,2872.971c-72.793-7.077-104.406,126.529-104.406,126.529
				c-650.519-62.228-852.535,19.721-912.069,187.802c-65.6,185.207,288.029,864.943,288.029,864.943l328.724-195.019
				c0,0-294.219-536.856-277.819-536.856c16.4,0,475.6,306.134,727.067,125.733S1974.308,2872.971,1974.308,2872.971z"/>
			<path style="fill:#A9B5C4;" d="M2390.101,3047.036c137.838,521.964-616.956,457.626-989.305,458.348l-391.118,858.917
				l-367.77-70.863c0,0,301.454-907.636,498.254-1052.062c196.8-144.426,815.102-134.206,815.102-134.206l30.304-152.446
				L2390.101,3047.036z"/>
			<path style="fill:none;stroke:#383838;stroke-width:12;stroke-linecap:round;stroke-linejoin:round;stroke-miterlimit:10;" d="
				M994.998,3437.652c40.276-100.188,101.081-163.925,145.164-196.276c196.8-144.426,815.102-134.206,815.102-134.206"/>
			
				<line style="fill:none;stroke:#383838;stroke-width:12;stroke-linecap:round;stroke-linejoin:round;stroke-miterlimit:10;" x1="1009.678" y1="4364.301" x2="641.908" y2="4293.438"/>
			
				<path style="fill:#FFFFFF;stroke:#383838;stroke-width:12;stroke-linecap:round;stroke-linejoin:round;stroke-miterlimit:10;" d="
				M1874.262,2230.561c-106.162-132.566-436.84,440.208-436.84,440.208s6.827-80.951-47.79-95.734
				c-72.298-19.568-191.161,260.702-22.432,295.813C1535.929,2905.959,2075.118,2481.375,1874.262,2230.561z"/>
			<path style="fill:#4187E8;" d="M1736.003,2700.978c174.119-139.119,269.463-325.651,155.836-505.632
				c-114.527-86.183-232.233,108.156-314.328,207.555L1736.003,2700.978z"/>
			<path style="fill:#4187E8;" d="M2569.532,2214.284c-202.896-213.538-614.698-130.001-761.959-39.463
				c-147.26,90.538,89.269,759.656,89.269,759.656l493.259,112.559C2390.101,3047.036,2592.348,2390.122,2569.532,2214.284z"/>
			<path style="fill:#FFFFFF;" d="M2110.573,1786.523l-60.138,299.85c-83.666,21.501-202.307,316.823,67.294,268.569
				c179.657-32.156,264.475-259.96,152.779-265.356l-9.196-228.098L2110.573,1786.523z"/>
			
				<line style="fill:#FFFFFF;stroke:#383838;stroke-width:12;stroke-linecap:round;stroke-linejoin:round;stroke-miterlimit:10;" x1="2039.069" y1="2132.101" x2="2107.073" y2="1803.975"/>
			
				<line style="fill:#FFFFFF;stroke:#383838;stroke-width:12;stroke-linecap:round;stroke-linejoin:round;stroke-miterlimit:10;" x1="2272.195" y1="2136.59" x2="2261.652" y2="1842.973"/>
			
				<path style="fill:#FFFFFF;stroke:#383838;stroke-width:12;stroke-linecap:round;stroke-linejoin:round;stroke-miterlimit:10;" d="
				M2507.683,2211.663c-150.35-17.228-230.9,437.641-230.9,437.641S2074,2385.812,1952.666,2378.458
				c-121.335-7.354-227.962,73.536-250.023,106.627c-22.061,33.091,102.951-14.707,102.951-14.707
				c-39.143,33.944-7.933,55.401,18.4,47.598c-32.185,45.84,43.889,25.205,43.889,25.205c-26.333,46.968,96.556,0,96.556,0
				s254.209,462.12,380.024,428.959S2746.102,2238.982,2507.683,2211.663z"/>
			<path style="fill:#4187E8;" d="M2571.327,2647.051c52.937-187.689,72.016-456.79-60.99-484.854
				c-179.707-37.918-234.331,246.324-239.142,393.645L2571.327,2647.051z"/>
			<path style="fill:none;stroke:#383838;stroke-width:12;stroke-linecap:round;stroke-linejoin:round;stroke-miterlimit:10;" d="
				M2397.833,2186.991c-91.403,70.852-123.031,258.361-126.639,368.851l300.132,91.209"/>
			<path style="fill:#383838;" d="M2178.813,1661.29c-70.2,184.137,29.398,635.563-223.549,667.707
				c0,0-14.445-192.406-84.845-192.406C1762.411,2136.59,1986.613,1696.063,2178.813,1661.29z"/>
			<path style="fill:#FFFFFF;" d="M2189.799,1759.712c49.951-113.551,151.156-45.614,145.55-157.384
				c42.5-2.167,74.401,35.166,81.958,79.614c21.441,126.114-36.209,256.741-106.597,277.707
				c-70.387,20.966-158.903-118.188-149.04-139.527C2104.947,1815.442,2135.34,1667.238,2189.799,1759.712z"/>
			<path style="fill:none;stroke:#383838;stroke-width:12;stroke-linecap:round;stroke-linejoin:round;stroke-miterlimit:10;" d="
				M2335.349,1602.328c42.5-2.167,74.401,35.166,81.958,79.614c21.441,126.114-36.209,256.741-106.597,277.707
				c-39.492,11.763-84.692-26.879-115.02-66.837"/>
			
				<line style="fill:none;stroke:#383838;stroke-width:12;stroke-linecap:round;stroke-linejoin:round;stroke-miterlimit:10;" x1="2404.993" y1="3050.435" x2="1877.014" y2="2929.953"/>
			<path style="fill:#878787;" d="M1546.191,2291.972h-261.246c-25.942,0-38.953,21.03-29.059,46.972l193.4,507.14
				c9.893,25.942,38.943,46.973,64.886,46.973h261.246c25.942,0,38.953-21.03,29.059-46.973l-193.4-507.14
				C1601.183,2313.003,1572.133,2291.972,1546.191,2291.972z"/>
			<path style="fill:none;stroke:#383838;stroke-width:12;stroke-linecap:round;stroke-linejoin:round;stroke-miterlimit:10;" d="
				M1775.417,2893.057c25.942,0,38.953-21.03,29.059-46.973l-193.4-507.14c-9.893-25.942-38.943-46.972-64.886-46.972h-261.246"/>
			<path style="fill:#FFFFFF;" d="M1429.19,2480.075c30.551,21.565-56.786,91.263-56.786,91.263s96.333-29.407,106.474,0
				c10.141,29.407-47.66,32.794-47.66,32.794s58.814-15.353,55.772,7.868c-3.042,23.222-57.236,36.404-57.236,36.404
				s36.955-14.197,42.026,8.112s-114.586,106.474-155.147,81.123s-24.489-139.669-7.25-172.118S1411.951,2467.906,1429.19,2480.075z
				"/>
			<path style="fill:none;stroke:#383838;stroke-width:12;stroke-linecap:round;stroke-linejoin:round;stroke-miterlimit:10;" d="
				M1295.064,2700.979c-10.224-44.486,1.736-111.776,14.318-135.458c17.239-32.449,102.57-97.615,119.808-85.447
				c30.551,21.565-56.786,91.263-56.786,91.263s96.333-29.407,106.474,0c10.141,29.407-47.66,32.794-47.66,32.794
				s58.814-15.353,55.772,7.868c-3.042,23.222-57.236,36.404-57.236,36.404s36.955-14.197,42.026,8.112
				c3.29,14.476-45.936,54.996-91.991,74.74"/>
			
				<line style="fill:none;stroke:#383838;stroke-width:12;stroke-linecap:round;stroke-linejoin:round;stroke-miterlimit:10;" x1="1574.585" y1="3857.226" x2="1245.862" y2="4052.244"/>
			
				<line style="fill:none;stroke:#383838;stroke-width:12;stroke-linecap:round;stroke-linejoin:round;stroke-miterlimit:10;" x1="830.842" y1="4567.165" x2="258.519" y2="4567.165"/>
			
				<line style="fill:none;stroke:#383838;stroke-width:12;stroke-linecap:round;stroke-linejoin:round;stroke-miterlimit:10;" x1="812.404" y1="4606.076" x2="241.245" y2="4590.79"/>
			
				<line style="fill:none;stroke:#383838;stroke-width:12;stroke-linecap:round;stroke-linejoin:round;stroke-miterlimit:10;" x1="1400.796" y1="3505.384" x2="1199.02" y2="3948.496"/>
		</g>
	</g>
	<g>
		<path style="fill:#FFFFFF;stroke:#B5D4FF;stroke-width:12;stroke-linecap:round;stroke-linejoin:round;stroke-miterlimit:10;" d="
			M2257.774,749.439h-337.581c-43.25,0-78.31,35.061-78.31,78.31v336.547c0,43.25,35.061,78.311,78.31,78.311h224.613
			l110.772,191.097l2.196-191.097h0c43.25,0,78.31-35.061,78.31-78.31V827.75C2336.084,784.5,2301.024,749.439,2257.774,749.439z"/>
		<g>
			<g>
				<g>
					
						<path style="fill:#B5D4FF;stroke:#B5D4FF;stroke-width:12;stroke-linecap:round;stroke-linejoin:round;stroke-miterlimit:10;" d="
						M1882.156,1129.76c12.213,22.485,29.637,41.719,50.63,56.128l91.06-132.927L1882.156,1129.76z"/>
					
						<path style="fill:#FFFFFF;stroke:#B5D4FF;stroke-width:12;stroke-linecap:round;stroke-linejoin:round;stroke-miterlimit:10;" d="
						M2000.954,1124.448c25.908,17.782,57.262,28.208,91.06,28.208c81.991,0,149.63-61.254,159.772-140.488l-159.772-20.647
						L2000.954,1124.448z"/>
					
						<path style="fill:#B5D4FF;stroke:#B5D4FF;stroke-width:12;stroke-linecap:round;stroke-linejoin:round;stroke-miterlimit:10;" d="
						M2251.787,1012.168c0.866-6.765,1.362-13.646,1.362-20.647c0-88.992-72.142-161.134-161.134-161.134
						c-65.977,0-122.66,39.672-147.582,96.446l147.582,64.688L2251.787,1012.168z"/>
					
						<path style="fill:#FFFFFF;stroke:#B5D4FF;stroke-width:12;stroke-linecap:round;stroke-linejoin:round;stroke-miterlimit:10;" d="
						M1950.324,1068.32l141.69-76.799l-147.582-64.688c-8.693,19.804-13.552,41.674-13.552,64.688
						C1930.88,1019.328,1937.924,1045.49,1950.324,1068.32z"/>
				</g>
			</g>
		</g>
	</g>
	<g>
		<path style="fill:#FFFFFF;stroke:#B5D4FF;stroke-width:12;stroke-linecap:round;stroke-linejoin:round;stroke-miterlimit:10;" d="
			M3095.21,898.983h834.412c57.086,0,103.364,46.278,103.364,103.364v173.325c0,57.086-46.278,103.364-103.364,103.364h-675.331
			l-109.042,169.454l1.169-169.454h-51.209c-57.086,0-103.364-46.278-103.364-103.364v-173.325
			C2991.846,945.26,3038.124,898.983,3095.21,898.983z"/>
		
			<ellipse transform="matrix(0.7071 -0.7071 0.7071 0.7071 358.5544 3046.4299)" style="fill:#B5D4FF;" cx="3856.644" cy="1090.401" rx="101.2" ry="101.2"/>
		
			<line style="fill:none;stroke:#B5D4FF;stroke-width:12;stroke-linecap:round;stroke-linejoin:round;stroke-miterlimit:10;" x1="3662.43" y1="1151.902" x2="3237.048" y2="1151.902"/>
		
			<line style="fill:none;stroke:#B5D4FF;stroke-width:12;stroke-linecap:round;stroke-linejoin:round;stroke-miterlimit:10;" x1="3662.43" y1="1090.401" x2="3171.254" y2="1090.401"/>
		
			<line style="fill:none;stroke:#B5D4FF;stroke-width:12;stroke-linecap:round;stroke-linejoin:round;stroke-miterlimit:10;" x1="3662.43" y1="1028.901" x2="3378.757" y2="1028.901"/>
	</g>
</g>
</svg>
