<?xml version="1.0" encoding="utf-8"?>
<!-- Generator: Adobe Illustrator 27.5.0, SVG Export Plug-In . SVG Version: 6.00 Build 0)  -->
<svg version="1.1" id="Layer_1" xmlns="http://www.w3.org/2000/svg" xmlns:xlink="http://www.w3.org/1999/xlink" x="0px" y="0px"
	 viewBox="0 0 4981.146 4981.146" style="enable-background:new 0 0 4981.146 4981.146;" xml:space="preserve">
<rect x="0" style="fill:#FFFFFF;" width="4981.146" height="4981.146"/>
<g>
	<g>
		<path style="fill:none;stroke:#B5D4FF;stroke-width:12;stroke-linecap:round;stroke-linejoin:round;stroke-miterlimit:10;" d="
			M4406.64,4301.692H2497.098c-65.515,0-118.625-53.11-118.625-118.625v-866.58c0-65.515,53.11-118.625,118.625-118.625H4406.64
			c65.515,0,118.625,53.11,118.625,118.625v866.58C4525.265,4248.582,4472.154,4301.692,4406.64,4301.692z"/>
		<g>
			
				<line style="fill:none;stroke:#B5D4FF;stroke-width:12;stroke-linecap:round;stroke-linejoin:round;stroke-miterlimit:10;" x1="2736.272" y1="3197.862" x2="2736.272" y2="4301.692"/>
			
				<line style="fill:none;stroke:#B5D4FF;stroke-width:12;stroke-linecap:round;stroke-linejoin:round;stroke-miterlimit:10;" x1="3094.071" y1="3197.862" x2="3094.071" y2="4301.692"/>
			
				<line style="fill:none;stroke:#B5D4FF;stroke-width:12;stroke-linecap:round;stroke-linejoin:round;stroke-miterlimit:10;" x1="3451.869" y1="3197.862" x2="3451.869" y2="4301.692"/>
			
				<line style="fill:none;stroke:#B5D4FF;stroke-width:12;stroke-linecap:round;stroke-linejoin:round;stroke-miterlimit:10;" x1="3809.668" y1="3197.862" x2="3809.668" y2="4301.692"/>
			
				<line style="fill:none;stroke:#B5D4FF;stroke-width:12;stroke-linecap:round;stroke-linejoin:round;stroke-miterlimit:10;" x1="4167.466" y1="3197.862" x2="4167.466" y2="4301.692"/>
		</g>
		<g>
			
				<line style="fill:none;stroke:#B5D4FF;stroke-width:12;stroke-linecap:round;stroke-linejoin:round;stroke-miterlimit:10;" x1="2378.474" y1="4025.735" x2="4525.265" y2="4025.735"/>
			
				<line style="fill:none;stroke:#B5D4FF;stroke-width:12;stroke-linecap:round;stroke-linejoin:round;stroke-miterlimit:10;" x1="2378.474" y1="3749.777" x2="4525.265" y2="3749.777"/>
			
				<line style="fill:none;stroke:#B5D4FF;stroke-width:12;stroke-linecap:round;stroke-linejoin:round;stroke-miterlimit:10;" x1="2378.474" y1="3473.82" x2="4525.265" y2="3473.82"/>
		</g>
		
			<polyline style="fill:none;stroke:#B5D4FF;stroke-width:12;stroke-linecap:round;stroke-linejoin:round;stroke-miterlimit:10;" points="
			2547.707,4151.241 3225.437,3627.484 3701.848,3967.778 4312.003,3351.021 		"/>
		
			<ellipse transform="matrix(0.7071 -0.7071 0.7071 0.7071 -2189.1646 3017.3711)" style="fill:#FFFFFF;stroke:#B5D4FF;stroke-width:12;stroke-linecap:round;stroke-linejoin:round;stroke-miterlimit:10;" cx="2547.707" cy="4151.241" rx="41.142" ry="41.142"/>
		
			<circle style="fill:#FFFFFF;stroke:#B5D4FF;stroke-width:12;stroke-linecap:round;stroke-linejoin:round;stroke-miterlimit:10;" cx="3225.437" cy="3627.484" r="41.142"/>
		
			<circle style="fill:#FFFFFF;stroke:#B5D4FF;stroke-width:12;stroke-linecap:round;stroke-linejoin:round;stroke-miterlimit:10;" cx="4312.003" cy="3348.313" r="41.142"/>
		
			<circle style="fill:#FFFFFF;stroke:#B5D4FF;stroke-width:12;stroke-linecap:round;stroke-linejoin:round;stroke-miterlimit:10;" cx="3701.848" cy="3967.778" r="41.142"/>
	</g>
	<g>
		<path style="fill:#FFFFFF;stroke:#B5D4FF;stroke-width:12;stroke-linecap:round;stroke-linejoin:round;stroke-miterlimit:10;" d="
			M1568.799,249.636H544.679c-49.042,0-88.798,39.756-88.798,88.798v658.663c0,49.042,39.756,88.798,88.798,88.798h762.591
			l284.592,272.065l-67.054-272.065h43.992c49.042,0,88.798-39.756,88.798-88.798V338.434
			C1657.597,289.392,1617.841,249.636,1568.799,249.636z"/>
		<rect x="549.524" y="697.447" style="fill:#B5D4FF;" width="215.686" height="293.715"/>
		<rect x="813.053" y="416.679" style="fill:#B5D4FF;" width="215.686" height="574.483"/>
		<rect x="1076.581" y="579.229" style="fill:#B5D4FF;" width="215.686" height="411.933"/>
		<rect x="1340.109" y="310.775" style="fill:#B5D4FF;" width="215.686" height="680.387"/>
		
			<polyline style="fill:none;stroke:#FFFFFF;stroke-width:12;stroke-linecap:round;stroke-linejoin:round;stroke-miterlimit:10;" points="
			1460.847,374.954 1515.571,374.954 1141.623,727.621 973.396,515.818 592.354,914.089 		"/>
		
			<line style="fill:none;stroke:#FFFFFF;stroke-width:12;stroke-linecap:round;stroke-linejoin:round;stroke-miterlimit:10;" x1="1515.571" y1="427.651" x2="1515.571" y2="374.954"/>
	</g>
	<g>
		<g>
			
				<rect x="1249.826" y="678.775" style="fill:#FFFFFF;stroke:#B5D4FF;stroke-width:12;stroke-linecap:round;stroke-linejoin:round;stroke-miterlimit:10;" width="2208.388" height="2802.483"/>
			
				<circle style="fill:#FFFFFF;stroke:#B5D4FF;stroke-width:12;stroke-linecap:round;stroke-linejoin:round;stroke-miterlimit:10;" cx="3328.189" cy="803.798" r="351.663"/>
			
				<polyline style="fill:none;stroke:#B5D4FF;stroke-width:12;stroke-linecap:round;stroke-linejoin:round;stroke-miterlimit:10;" points="
				3130.727,756.051 3328.189,970.92 3740.439,541.183 			"/>
		</g>
		<rect x="1833.104" y="1135.785" style="fill:#B5D4FF;" width="1249.112" height="104.056"/>
		<rect x="1558.739" y="1362.623" style="fill:#B5D4FF;" width="1523.478" height="104.056"/>
		<rect x="1558.739" y="1589.461" style="fill:#B5D4FF;" width="1523.478" height="104.056"/>
		<rect x="1558.739" y="1816.298" style="fill:#B5D4FF;" width="1523.478" height="104.056"/>
		<rect x="1558.739" y="2043.136" style="fill:#B5D4FF;" width="1523.478" height="104.056"/>
		<rect x="1558.739" y="2269.974" style="fill:#B5D4FF;" width="1523.478" height="104.056"/>
		<rect x="1558.739" y="2496.811" style="fill:#B5D4FF;" width="1523.478" height="104.056"/>
		<rect x="1558.739" y="2723.649" style="fill:#B5D4FF;" width="1086.813" height="104.056"/>
		<path style="fill:none;stroke:#B5D4FF;stroke-width:12;stroke-linecap:round;stroke-linejoin:round;stroke-miterlimit:10;" d="
			M2310.734,3193.638c91.789-106.366,222.459-178.413,361.398-199.261c-24.555,120.19-183.363,249.243-250.738,237.839
			c-67.375-11.403,71.498-133.388,142.681-156.316c71.183-22.927,188.222-32.136,222.544-11.354s-64.773,166.603-120.63,160.05
			s28.318-96.696,68.703-124.799c30.26-21.059,75.297-29.547,101.925-4.05c31.658,30.313,16.109,82.846-1.532,122.969
			c28.439-54.756,88.371-91.666,150.067-92.423"/>
	</g>
	<g>
		<path style="fill:#FFFFFF;stroke:#383838;stroke-width:12;stroke-linecap:round;stroke-linejoin:round;stroke-miterlimit:10;" d="
			M2753.82,1792.726c-68.418,50.723-97.135,136.659-126.875,157.115c-29.74,20.456-177.083,65.869-177.083,65.869
			s3.515,130.074,22.851,124.801c19.335-5.273,214.008-58.006,214.008-58.006s121.286,33.329,184.141-32.388
			c62.854-65.716-146.523-139.873-146.523-139.873S2780.052,1835.164,2753.82,1792.726z"/>
		
			<polygon style="fill:#FFFFFF;stroke:#383838;stroke-width:12;stroke-linecap:round;stroke-linejoin:round;stroke-miterlimit:10;" points="
			2497.321,1977.039 2622.122,1929.186 2660.793,2094.809 2528.961,2131.722 		"/>
		<path style="fill:#A9B5C4;" d="M1717.649,1823.964c47.521,236.436,278.607,384.434,377.144,437.833
			c148.482,80.464,541.391-113.097,541.391-113.097l-49.217-225.257l-348.431,67.11c0,0-96.685-88.912-203.571-228.595
			C1956.081,1658.871,1693.563,1704.124,1717.649,1823.964z"/>
		<polygon style="fill:#FFFFFF;" points="1768.352,1553.419 1588.559,1622.326 1730.937,2195.059 1971.75,1822.356 
			1908.315,1597.493 		"/>
		<path style="fill:#4187E8;" d="M1856.868,1784.276l51.447-72.063c-49.618-49.667-117.029-29.05-117.029-29.05l29.822,88.24
			c0,0-63.917,164.144-139.736,361.587c31.4,11.81,62.745,23.505,94.065,34.975
			C1851.25,1917.722,1856.868,1784.276,1856.868,1784.276z"/>
		<path style="fill:#383838;" d="M3076.3,1352.168c0-16.004-7.328-30.156-18.637-39.77c1.639-5.078,2.756-10.389,2.756-16.013
			c0-27.964-21.961-50.605-49.549-52.121c-1.29-1.16-2.662-2.192-3.997-3.289c-7.36-20.044-26.443-34.423-49.04-34.423
			c-6.964,0-13.581,1.423-19.66,3.889c-7.625-19.521-26.502-33.401-48.723-33.401c-15.215,0-28.797,6.586-38.372,16.941
			c-9.574-10.355-23.157-16.941-38.372-16.941c-15.786,0-29.774,7.126-39.383,18.166c-0.889-0.046-1.728-0.265-2.629-0.265
			c-28.944,0-52.409,23.465-52.409,52.41c0,3.139,0.395,6.177,0.924,9.164c-36.405,39.211-38.884,84.304-23.745,115.609
			c-3.718,7.196-6.018,15.242-6.018,23.901c0,28.945,23.464,52.41,52.409,52.41c14.325,0,27.284-5.776,36.745-15.092
			c58.715,32.439,132.713,77.239,138.124,109.504c7.389,44.056,87.268,66.337,112.872-5.087c1.774-4.945,3.136-9.663,4.75-14.521
			c11.169-9.612,18.393-23.677,18.393-39.568c0-5.584-1.106-10.861-2.724-15.907c2.562-11.492,4.561-22.609,6.153-33.449
			c12.172-9.597,20.134-24.302,20.134-41.004c0-7.307-1.51-14.251-4.21-20.57C3074.79,1366.419,3076.3,1359.475,3076.3,1352.168z"/>
		<path style="fill:#383838;" d="M2882.163,1779.916l42.989,77.407c0,0-5.464,302.834,190.173,899.811l127.894,75.863
			l28.194-137.755c0,0-121.242-206.81-179.904-433.797c-58.662-226.986-129.375-412.88-129.375-412.88l39.585-84.313
			C3001.721,1764.253,2937.066,1736.164,2882.163,1779.916z"/>
		<g>
			
				<path style="fill:#FFFFFF;stroke:#383838;stroke-width:12;stroke-linecap:round;stroke-linejoin:round;stroke-miterlimit:10;" d="
				M2078.576,2367.163c132.22,12.896,303.003,247.484,324.008,268.488s-26.484,19.178-39.269,15.525
				c10.045,22.831-48.401,14.612-48.401,14.612s10.958,29.223-48.401,15.525c0,0-11.872,25.57-54.793,10.045
				c-42.921-15.525-176.252-146.116-176.252-146.116l-179.905-52.967C1855.562,2492.274,1938.126,2353.464,2078.576,2367.163z"/>
			
				<path style="fill:#FFFFFF;stroke:#383838;stroke-width:12;stroke-linecap:round;stroke-linejoin:round;stroke-miterlimit:10;" d="
				M2363.315,2446.816c0,0-94.643-49.033-124.779-43.554s-114.168,44.438-102.33,56.301c24.342,24.394,111.947,5.716,111.947,5.716
				l154.431,170.372c0,0,82.506-53.898,173.829-54.811c91.323-0.913,174.839-104.905,83.517-118.603
				C2568.606,2448.538,2363.315,2446.816,2363.315,2446.816z"/>
			
				<path style="fill:#FFFFFF;stroke:#383838;stroke-width:12;stroke-linecap:round;stroke-linejoin:round;stroke-miterlimit:10;" d="
				M2048.333,2590.095c-14.711,22.883,9.807,39.228,26.561,32.69c-12.259,33.508,23.7,33.508,34.325,29.421
				c-11.033,29.83,25.743,24.518,37.594,16.754c-4.495,26.152,8.173,31.056,33.916,19.614c25.744-11.441,28.195-38.32,20.023-46.334
				c-8.173-8.013-33.099,2.611-33.099,2.611s11.85-23.701,2.86-32.69c-8.99-8.99-31.056,4.495-31.056,4.495
				s11.482-21.249-3.657-28.604c-15.14-7.355-30.259,0-30.259,0s6.947-17.162-7.764-22.883
				C2083.066,2559.448,2048.333,2590.095,2048.333,2590.095z"/>
			<path style="fill:none;stroke:#383838;stroke-width:12;stroke-linecap:round;stroke-linejoin:round;stroke-miterlimit:10;" d="
				M2248.152,2545.554c63.585,69.244,115.162,105.621,115.162,105.621"/>
			<path style="fill:none;stroke:#383838;stroke-width:12;stroke-linecap:round;stroke-linejoin:round;stroke-miterlimit:10;" d="
				M2198.3,2580.84c33.916,32.956,116.614,84.948,116.614,84.948"/>
			<path style="fill:none;stroke:#383838;stroke-width:12;stroke-linecap:round;stroke-linejoin:round;stroke-miterlimit:10;" d="
				M2210.558,2648.937c34.325,24.927,55.954,32.375,55.954,32.375"/>
		</g>
		
			<polygon style="fill:#FFFFFF;stroke:#383838;stroke-width:12;stroke-linecap:round;stroke-linejoin:round;stroke-miterlimit:10;" points="
			2378.474,2432.26 2515.975,2420.352 2547.978,2593.764 2420.71,2629.421 		"/>
		
			<polygon style="fill:#FFFFFF;stroke:#383838;stroke-width:12;stroke-linecap:round;stroke-linejoin:round;stroke-miterlimit:10;" points="
			1938.847,2335.21 2068.203,2361.653 2009.599,2583.916 1846.654,2522.454 		"/>
		<g>
			<g>
				<g>
					<path style="fill:#4187E8;" d="M1521.303,4641.236c-28.593-17.164-58.246-45.606-87.573-80.494l-165.605-8.114l-34.443,200.883
						c2.27,17.924,7.609,22.129,17.227,36.264l528.733-7.511C1731.706,4703.114,1688.674,4741.708,1521.303,4641.236z"/>
					<path style="fill:#FFFFFF;" d="M1763.914,4760.177c5.297,6.178,10.483,13.428,15.728,22.088l-540.981,7.511
						c-8.147-11.973-1.616-24.073-4.979-36.264L1763.914,4760.177z"/>
				</g>
				
					<line style="fill:none;stroke:#383838;stroke-width:12;stroke-linecap:round;stroke-linejoin:round;stroke-miterlimit:10;" x1="1233.682" y1="4753.512" x2="1763.914" y2="4760.177"/>
				
					<line style="fill:none;stroke:#383838;stroke-width:12;stroke-linecap:round;stroke-linejoin:round;stroke-miterlimit:10;" x1="1238.661" y1="4789.776" x2="1779.642" y2="4782.265"/>
			</g>
		</g>
		<g>
			<path style="fill:#FFFFFF;" d="M672.737,4714.957c1.668-0.556,159.548,41.888,159.548,41.888l2.691,29.176H484.781l3.947-29.176
				L672.737,4714.957z"/>
			<g>
				<polygon style="fill:#4187E8;" points="622.563,4535.819 484.781,4756.844 834.977,4756.844 809.143,4498.503 				"/>
				
					<line style="fill:none;stroke:#383838;stroke-width:12;stroke-linecap:round;stroke-linejoin:round;stroke-miterlimit:10;" x1="834.977" y1="4756.844" x2="484.781" y2="4756.844"/>
				
					<line style="fill:none;stroke:#383838;stroke-width:12;stroke-linecap:round;stroke-linejoin:round;stroke-miterlimit:10;" x1="834.977" y1="4786.021" x2="484.781" y2="4786.021"/>
			</g>
		</g>
		<path style="fill:#4187E8;" d="M1080.088,2510.439c-226.493,307.234-522.763,2103.189-522.763,2103.189h308.001l390.082-1325.48
			l-3.33,1358.071l264.104-57c0,0,288.515-1790.115,207.917-2057.388S1306.581,2203.206,1080.088,2510.439z"/>
		<path style="fill:#A9B5C4;" d="M2043.817,1859.739c-13.89-96.057-65.164-157.117-121.579-209.438
			c0,0,26.404,227.418-183.633,428.763c29.747-148.938,27.757-529.653-12.169-542.088c-55.936-17.421-115.997-24.939-176.484-17.582
			c-232.672,28.298-562.814,1128.772-562.814,1128.772l558.092,127.299l98.147-177.101l-10.575,198.477l122.37,27.193l0.17-215.929
			C1835.016,2360.826,2065.306,2008.346,2043.817,1859.739z"/>
		<path style="fill:#4187E8;" d="M2420.71,2415.887l42.516,249.238c0,0,498.427-39.816,601.933-81.208
			s-195.663-248.706-195.663-248.706L2420.71,2415.887z"/>
		<path style="fill:#A9B5C4;" d="M1549.952,1519.395c-587.423,15.779-382.34,692.751-313.167,846.817
			s711.857,214.628,711.857,214.628l95.175-232.679l-534.254-146.554C1509.563,2201.606,1422.811,1694.94,1549.952,1519.395z"/>
		<path style="fill:none;stroke:#383838;stroke-width:12;stroke-linecap:round;stroke-linejoin:round;stroke-miterlimit:10;" d="
			M1846.654,2294.076l-337.091-92.469c0,0-43.585-122.617-40.905-384.524"/>
		
			<line style="fill:none;stroke:#383838;stroke-width:12;stroke-linecap:round;stroke-linejoin:round;stroke-miterlimit:10;" x1="1948.642" y1="2580.84" x2="2043.817" y2="2348.161"/>
		<path style="fill:none;stroke:#383838;stroke-width:12;stroke-linecap:round;stroke-linejoin:round;stroke-miterlimit:10;" d="
			M1168.965,2148.7c26.322,101.02,45.662,196.369,77.915,234.268c71.601,84.135,325.834,144.801,521.472,174.78"/>
		
			<polyline style="fill:none;stroke:#383838;stroke-width:12;stroke-linecap:round;stroke-linejoin:round;stroke-miterlimit:10;" points="
			1367.67,2935.107 865.326,4613.629 557.325,4613.629 		"/>
		<g>
			<g>
				<g>
					<path style="fill:#4187E8;" d="M3014.082,4641.236c28.593-17.164,58.246-45.606,87.573-80.494l165.605-8.114l34.443,200.883
						c-2.27,17.924-7.609,22.129-17.227,36.264l-528.733-7.511C2803.679,4703.114,2846.711,4741.708,3014.082,4641.236z"/>
					<path style="fill:#FFFFFF;" d="M2771.471,4760.177c-5.297,6.178-10.483,13.428-15.728,22.088l540.981,7.511
						c8.147-11.973,1.616-24.073,4.979-36.264L2771.471,4760.177z"/>
				</g>
				
					<line style="fill:none;stroke:#383838;stroke-width:12;stroke-linecap:round;stroke-linejoin:round;stroke-miterlimit:10;" x1="3301.703" y1="4753.512" x2="2771.471" y2="4760.177"/>
				
					<line style="fill:none;stroke:#383838;stroke-width:12;stroke-linecap:round;stroke-linejoin:round;stroke-miterlimit:10;" x1="3296.724" y1="4789.776" x2="2755.743" y2="4782.265"/>
			</g>
		</g>
		<g>
			<path style="fill:#FFFFFF;" d="M3964.249,4714.957c-1.668-0.556-118.928,41.888-118.928,41.888l-2.691,29.176h309.574
				l-3.946-29.176L3964.249,4714.957z"/>
			<g>
				<polygon style="fill:#4187E8;" points="4014.423,4535.819 4152.204,4756.844 3842.63,4756.844 3827.843,4498.503 				"/>
				
					<line style="fill:none;stroke:#383838;stroke-width:12;stroke-linecap:round;stroke-linejoin:round;stroke-miterlimit:10;" x1="3842.63" y1="4756.844" x2="4152.204" y2="4756.844"/>
				
					<line style="fill:none;stroke:#383838;stroke-width:12;stroke-linecap:round;stroke-linejoin:round;stroke-miterlimit:10;" x1="3842.63" y1="4786.021" x2="4152.204" y2="4786.021"/>
			</g>
		</g>
		<path style="fill:#A9B5C4;" d="M3605.578,2508.823c159.117,221.094,474.083,2104.806,474.083,2104.806l-321.839,57.573
			c0,0-217.522-1174.766-352.027-1435.494c-112.326,529.927-109.071,1428.517-109.071,1428.517l-311.53-57.06
			c0,0-58.271-1828.888,83.691-2080.515S3446.461,2287.729,3605.578,2508.823z"/>
		<path style="fill:#4187E8;" d="M2699.435,1925.315c21.442-108.213,162.088-211.913,162.088-211.913
			c-40.981,248.007,178.003,517.827,178.003,517.827s-76.527-454.852,47.405-611.76c55.936-17.421,160.412-26.808,220.899-19.452
			c232.672,28.298,414.431,1171.786,414.431,1171.786l-747.165,171.928C2975.095,2943.732,2660.214,2123.251,2699.435,1925.315z"/>
		
			<line style="fill:none;stroke:#383838;stroke-width:12;stroke-linecap:round;stroke-linejoin:round;stroke-miterlimit:10;" x1="2975.095" y1="2943.732" x2="3722.26" y2="2771.804"/>
		<polygon style="fill:#383838;" points="3431.734,2352.945 4138.79,2598.086 3956.57,3106.888 3259.429,2914.992 		"/>
		<g>
			
				<path style="fill:#FFFFFF;stroke:#383838;stroke-width:12;stroke-linecap:round;stroke-linejoin:round;stroke-miterlimit:10;" d="
				M3786.884,2731.704c-7.666,201.24-75.148,309.855-89.203,318.586c-16.174,10.047-14.009-21.747-14.009-21.747
				s-21.247,46.065-42.049,40.609c-17.663-4.633-9.324-28.608-9.324-28.608s-13.987,37.341-31.979,32.212
				s-18.917-37.136-18.917-37.136s-15.574,38.276-38.608,11.568c-23.033-26.708,14.582-116.61,14.582-116.61
				s-65.665,44.932-104.742,22.708c79.842-78.776,100.375-120.311,136.361-128.526c35.987-8.215,50.667-183.589,50.667-183.589
				L3786.884,2731.704z"/>
			
				<path style="fill:#FFFFFF;stroke:#383838;stroke-width:12;stroke-linecap:round;stroke-linejoin:round;stroke-miterlimit:10;" d="
				M3575.888,2794.52c0,0,222.18,66.281,222.247,59.8c0.066-6.482,24.195-219.201,24.195-219.201l-190.517,15.358L3575.888,2794.52z
				"/>
			<path style="fill:#4187E8;" d="M3188.122,1664.217c148.382-258.811,743.776,328.813,748.656,547.047
				c4.332,193.725-102.798,579.263-102.798,579.263l-269.385-27.503l70.474-529.022
				C3635.069,2234.001,3112.153,1796.725,3188.122,1664.217z"/>
			<path style="fill:none;stroke:#383838;stroke-width:12;stroke-linecap:round;stroke-linejoin:round;stroke-miterlimit:10;" d="
				M3833.979,2790.527l-269.385-27.503l70.474-529.022c0,0-228.833-190.132-362.889-356.282"/>
		</g>
		
			<line style="fill:none;stroke:#383838;stroke-width:12;stroke-linecap:round;stroke-linejoin:round;stroke-miterlimit:10;" x1="1322.846" y1="2919.466" x2="1440.159" y2="2974.212"/>
		<path style="fill:#FFFFFF;" d="M2915.73,1632.635c-155.246,109.986-65.869,255.847-65.869,255.847s50.816-109.18,98.883-116.425
			s116.274,57.404,116.274,57.404s99.303-175.754,50.079-212.81C3020.679,1545.57,2915.73,1632.635,2915.73,1632.635z"/>
		<path style="fill:none;stroke:#383838;stroke-width:12;stroke-linecap:round;stroke-linejoin:round;stroke-miterlimit:10;" d="
			M2849.861,1888.482c0,0,50.816-109.18,98.883-116.425s116.274,57.404,116.274,57.404s99.303-175.754,50.079-212.81"/>
		<g>
			<g>
				
					<line style="fill:#FFFFFF;stroke:#383838;stroke-width:12;stroke-linecap:round;stroke-linejoin:round;stroke-miterlimit:10;" x1="2839.367" y1="1448.433" x2="2971.481" y2="1414.084"/>
				
					<path style="fill:#FFFFFF;stroke:#383838;stroke-width:12;stroke-linecap:round;stroke-linejoin:round;stroke-miterlimit:10;" d="
					M2770.695,1463.318c0,0,94.864,210.852,118.539,259.874c21.575,44.672,143.782,7.568,175.944-100.866l-48.776-193.311
					L2770.695,1463.318z"/>
				<g>
					<path style="fill:#FFFFFF;" d="M2971.481,1414.084c0,0,9.043-96.065-95.573-99.434c-65.688-2.116-106.667-2.579-131.387-14.89
						c-51.207,122.466,8.709,283.516,29.476,322.566c24.185,45.48,177.321-26.424,184.849-58.832
						c7.528-32.409,10.734-61.165,10.734-61.165s39.829-6.839,46.656-49.913C3025.896,1391.464,2971.481,1414.084,2971.481,1414.084
						z"/>
				</g>
				<g>
					
						<path style="fill:#FFFFFF;stroke:#383838;stroke-width:12;stroke-linecap:round;stroke-linejoin:round;stroke-miterlimit:10;" d="
						M2969.579,1502.329c0,0,39.829-6.839,46.656-49.913c9.661-60.951-44.755-38.332-44.755-38.332s9.043-96.065-95.573-99.434
						c-65.688-2.116-106.667-2.579-131.387-14.89c-51.207,122.466,8.709,283.516,29.476,322.566"/>
				</g>
			</g>
			<path style="fill:#383838;" d="M2934.888,1469.83c-24.008,99.731-92.197,11.994-198.402,50.239
				c-21.824,29.529-1.997,140.708,58.394,159.705c114.806,36.114,172.558-116.313,168.491-156.491
				C2959.306,1483.105,2934.888,1469.83,2934.888,1469.83z"/>
		</g>
		
			<ellipse transform="matrix(0.7071 -0.7071 0.7071 0.7071 -100.3555 2298.4841)" style="fill:#383838;" cx="2724.338" cy="1270.382" rx="52.409" ry="52.41"/>
		<path style="fill:#FFFFFF;stroke:#383838;stroke-width:12;stroke-linecap:round;stroke-linejoin:round;stroke-miterlimit:10;" d="
			M1716.094,1519.395c-89.438,11.447-19.97,199.382,44.812,254.18c87.966-80.089,107.745-101.294,136.846-75.938
			c29.101,25.356,10.563,95.09,10.563,95.09s67.252-142.841,10.315-223.215C1857.176,1482.762,1716.094,1519.395,1716.094,1519.395z
			"/>
		<g>
			<path style="fill:#383838;" d="M1789.533,1120.567c25.757-6.74,49.447-10.111,70.814-12.151
				c66.569-20.791,70.816-49.345,70.816-49.345s22.809,13.863,28.748,36.315c10.32-5.026,17.608-12.843,21.482-25.54
				c118.375,31.192,104.905,171.888,59.102,207.539c-45.803,35.651-172.144,125.784-172.563,171.606
				c-0.419,45.821-77.776,81.208-115.173,12.951C1654.2,1282.052,1684.544,1148.041,1789.533,1120.567z"/>
			
				<line style="fill:#FFFFFF;stroke:#383838;stroke-width:12;stroke-linecap:round;stroke-linejoin:round;stroke-miterlimit:10;" x1="1931.163" y1="1340.928" x2="1791.801" y2="1327.317"/>
			
				<path style="fill:#FFFFFF;stroke:#383838;stroke-width:12;stroke-linecap:round;stroke-linejoin:round;stroke-miterlimit:10;" d="
				M1716.094,1553.187l58.019-212.259l204.908,60.974l-81.27,250.565C1869.948,1731.422,1731.44,1613.227,1716.094,1553.187z"/>
			<g>
				<path style="fill:#FFFFFF;" d="M1791.801,1327.317c0,0-24.57-95.879,80.882-116.072c66.213-12.68,107.657-19.722,130.728-36.16
					c71.524,115.864,36.65,288.644,21.874,331.54c-17.209,49.958-183.893,1.67-196.718-29.957
					c-12.825-31.628-20.686-60.249-20.686-60.249s-41.45-0.541-55.276-43.087
					C1733.041,1313.127,1791.801,1327.317,1791.801,1327.317z"/>
			</g>
			<g>
				
					<path style="fill:#FFFFFF;stroke:#383838;stroke-width:12;stroke-linecap:round;stroke-linejoin:round;stroke-miterlimit:10;" d="
					M1807.881,1416.418c0,0-41.45-0.541-55.276-43.087c-19.564-60.204,39.196-46.015,39.196-46.015s-24.57-95.879,80.882-116.072
					c66.213-12.68,107.657-19.722,130.728-36.16c71.524,115.864,36.65,288.644,21.874,331.54
					c-17.209,49.958-183.893,1.67-196.718-29.957"/>
			</g>
		</g>
		<path style="fill:none;stroke:#383838;stroke-width:12;stroke-linecap:round;stroke-linejoin:round;stroke-miterlimit:10;" d="
			M2026.432,1792.726c48.078,146.818-77.79,380.417-77.79,380.417"/>
		
			<line style="fill:none;stroke:#383838;stroke-width:12;stroke-linecap:round;stroke-linejoin:round;stroke-miterlimit:10;" x1="2586.967" y1="1923.442" x2="2636.184" y2="2148.7"/>
		
			<line style="fill:none;stroke:#383838;stroke-width:12;stroke-linecap:round;stroke-linejoin:round;stroke-miterlimit:10;" x1="2776.748" y1="2351.883" x2="2882.631" y2="2688.438"/>
		
			<line style="fill:none;stroke:#383838;stroke-width:12;stroke-linecap:round;stroke-linejoin:round;stroke-miterlimit:10;" x1="3757.822" y1="4671.202" x2="4079.661" y2="4613.629"/>
		
			<line style="fill:none;stroke:#383838;stroke-width:12;stroke-linecap:round;stroke-linejoin:round;stroke-miterlimit:10;" x1="2985.194" y1="4607.165" x2="3296.724" y2="4664.225"/>
		<path style="fill:none;stroke:#383838;stroke-width:12;stroke-linecap:round;stroke-linejoin:round;stroke-miterlimit:10;" d="
			M1252.078,4646.22c21.836-3.114,264.104-57,264.104-57"/>
	</g>
</g>
</svg>
