<?xml version="1.0" encoding="utf-8"?>
<!-- Generator: Adobe Illustrator 27.0.1, SVG Export Plug-In . SVG Version: 6.00 Build 0)  -->
<svg version="1.1" id="Слой_1" xmlns="http://www.w3.org/2000/svg" xmlns:xlink="http://www.w3.org/1999/xlink" x="0px" y="0px"
	 viewBox="0 0 3660 1212" style="enable-background:new 0 0 3660 1212;" xml:space="preserve">
<style type="text/css">
	.st0{fill:#1565C0;}
</style>
<g transform="translate(0.000000,1212.000000) scale(0.100000,-0.100000)">
	<g id="XMLID_00000170240432271186882750000000489193750686086282_">
		<g>
			<polygon class="st0" points="36590,7455 36590,2800 30190,2800 23790,2800 23790,3150 23790,3500 29838,3502 35885,3505 
				35888,7458 35890,11410 28485,11410 21080,11410 21080,9410 21080,7410 20730,7410 20380,7410 20380,9760 20380,12110 
				28485,12110 36590,12110 			"/>
		</g>
		<g>
		</g>
	</g>
	<g id="XMLID_00000144339637544617932390000010155513746874786727_">
		<g>
			<path class="st0" d="M27396,7800c25-159,25-509,1-670c-35-227-90-412-176-595c-223-472-596-778-1082-887c-92-20-130-23-329-23
				s-237,3-329,23c-263,59-474,170-658,346l-93,88v-711v-711h-470h-470v2285v2285h445h445v-211v-211l99,94c232,223,516,351,857,387
				c469,49,905-92,1227-399C27147,8620,27325,8256,27396,7800z M25813,6523c414,126,655,500,634,986c-20,470-294,818-705,897
				c-104,20-269,17-364-6c-255-63-467-251-569-505c-204-510-30-1095,391-1314c129-67,211-86,380-85
				C25707,6497,25736,6500,25813,6523z"/>
		</g>
		<g>
		</g>
	</g>
	<g id="XMLID_00000065762573542533678800000012523065515529975486_">
		<g>
			<path class="st0" d="M30210,8786v-514l-107-7c-144-8-319-38-423-71c-336-106-552-338-640-687c-48-190-50-240-50-1054v-763h-475
				h-475v1770v1770h465h465v-337v-338l54,101c65,124,119,196,222,294c201,192,464,306,779,339c44,5,104,9,133,10l52,1V8786z"/>
		</g>
		<g>
		</g>
	</g>
	<g id="XMLID_00000000916607805290825150000002740543227062168458_">
		<g>
			<path class="st0" d="M34124,8408c507-835,270-1921-539-2463c-250-167-510-266-815-311c-159-23-509-15-654,15
				c-535,110-971,407-1242,843c-530,854-263,1996,589,2517c273,167,534,251,887,284c224,22,552-20,781-98
				C33551,9049,33904,8770,34124,8408z M32805,6543c378,129,615,481,615,912c0,451-255,808-667,931c-74,22-111,27-233,30
				c-191,4-279-13-428-82c-210-96-387-293-468-519c-92-257-84-520,23-780c62-149,219-330,360-414C32240,6482,32541,6453,32805,6543z
				"/>
		</g>
		<g>
		</g>
	</g>
	<path d="M620,8295c-298-67-520-285-591-580c-43-181-12-392,82-553c49-83,200-231,282-277c196-108,399-128,612-61
		c119,38,198,88,305,196c78,77,103,111,138,180c137,275,101,599-93,832c-94,113-207,189-355,239C885,8309,728,8319,620,8295z"/>
	<path d="M3355,7266l-630-142l-3-462l-2-462h-350h-350v-515v-515h350h349l4-1262c3-1350,2-1305,52-1523c110-473,363-794,749-949
		c214-86,442-122,734-113c336,9,634,83,923,227c94,47,217,119,224,130c4,6-349,937-359,948c-3,2-17-5-33-16c-15-11-59-35-98-54
		c-205-103-430-147-584-114c-87,18-143,49-198,109c-52,56-78,107-106,205c-21,77-21,83-25,1245l-3,1167h666h665v515v515h-665h-665
		v605c0,333-3,605-7,604C3988,7409,3702,7344,3355,7266z"/>
	<g id="XMLID_00000180342526994098710090000002351094819922877593_">
		<g>
			<path class="st0" d="M23071,6305c19-80,14-230-10-306c-54-172-209-318-388-364c-74-19-233-19-308,0c-331,87-500,476-343,790
				c67,134,196,238,348,281c64,18,234,17,304-1C22865,6655,23026,6492,23071,6305z"/>
		</g>
		<g>
		</g>
	</g>
	<path d="M8160,6293c-361-34-643-111-929-254c-489-243-859-614-1101-1104c-116-235-193-477-236-740c-24-154-30-527-10-698
		c91-790,486-1406,1151-1800c416-247,918-377,1455-377c523,0,1005,112,1460,339c193,97,323,179,315,200c-10,26-457,885-466,895
		c-4,5-37-8-76-31c-322-191-668-295-1075-323c-541-38-992,138-1259,493c-72,96-159,271-193,387l-24,85l1738,3l1737,2l6,45
		c4,24,12,128,18,231c45,737-202,1435-685,1942c-220,230-470,405-748,526c-208,89-452,153-677,176C8466,6299,8243,6301,8160,6293z
		 M8516,5205c363-63,662-283,829-611c51-99,100-244,111-322l7-52H8310H7157l7,42c19,118,98,299,193,441c172,259,429,434,728,497
		C8198,5224,8394,5226,8516,5205z"/>
	<path d="M13345,6293c-954-83-1661-701-1896-1658c-55-227-72-374-73-640c0-252,9-357,49-555c193-956,863-1614,1776-1745
		c510-73,998,25,1379,275c108,71,286,242,345,333c21,31,40,55,42,53c8-7-17-225-38-338c-100-544-447-899-988-1009
		c-126-26-432-36-597-20c-383,39-778,170-1052,351c-52,34-98,58-102,54c-14-14-470-784-470-793c0-4,36-34,81-66
		c360-259,800-419,1364-496c195-27,672-37,866-19c800,73,1416,412,1800,989c216,324,342,682,406,1152c15,112,17,311,20,2082l4,1957
		h-611h-610l-2-317l-3-316l-44,69c-60,94-245,275-355,348c-310,205-722,320-1125,314C13442,6297,13367,6295,13345,6293z M14041,5165
		c463-81,813-427,916-905c25-117,25-399,0-520c-65-310-217-559-447-731c-82-61-262-145-375-176c-93-25-114-27-305-27s-212,2-302,26
		c-422,115-720,427-819,858c-26,111-36,357-20,471c28,194,102,393,202,540c60,89,187,219,272,277c130,89,281,155,417,181
		c30,6,64,13,75,15C13708,5184,13965,5179,14041,5165z"/>
	<path d="M19430,6293c-480-37-964-214-1337-489c-526-386-868-936-980-1574c-34-197-43-513-19-710c35-285,110-540,235-795
		c372-758,1072-1254,1956-1387c142-21,589-18,740,6c1163,178,2030,1054,2161,2182c29,246,12,573-41,819c-115,527-426,1030-849,1374
		c-197,161-492,329-730,416C20218,6263,19795,6321,19430,6293z M19785,5100c267-31,505-140,698-320c324-303,459-741,381-1230
		c-71-441-372-815-773-961c-168-60-246-73-456-73c-158,0-205,3-280,21c-441,104-760,393-900,816c-49,150-68,275-68,457
		c0,296,71,537,226,770c70,105,243,272,350,338C19209,5071,19491,5133,19785,5100z"/>
	<path d="M132,3808l3-2393h640h640l3,2393l2,2392H775H130L132,3808z"/>
</g>
</svg>
