<?xml version="1.0" encoding="utf-8"?>
<!-- Generator: Adobe Illustrator 27.0.1, SVG Export Plug-In . SVG Version: 6.00 Build 0)  -->
<svg version="1.1" id="Слой_1" xmlns="http://www.w3.org/2000/svg" xmlns:xlink="http://www.w3.org/1999/xlink" x="0px" y="0px"
	 viewBox="0 0 24 24" style="enable-background:new 0 0 24 24;" xml:space="preserve">
<style type="text/css">
	.st0{fill:#808080;}
</style>
<path class="st0" d="M9.5,0l0.7,0h3.6l0.7,0l0.9,0l0.4,0l0.4,0l0.4,0l0.4,0l0.4,0l0.4,0l0.3,0l0.3,0c1.7,0.2,2.9,0.6,3.8,1.5
	s1.3,2.1,1.5,3.8l0,0.3l0,0.3l0,0.4l0,0.4l0,0.6l0,0.4l0,0.6l0,0.9l0,1l0,3.3l0,0.7l0,0.9l0,0.4l0,0.4l0,0.4l0,0.4l0,0.4l0,0.4
	l0,0.3l0,0.3c-0.2,1.7-0.6,2.9-1.5,3.8c-0.9,0.9-2.1,1.3-3.8,1.5l-0.3,0l-0.3,0l-0.4,0l-0.4,0l-0.6,0l-0.4,0l-0.6,0l-0.9,0l-1,0
	l-3.3,0l-0.7,0l-0.9,0l-0.4,0l-0.4,0l-0.4,0l-0.4,0l-0.4,0l-0.4,0l-0.3,0l-0.3,0c-1.7-0.2-2.9-0.6-3.8-1.5c-0.9-0.9-1.3-2.1-1.5-3.8
	l0-0.3l0-0.3l0-0.4l0-0.4l0-0.6l0-0.4l0-0.6l0-0.9l0-1l0-3.3l0-0.7l0-0.9l0-0.4l0-0.4l0-0.4l0-0.4l0-0.4l0-0.4l0-0.3l0-0.3
	c0.2-1.7,0.6-2.9,1.5-3.8s2.1-1.3,3.8-1.5l0.3,0l0.3,0l0.4,0l0.4,0l0.6,0l0.4,0l0.6,0C8.6,0,9.5,0,9.5,0z M6.8,7.3H4.1
	c0.1,6.2,3.2,10,8.7,10h0.3v-3.6c2,0.2,3.5,1.7,4.1,3.6h2.8c-0.8-2.8-2.8-4.4-4.1-5c1.3-0.7,3.1-2.5,3.5-5h-2.6
	c-0.6,2-2.2,3.8-3.8,4v-4h-2.6v6.9C8.9,13.8,6.9,11.9,6.8,7.3z"/>
</svg>
