<?xml version="1.0" encoding="utf-8"?>
<!-- Generator: Adobe Illustrator 27.5.0, SVG Export Plug-In . SVG Version: 6.00 Build 0)  -->
<svg version="1.1" id="Layer_1" xmlns="http://www.w3.org/2000/svg" xmlns:xlink="http://www.w3.org/1999/xlink" x="0px" y="0px"
	 viewBox="0 0 4981.146 4981.146" style="enable-background:new 0 0 4981.146 4981.146;" xml:space="preserve">
<rect x="0" style="fill:#FFFFFF;" width="4981.146" height="4981.146"/>
<g>
	<path style="fill:#FFFFFF;stroke:#B5D4FF;stroke-width:12;stroke-linecap:round;stroke-linejoin:round;stroke-miterlimit:10;" d="
		M1292.161,1284.054H647.942c-50.388,0-91.236,40.848-91.236,91.237v152.989c0,50.389,40.848,91.237,91.236,91.237h393.939
		l110.894,145.84l1.266-145.84h138.119c50.389,0,91.237-40.848,91.237-91.237v-152.989
		C1383.397,1324.902,1342.549,1284.054,1292.161,1284.054z"/>
	<circle style="fill:#B5D4FF;" cx="712.358" cy="1453.014" r="89.326"/>
	
		<line style="fill:none;stroke:#B5D4FF;stroke-width:12;stroke-linecap:round;stroke-linejoin:round;stroke-miterlimit:10;" x1="883.785" y1="1507.299" x2="1166.964" y2="1507.299"/>
	
		<line style="fill:none;stroke:#B5D4FF;stroke-width:12;stroke-linecap:round;stroke-linejoin:round;stroke-miterlimit:10;" x1="883.785" y1="1453.014" x2="1225.038" y2="1453.014"/>
	
		<line style="fill:none;stroke:#B5D4FF;stroke-width:12;stroke-linecap:round;stroke-linejoin:round;stroke-miterlimit:10;" x1="883.785" y1="1398.729" x2="1041.881" y2="1398.729"/>
</g>
<g>
	<path style="fill:#FFFFFF;stroke:#B5D4FF;stroke-width:12;stroke-linecap:round;stroke-linejoin:round;stroke-miterlimit:10;" d="
		M3050.574,328.146h-468.412c-43.896,0-79.48,35.585-79.48,79.48v133.276c0,43.896,35.585,79.48,79.48,79.48h346.135l96.605,127.048
		l1.103-127.048h24.569c43.896,0,79.48-35.584,79.48-79.48V407.627C3130.055,363.731,3094.47,328.146,3050.574,328.146z"/>
	
		<line style="fill:none;stroke:#B5D4FF;stroke-width:12;stroke-linecap:round;stroke-linejoin:round;stroke-miterlimit:10;" x1="3029.962" y1="537.789" x2="2646.758" y2="537.789"/>
	
		<line style="fill:none;stroke:#B5D4FF;stroke-width:12;stroke-linecap:round;stroke-linejoin:round;stroke-miterlimit:10;" x1="3029.962" y1="473.871" x2="2587.488" y2="473.871"/>
	
		<line style="fill:none;stroke:#B5D4FF;stroke-width:12;stroke-linecap:round;stroke-linejoin:round;stroke-miterlimit:10;" x1="3029.962" y1="409.953" x2="2774.417" y2="409.953"/>
</g>
<g>
	<rect x="2632.297" y="1824.379" style="fill:#B5D4FF;" width="1996.467" height="1603.154"/>
	<rect x="743.54" y="3435.552" style="fill:#B5D4FF;" width="2006.367" height="623.003"/>
	<g>
		<path style="fill:#FFFFFF;stroke:#B5D4FF;stroke-width:12;stroke-linecap:round;stroke-linejoin:round;stroke-miterlimit:10;" d="
			M2214.236,310.496H1119.385c-52.429,0-94.931,42.502-94.931,94.931v704.153c0,52.429,42.502,94.93,94.931,94.93h815.259
			l304.247,290.855l-71.685-290.855h47.031c52.429,0,94.93-42.502,94.93-94.93V405.427
			C2309.167,352.998,2266.665,310.496,2214.236,310.496z"/>
		<rect x="1124.565" y="789.235" style="fill:#B5D4FF;" width="230.583" height="314"/>
		<rect x="1406.294" y="489.076" style="fill:#B5D4FF;" width="230.583" height="614.159"/>
		<rect x="1688.023" y="662.852" style="fill:#B5D4FF;" width="230.583" height="440.383"/>
		<rect x="1969.752" y="375.858" style="fill:#B5D4FF;" width="230.583" height="727.378"/>
		
			<polyline style="fill:none;stroke:#FFFFFF;stroke-width:12;stroke-linecap:round;stroke-linejoin:round;stroke-miterlimit:10;" points="
			2098.828,444.47 2157.332,444.47 1757.557,821.493 1577.712,595.062 1170.353,1020.839 		"/>
		
			<line style="fill:none;stroke:#FFFFFF;stroke-width:12;stroke-linecap:round;stroke-linejoin:round;stroke-miterlimit:10;" x1="2157.332" y1="500.806" x2="2157.332" y2="444.47"/>
	</g>
	<g>
		<path style="fill:#FFFFFF;stroke:#B5D4FF;stroke-width:12;stroke-linecap:round;stroke-linejoin:round;stroke-miterlimit:10;" d="
			M1070.479,2247.601c0-201.33-166.135-363.857-368.791-357.966c-185.36,5.388-338.083,155.002-347.022,340.225
			c-6.226,128.991,55.853,243.855,153.177,311.67c42.891,29.886,69.33,78.065,69.33,130.342v73.78h270.37v-73.731
			c0-50.913,24.045-99.533,66.13-128.186C1008.313,2479.298,1070.479,2370.731,1070.479,2247.601z"/>
		<path style="fill:none;stroke:#B5D4FF;stroke-width:12;stroke-linecap:round;stroke-linejoin:round;stroke-miterlimit:10;" d="
			M776.393,2906.924h-128.07c-39.295,0-71.15-31.855-71.15-71.15v-90.123h270.37v90.123
			C847.543,2875.069,815.688,2906.924,776.393,2906.924z"/>
		<path style="fill:none;stroke:#B5D4FF;stroke-width:12;stroke-linecap:round;stroke-linejoin:round;stroke-miterlimit:10;" d="
			M650.402,2906.924c0,36.675,29.731,66.406,66.407,66.406c24.567,0,46.018-13.34,57.504-33.172"/>
		
			<line style="fill:none;stroke:#B5D4FF;stroke-width:12;stroke-linecap:round;stroke-linejoin:round;stroke-miterlimit:10;" x1="662.652" y1="2822.415" x2="847.543" y2="2822.415"/>
		
			<line style="fill:none;stroke:#B5D4FF;stroke-width:12;stroke-linecap:round;stroke-linejoin:round;stroke-miterlimit:10;" x1="761.64" y1="2646.06" x2="853.841" y2="2122.896"/>
		
			<line style="fill:none;stroke:#B5D4FF;stroke-width:12;stroke-linecap:round;stroke-linejoin:round;stroke-miterlimit:10;" x1="570.875" y1="2122.896" x2="662.652" y2="2643.655"/>
		<path style="fill:none;stroke:#B5D4FF;stroke-width:12;stroke-linecap:round;stroke-linejoin:round;stroke-miterlimit:10;" d="
			M840.135,2136.157c-43.066-3.369-40.764-58.951-58.993-57.267c-18.229,1.684-0.408,116.219-27.139,117.903
			c-26.731,1.684-12.805-118.01-38.851-118.01s-12.12,119.694-38.851,118.01c-26.73-1.684-8.91-116.219-27.139-117.903
			c-18.229-1.684-15.927,53.898-58.993,57.267"/>
	</g>
	<g>
		<path style="fill:#FFFFFF;stroke:#B5D4FF;stroke-width:12;stroke-linecap:round;stroke-linejoin:round;stroke-miterlimit:10;" d="
			M2152.782,2439.384c0-276.835-228.442-500.315-507.1-492.215c-254.876,7.408-464.875,213.133-477.167,467.82
			c-8.561,177.367,76.799,335.308,210.624,428.556c58.976,41.094,95.331,107.342,95.331,179.224v101.449h371.767v-101.382
			c0-70.007,33.063-136.861,90.931-176.26C2067.302,2757.976,2152.782,2608.692,2152.782,2439.384z"/>
		<path style="fill:none;stroke:#B5D4FF;stroke-width:12;stroke-linecap:round;stroke-linejoin:round;stroke-miterlimit:10;" d="
			M1748.403,3345.974h-176.1c-54.032,0-97.833-43.802-97.833-97.833v-123.922h371.767v123.922
			C1846.237,3302.173,1802.435,3345.974,1748.403,3345.974z"/>
		<path style="fill:none;stroke:#B5D4FF;stroke-width:12;stroke-linecap:round;stroke-linejoin:round;stroke-miterlimit:10;" d="
			M1575.162,3345.974c0,50.43,40.881,91.311,91.311,91.311c33.78,0,63.276-18.343,79.07-45.612"/>
		
			<line style="fill:none;stroke:#B5D4FF;stroke-width:12;stroke-linecap:round;stroke-linejoin:round;stroke-miterlimit:10;" x1="1592.006" y1="3229.772" x2="1846.237" y2="3229.772"/>
		
			<line style="fill:none;stroke:#B5D4FF;stroke-width:12;stroke-linecap:round;stroke-linejoin:round;stroke-miterlimit:10;" x1="1728.117" y1="2987.279" x2="1854.897" y2="2267.911"/>
		
			<line style="fill:none;stroke:#B5D4FF;stroke-width:12;stroke-linecap:round;stroke-linejoin:round;stroke-miterlimit:10;" x1="1465.809" y1="2267.911" x2="1592.006" y2="2983.972"/>
		<path style="fill:none;stroke:#B5D4FF;stroke-width:12;stroke-linecap:round;stroke-linejoin:round;stroke-miterlimit:10;" d="
			M1836.051,2286.146c-59.217-4.632-56.052-81.06-81.117-78.744c-25.065,2.316-0.561,159.804-37.317,162.12
			c-36.755,2.316-17.607-162.267-53.421-162.267s-16.666,164.583-53.421,162.267s-12.252-159.804-37.317-162.12
			c-25.065-2.316-21.9,74.112-81.117,78.744"/>
	</g>
	<g>
		<path style="fill:#FFFFFF;stroke:#B5D4FF;stroke-width:12;stroke-linecap:round;stroke-linejoin:round;stroke-miterlimit:10;" d="
			M3395.298,2979.333c0-288.801-238.316-521.941-529.02-513.492c-265.894,7.729-484.969,222.345-497.793,488.042
			c-8.931,185.034,80.119,349.802,219.728,447.081c61.526,42.871,99.452,111.982,99.452,186.971v105.834h387.837v-105.765
			c0-73.033,34.492-142.777,94.861-183.879C3306.123,3311.696,3395.298,3155.959,3395.298,2979.333z"/>
		<path style="fill:#FFFFFF;stroke:#B5D4FF;stroke-width:12;stroke-linecap:round;stroke-linejoin:round;stroke-miterlimit:10;" d="
			M2973.439,3925.111h-183.712c-56.368,0-102.063-45.695-102.063-102.063V3693.77h387.837v129.279
			C3075.502,3879.417,3029.807,3925.111,2973.439,3925.111z"/>
		<path style="fill:none;stroke:#B5D4FF;stroke-width:12;stroke-linecap:round;stroke-linejoin:round;stroke-miterlimit:10;" d="
			M2792.71,3925.111c0,52.61,42.648,95.258,95.258,95.258c35.24,0,66.011-19.136,82.488-47.584"/>
		
			<line style="fill:none;stroke:#B5D4FF;stroke-width:12;stroke-linecap:round;stroke-linejoin:round;stroke-miterlimit:10;" x1="2810.282" y1="3803.886" x2="3075.502" y2="3803.886"/>
		
			<line style="fill:none;stroke:#B5D4FF;stroke-width:12;stroke-linecap:round;stroke-linejoin:round;stroke-miterlimit:10;" x1="2952.277" y1="3550.911" x2="3084.537" y2="2800.448"/>
		
			<line style="fill:none;stroke:#B5D4FF;stroke-width:12;stroke-linecap:round;stroke-linejoin:round;stroke-miterlimit:10;" x1="2678.63" y1="2800.448" x2="2810.282" y2="3547.461"/>
		<path style="fill:none;stroke:#B5D4FF;stroke-width:12;stroke-linecap:round;stroke-linejoin:round;stroke-miterlimit:10;" d="
			M3064.875,2819.471c-61.777-4.832-58.475-84.564-84.624-82.148c-26.148,2.416-0.586,166.712-38.93,169.128
			s-18.368-169.281-55.73-169.281s-17.386,171.697-55.73,169.281c-38.344-2.416-12.781-166.712-38.93-169.128
			c-26.148-2.416-22.847,77.315-84.624,82.148"/>
	</g>
	<g>
		<path style="fill:#FFFFFF;stroke:#B5D4FF;stroke-width:12;stroke-linecap:round;stroke-linejoin:round;stroke-miterlimit:10;" d="
			M4351.291,3066.158c0-220.882-182.27-399.192-404.606-392.73c-203.361,5.911-370.915,170.055-380.723,373.265
			c-6.831,141.518,61.277,267.537,168.053,341.938c47.056,32.789,76.063,85.646,76.063,143v80.945h296.626v-80.891
			c0-55.857,26.381-109.199,72.552-140.635C4283.087,3320.356,4351.291,3201.246,4351.291,3066.158z"/>
		<path style="fill:none;stroke:#B5D4FF;stroke-width:12;stroke-linecap:round;stroke-linejoin:round;stroke-miterlimit:10;" d="
			M4028.644,3789.51h-140.507c-43.111,0-78.06-34.948-78.06-78.06v-98.875h296.627v98.875
			C4106.704,3754.562,4071.755,3789.51,4028.644,3789.51z"/>
		<path style="fill:none;stroke:#B5D4FF;stroke-width:12;stroke-linecap:round;stroke-linejoin:round;stroke-miterlimit:10;" d="
			M3890.418,3789.51c0,40.237,32.619,72.856,72.855,72.856c26.953,0,50.487-14.636,63.089-36.393"/>
		
			<line style="fill:none;stroke:#B5D4FF;stroke-width:12;stroke-linecap:round;stroke-linejoin:round;stroke-miterlimit:10;" x1="3903.857" y1="3696.794" x2="4106.704" y2="3696.794"/>
		
			<line style="fill:none;stroke:#B5D4FF;stroke-width:12;stroke-linecap:round;stroke-linejoin:round;stroke-miterlimit:10;" x1="4012.458" y1="3503.313" x2="4113.613" y2="2929.343"/>
		
			<line style="fill:none;stroke:#B5D4FF;stroke-width:12;stroke-linecap:round;stroke-linejoin:round;stroke-miterlimit:10;" x1="3803.167" y1="2929.343" x2="3903.857" y2="3500.675"/>
		<path style="fill:none;stroke:#B5D4FF;stroke-width:12;stroke-linecap:round;stroke-linejoin:round;stroke-miterlimit:10;" d="
			M4098.576,2943.892c-47.248-3.696-44.723-64.677-64.722-62.829c-19.999,1.848-0.448,127.505-29.774,129.353
			s-14.048-129.47-42.624-129.47c-28.575,0-13.297,131.318-42.624,129.47c-29.327-1.848-9.776-127.505-29.775-129.353
			s-17.474,59.133-64.722,62.829"/>
	</g>
	
		<line style="fill:none;stroke:#B5D4FF;stroke-width:12;stroke-linecap:round;stroke-linejoin:round;stroke-miterlimit:10;" x1="896.983" y1="1824.379" x2="4628.763" y2="1824.379"/>
	
		<line style="fill:none;stroke:#B5D4FF;stroke-width:12;stroke-linecap:round;stroke-linejoin:round;stroke-miterlimit:10;" x1="429.156" y1="4061.471" x2="3977.074" y2="4061.471"/>
	<path style="fill:#4187E8;" d="M2976.172,1059.217c295.454-125.344,683.423-131.594,841.596-33.11
		c158.172,98.485,286.5,862.486,286.5,862.486h-592.644c0,0-196.442-331.874-366.552-504.968
		C2974.963,1210.531,2976.172,1059.217,2976.172,1059.217z"/>
	<path style="fill:#4187E8;" d="M3194.032,1029.092c-271.579-35.813-731.174,301.423-790.861,435.72
		c-59.688,134.297,0,241.735,0,241.735l298.438-71.625l26.86-101.469c0,0,513.313-116.391,546.142-235.766
		C3307.438,1178.311,3194.032,1029.092,3194.032,1029.092z"/>
	<path style="fill:#FFFFFF;stroke:#383838;stroke-width:12;stroke-linecap:round;stroke-linejoin:round;stroke-miterlimit:10;" d="
		M3780.799,1657.685c-266.257,61.262-590.674,206.068-576.505,259.894c24.128,91.665,804.799-4.205,782.886-139.858
		C3965.267,1642.069,3780.799,1657.685,3780.799,1657.685z"/>
	<g>
		<path style="fill:#FFFFFF;stroke:#383838;stroke-width:12;stroke-linecap:round;stroke-linejoin:round;stroke-miterlimit:10;" d="
			M1399.729,1932.438c47.972,150.989,565.748-35.932,676.341-105.687s102.115-548.369,70.38-579.773
			c-31.735-31.403-197.275,416.421-197.275,416.421S1349.218,1773.461,1399.729,1932.438z"/>
		<path style="fill:#A9B5C4;" d="M1290.565,1925.118c71.202,173.325,598.1,64.688,598.1,64.688l-76.102-319.898
			C1812.563,1669.908,1217.896,1748.224,1290.565,1925.118z"/>
	</g>
	<g>
		<path style="fill:#FFFFFF;" d="M2340.663,2972.931c0,76.135,61.719,137.854,137.854,137.854
			c50.998,0,95.529-27.693,119.374-68.862l-58.723-99.507L2340.663,2972.931z"/>
		<path style="fill:#B5D4FF;stroke:#383838;stroke-width:12;stroke-linecap:round;stroke-linejoin:round;stroke-miterlimit:10;" d="
			M3212.701,1604.242c0-417.941-344.881-755.331-765.575-743.103c-384.789,11.184-701.826,321.769-720.385,706.273
			c-12.924,267.773,115.945,506.219,317.981,646.996c89.037,62.041,143.923,162.056,143.923,270.576v153.159h561.261v-153.058
			c0-105.69,49.916-206.62,137.279-266.101C3083.651,2085.223,3212.701,1859.848,3212.701,1604.242z"/>
		<path style="fill:#FFFFFF;stroke:#383838;stroke-width:12;stroke-linecap:round;stroke-linejoin:round;stroke-miterlimit:10;" d="
			M2602.206,2972.931h-265.861c-81.573,0-147.7-66.128-147.7-147.7v-187.087h561.261v187.087
			C2749.907,2906.803,2683.779,2972.931,2602.206,2972.931z"/>
		<path style="fill:none;stroke:#383838;stroke-width:12;stroke-linecap:round;stroke-linejoin:round;stroke-miterlimit:10;" d="
			M2340.663,2972.931c0,76.135,61.719,137.854,137.854,137.854c50.998,0,95.529-27.693,119.374-68.862"/>
		
			<line style="fill:none;stroke:#383838;stroke-width:12;stroke-linecap:round;stroke-linejoin:round;stroke-miterlimit:10;" x1="2366.092" y1="2797.499" x2="2749.907" y2="2797.499"/>
		
			<line style="fill:none;stroke:#383838;stroke-width:12;stroke-linecap:round;stroke-linejoin:round;stroke-miterlimit:10;" x1="2571.581" y1="2431.405" x2="2762.981" y2="1345.367"/>
		
			<line style="fill:none;stroke:#383838;stroke-width:12;stroke-linecap:round;stroke-linejoin:round;stroke-miterlimit:10;" x1="2175.571" y1="1345.367" x2="2366.092" y2="2426.412"/>
		<path style="fill:none;stroke:#383838;stroke-width:12;stroke-linecap:round;stroke-linejoin:round;stroke-miterlimit:10;" d="
			M2734.529,1372.896c-89.401-6.993-84.622-122.377-122.463-118.881s-0.848,241.258-56.338,244.754s-26.582-244.976-80.65-244.976
			c-54.069,0-25.16,248.473-80.65,244.976c-55.49-3.496-18.497-241.258-56.338-244.754s-33.063,111.888-122.463,118.881"/>
	</g>
	<g>
		
			<polygon style="fill:#FFFFFF;stroke:#383838;stroke-width:12;stroke-linecap:round;stroke-linejoin:round;stroke-miterlimit:10;" points="
			1119.728,3940.603 860.117,4289.798 930.13,4435.784 1289.985,4022.456 		"/>
		<g>
			<g>
				<path style="fill:#4187E8;" d="M981.122,4489.322c2.586-32.473,14.576-70.777,32.347-111.598l-147.858-140.595
					c-38.372,37.334-103.519,28.636-132.228,79.704l236.669,459.784C1018.453,4700.276,965.986,4679.409,981.122,4489.322z"/>
				<path style="fill:#FFFFFF;" d="M982.537,4753.256c-3.101,7.319-7.19,15.008-12.486,23.36l-236.668-459.784
					c6.932-12.332,15.292-22.069,24.495-30.311L982.537,4753.256z"/>
			</g>
			
				<line style="fill:none;stroke:#383838;stroke-width:12;stroke-linecap:round;stroke-linejoin:round;stroke-miterlimit:10;" x1="757.878" y1="4286.522" x2="982.537" y2="4753.256"/>
			
				<line style="fill:none;stroke:#383838;stroke-width:12;stroke-linecap:round;stroke-linejoin:round;stroke-miterlimit:10;" x1="733.383" y1="4316.833" x2="970.051" y2="4776.616"/>
		</g>
	</g>
	<path style="fill:#4187E8;" d="M1168.127,2620.716h246.935c0,0,409.547,807.512,395.031,988.13
		c-14.516,180.618-690.476,788.406-690.476,788.406L936.68,4122.054l464.254-647.436c0,0-499.51-427.518-402.154-599.974
		C1096.136,2702.187,1168.127,2620.716,1168.127,2620.716z"/>
	<g>
		
			<polygon style="fill:#FFFFFF;stroke:#383838;stroke-width:12;stroke-linecap:round;stroke-linejoin:round;stroke-miterlimit:10;" points="
			1612.637,4289.396 1757.155,4715.996 1922.671,4742.313 1782.552,4192.607 		"/>
		<g>
			<g>
				<path style="fill:#4187E8;" d="M1987.283,4626.42c-28.911-17.355-58.896-46.115-88.55-81.392l-210.111,46.101
					c16.933,52.769-9.468,135.351,24.647,185.487l535.234-7.595C2200.032,4688.988,2156.521,4728.013,1987.283,4626.42z"/>
				<path style="fill:#FFFFFF;" d="M2232.6,4746.688c5.356,6.246,10.6,13.578,15.904,22.334l-535.234,7.594
					c-8.238-12.106-13.414-24.341-16.814-36.668L2232.6,4746.688z"/>
			</g>
			
				<line style="fill:none;stroke:#383838;stroke-width:12;stroke-linecap:round;stroke-linejoin:round;stroke-miterlimit:10;" x1="1696.455" y1="4739.948" x2="2232.6" y2="4746.688"/>
			
				<line style="fill:none;stroke:#383838;stroke-width:12;stroke-linecap:round;stroke-linejoin:round;stroke-miterlimit:10;" x1="1713.269" y1="4776.616" x2="2248.503" y2="4769.022"/>
		</g>
	</g>
	<g>
		<path style="fill:#4187E8;" d="M979.997,2374.443c-282.644,269.185-132.409,469.221-65.112,677.84
			c67.296,208.618,316.292,572.018,316.292,572.018l320.583,900.469l336.905-27.92c0,0-161.402-775.827-275.805-1025.047
			c-114.404-249.22-356.67-646.268-356.67-646.268l141.322-309.563L979.997,2374.443z"/>
		<path style="fill:none;stroke:#383838;stroke-width:12;stroke-linecap:round;stroke-linejoin:round;stroke-miterlimit:10;" d="
			M1721.533,3801.607c-35.991-132.574-73.931-254.12-108.673-329.803c-114.404-249.22-356.67-646.268-356.67-646.268
			l141.322-309.563l-397.048-134.593"/>
		
			<line style="fill:none;stroke:#383838;stroke-width:12;stroke-linecap:round;stroke-linejoin:round;stroke-miterlimit:10;" x1="1231.177" y1="3624.302" x2="1386.752" y2="4080.577"/>
	</g>
	<path style="fill:#A9B5C4;" d="M814.375,2569.27c0,0,272.098-810.88,515.726-842.006c136.134-17.392,232.32,16.698,296.871,60.964
		c34.736,23.821,68.223,171.002,44.674,253.966c-65.605,231.134-189.298,630.154-203.525,634.433
		C1448.788,2682.443,1062.776,2881.058,814.375,2569.27z"/>
	<path style="fill:#FFFFFF;stroke:#383838;stroke-width:12;stroke-linecap:round;stroke-linejoin:round;stroke-miterlimit:10;" d="
		M1230.474,2005.674c110.217-116.477,508.545,317.07,508.545,317.07s461.657-270.772,550.924-258.189
		c72.027,10.153-338.721,452.116-548.747,474.705C1531.169,2561.848,1107.814,2135.3,1230.474,2005.674z"/>
	<path style="fill:#A9B5C4;" d="M1193.313,2011.903c116.979-165.489,458.958,192.052,458.958,192.052l-145.542,310.563
		C1506.729,2514.518,1079.302,2173.193,1193.313,2011.903z"/>
	<path style="fill:none;stroke:#383838;stroke-width:12;stroke-linecap:round;stroke-linejoin:round;stroke-miterlimit:10;" d="
		M1237.743,1975.729c141.62-57.101,414.529,228.226,414.529,228.226l-145.542,310.563c0,0-131.905-105.333-229.617-226.621"/>
	<path style="fill:#FFFFFF;" d="M1402.372,1725.349c-224.702,39.25-133.166,153.836,63.316,242.826
		C1658.956,2055.708,1589.405,1692.678,1402.372,1725.349z"/>
	<g>
		<path style="fill:#383838;" d="M1254.658,1349.461c22.75-13.891,44.49-23.955,64.388-32.074
			c57.827-39.133,53.662-67.734,53.662-67.734s25.866,6.713,38.036,26.526c8.445-7.795,13.177-17.392,13.23-30.682
			c122.488-4.236,150.153,134.54,116.522,181.931c-33.631,47.391-128.763,170.244-115.949,214.297
			c12.814,44.052-51.146,100.29-106.686,45.635C1171.485,1543.317,1161.925,1406.083,1254.658,1349.461z"/>
		
			<line style="fill:#FFFFFF;stroke:#383838;stroke-width:12;stroke-linecap:round;stroke-linejoin:round;stroke-miterlimit:10;" x1="1454.002" y1="1519.882" x2="1316.464" y2="1547.027"/>
		<polygon style="fill:#FFFFFF;" points="1519.11,1503.224 1513.462,1766.891 1305.312,1824.379 1333.89,1424.85 		"/>
		
			<polyline style="fill:none;stroke:#383838;stroke-width:12;stroke-linecap:round;stroke-linejoin:round;stroke-miterlimit:10;" points="
			1306.718,1804.725 1333.89,1424.85 1519.11,1503.224 1512.85,1795.458 		"/>
		<g>
			<path style="fill:#FFFFFF;" d="M1316.464,1547.027c0,0-51.21-84.837,44.068-134.612c59.824-31.254,97.527-49.959,114.906-72.373
				c101.99,90.455,118.389,266.165,116.595,311.553c-2.09,52.86-175.825,54.64-197.243,28.016
				c-21.418-26.624-37.21-51.797-37.21-51.797s-39.896,11.436-65.423-25.367C1256.035,1550.37,1316.464,1547.027,1316.464,1547.027z
				"/>
		</g>
		<g>
			
				<path style="fill:#FFFFFF;stroke:#383838;stroke-width:12;stroke-linecap:round;stroke-linejoin:round;stroke-miterlimit:10;" d="
				M1357.579,1627.814c0,0-39.896,11.436-65.423-25.367c-36.121-52.078,24.307-55.421,24.307-55.421s-51.21-84.837,44.068-134.612
				c59.824-31.254,97.527-49.959,114.906-72.373c101.99,90.455,118.389,266.165,116.595,311.553
				c-2.09,52.86-175.825,54.64-197.243,28.016"/>
		</g>
	</g>
	<path style="fill:#383838;" d="M1378.383,1586.182c65.633,80.263,89.437-29.618,202.918-41.414
		c32.831,17.306,86.129,144.221,16.935,171.034c-69.195,26.813-196.035,18.545-209.968-19.82
		C1374.334,1657.618,1378.383,1586.182,1378.383,1586.182z"/>
	<path style="fill:#FFFFFF;" d="M2152.782,2106.415c41.402-114.085,102.125-166.528,102.125-191.369
		c21.161-0.92,23.001,36.802,14.721,71.763c-8.28,34.962-4.6,45.082-4.6,45.082l99.365-16.561c0,0,121.446-85.564,138.927-65.323
		c17.481,20.241-105.805,101.205-105.805,101.205s96.604-42.5,118.686-46.091c22.081-3.591,31.281,13.89,9.2,32.291
		c23.921,0,13.801,21.161,2.76,34.042s-24.841,20.241-24.841,20.241s7.36,4.6,5.52,15.641s-47.425,48.091-100.787,58.212
		c-53.363,10.121-168.785,39.313-203.747,19.992C2169.343,2166.218,2152.782,2106.415,2152.782,2106.415z"/>
	<path style="fill:none;stroke:#383838;stroke-width:12;stroke-linecap:round;stroke-linejoin:round;stroke-miterlimit:10;" d="
		M2152.782,2106.415c41.402-114.085,102.125-166.528,102.125-191.369c21.161-0.92,23.001,36.802,14.721,71.763
		c-8.28,34.962-4.6,45.082-4.6,45.082l99.365-16.561c0,0,121.446-85.564,138.927-65.323
		c17.481,20.241-105.805,101.205-105.805,101.205s96.604-42.5,118.686-46.091c22.081-3.591,31.281,13.89,9.2,32.291
		c23.921,0,13.801,21.161,2.76,34.042s-24.841,20.241-24.841,20.241s7.36,4.6,5.52,15.641s-47.425,48.091-100.787,58.212
		c-53.363,10.121-168.785,39.313-203.747,19.992"/>
	<path style="fill:#FFFFFF;stroke:#383838;stroke-width:12;stroke-linecap:round;stroke-linejoin:round;stroke-miterlimit:10;" d="
		M2413.154,2095.375c76.364-27.601,112.245-57.963,112.245-57.963"/>
	<path style="fill:#FFFFFF;stroke:#383838;stroke-width:12;stroke-linecap:round;stroke-linejoin:round;stroke-miterlimit:10;" d="
		M2413.154,2137.697c56.123-14.721,90.164-46.002,90.164-46.002"/>
	<g>
		<path style="fill:#383838;" d="M3222.423,636.698c-84.132-33.14-95.135,93.664-67.727,126.272
			C3182.104,795.578,3294.385,665.044,3222.423,636.698z"/>
		<path style="fill:#FFFFFF;" d="M3412.871,984.912c251.173-99.422,234.353,206.171,71.166,268.964
			C3320.849,1316.669,3080.277,1116.564,3412.871,984.912z"/>
		<polygon style="fill:#FFFFFF;" points="3226.954,934.072 3379.567,1160.127 3528.36,1054.425 3427.891,778.136 		"/>
		
			<polyline style="fill:none;stroke:#383838;stroke-width:12;stroke-linecap:round;stroke-linejoin:round;stroke-miterlimit:10;" points="
			3528.36,1054.425 3427.891,778.136 3226.954,934.072 3349.423,1115.477 		"/>
		<path style="fill:#383838;" d="M3193.327,672.614c-38.982-76.089,82.369-130.985,119.93-99.203
			c26.967-23.114,71.27-37.561,104.978,26.967c53.934-14.447,97.273,48.155,82.827,77.048c49.118,0,58.749,67.417,41.413,83.79
			c53.934,16.373,21.188,102.089-6.742,105.941c26.004,24.078-12.52,68.38-45.266,64.528c5.779,25.041-15.41-38.524-60.675-78.011
			C3384.526,814.186,3193.327,672.614,3193.327,672.614z"/>
		<path style="fill:#FFFFFF;" d="M3249.212,636.91c-79.646-8.239-133.063,203.14-100.106,332.221
			c32.957,129.081,195.67,19.55,229.029-42.657c125.817-85.163,36.248-124.809,2.905-90.355
			c11.192-38.306,57.675-89.352-35.703-116.817C3251.958,691.839,3249.212,636.91,3249.212,636.91z"/>
		<path style="fill:none;stroke:#383838;stroke-width:12;stroke-linecap:round;stroke-linejoin:round;stroke-miterlimit:10;" d="
			M3378.579,913.266c19.183,6.893,33.614-12.294,43.792-23.269c54.962-59.266-13.199-82.948-41.332-53.878
			c11.192-38.306,57.675-89.352-35.703-116.817c-93.378-27.464-96.125-82.392-96.125-82.392
			c-79.646-8.239-133.063,203.14-100.106,332.221c25.29,99.053,126.988,57.598,188.009,4.84"/>
	</g>
	<path style="fill:#4187E8;" d="M3732.86,1051.286c-189.088,94.544,219.204,547.823,219.204,547.823l-268.594,65.656l87.787,288.964
		c315.338-59.969,504.844-74.633,546.626-235.79S3983.548,925.942,3732.86,1051.286z"/>
	<path style="fill:none;stroke:#383838;stroke-width:12;stroke-linecap:round;stroke-linejoin:round;stroke-miterlimit:10;" d="
		M3699.762,1219.816c58.99,164.681,252.303,379.293,252.303,379.293l-268.594,65.656l87.787,288.964"/>
	<g>
		<path style="fill:#FFFFFF;" d="M3205.413,1727.019c-60.638-14.18-222.872-35.21-228.541-15.785
			c-6.233,21.358,29.074,35.925,108.619,59.118c-13.635,8.779-9.695,37.355,7.051,47.391c0,0-24.383-3.103-33.584,21.266
			c-8.345,22.103,27.131,30.485,33.817,31.857c-6.372-1.197-38.898-5.857-43.088,22.998c-4.645,32,120.233,92.383,133.048,84.415
			c21.388-13.301,4.033-35.327,4.033-35.327s75.211,40.007,110.799,4.579l64.015-140.974
			C3300.669,1767.241,3243.697,1735.972,3205.413,1727.019z"/>
		<path style="fill:none;stroke:#383838;stroke-width:12;stroke-linecap:round;stroke-linejoin:round;stroke-miterlimit:10;" d="
			M3297.568,1947.531c-35.588,35.427-110.8-4.58-110.8-4.58s17.355,22.026-4.033,35.326
			c-12.814,7.969-137.693-52.414-133.047-84.414c4.645-32.001,44.257-22.765,44.257-22.765s-44.188-7.721-34.988-32.09
			c9.201-24.369,33.583-21.265,33.583-21.265c-16.745-10.036-20.685-38.612-7.05-47.391
			c-79.545-23.193-114.852-37.759-108.619-59.118c5.668-19.424,167.902,1.605,228.541,15.786
			c38.284,8.953,95.256,40.221,156.17,79.537"/>
		<path style="fill:none;stroke:#383838;stroke-width:12;stroke-linecap:round;stroke-linejoin:round;stroke-miterlimit:10;" d="
			M3191.179,1774.301c-11.737-4.298-93.892-25.281-105.687-3.95"/>
		<path style="fill:none;stroke:#383838;stroke-width:12;stroke-linecap:round;stroke-linejoin:round;stroke-miterlimit:10;" d="
			M3092.542,1817.742c33.923-4.006,79.602,3.797,79.602,3.797"/>
		<path style="fill:none;stroke:#383838;stroke-width:12;stroke-linecap:round;stroke-linejoin:round;stroke-miterlimit:10;" d="
			M3093.946,1871.098c30.034-1.612,62.854,6.205,62.854,6.205"/>
		<path style="fill:none;stroke:#383838;stroke-width:12;stroke-linecap:round;stroke-linejoin:round;stroke-miterlimit:10;" d="
			M3129.986,1929.035c20.255,15.53,56.783,13.916,56.783,13.916"/>
		<path style="fill:none;stroke:#383838;stroke-width:12;stroke-linecap:round;stroke-linejoin:round;stroke-miterlimit:10;" d="
			M3122.057,1816.728c-19.473,25.364-9.542,54.444-9.542,54.444"/>
	</g>
	<g>
		<path style="fill:none;stroke:#FFFFFF;stroke-width:12;stroke-linecap:round;stroke-linejoin:round;stroke-miterlimit:10;" d="
			M4628.304,2865.958H3371.565c-51.583,0-93.4-41.816-93.4-93.4v-682.306c0-51.583,41.816-93.4,93.4-93.4h1256.738"/>
		<g>
			
				<line style="fill:none;stroke:#FFFFFF;stroke-width:12;stroke-linecap:round;stroke-linejoin:round;stroke-miterlimit:10;" x1="3559.88" y1="1996.852" x2="3559.88" y2="2865.958"/>
			
				<line style="fill:none;stroke:#FFFFFF;stroke-width:12;stroke-linecap:round;stroke-linejoin:round;stroke-miterlimit:10;" x1="3841.594" y1="1996.852" x2="3841.594" y2="2865.958"/>
			
				<line style="fill:none;stroke:#FFFFFF;stroke-width:12;stroke-linecap:round;stroke-linejoin:round;stroke-miterlimit:10;" x1="4123.309" y1="1996.852" x2="4123.309" y2="2865.958"/>
			
				<line style="fill:none;stroke:#FFFFFF;stroke-width:12;stroke-linecap:round;stroke-linejoin:round;stroke-miterlimit:10;" x1="4405.023" y1="1996.852" x2="4405.023" y2="2865.958"/>
		</g>
		<g>
			
				<line style="fill:none;stroke:#FFFFFF;stroke-width:12;stroke-linecap:round;stroke-linejoin:round;stroke-miterlimit:10;" x1="3278.166" y1="2648.681" x2="4628.304" y2="2648.681"/>
			
				<line style="fill:none;stroke:#FFFFFF;stroke-width:12;stroke-linecap:round;stroke-linejoin:round;stroke-miterlimit:10;" x1="3278.166" y1="2431.405" x2="4628.304" y2="2431.405"/>
			
				<line style="fill:none;stroke:#FFFFFF;stroke-width:12;stroke-linecap:round;stroke-linejoin:round;stroke-miterlimit:10;" x1="3278.166" y1="2214.128" x2="4628.304" y2="2214.128"/>
		</g>
		
			<polyline style="fill:none;stroke:#FFFFFF;stroke-width:12;stroke-linecap:round;stroke-linejoin:round;stroke-miterlimit:10;" points="
			3411.412,2747.5 3945.026,2335.116 4320.131,2603.049 4628.304,2291.542 		"/>
		
			<ellipse transform="matrix(0.1602 -0.9871 0.9871 0.1602 152.9427 5674.7617)" style="fill:#B5D4FF;stroke:#FFFFFF;stroke-width:12;stroke-linecap:round;stroke-linejoin:round;stroke-miterlimit:10;" cx="3411.412" cy="2747.5" rx="32.394" ry="32.393"/>
		
			<circle style="fill:#B5D4FF;stroke:#FFFFFF;stroke-width:12;stroke-linecap:round;stroke-linejoin:round;stroke-miterlimit:10;" cx="3945.026" cy="2335.116" r="32.394"/>
		
			<circle style="fill:#B5D4FF;stroke:#FFFFFF;stroke-width:12;stroke-linecap:round;stroke-linejoin:round;stroke-miterlimit:10;" cx="4320.131" cy="2603.049" r="32.394"/>
	</g>
</g>
</svg>
