<?xml version="1.0" encoding="utf-8"?>
<!-- Generator: Adobe Illustrator 27.5.0, SVG Export Plug-In . SVG Version: 6.00 Build 0)  -->
<svg version="1.1" id="Layer_1" xmlns="http://www.w3.org/2000/svg" xmlns:xlink="http://www.w3.org/1999/xlink" x="0px" y="0px"
	 viewBox="0 0 4981.146 4981.146" style="enable-background:new 0 0 4981.146 4981.146;" xml:space="preserve">
<rect x="0" style="fill:#FFFFFF;" width="4981.146" height="4981.146"/>
<g>
	<g>
		<path style="fill:none;stroke:#B5D4FF;stroke-width:12;stroke-linecap:round;stroke-linejoin:round;stroke-miterlimit:10;" d="
			M1898.211,1164.745H321.834c-54.084,0-97.928-43.844-97.928-97.928V351.432c0-54.084,43.844-97.928,97.928-97.928h1576.377
			c54.084,0,97.928,43.844,97.928,97.928v715.385C1996.139,1120.901,1952.295,1164.745,1898.211,1164.745z"/>
		<g>
			
				<line style="fill:none;stroke:#B5D4FF;stroke-width:12;stroke-linecap:round;stroke-linejoin:round;stroke-miterlimit:10;" x1="519.278" y1="253.504" x2="519.278" y2="1164.745"/>
			
				<line style="fill:none;stroke:#B5D4FF;stroke-width:12;stroke-linecap:round;stroke-linejoin:round;stroke-miterlimit:10;" x1="814.65" y1="253.504" x2="814.65" y2="1164.745"/>
			
				<line style="fill:none;stroke:#B5D4FF;stroke-width:12;stroke-linecap:round;stroke-linejoin:round;stroke-miterlimit:10;" x1="1110.022" y1="253.504" x2="1110.022" y2="1164.745"/>
			
				<line style="fill:none;stroke:#B5D4FF;stroke-width:12;stroke-linecap:round;stroke-linejoin:round;stroke-miterlimit:10;" x1="1405.394" y1="253.504" x2="1405.394" y2="1164.745"/>
			
				<line style="fill:none;stroke:#B5D4FF;stroke-width:12;stroke-linecap:round;stroke-linejoin:round;stroke-miterlimit:10;" x1="1700.766" y1="253.504" x2="1700.766" y2="1164.745"/>
		</g>
		<g>
			
				<line style="fill:none;stroke:#B5D4FF;stroke-width:12;stroke-linecap:round;stroke-linejoin:round;stroke-miterlimit:10;" x1="223.906" y1="936.935" x2="1996.139" y2="936.935"/>
			
				<line style="fill:none;stroke:#B5D4FF;stroke-width:12;stroke-linecap:round;stroke-linejoin:round;stroke-miterlimit:10;" x1="223.906" y1="709.124" x2="1996.139" y2="709.124"/>
			
				<line style="fill:none;stroke:#B5D4FF;stroke-width:12;stroke-linecap:round;stroke-linejoin:round;stroke-miterlimit:10;" x1="223.906" y1="481.314" x2="1996.139" y2="481.314"/>
		</g>
		
			<polyline style="fill:none;stroke:#B5D4FF;stroke-width:12;stroke-linecap:round;stroke-linejoin:round;stroke-miterlimit:10;" points="
			363.613,1040.544 923.096,608.168 1316.387,889.09 1820.086,379.94 		"/>
		
			<circle style="fill:#FFFFFF;stroke:#B5D4FF;stroke-width:12;stroke-linecap:round;stroke-linejoin:round;stroke-miterlimit:10;" cx="363.613" cy="1040.544" r="33.964"/>
		
			<circle style="fill:#FFFFFF;stroke:#B5D4FF;stroke-width:12;stroke-linecap:round;stroke-linejoin:round;stroke-miterlimit:10;" cx="923.096" cy="608.168" r="33.964"/>
		
			<ellipse transform="matrix(0.1602 -0.9871 0.9871 0.1602 1155.7122 2113.7876)" style="fill:#FFFFFF;stroke:#B5D4FF;stroke-width:12;stroke-linecap:round;stroke-linejoin:round;stroke-miterlimit:10;" cx="1820.086" cy="377.705" rx="33.964" ry="33.964"/>
		
			<circle style="fill:#FFFFFF;stroke:#B5D4FF;stroke-width:12;stroke-linecap:round;stroke-linejoin:round;stroke-miterlimit:10;" cx="1316.387" cy="889.09" r="33.964"/>
	</g>
	<path style="fill:#FFFFFF;stroke:#B5D4FF;stroke-width:12;stroke-linecap:round;stroke-linejoin:round;stroke-miterlimit:10;" d="
		M3462.253,3915.385c0-248.253,201.249-449.501,449.501-449.501s449.501,201.249,449.501,449.501s-201.249,449.501-449.501,449.501
		S3462.253,4163.638,3462.253,3915.385z M4808.264,4002.524c2.754-28.686,4.274-57.733,4.274-87.14
		c0-29.407-1.52-58.454-4.274-87.139l-220.641-27.261c-7.229-43.007-18.358-84.68-33.199-124.574l177.305-133.819
		c-24.264-53.281-53.54-103.757-87.272-150.871l-204.524,86.633c-27.466-33.156-57.991-63.68-91.146-91.146l86.633-204.524
		c-47.114-33.733-97.588-63.007-150.87-87.271l-133.819,177.303c-39.894-14.84-81.568-25.97-124.576-33.199l-27.261-220.64
		c-28.686-2.754-57.731-4.274-87.139-4.274c-29.407,0-58.453,1.52-87.138,4.274l-27.261,220.64
		c-43.007,7.229-84.681,18.358-124.576,33.199l-133.817-177.303c-53.281,24.264-103.757,53.538-150.873,87.273l86.633,204.524
		c-33.155,27.465-63.68,57.988-91.145,91.145l-204.524-86.633c-33.733,47.114-63.009,97.59-87.273,150.871l177.305,133.819
		c-14.84,39.894-25.97,81.567-33.199,124.574l-220.641,27.261c-2.754,28.684-4.274,57.731-4.274,87.139
		c0,29.407,1.52,58.454,4.274,87.14l220.641,27.261c7.229,43.007,18.359,84.681,33.199,124.574l-177.305,133.819
		c24.264,53.282,53.538,103.757,87.273,150.872l204.524-86.633c27.465,33.156,57.99,63.68,91.145,91.145l-86.633,204.524
		c47.115,33.734,97.591,63.009,150.873,87.272l133.817-177.303c39.895,14.84,81.569,25.97,124.576,33.199l27.261,220.64
		c28.686,2.754,57.731,4.274,87.138,4.274c29.407,0,58.453-1.52,87.139-4.274l27.261-220.64
		c43.007-7.229,84.682-18.358,124.576-33.199l133.819,177.303c53.282-24.264,103.756-53.538,150.87-87.271l-86.633-204.525
		c33.155-27.466,63.68-57.989,91.146-91.146l204.524,86.633c33.734-47.114,63.008-97.59,87.272-150.872l-177.305-133.819
		c14.84-39.893,25.97-81.567,33.199-124.574L4808.264,4002.524z"/>
	<path style="fill:#FFFFFF;stroke:#383838;stroke-width:12;stroke-linecap:round;stroke-linejoin:round;stroke-miterlimit:10;" d="
		M779.485,2526.732h1732.965V790.246H1044.536c-146.384,0-265.052,118.668-265.052,265.052V2526.732z"/>
	<path style="fill:#FFFFFF;stroke:#383838;stroke-width:12;stroke-linecap:round;stroke-linejoin:round;stroke-miterlimit:10;" d="
		M3980.363,4263.218H2512.45V2526.732h1732.965v1471.434C4245.415,4144.55,4126.747,4263.218,3980.363,4263.218z"/>
	<path style="fill:#B5D4FF;stroke:#383838;stroke-width:12;stroke-linecap:round;stroke-linejoin:round;stroke-miterlimit:10;" d="
		M2669.927,3058.438c-57.435,0-111.114,15.622-157.477,42.479v-574.186H779.485v1471.434c0,146.384,118.668,265.052,265.052,265.052
		H2512.45v-617.351c46.363,26.858,100.041,42.479,157.477,42.479c173.945,0,314.953-141.01,314.953-314.954
		C2984.88,3199.448,2843.872,3058.438,2669.927,3058.438z"/>
	<path style="fill:#B5D4FF;stroke:#383838;stroke-width:12;stroke-linecap:round;stroke-linejoin:round;stroke-miterlimit:10;" d="
		M4245.365,1055.253v1471.532H3631.61c26.806,46.4,42.52,100.012,42.52,157.505c0,32.537-4.992,63.964-14.235,93.358
		c0,0.184,0,0.184,0,0.184c-39.747,128.112-159.354,221.285-300.777,221.285c-173.958,0-315.011-141.053-315.011-314.827
		c0-57.493,15.713-111.104,42.519-157.505h-574.193v-574.193c-46.401,26.805-100.012,42.519-157.506,42.519
		c-173.958,0-314.826-141.053-314.826-315.012c0-173.958,140.868-315.011,314.826-315.011c57.494,0,111.104,15.713,157.506,42.519
		V790.156h1468.02C4126.681,790.156,4245.365,908.839,4245.365,1055.253z"/>
	<g>
		<path style="fill:#383838;" d="M3325.254,770.505c31.102-18.263,44.827-55.374,95.56-64.604
			c34.926-7.215,75.246,17.482,111.461,20.175s79.706-22.404,114.678-10.946c54.543,13.184,54.824,56.693,92.619,78.556
			c31.654,18.311,60.32-4.724,105.147,36.148c24.883,25.568,25.577,85.207,41.615,116.118
			c16.038,30.911,55.246,59.719,59.905,94.832s-25.231,76.53-34.485,114.704c-9.253,38.174-1.066,84.616-19.571,113.893
			c-18.506,29.277-53.646,30.089-89.148,62.374c-28.193,25.638-33.226,70.17-63.29,83.465
			c-30.064,13.294-82.409-9.303-114.779-3.095c-32.37,6.208-69.586,37.649-101.946,37.374c-32.36-0.275-59.866-32.266-89.901-38.42
			s-73.248,31.616-111.82,4.141c-25.395-11.431-19.796-56.017-38.235-72.121c-18.439-16.103-63.551-12.472-81.353-50.494
			c-13.808-21.599,1.625-50.626-1.303-77.459c-4.362-39.977-38.641-39.977-45.233-79.435c-3.967-27.666,20.382-56.682,21.625-84.918
			c1.243-28.236-22.061-39.015-15.033-86.479c6.646-27.165,42.861-50.417,55.104-74.869c12.242-24.452-5.003-56.975,22.684-92.572
			C3257.588,776.777,3301.241,784.606,3325.254,770.505z"/>
		<g>
			<g>
				
					<path style="fill:#FFFFFF;stroke:#383838;stroke-width:12;stroke-linecap:round;stroke-linejoin:round;stroke-miterlimit:10;" d="
					M3214.993,1655.363c-259.927,420.568-258.064,636.897-202.047,708.474s333.637-357.599,397.704-527.409
					S3214.993,1655.363,3214.993,1655.363z"/>
				
					<path style="fill:#FFFFFF;stroke:#383838;stroke-width:12;stroke-linecap:round;stroke-linejoin:round;stroke-miterlimit:10;" d="
					M3264.993,2031.691c-207.004-109.044-236.68-107.926-237.196-83.517c-0.515,24.409,111.598,84.338,111.598,84.338
					s-122.701-69.249-138.813-51.073c-28.232,31.848,119.837,107.187,119.837,107.187s-112.762-78.78-135.727-48.566
					c-22.965,30.214,151.542,125.648,151.542,125.648L3264.993,2031.691z"/>
				<path style="fill:#4187E8;" d="M3382.214,2124.951c149.822-197.173,297.489-506.291,153.368-601.296
					c-194.724-128.363-391.434,182.119-465.616,353.967L3382.214,2124.951z"/>
				<path style="fill:#4187E8;" d="M3631.61,2526.785c26.806,46.4,42.52,100.012,42.52,157.505c0,32.537-4.992,63.964-14.235,93.358
					c-58.787-138.834-170.262-398.387-233.486-520.953c-153.253-43.813-150.111-118.128-145.119-298.188
					c-59.343-158.799-87.442-304.288-31.427-371.21c141.053-168.229,600.814-330.54,815.813-11.647
					c55.829,144.75,117.944,936.899,119.054,951.135H3631.61z"/>
				<path style="fill:#FFFFFF;" d="M3565.131,1078.349l169.938,352.269c109.696,0,42.254,257.867-293.528,348.488
					c-145.538,39.278-119.297-239.485,16.372-281.425l-64.302-299.847L3565.131,1078.349z"/>
				
					<line style="fill:#FFFFFF;stroke:#383838;stroke-width:12;stroke-linecap:round;stroke-linejoin:round;stroke-miterlimit:10;" x1="3752.478" y1="1460.416" x2="3565.131" y2="1078.349"/>
				
					<line style="fill:#FFFFFF;stroke:#383838;stroke-width:12;stroke-linecap:round;stroke-linejoin:round;stroke-miterlimit:10;" x1="3467.176" y1="1539.62" x2="3387.341" y2="1175.17"/>
				<path style="fill:#FFFFFF;" d="M3546.889,1077.384c-59.862-145.712-190.463-62.632-179.851-204.346
					c-53.885-4.08-95.55,42.316-106.532,98.505c-31.162,159.427,37.939,327.058,126.638,355.875
					c88.699,28.817,205.419-145.067,193.565-172.465C3652.864,1150.785,3618.914,961.693,3546.889,1077.384z"/>
				<path style="fill:none;stroke:#383838;stroke-width:12;stroke-linecap:round;stroke-linejoin:round;stroke-miterlimit:10;" d="
					M3367.038,873.038c-53.885-4.08-95.55,42.316-106.532,98.505c-31.162,159.427,37.939,327.058,126.638,355.875
					c49.767,16.168,108.354-31.474,148.104-81.251"/>
				
					<path style="fill:#FFFFFF;stroke:#383838;stroke-width:12;stroke-linecap:round;stroke-linejoin:round;stroke-miterlimit:10;" d="
					M3331.728,1626.587c-32.838-49.321-83.043-57.221-83.043-57.221"/>
				
					<line style="fill:none;stroke:#383838;stroke-width:12;stroke-linecap:round;stroke-linejoin:round;stroke-miterlimit:10;" x1="3069.966" y1="1877.622" x2="3114.366" y2="1912.791"/>
				
					<path style="fill:#FFFFFF;stroke:#383838;stroke-width:12;stroke-linecap:round;stroke-linejoin:round;stroke-miterlimit:10;" d="
					M4028.914,1672.493c131.08,36.58,16.045,714.424-146.938,715.268c-162.983,0.844-727.623-137.45-733.907-255.677
					c-6.284-118.226,600.48,20.913,600.48,20.913S3774.728,1601.557,4028.914,1672.493z"/>
				<g>
					<path style="fill:#FFFFFF;" d="M3344.742,1695.87c55.124-84.589-56.427-164.001-79.123-207.915
						c-23.132-44.759-56.684-18.093-35.215,34.951c21.471,53.044,18.281,46.461,18.281,46.461s-48.341-24.925-102.634-60.463
						c4.426-49.826,32.984-147.532,4.819-143.344c-27.018,4.016-41.603,67.367-43.715,77.223
						c6.594-27.757-2.823-92.667-15.079-98.483c-10.954-5.197-40.801,2.881-24.873,98.396
						c-20.971-38.107-41.757-59.284-56.606-49.873c-36.861,23.36,122.087,214.479,220.125,301.082
						c-135.547,208.944-342.506,718.601-155.9,698.48c193.116-20.822,282.336-494.771,269.783-696.513L3344.742,1695.87z"/>
					<path style="fill:none;stroke:#383838;stroke-width:12;stroke-linecap:round;stroke-linejoin:round;stroke-miterlimit:10;" d="
						M3003.296,2334.737c7.392,39.796,29.458,62.183,71.525,57.647c193.116-20.822,282.336-494.771,269.783-696.513l0.138-0.001
						c55.124-84.589-56.427-164.001-79.123-207.915c-23.132-44.759-56.684-18.093-35.215,34.951
						c21.471,53.044,18.281,46.461,18.281,46.461s-48.341-24.925-102.634-60.463c4.426-49.826,32.984-147.532,4.819-143.344
						c-27.018,4.016-41.603,67.367-43.715,77.223c6.594-27.757-2.823-92.667-15.079-98.483
						c-10.954-5.197-40.801,2.881-24.873,98.396c-20.971-38.107-41.757-59.284-56.606-49.873
						c-36.861,23.36,122.087,214.479,220.125,301.082c-67.162,103.529-151.856,280.885-197.52,431.043"/>
					<path style="fill:none;stroke:#383838;stroke-width:12;stroke-linecap:round;stroke-linejoin:round;stroke-miterlimit:10;" d="
						M3067.201,1442.697c9.749,58.855,32.917,113.74,32.917,113.74s-8.711-48.018,6.739-112.239"/>
				</g>
				<path style="fill:#4187E8;" d="M4101.257,2108.775c33.133-245.41,54.307-602.371-163.027-598.749
					c-232.699-15.672-250.76,351.435-230.574,537.519L4101.257,2108.775z"/>
				<path style="fill:none;stroke:#383838;stroke-width:12;stroke-linecap:round;stroke-linejoin:round;stroke-miterlimit:10;" d="
					M3811.04,1639.558c-70.932,77.692-72.939,299.776-70.821,413.053l361.037,56.164"/>
				<path style="fill:none;stroke:#383838;stroke-width:12;stroke-linecap:round;stroke-linejoin:round;stroke-miterlimit:10;" d="
					M3248.685,1569.367c44.45,22.504,69.751,50.615,69.751,50.615"/>
			</g>
		</g>
	</g>
	<g>
		<g>
			<path style="fill:#4187E8;" d="M1834.108,1730.251c-141.874-169.258-786.778-320.929-1003.138,0
				c-29.151,224.651,12.763,781.962,12.763,781.962l617.101,14.572C1460.835,2526.785,1890.597,1797.642,1834.108,1730.251z"/>
			
				<line style="fill:none;stroke:#383838;stroke-width:12;stroke-linecap:round;stroke-linejoin:round;stroke-miterlimit:10;" x1="1574.914" y1="2524.453" x2="876.944" y2="2524.453"/>
			
				<path style="fill:#FFFFFF;stroke:#383838;stroke-width:12;stroke-linecap:round;stroke-linejoin:round;stroke-miterlimit:10;" d="
				M1791.051,1827.146c-84.821-16.609-145.614,164-103.591,335.461c51.843,211.519,146.897,342.667,319.722,348.044l2.847-271.954
				C2010.029,2238.697,1940.332,1856.379,1791.051,1827.146z"/>
			<path style="fill:#4187E8;" d="M1627.182,1774.128c81.793-121.471,275.005-188.046,368.418,300.138
				c-99.407,153.615-313.332,234.408-313.332,234.408S1526.004,1924.386,1627.182,1774.128z"/>
			<g>
				
					<path style="fill:#FFFFFF;stroke:#383838;stroke-width:12;stroke-linecap:round;stroke-linejoin:round;stroke-miterlimit:10;" d="
					M973.288,1759.087c103.352,79.349,38.111,350.188-120.648,533.328c77.935-40.336,337.701-26.451,495.685,1.323l0.002-0.002
					c174.625,21.898,392.011,23.453,431.533,122.523c10.815,27.109,11.082,55.672,7.158,80.844h-255.422
					c-1.506-20.982-2.834-39.482-2.834-39.482s-92.309,30.121-154.532-17.399c-151.487,33.624-539.523,138.966-720.842,48.306
					C425.64,2374.656,736.099,1576.985,973.288,1759.087z"/>
				<path style="fill:#4187E8;" d="M936.086,1638.368c144.007-26.595,337.415,107.506,54.108,515.902
					c-179.294,36.512-397.353-102.433-397.353-102.433S757.951,1671.266,936.086,1638.368z"/>
				<path style="fill:none;stroke:#383838;stroke-width:12;stroke-linecap:round;stroke-linejoin:round;stroke-miterlimit:10;" d="
					M1710.192,2424.72c15.981,28.202,13.161,72.384,13.161,72.384"/>
				<path style="fill:none;stroke:#383838;stroke-width:12;stroke-linecap:round;stroke-linejoin:round;stroke-miterlimit:10;" d="
					M1650.968,2436.472c15.981,28.201,9.564,60.632,9.564,60.632"/>
				<path style="fill:none;stroke:#383838;stroke-width:12;stroke-linecap:round;stroke-linejoin:round;stroke-miterlimit:10;" d="
					M1591.37,2442.581c13.536,24.207,8.46,54.523,8.46,54.523"/>
				<path style="fill:none;stroke:#383838;stroke-width:12;stroke-linecap:round;stroke-linejoin:round;stroke-miterlimit:10;" d="
					M1094.625,1921.724c-15.864,138.856-104.431,232.546-104.431,232.546s-173.938,38.006-397.353-102.433"/>
			</g>
			<path style="fill:none;stroke:#383838;stroke-width:12;stroke-linecap:round;stroke-linejoin:round;stroke-miterlimit:10;" d="
				M1791.053,1952.803c-38.427,152.565-127.528,305.323-127.528,305.323"/>
			<path style="fill:none;stroke:#383838;stroke-width:12;stroke-linecap:round;stroke-linejoin:round;stroke-miterlimit:10;" d="
				M1995.6,2074.266c-144.152,186.188-313.332,234.408-313.332,234.408"/>
			<path style="fill:#FFFFFF;" d="M1433.61,1542.222c-302.626-36.272-292.97,244.419-8.579,291.194
				C1745.898,1886.19,1685.505,1572.413,1433.61,1542.222z"/>
			<g>
				<path style="fill:#383838;" d="M1684.173,981.589c0-0.22,0.064-0.425,0.064-0.646c0-31.199-25.293-56.491-56.491-56.491
					c-9.365,0-18.066,2.497-25.842,6.531c-4.57-16.827-19.8-29.27-38.078-29.27c-11.425,0-21.639,4.906-28.871,12.644
					c-8.827-5.712-19.299-9.111-30.596-9.111c-25.068,0-46.076,16.441-53.46,39.043c-9.606-6.17-20.967-9.85-33.232-9.85
					c-32.251,0-58.425,24.835-61.165,56.377c-9.043-3.67-18.888-5.787-29.248-5.787c-43.038,0-77.928,34.89-77.928,77.928
					c0,20.18,7.869,38.391,20.454,52.23c-21.131,11.251-35.68,33.233-35.68,58.844c0,23.566,12.242,44.193,30.651,56.116
					c-6.167,9.052-9.788,19.976-9.788,31.755c0,26.768,18.67,49.066,43.663,54.895c-1.24,3.835-2.082,7.848-2.082,12.093
					c0,21.879,17.737,39.616,39.615,39.616c0.293,0,0.563-0.079,0.856-0.086c5.39,10.509,10.764,21.004,16.765,31.957
					c49.236,89.866,151.083,43.276,151.637-17.052c0.55-60.329,166.89-178.996,227.193-225.935
					C1777.465,1122.479,1736.488,1024.438,1684.173,981.589z"/>
				
					<line style="fill:#FFFFFF;stroke:#383838;stroke-width:12;stroke-linecap:round;stroke-linejoin:round;stroke-miterlimit:10;" x1="1588.665" y1="1241.052" x2="1405.181" y2="1223.131"/>
				<polygon style="fill:#FFFFFF;" points="1651.675,1321.33 1544.676,1651.223 1260.778,1644.762 1448.121,1152.469 				"/>
				
					<polyline style="fill:none;stroke:#383838;stroke-width:12;stroke-linecap:round;stroke-linejoin:round;stroke-miterlimit:10;" points="
					1269.994,1620.545 1448.121,1152.469 1651.675,1321.33 1544.676,1651.223 				"/>
				<g>
					<path style="fill:#FFFFFF;" d="M1405.181,1223.131c0,0-32.349-126.234,106.489-152.82
						c87.175-16.694,141.741-25.966,172.116-47.608c94.167,152.546,48.253,380.027,28.8,436.504
						c-22.657,65.774-242.112,2.199-258.998-39.442c-16.886-41.641-27.235-79.323-27.235-79.323s-54.573-0.712-72.777-56.728
						C1327.818,1204.449,1405.181,1223.131,1405.181,1223.131z"/>
				</g>
				<g>
					<path style="fill:none;stroke:#383838;stroke-width:12;stroke-linecap:round;stroke-linejoin:round;stroke-miterlimit:10;" d="
						M1426.353,1340.441c0,0-54.573-0.712-72.777-56.728c-25.758-79.265,51.605-60.583,51.605-60.583
						s-32.349-126.234,106.489-152.82c87.175-16.694,141.741-25.966,172.116-47.608c94.167,152.546,48.253,380.027,28.8,436.504
						c-18.838,54.687-173.718,19.957-235.104-17.239"/>
				</g>
			</g>
		</g>
		<g>
			
				<path style="fill:#A9B5C4;stroke:#383838;stroke-width:12;stroke-linecap:round;stroke-linejoin:round;stroke-miterlimit:10;" d="
				M1177.929,2487.625l508.336,4.064l254.562-558.656c9.509-20.869,30.382-34.212,53.315-34.083l793.258,4.471
				c20.304,0.114,32.634,22.432,21.923,39.681L2474.4,2482.472c-17.015,27.401-47.008,44.035-79.262,43.957l-1114.08-2.684
				L1177.929,2487.625z"/>
		</g>
		
			<ellipse transform="matrix(0.4029 -0.9153 0.9153 0.4029 58.0355 2204.6431)" style="fill:#383838;" cx="1718.645" cy="1057.843" rx="39.615" ry="39.615"/>
		
			<ellipse transform="matrix(0.0462 -0.9989 0.9989 0.0462 562.5278 2645.3569)" style="fill:#383838;" cx="1666.548" cy="1028.102" rx="56.491" ry="56.491"/>
	</g>
	<g>
		<path style="fill:#383838;" d="M1858.869,2652.186c237.07,66.093,19.833,638.002,160.978,740.148
			c-183.032,136.754-794.296,290.526-907.235,163.022c-63.184-71.332-87.97-284.066,139.275-425.782
			c161.591-100.772,234.509-388.545,286.306-453.637C1674.352,2504.829,1858.869,2652.186,1858.869,2652.186z"/>
		<path style="fill:#4187E8;" d="M2158.429,3372.804c-247.171-260.135-748.833-158.369-928.227-48.074s106.5,938.488,106.5,938.488
			h546.859C1883.562,4263.217,2186.224,3587.011,2158.429,3372.804z"/>
		
			<line style="fill:none;stroke:#383838;stroke-width:12;stroke-linecap:round;stroke-linejoin:round;stroke-miterlimit:10;" x1="1252.51" y1="4263.217" x2="1996.943" y2="4263.217"/>
		<path style="fill:#FFFFFF;" d="M1587.694,2945.243l-61.635,271.738c-101.922,26.193-246.453,385.958,81.978,327.174
			c218.86-39.173,322.186-316.686,186.117-323.259l-11.202-277.871L1587.694,2945.243z"/>
		
			<line style="fill:#FFFFFF;stroke:#383838;stroke-width:12;stroke-linecap:round;stroke-linejoin:round;stroke-miterlimit:10;" x1="1512.213" y1="3326.658" x2="1595.057" y2="2926.931"/>
		
			<line style="fill:#FFFFFF;stroke:#383838;stroke-width:12;stroke-linecap:round;stroke-linejoin:round;stroke-miterlimit:10;" x1="1796.21" y1="3244.919" x2="1783.366" y2="2887.231"/>
		<path style="fill:#383838;" d="M1682.45,2691.405c-85.519,224.318,35.813,774.251-272.329,813.408
			c0,0-17.597-234.392-103.359-234.392C1175.185,3270.422,1448.311,2733.766,1682.45,2691.405z"/>
		<path style="fill:#FFFFFF;" d="M1659.702,2940.144c-18.027-150.043,130.222-141.555,55.04-255.282
			c43.222-28.624,99.823-9.256,135.306,32.666c100.679,118.95,121.221,291.673,60.412,357.302
			c-60.809,65.629-239.909-25.406-242.798-53.898C1605.28,3051.195,1545.258,2876.941,1659.702,2940.144z"/>
		<path style="fill:none;stroke:#383838;stroke-width:12;stroke-linecap:round;stroke-linejoin:round;stroke-miterlimit:10;" d="
			M1714.742,2684.862c43.222-28.624,99.823-9.256,135.306,32.666c100.679,118.95,121.221,291.673,60.412,357.302
			c-34.118,36.823-105.475,24.327-162.053,1.231"/>
		<path style="fill:#FFFFFF;stroke:#383838;stroke-width:12;stroke-linecap:round;stroke-linejoin:round;stroke-miterlimit:10;" d="
			M1311.443,3392.633c-130.503-160.546-532.163,536.266-532.163,536.266s8.317-98.615-58.219-116.624
			c-88.074-23.838-232.875,317.59-27.327,360.363S1502.571,3627.761,1311.443,3392.633z"/>
		<path style="fill:#4187E8;" d="M1137.173,3915.385c212.114-169.476,349.6-340.534,211.179-559.789
			c-139.518-104.989-298.404,125.895-398.413,246.983L1137.173,3915.385z"/>
		<path style="fill:#FFFFFF;stroke:#383838;stroke-width:12;stroke-linecap:round;stroke-linejoin:round;stroke-miterlimit:10;" d="
			M2083.083,3369.611c-183.158-20.987-281.285,533.139-281.285,533.139s-247.032-320.99-394.844-329.948
			c-147.811-8.958-277.706,89.583-304.581,129.895c-26.875,40.312,125.416-17.917,125.416-17.917
			c-47.685,41.351-9.664,67.49,22.416,57.985c-39.209,55.843,53.466,30.705,53.466,30.705c-32.08,57.217,117.626,0,117.626,0
			s309.68,562.96,462.95,522.563C2037.517,4255.637,2373.528,3402.891,2083.083,3369.611z"/>
		<path style="fill:#4187E8;" d="M2167.158,3915.385c64.488-228.645,87.731-556.466-74.299-590.654
			c-218.921-46.192-285.465,300.074-291.325,479.542L2167.158,3915.385z"/>
		<path style="fill:none;stroke:#383838;stroke-width:12;stroke-linecap:round;stroke-linejoin:round;stroke-miterlimit:10;" d="
			M1978.518,3340.137c-111.348,86.313-172.589,329.535-176.984,464.136l365.624,111.112"/>
		<g>
			<path style="fill:#A9B5C4;" d="M909.127,3467.444H590.874c-31.603,0-47.452,25.619-35.4,57.223l235.602,617.804
				c12.052,31.603,47.441,57.223,79.044,57.223h318.253c31.603,0,47.452-25.62,35.401-57.223l-235.602-617.804
				C976.119,3493.064,940.73,3467.444,909.127,3467.444z"/>
			<path style="fill:none;stroke:#383838;stroke-width:12;stroke-linecap:round;stroke-linejoin:round;stroke-miterlimit:10;" d="
				M1188.373,4199.693c31.603,0,47.452-25.62,35.401-57.223l-235.602-617.804c-12.052-31.603-47.441-57.223-79.044-57.223H590.874"
				/>
			<path style="fill:#FFFFFF;" d="M766.595,3696.593c37.218,26.271-69.177,111.178-69.177,111.178s117.354-35.824,129.708,0
				s-58.06,39.95-58.06,39.95s71.648-18.703,67.942,9.585c-3.706,28.289-69.726,44.348-69.726,44.348s45.019-17.294,51.196,9.883
				c6.177,27.177-139.59,129.708-189.002,98.825c-49.413-30.883-29.833-170.147-8.832-209.677
				C641.643,3761.155,745.594,3681.769,766.595,3696.593z"/>
			<path style="fill:none;stroke:#383838;stroke-width:12;stroke-linecap:round;stroke-linejoin:round;stroke-miterlimit:10;" d="
				M603.201,3965.702c-12.455-54.193,2.115-136.167,17.442-165.017c21-39.53,124.951-118.916,145.952-104.092
				c37.218,26.271-69.177,111.178-69.177,111.178s117.354-35.824,129.708,0s-58.06,39.95-58.06,39.95s71.648-18.703,67.942,9.585
				c-3.706,28.289-69.726,44.348-69.726,44.348s45.019-17.294,51.196,9.883c4.008,17.635-55.959,66.996-112.065,91.049"/>
		</g>
	</g>
	<path style="fill:none;stroke:#383838;stroke-width:12;stroke-linecap:round;stroke-linejoin:round;stroke-miterlimit:10;" d="
		M4245.365,2526.785H3631.61c26.806,46.4,42.52,100.012,42.52,157.505c0,32.537-4.992,63.964-14.235,93.358c0,0.184,0,0.184,0,0.184
		c-39.747,128.112-159.354,221.285-300.777,221.285c-173.958,0-315.011-141.053-315.011-314.827
		c0-57.493,15.713-111.104,42.519-157.505h-574.193"/>
	<g>
		<path style="fill:#4187E8;" d="M4245.418,3547.25c-200.116-228.623-452.145-469.239-618.364-457.709
			c-175.661,12.185-285.699,91.701-314.574,187.883c-49.485,164.833,32.553,386.867,92.151,480.097
			c124.526,194.799,278.647,406.469,355.966,500.13l209.49,2.405c151.545,1.74,275.329-120.629,275.329-272.185L4245.418,3547.25z"
			/>
		<path style="fill:#FFFFFF;stroke:#383838;stroke-width:12;stroke-linecap:round;stroke-linejoin:round;stroke-miterlimit:10;" d="
			M3907.738,3312.005c-159.694-129.724-560.436,585.421-560.436,585.421s-209.175-454.643-320.624-423.699
			c-89.924,24.967,47.336,751.412,318.284,745.003S4085.46,3456.374,3907.738,3312.005z"/>
		<path style="fill:#4187E8;" d="M3966.562,3303.869c-193.578-173.599-519.25,371.281-519.25,371.281l270.73,346.909
			C3718.043,4022.06,4155.229,3473.063,3966.562,3303.869z"/>
		<path style="fill:none;stroke:#383838;stroke-width:12;stroke-linecap:round;stroke-linejoin:round;stroke-miterlimit:10;" d="
			M3730.536,3334.416c-147.982,114.462-283.224,340.734-283.224,340.734l270.73,346.909c0,0,134.916-169.421,222.507-349.035"/>
		<path style="fill:#FFFFFF;" d="M3537.551,3113.901c290.584-34.828,281.312,234.693,8.238,279.607
			C3237.689,3444.182,3295.68,3142.891,3537.551,3113.901z"/>
		<g>
			<path style="fill:#383838;" d="M3576.317,2608.693c-32.562-8.521-62.51-12.782-89.523-15.362
				c-84.157-26.283-89.526-62.382-89.526-62.382s-28.835,17.526-36.344,45.91c-13.046-6.354-22.259-16.236-27.158-32.288
				c-149.65,39.434-132.621,217.302-74.717,262.372c57.904,45.07,217.625,159.016,218.155,216.944
				c0.53,57.927,98.325,102.664,145.602,16.373C3747.405,2812.844,3709.044,2643.427,3576.317,2608.693z"/>
			
				<line style="fill:#FFFFFF;stroke:#383838;stroke-width:12;stroke-linecap:round;stroke-linejoin:round;stroke-miterlimit:10;" x1="3397.268" y1="2887.275" x2="3573.45" y2="2870.067"/>
			<polygon style="fill:#FFFFFF;" points="3312.481,2890.816 3415.222,3207.582 3687.823,3201.378 3507.935,2728.674 			"/>
			
				<polyline style="fill:none;stroke:#383838;stroke-width:12;stroke-linecap:round;stroke-linejoin:round;stroke-miterlimit:10;" points="
				3678.974,3178.124 3507.935,2728.674 3312.481,2890.816 3415.222,3207.582 			"/>
			<g>
				<path style="fill:#FFFFFF;" d="M3573.45,2870.067c0,0,31.062-121.21-102.252-146.739
					c-83.706-16.03-136.101-24.933-165.267-45.714c-90.421,146.476-46.333,364.906-27.654,419.134
					c21.755,63.157,232.478,2.111,248.692-37.872c16.214-39.984,26.152-76.167,26.152-76.167s52.402-0.684,69.881-54.471
					C3647.735,2852.129,3573.45,2870.067,3573.45,2870.067z"/>
			</g>
			<g>
				
					<path style="fill:#FFFFFF;stroke:#383838;stroke-width:12;stroke-linecap:round;stroke-linejoin:round;stroke-miterlimit:10;" d="
					M3553.121,2982.71c0,0,52.402-0.684,69.881-54.471c24.733-76.11-49.552-58.172-49.552-58.172s31.062-121.21-102.252-146.739
					c-83.706-16.03-136.101-24.933-165.267-45.714c-90.421,146.476-46.333,364.906-27.654,419.134
					c21.755,63.157,232.478,2.111,248.692-37.872"/>
			</g>
		</g>
		<path style="fill:#383838;" d="M3515.587,2934.05c-50.973,122.873-120.833-3.332-264.62,24.118
			c-33.941,33.397-52.516,209.03,42.41,216.398c94.926,7.368,247.71-49.672,250.649-101.958
			C3546.965,3020.322,3515.587,2934.05,3515.587,2934.05z"/>
		<g>
			
				<path style="fill:#FFFFFF;stroke:#383838;stroke-width:12;stroke-linecap:round;stroke-linejoin:round;stroke-miterlimit:10;" d="
				M2930.607,3372.402c-164.627,13.235-189.011,36.093-182.185,58.83c6.826,22.737,158.135,21.933,180.496,5.725
				C2951.278,3420.748,2930.607,3372.402,2930.607,3372.402z"/>
			
				<path style="fill:#FFFFFF;stroke:#383838;stroke-width:12;stroke-linecap:round;stroke-linejoin:round;stroke-miterlimit:10;" d="
				M2955.608,3359.377c-88.888-23.343-231.768-120.084-238.824-106.099c-12.942,25.652,106.876,124.135,153.029,141.185
				C2915.966,3411.514,2955.608,3359.377,2955.608,3359.377z"/>
			<g>
				<path style="fill:#FFFFFF;" d="M3141.558,3544.496c-133.438-183.053-190.689-204.707-252.648-189.839
					c-61.959,14.868-98.026,117.682-95.675,147.628c2.351,29.946,38.196,5.62,38.196,5.62s-5.53,35.639,11.09,48.173
					c16.62,12.534,30.46-16.838,30.46-16.838s-9.549,28.671,19.854,41.658c29.402,12.988,37.482-46.451,37.482-46.451
					s19.068,63.814,96.885,58.894C3105.019,3588.421,3141.558,3544.496,3141.558,3544.496z"/>
				<path style="fill:none;stroke:#383838;stroke-width:12;stroke-linecap:round;stroke-linejoin:round;stroke-miterlimit:10;" d="
					M2860.361,3368.514c-44.284,33.013-69.088,108.774-67.125,133.77c2.351,29.946,38.196,5.62,38.196,5.62
					s-5.53,35.639,11.09,48.173c16.62,12.534,30.46-16.838,30.46-16.838s-9.549,28.671,19.854,41.658
					c29.402,12.988,37.482-46.451,37.482-46.451s19.068,63.814,96.885,58.894"/>
				<path style="fill:none;stroke:#383838;stroke-width:12;stroke-linecap:round;stroke-linejoin:round;stroke-miterlimit:10;" d="
					M3146.946,3553.826c-108.185-162.915-187.232-209.973-244.393-201.81"/>
				<path style="fill:none;stroke:#383838;stroke-width:12;stroke-linecap:round;stroke-linejoin:round;stroke-miterlimit:10;" d="
					M2897.496,3480.485c-25.658,24.635-24.515,58.755-24.515,58.755"/>
				<path style="fill:none;stroke:#383838;stroke-width:12;stroke-linecap:round;stroke-linejoin:round;stroke-miterlimit:10;" d="
					M2862.056,3436.932c-27.754,37.063-30.625,70.972-30.625,70.972"/>
			</g>
		</g>
	</g>
	<path style="fill:none;stroke:#383838;stroke-width:12;stroke-linecap:round;stroke-linejoin:round;stroke-miterlimit:10;" d="
		M4245.415,2526.732v1471.434c0,146.384-118.667,265.052-265.052,265.052H2512.45"/>
</g>
</svg>
