<?xml version="1.0" encoding="utf-8"?>
<!-- Generator: Adobe Illustrator 27.5.0, SVG Export Plug-In . SVG Version: 6.00 Build 0)  -->
<svg version="1.1" id="Layer_1" xmlns="http://www.w3.org/2000/svg" xmlns:xlink="http://www.w3.org/1999/xlink" x="0px" y="0px"
	 viewBox="0 0 4981.146 4981.146" style="enable-background:new 0 0 4981.146 4981.146;" xml:space="preserve">
<rect x="3.231" style="fill:#FFFFFF;" width="4981.146" height="4981.146"/>
<g>
	<g>
		<g>
			<path style="fill:#B5D4FF;" d="M1938.507,2202.005l490.693,9.361l11.548,1290.166c0,0-688.32-249.327-683.846-273.728
				C1761.376,3203.403,1938.507,2202.005,1938.507,2202.005z"/>
			<path style="fill:#A9B5C4;" d="M1838.034,1192.536c225.34-103.012,610.984-105.31,676.892-20.572
				c65.908,84.738-85.725,1039.402-85.725,1039.402l-490.693-9.361C1938.507,2202.005,1659.545,1274.13,1838.034,1192.536z"/>
			
				<line style="fill:none;stroke:#383838;stroke-width:12;stroke-linecap:round;stroke-linejoin:round;stroke-miterlimit:10;" x1="1938.507" y1="2202.005" x2="2471.756" y2="2211.366"/>
		</g>
		<path style="fill:#FFFFFF;" d="M2066.765,1139.575c295.224-70.719,501.532,152.491,216.935,206.788
			S1934.345,1171.295,2066.765,1139.575z"/>
		<g>
			<path style="fill:#383838;" d="M2297.509,540.966c164.718,50.559,39.409,303.516,134.423,396.127
				c-165.525,114.895-404.374,167.464-499.99,51.613c-95.615-115.852-13.091-436.187,149.632-477.01
				C2244.298,470.873,2297.509,540.966,2297.509,540.966z"/>
			<path style="fill:#FFFFFF;" d="M2047.95,831.678l-18.502,330.376c-13.768,243.288,264.961,91.394,238.313-37.513l-47.032-255.146
				L2047.95,831.678z"/>
			
				<line style="fill:#FFFFFF;stroke:#383838;stroke-width:12;stroke-linecap:round;stroke-linejoin:round;stroke-miterlimit:10;" x1="2025.513" y1="1190.985" x2="2047.95" y2="831.678"/>
			
				<line style="fill:#FFFFFF;stroke:#383838;stroke-width:12;stroke-linecap:round;stroke-linejoin:round;stroke-miterlimit:10;" x1="2274.129" y1="1160.316" x2="2218.276" y2="849.652"/>
			<path style="fill:#383838;" d="M2121.727,594.849c-54.189,239.807,43.793,500.487,43.793,500.487s-154.146,43.5-244.757-56.234
				C1830.152,939.368,1890.496,671.728,2121.727,594.849z"/>
			<path style="fill:#FFFFFF;" d="M2129.2,772.027c35.861-128.358,153.823-71.492,130.867-189.509
				c44.87-8.766,84.473,26.088,99.268,72.21c41.976,130.864,0.524,278.554-71.146,311.553s-186.965-101.536-179.72-125.73
				C2047.432,844.197,2057.224,681.958,2129.2,772.027z"/>
			<path style="fill:none;stroke:#383838;stroke-width:12;stroke-linecap:round;stroke-linejoin:round;stroke-miterlimit:10;" d="
				M2260.068,582.517c44.87-8.766,84.473,26.088,99.268,72.21c41.976,130.864,0.524,278.554-71.146,311.553
				c-40.213,18.515-94.158-15.71-132.487-53.596"/>
		</g>
		<g>
			
				<polygon style="fill:#FFFFFF;stroke:#383838;stroke-width:12;stroke-linecap:round;stroke-linejoin:round;stroke-miterlimit:10;" points="
				3858.257,3531.138 2261.918,3531.138 2577.11,592.123 4173.449,592.123 			"/>
			<path style="fill:none;stroke:#383838;stroke-width:12;stroke-linecap:round;stroke-linejoin:round;stroke-miterlimit:10;" d="
				M2586.432,505.205c0,0-194.492,1813.547-323.921,3020.407"/>
			<path style="fill:none;stroke:#383838;stroke-width:12;stroke-linecap:round;stroke-linejoin:round;stroke-miterlimit:10;" d="
				M4182.771,505.205c0,0-194.492,1813.547-323.921,3020.407"/>
			<g>
				<g>
					<g>
						<path style="fill:#4187E8;" d="M3724.067,1091.503c-29.228-67.188-75.041-124.66-133.049-167.717l-314.239,397.201
							L3724.067,1091.503z"/>
						<path style="fill:#A9B5C4;" d="M3481.857,1015.964c-71.589-53.136-161.779-84.288-262.602-84.288
							c-244.589,0-465.993,183.035-521.639,419.794l470.002,61.695L3481.857,1015.964z"/>
						<path style="fill:#B5D4FF;" d="M2697.616,1351.471c-4.751,20.215-8.436,40.776-10.679,61.695
							c-28.518,265.918,163.571,481.488,429.044,481.488c196.818,0,378.62-118.543,471.16-288.192l-419.524-193.296
							L2697.616,1351.471z"/>
						<path style="fill:#A9B5C4;" d="M3614.906,1183.682l-447.289,229.484l419.524,193.296
							c32.28-59.178,53.783-124.526,61.158-193.296C3657.21,1330.075,3644.582,1251.9,3614.906,1183.682z"/>
					</g>
				</g>
			</g>
			<g>
				<g>
					
						<polygon style="fill:none;stroke:#B5D4FF;stroke-width:12;stroke-linecap:round;stroke-linejoin:round;stroke-miterlimit:10;" points="
						3761.274,3304.435 2451.448,3304.435 2546.993,2413.52 3856.82,2413.52 					"/>
					
						<line style="fill:none;stroke:#4187E8;stroke-width:12;stroke-linecap:round;stroke-linejoin:round;stroke-miterlimit:10;" x1="2550.355" y1="3199.441" x2="3664.594" y2="3199.441"/>
				</g>
				<polygon style="fill:#4187E8;" points="2669.205,2733.539 2600.32,2733.539 2550.355,3199.441 2619.24,3199.441 				"/>
				<polygon style="fill:#B5D4FF;" points="2800.273,2903.883 2731.388,2903.883 2699.691,3199.441 2768.576,3199.441 				"/>
				<polygon style="fill:#A9B5C4;" points="2986.146,2563.195 2917.261,2563.195 2849.027,3199.441 2917.913,3199.441 				"/>
				<polygon style="fill:#4187E8;" points="3079.322,3086.863 3010.437,3086.863 2998.364,3199.441 3067.249,3199.441 				"/>
				<polygon style="fill:#4187E8;" points="3254.972,2841.503 3186.087,2841.503 3147.7,3199.441 3216.585,3199.441 				"/>
				<polygon style="fill:#A9B5C4;" points="3388.87,2985.456 3319.985,2985.456 3297.036,3199.441 3365.922,3199.441 				"/>
				<polygon style="fill:#4187E8;" points="3569.855,2690.353 3500.969,2690.353 3446.373,3199.441 3515.258,3199.441 				"/>
				<polygon style="fill:#A9B5C4;" points="3696.291,2903.883 3627.406,2903.883 3595.709,3199.441 3664.594,3199.441 				"/>
			</g>
			<polygon style="fill:#B5D4FF;" points="3891.308,2091.935 2581.481,2091.935 2590.787,2005.165 3900.614,2005.165 			"/>
			<polygon style="fill:#B5D4FF;" points="3753.718,819.696 2719.071,819.696 2728.377,732.925 3763.024,732.925 			"/>
			<polygon style="fill:#B5D4FF;" points="3677.156,2244.925 2565.074,2244.925 2574.38,2158.154 3686.461,2158.154 			"/>
		</g>
		<g>
			<path style="fill:#383838;" d="M3479.421,1437.112c26.886-15.787,38.75-47.867,82.604-55.845
				c30.191-6.236,65.044,15.112,96.35,17.44c31.305,2.327,68.9-19.367,99.13-9.462c47.148,11.397,47.391,49.007,80.062,67.906
				c27.362,15.829,52.143-4.083,90.892,31.247c21.509,22.101,22.11,73.655,35.973,100.375c13.863,26.72,47.756,51.623,51.783,81.975
				s-21.81,66.155-29.809,99.153c-7.999,32.998-0.921,73.144-16.918,98.452s-46.373,26.01-77.062,53.918
				c-24.371,22.163-28.721,60.657-54.71,72.149c-25.988,11.492-71.236-8.042-99.217-2.675
				c-27.981,5.366-60.152,32.545-88.125,32.307s-51.75-27.891-77.713-33.211c-25.963-5.32-63.317,27.33-96.66,3.579
				c-21.952-9.881-17.112-48.423-33.051-62.343c-15.939-13.92-54.935-10.781-70.323-43.648
				c-11.936-18.671,1.405-43.763-1.126-66.958c-3.77-34.557-33.402-34.557-39.101-68.665c-3.429-23.915,17.618-48.997,18.693-73.405
				c1.075-24.408-19.07-33.726-12.995-74.755c5.745-23.482,37.05-43.582,47.633-64.719c10.583-21.137-4.325-49.25,19.609-80.022
				C3420.928,1442.533,3458.663,1449.301,3479.421,1437.112z"/>
			<g>
				<g>
					
						<polygon style="fill:#FFFFFF;stroke:#383838;stroke-width:12;stroke-linecap:round;stroke-linejoin:round;stroke-miterlimit:10;" points="
						1709.557,4099.354 1629.202,4620.938 1787.038,4737.762 1938.507,4090.58 					"/>
					<g>
						<g>
							<path style="fill:#4187E8;" d="M1948.147,4599.835c-33.618-20.757-68.326-54.891-102.551-96.654
								c-81.392,10.114-160.202,35.625-233.547,81.797c19.065,62.071-26.366,127.571,12.867,186.81l627.182-1.057
								C2196.483,4676.255,2144.934,4721.339,1948.147,4599.835z"/>
							<path style="fill:#FFFFFF;" d="M2233.793,4744.332c6.183,7.396,12.22,16.063,18.305,26.399l-627.182,1.057
								c-9.474-14.305-15.359-28.714-19.162-43.207L2233.793,4744.332z"/>
						</g>
						
							<line style="fill:none;stroke:#383838;stroke-width:12;stroke-linecap:round;stroke-linejoin:round;stroke-miterlimit:10;" x1="1605.754" y1="4728.582" x2="2233.793" y2="4744.332"/>
						
							<line style="fill:none;stroke:#383838;stroke-width:12;stroke-linecap:round;stroke-linejoin:round;stroke-miterlimit:10;" x1="1624.917" y1="4771.788" x2="2252.098" y2="4770.731"/>
					</g>
				</g>
				<g>
					
						<polygon style="fill:#FFFFFF;stroke:#383838;stroke-width:12;stroke-linecap:round;stroke-linejoin:round;stroke-miterlimit:10;" points="
						2088.237,4060.538 2174.102,4567.395 2370.464,4568.767 2268.041,3918.53 					"/>
					<g>
						<g>
							<path style="fill:#4187E8;" d="M2441.583,4480.468c-24.166-31.258-44.645-75.42-61.988-126.555
								c-79.747-19.169-162.493-23.018-247.394-5.603c-3.992,64.81-69.564,110.139-53.681,179.393l587.454,219.675
								C2647.153,4639.375,2583.038,4663.439,2441.583,4480.468z"/>
							<path style="fill:#FFFFFF;" d="M2658.126,4716.226c3.186,9.099,5.787,19.335,7.846,31.152l-587.453-219.674
								c-3.835-16.724-4.274-32.282-2.736-47.186L2658.126,4716.226z"/>
						</g>
						
							<line style="fill:none;stroke:#383838;stroke-width:12;stroke-linecap:round;stroke-linejoin:round;stroke-miterlimit:10;" x1="2075.784" y1="4480.518" x2="2658.126" y2="4716.226"/>
						
							<line style="fill:none;stroke:#383838;stroke-width:12;stroke-linecap:round;stroke-linejoin:round;stroke-miterlimit:10;" x1="2078.519" y1="4527.703" x2="2665.972" y2="4747.378"/>
					</g>
				</g>
				<path style="fill:#383838;" d="M1391.199,3645.438H753.57c-43.228,0-78.272-35.043-78.272-78.272v0
					c0-43.228,35.043-78.272,78.272-78.272h637.629c43.228,0,78.272,35.043,78.272,78.272v0
					C1469.471,3610.394,1434.428,3645.438,1391.199,3645.438z"/>
				
					<line style="fill:none;stroke:#383838;stroke-width:12;stroke-linecap:round;stroke-linejoin:round;stroke-miterlimit:10;" x1="803.531" y1="3611.074" x2="591.3" y2="4771.788"/>
				
					<line style="fill:none;stroke:#383838;stroke-width:12;stroke-linecap:round;stroke-linejoin:round;stroke-miterlimit:10;" x1="1347.247" y1="3611.074" x2="1559.479" y2="4771.788"/>
				<path style="fill:#A9B5C4;" d="M697.416,3003.575c103.383-256.787,297.505-149.535,567.615-100.723l85.941,220.882
					c251.87,45.374,468.907,84.404,610.575,109.296c330.522,58.073,181.113,465.571,160.53,653.923
					c-23.52,215.229-94.208,518.703-94.208,518.703h-402.953l125.288-757.349c0,0-687.589-14.913-888.918-156.437
					C549.531,3272.722,697.416,3003.575,697.416,3003.575z"/>
				<path style="fill:#A9B5C4;" d="M2352.791,4259.377l-397.735,82.227l-97.434-1095.771l-610.575-109.295
					c0,0,596.71-318.063,835.945-190.846C2322.228,3072.907,2352.791,4259.377,2352.791,4259.377z"/>
				
					<polyline style="fill:none;stroke:#383838;stroke-width:12;stroke-linecap:round;stroke-linejoin:round;stroke-miterlimit:10;" points="
					1955.057,4204.235 1857.623,3245.833 1247.048,3136.538 1199.672,2959.377 				"/>
				
					<line style="fill:none;stroke:#383838;stroke-width:12;stroke-linecap:round;stroke-linejoin:round;stroke-miterlimit:10;" x1="2352.791" y1="4259.377" x2="1955.057" y2="4341.604"/>
				
					<line style="fill:none;stroke:#383838;stroke-width:12;stroke-linecap:round;stroke-linejoin:round;stroke-miterlimit:10;" x1="2027.869" y1="4405.655" x2="1624.917" y2="4405.655"/>
				<path style="fill:#4187E8;" d="M1605.754,2159.024c-121.896-145.424-675.986-275.736-861.878,0
					c-25.046,193.016-46.46,772.437-46.46,772.437l609.739,33.891C1307.154,2965.351,1654.288,2216.926,1605.754,2159.024z"/>
				
					<path style="fill:#FFFFFF;stroke:#383838;stroke-width:12;stroke-linecap:round;stroke-linejoin:round;stroke-miterlimit:10;" d="
					M1568.76,2242.274c-72.877-14.27-125.109,140.906-89.003,288.222c44.543,181.733,126.211,294.413,274.7,299.034l2.446-233.658
					C1756.903,2595.872,1697.02,2267.391,1568.76,2242.274z"/>
				<path style="fill:#4187E8;" d="M1427.967,2196.722c70.276-104.366,236.28-161.566,316.539,257.873
					c-85.409,131.983-269.209,201.399-269.209,201.399S1341.036,2325.822,1427.967,2196.722z"/>
				<g>
					
						<path style="fill:#FFFFFF;stroke:#383838;stroke-width:12;stroke-linecap:round;stroke-linejoin:round;stroke-miterlimit:10;" d="
						M866.152,2183.799c88.799,68.176,32.744,300.875-103.658,458.226c66.961-34.656,290.146-22.726,425.883,1.137l0.002-0.002
						c150.035,18.814,336.809,20.151,370.766,105.27c9.292,23.292,9.521,47.832,6.15,69.46h-219.454
						c-1.293-18.027-2.435-33.922-2.435-33.922s-79.31,25.879-132.771-14.948c-130.155,28.889-463.549,119.397-619.335,41.504
						C395.623,2712.686,662.364,2027.34,866.152,2183.799z"/>
					<path style="fill:#4187E8;" d="M834.19,2080.079c123.729-22.85,289.901,92.368,46.489,443.254
						c-154.046,31.37-341.399-88.009-341.399-88.009S681.139,2108.345,834.19,2080.079z"/>
					<path style="fill:none;stroke:#383838;stroke-width:12;stroke-linecap:round;stroke-linejoin:round;stroke-miterlimit:10;" d="
						M1499.287,2755.699c13.73,24.23,11.307,62.191,11.307,62.191"/>
					<path style="fill:none;stroke:#383838;stroke-width:12;stroke-linecap:round;stroke-linejoin:round;stroke-miterlimit:10;" d="
						M1448.404,2765.796c13.73,24.23,8.217,52.094,8.217,52.094"/>
					<path style="fill:none;stroke:#383838;stroke-width:12;stroke-linecap:round;stroke-linejoin:round;stroke-miterlimit:10;" d="
						M1397.198,2771.045c11.63,20.798,7.269,46.845,7.269,46.845"/>
					<path style="fill:none;stroke:#383838;stroke-width:12;stroke-linecap:round;stroke-linejoin:round;stroke-miterlimit:10;" d="
						M970.404,2323.534c-13.63,119.303-89.725,199.799-89.725,199.799s-149.445,32.654-341.399-88.009"/>
				</g>
				<path style="fill:none;stroke:#383838;stroke-width:12;stroke-linecap:round;stroke-linejoin:round;stroke-miterlimit:10;" d="
					M1568.762,2350.237c-33.016,131.081-109.57,262.328-109.57,262.328"/>
				<path style="fill:none;stroke:#383838;stroke-width:12;stroke-linecap:round;stroke-linejoin:round;stroke-miterlimit:10;" d="
					M1744.505,2454.595c-123.853,159.969-269.209,201.399-269.209,201.399"/>
				<path style="fill:#FFFFFF;" d="M1261.654,1997.473c-260.011-31.164-251.715,210.001-7.371,250.189
					C1529.966,2293.004,1478.077,2023.412,1261.654,1997.473z"/>
				<g>
					<path style="fill:#383838;" d="M1476.932,1515.787c0-0.189,0.055-0.365,0.055-0.555c0-26.806-21.731-48.536-48.536-48.536
						c-8.047,0-15.522,2.146-22.203,5.611c-3.927-14.458-17.012-25.149-32.715-25.149c-9.816,0-18.592,4.215-24.805,10.863
						c-7.584-4.908-16.581-7.828-26.288-7.828c-21.538,0-39.588,14.126-45.932,33.546c-8.253-5.301-18.015-8.463-28.552-8.463
						c-27.71,0-50.198,21.338-52.552,48.438c-7.77-3.153-16.228-4.972-25.129-4.972c-36.978,0-66.954,29.977-66.954,66.954
						c0,17.338,6.761,32.985,17.574,44.875c-18.155,9.667-30.656,28.554-30.656,50.558c0,20.247,10.518,37.97,26.335,48.214
						c-5.298,7.777-8.41,17.163-8.41,27.284c0,22.999,16.041,42.157,37.514,47.164c-1.065,3.295-1.789,6.743-1.789,10.391
						c0,18.798,15.239,34.037,34.036,34.037c0.252,0,0.484-0.068,0.735-0.074c4.631,9.029,9.248,18.046,14.404,27.457
						c42.303,77.211,129.808,37.182,130.284-14.651c0.472-51.833,143.389-153.79,195.2-194.12
						C1557.087,1636.837,1521.881,1552.602,1476.932,1515.787z"/>
					
						<line style="fill:#FFFFFF;stroke:#383838;stroke-width:12;stroke-linecap:round;stroke-linejoin:round;stroke-miterlimit:10;" x1="1394.874" y1="1738.712" x2="1237.228" y2="1723.315"/>
					<polygon style="fill:#FFFFFF;" points="1449.011,1807.686 1357.079,2091.124 1113.159,2085.573 1274.121,1662.604 					"/>
					
						<polyline style="fill:none;stroke:#383838;stroke-width:12;stroke-linecap:round;stroke-linejoin:round;stroke-miterlimit:10;" points="
						1121.078,2064.766 1274.121,1662.604 1449.011,1807.686 1357.079,2091.124 					"/>
					<g>
						<path style="fill:#FFFFFF;" d="M1237.228,1723.315c0,0-27.794-108.458,91.494-131.3c74.9-14.343,121.781-22.31,147.879-40.904
							c80.907,131.065,41.458,326.513,24.744,375.036c-19.466,56.512-208.019,1.889-222.526-33.888
							c-14.508-35.777-23.4-68.153-23.4-68.153s-46.888-0.612-62.528-48.74C1170.759,1707.264,1237.228,1723.315,1237.228,1723.315z
							"/>
					</g>
					<g>
						
							<path style="fill:none;stroke:#383838;stroke-width:12;stroke-linecap:round;stroke-linejoin:round;stroke-miterlimit:10;" d="
							M1255.418,1824.106c0,0-46.888-0.612-62.528-48.74c-22.131-68.103,44.338-52.051,44.338-52.051s-27.794-108.458,91.494-131.3
							c74.9-14.343,121.781-22.31,147.879-40.904c80.907,131.065,41.458,326.513,24.744,375.036
							c-16.185,46.986-149.256,17.147-201.997-14.811"/>
					</g>
				</g>
				
					<line style="fill:none;stroke:#383838;stroke-width:12;stroke-linecap:round;stroke-linejoin:round;stroke-miterlimit:10;" x1="697.416" y1="2931.461" x2="1307.154" y2="2965.351"/>
			</g>
			<g>
				
					<polygon style="fill:#FFFFFF;stroke:#383838;stroke-width:12;stroke-linecap:round;stroke-linejoin:round;stroke-miterlimit:10;" points="
					3731.532,2935.616 4184.769,2882.228 4179.332,3060.683 3753.413,3057.708 				"/>
				<g>
					
						<line style="fill:none;stroke:#383838;stroke-width:12;stroke-linecap:round;stroke-linejoin:round;stroke-miterlimit:10;" x1="3550.497" y1="3611.074" x2="3338.265" y2="4771.788"/>
					<g>
						
							<polygon style="fill:#FFFFFF;stroke:#383838;stroke-width:12;stroke-linecap:round;stroke-linejoin:round;stroke-miterlimit:10;" points="
							3563.466,3886.377 4000.561,4165.443 3928.008,4347.915 3364.278,3999.6 						"/>
						<g>
							<g>
								<path style="fill:#4187E8;" d="M3888.009,4434.398c-11.537-37.788-35.736-80.027-67.437-123.738
									c30.456-76.154,75.147-145.899,138.435-205.112c55.193,34.206,130.084,6.902,177.415,59.895l-160.325,606.345
									C3898.847,4694,3955.545,4655.592,3888.009,4434.398z"/>
								<path style="fill:#FFFFFF;" d="M3955.214,4747.378c5.583,7.859,12.432,15.899,20.885,24.41l160.324-606.345
									c-11.43-12.797-23.872-22.148-36.922-29.508L3955.214,4747.378z"/>
							</g>
							
								<line style="fill:none;stroke:#383838;stroke-width:12;stroke-linecap:round;stroke-linejoin:round;stroke-miterlimit:10;" x1="4099.5" y1="4135.935" x2="3955.214" y2="4747.378"/>
							
								<line style="fill:none;stroke:#383838;stroke-width:12;stroke-linecap:round;stroke-linejoin:round;stroke-miterlimit:10;" x1="4136.423" y1="4165.443" x2="3976.098" y2="4771.788"/>
						</g>
					</g>
					<g>
						
							<polygon style="fill:#FFFFFF;stroke:#383838;stroke-width:12;stroke-linecap:round;stroke-linejoin:round;stroke-miterlimit:10;" points="
							3348.494,3855.402 3677.605,4256.172 3552.082,4407.181 3124.027,3901.332 						"/>
						<g>
							<g>
								<path style="fill:#4187E8;" d="M3622.765,4486.616c-23.726-31.593-60.872-63.056-105.572-93.345
									c2.677-81.974,20.921-162.776,60.238-240.013c63.546,13.346,124.648-37.848,187.206-4.16l55.935,624.684
									C3721.434,4726.98,3761.646,4671.548,3622.765,4486.616z"/>
								<path style="fill:#FFFFFF;" d="M3792.618,4757.951c7.928,5.486,17.107,10.71,27.954,15.831l-55.936-624.683
									c-15.106-8.135-29.991-12.686-44.769-15.157L3792.618,4757.951z"/>
							</g>
							
								<line style="fill:none;stroke:#383838;stroke-width:12;stroke-linecap:round;stroke-linejoin:round;stroke-miterlimit:10;" x1="3719.868" y1="4133.941" x2="3792.618" y2="4757.951"/>
							
								<line style="fill:none;stroke:#383838;stroke-width:12;stroke-linecap:round;stroke-linejoin:round;stroke-miterlimit:10;" x1="3764.637" y1="4149.098" x2="3820.573" y2="4773.782"/>
						</g>
					</g>
					<path style="fill:#383838;" d="M3506.544,3645.438h637.629c43.229,0,78.272-35.043,78.272-78.272v0
						c0-43.228-35.043-78.272-78.272-78.272h-637.629c-43.228,0-78.272,35.043-78.272,78.272v0
						C3428.273,3610.394,3463.316,3645.438,3506.544,3645.438z"/>
					<path style="fill:#B5D4FF;" d="M3699.937,2974.034c-7.209,19.681-10.649,34.221-10.649,34.221
						c-698.746,175.353-882.955,220.76-948.305,405.261c-72.009,203.301,631.646,974.084,631.646,974.084l265.286-263.185
						c0,0-540.112-584.836-522.11-584.836s456.885,87.086,732.919-110.939c205.355-147.32,57.509-369.304-51.447-446.191
						C3759.778,2955.989,3703.953,2963.069,3699.937,2974.034z"/>
					
						<line style="fill:none;stroke:#383838;stroke-width:12;stroke-linecap:round;stroke-linejoin:round;stroke-miterlimit:10;" x1="4094.212" y1="3611.074" x2="4306.444" y2="4771.788"/>
					<path style="fill:#B5D4FF;" d="M4181.353,3010.494c358.043,600.581-754.023,634.944-754.023,634.944l481.849,444.36
						l-268.24,349.23c0,0-816.779-829.562-526.368-1022.486c223.196-148.272,592.34-279.051,592.34-279.051l90.367-155.039
						L4181.353,3010.494z"/>
					<path style="fill:none;stroke:#383838;stroke-width:12;stroke-linecap:round;stroke-linejoin:round;stroke-miterlimit:10;" d="
						M3909.179,4089.798l-268.24,349.23c0,0-816.779-829.562-526.368-1022.486c223.196-148.272,592.34-279.051,592.34-279.051
						l90.367-155.039"/>
					
						<line style="fill:none;stroke:#383838;stroke-width:12;stroke-linecap:round;stroke-linejoin:round;stroke-miterlimit:10;" x1="3372.628" y1="4387.601" x2="3490.074" y2="4274.967"/>
				</g>
				<g>
					
						<path style="fill:#FFFFFF;stroke:#383838;stroke-width:12;stroke-linecap:round;stroke-linejoin:round;stroke-miterlimit:10;" d="
						M3384.109,2202.005c-224.687,363.549-223.077,550.55-174.655,612.422c48.422,61.873,288.404-309.117,343.785-455.905
						C3608.619,2211.734,3384.109,2202.005,3384.109,2202.005z"/>
					
						<path style="fill:#FFFFFF;stroke:#383838;stroke-width:12;stroke-linecap:round;stroke-linejoin:round;stroke-miterlimit:10;" d="
						M3427.33,2527.313c-178.939-94.26-204.593-93.294-205.038-72.194c-0.445,21.1,96.468,72.904,96.468,72.904
						s-106.066-59.861-119.994-44.149c-24.405,27.53,103.59,92.655,103.59,92.655s-97.474-68.1-117.326-41.981
						c-19.851,26.118,130.997,108.613,130.997,108.613L3427.33,2527.313z"/>
					<path style="fill:#4187E8;" d="M3528.659,2607.929c129.51-170.442,257.157-437.65,132.575-519.775
						c-168.324-110.96-338.365,157.428-402.49,305.978L3528.659,2607.929z"/>
					<path style="fill:#4187E8;" d="M3414.286,2143.173c121.896-145.424,519.282-285.767,705.175-10.031
						c48.698,126.13,102.985,806.285,102.985,806.285l-535.472,61.441c0,0-43.403-130.432-120.063-279.131
						c-132.499-37.838-129.731-101.977-125.55-257.67C3390.137,2326.732,3365.752,2201.075,3414.286,2143.173z"/>
					<path style="fill:#FFFFFF;" d="M3686.776,1703.22l146.899,304.51c94.824,0,36.525,222.907-253.733,301.242
						c-125.806,33.953-103.123-207.017,14.152-243.271l-55.584-259.195L3686.776,1703.22z"/>
					
						<line style="fill:#FFFFFF;stroke:#383838;stroke-width:12;stroke-linecap:round;stroke-linejoin:round;stroke-miterlimit:10;" x1="3848.724" y1="2033.488" x2="3686.776" y2="1703.22"/>
					
						<line style="fill:#FFFFFF;stroke:#383838;stroke-width:12;stroke-linecap:round;stroke-linejoin:round;stroke-miterlimit:10;" x1="3602.102" y1="2101.954" x2="3533.091" y2="1786.914"/>
					<path style="fill:#FFFFFF;" d="M3671.007,1702.386c-51.746-125.957-164.641-54.141-155.468-176.642
						c-46.579-3.526-82.595,36.579-92.089,85.15c-26.937,137.813,32.795,282.717,109.469,307.627
						c76.674,24.91,177.569-125.4,167.322-149.083C3762.615,1765.835,3733.268,1602.38,3671.007,1702.386z"/>
					<path style="fill:none;stroke:#383838;stroke-width:12;stroke-linecap:round;stroke-linejoin:round;stroke-miterlimit:10;" d="
						M3515.54,1525.744c-46.579-3.526-82.595,36.579-92.089,85.15c-26.937,137.813,32.795,282.717,109.469,307.627
						c43.02,13.976,93.664-27.207,128.025-70.236"/>
					
						<path style="fill:#FFFFFF;stroke:#383838;stroke-width:12;stroke-linecap:round;stroke-linejoin:round;stroke-miterlimit:10;" d="
						M3485.017,2177.131c-28.386-42.635-71.785-49.463-71.785-49.463"/>
					
						<line style="fill:none;stroke:#383838;stroke-width:12;stroke-linecap:round;stroke-linejoin:round;stroke-miterlimit:10;" x1="3258.743" y1="2394.132" x2="3297.124" y2="2424.532"/>
					
						<path style="fill:#FFFFFF;stroke:#383838;stroke-width:12;stroke-linecap:round;stroke-linejoin:round;stroke-miterlimit:10;" d="
						M4087.682,2216.812c113.309,31.621,13.87,617.566-127.017,618.296s-628.975-118.816-634.407-221.013
						c-5.432-102.198,519.07,18.078,519.07,18.078S3867.957,2155.494,4087.682,2216.812z"/>
					<g>
						<path style="fill:#FFFFFF;" d="M3496.267,2237.02c47.65-73.121-48.777-141.766-68.396-179.727
							c-19.996-38.69-48.999-15.64-30.441,30.213c18.56,45.852,15.803,40.162,15.803,40.162s-41.787-21.545-88.719-52.265
							c3.826-43.071,28.513-127.53,4.166-123.91c-23.355,3.471-35.962,58.234-37.788,66.753c5.7-23.994-2.44-80.104-13.035-85.131
							c-9.469-4.493-35.269,2.49-21.501,85.056c-18.128-32.941-36.096-51.246-48.932-43.112
							c-31.863,20.193,105.536,185.401,190.281,260.262c-117.171,180.617-296.071,621.177-134.764,603.783
							c166.934-17.999,244.059-427.692,233.207-602.083L3496.267,2237.02z"/>
						
							<path style="fill:none;stroke:#383838;stroke-width:12;stroke-linecap:round;stroke-linejoin:round;stroke-miterlimit:10;" d="
							M3201.113,2789.273c6.39,34.401,25.465,53.753,61.828,49.832c166.934-17.999,244.059-427.692,233.207-602.083l0.119-0.001
							c47.65-73.121-48.777-141.766-68.396-179.727c-19.996-38.69-48.999-15.64-30.441,30.213
							c18.56,45.852,15.803,40.162,15.803,40.162s-41.787-21.545-88.719-52.265c3.826-43.071,28.513-127.53,4.166-123.91
							c-23.355,3.471-35.962,58.234-37.788,66.753c5.7-23.994-2.44-80.104-13.035-85.131c-9.469-4.493-35.269,2.49-21.501,85.056
							c-18.128-32.941-36.096-51.246-48.932-43.112c-31.863,20.193,105.536,185.401,190.281,260.262
							c-58.057,89.493-131.268,242.805-170.741,372.605"/>
						
							<path style="fill:none;stroke:#383838;stroke-width:12;stroke-linecap:round;stroke-linejoin:round;stroke-miterlimit:10;" d="
							M3256.354,2018.171c8.427,50.875,28.454,98.319,28.454,98.319s-7.531-41.508,5.825-97.022"/>
					</g>
					<path style="fill:#4187E8;" d="M4150.217,2593.946c28.641-212.139,46.944-520.704-140.925-517.574
						c-201.151-13.547-216.763,303.789-199.313,464.645L4150.217,2593.946z"/>
					<path style="fill:none;stroke:#383838;stroke-width:12;stroke-linecap:round;stroke-linejoin:round;stroke-miterlimit:10;" d="
						M3899.346,2188.343c-61.316,67.158-63.05,259.134-61.219,357.053l312.09,48.55"/>
					<path style="fill:none;stroke:#383838;stroke-width:12;stroke-linecap:round;stroke-linejoin:round;stroke-miterlimit:10;" d="
						M3413.233,2127.668c38.424,19.453,60.294,43.753,60.294,43.753"/>
					
						<line style="fill:#FFFFFF;stroke:#383838;stroke-width:12;stroke-linecap:round;stroke-linejoin:round;stroke-miterlimit:10;" x1="3686.973" y1="3000.869" x2="4222.445" y2="2939.427"/>
					
						<line style="fill:#FFFFFF;stroke:#383838;stroke-width:12;stroke-linecap:round;stroke-linejoin:round;stroke-miterlimit:10;" x1="4181.353" y1="3010.494" x2="3831.779" y2="2984.253"/>
				</g>
			</g>
			<g>
				
					<path style="fill:#C9C9C9;stroke:#383838;stroke-width:12;stroke-linecap:round;stroke-linejoin:round;stroke-miterlimit:10;" d="
					M1188.377,2809.747l436.753,3.491l218.715-479.987c8.17-17.93,26.104-29.395,45.807-29.284l681.553,3.842
					c17.445,0.098,28.038,19.273,18.836,34.094l-287.759,463.416c-14.619,23.543-40.388,37.834-68.1,37.767l-957.199-2.306
					L1188.377,2809.747z"/>
				
					<line style="fill:#C9C9C9;stroke:#383838;stroke-width:12;stroke-linecap:round;stroke-linejoin:round;stroke-miterlimit:10;" x1="2104.143" y1="2815.344" x2="1702.6" y2="2813.579"/>
			</g>
			
				<line style="fill:none;stroke:#383838;stroke-width:12;stroke-linecap:round;stroke-linejoin:round;stroke-miterlimit:10;" x1="4412.795" y1="2846.373" x2="416.826" y2="2846.373"/>
			
				<ellipse transform="matrix(0.0365 -0.9993 0.9993 0.0365 -128.6281 3029.1997)" style="fill:#383838;" cx="1506.55" cy="1581.303" rx="34.036" ry="34.036"/>
			
				<ellipse transform="matrix(0.2346 -0.9721 0.9721 0.2346 -393.4981 2611.7292)" style="fill:#383838;" cx="1461.789" cy="1555.75" rx="48.536" ry="48.536"/>
		</g>
		<path style="fill:#A9B5C4;" d="M1838.034,1192.536c-235.385,94.154-230.111,656.233-113.039,758
			c117.072,101.766,267.729-38.437,230.062-248.443S1838.034,1192.536,1838.034,1192.536z"/>
		<g>
			
				<path style="fill:#FFFFFF;stroke:#383838;stroke-width:12;stroke-linecap:round;stroke-linejoin:round;stroke-miterlimit:10;" d="
				M1742.586,1914.471c182.07,143.965,629.521-388.943,602.079-408.372C2239.422,1431.59,1612.89,1811.92,1742.586,1914.471z"/>
			
				<path style="fill:#FFFFFF;stroke:#383838;stroke-width:12;stroke-linecap:round;stroke-linejoin:round;stroke-miterlimit:10;" d="
				M2463.213,1527.133c82.862,98.951,83.495,125.061,67.089,133.722c-16.406,8.66-98.892-76.059-102.12-97.398
				S2463.213,1527.133,2463.213,1527.133z"/>
			
				<path style="fill:#FFFFFF;stroke:#383838;stroke-width:12;stroke-linecap:round;stroke-linejoin:round;stroke-miterlimit:10;" d="
				M2456.764,1506.069c61.722,36.716,193.921,63.275,189.998,74.87c-7.194,21.269-127.722,8.51-162.516-7.852
				C2449.453,1556.726,2456.764,1506.069,2456.764,1506.069z"/>
			<g>
				<path style="fill:#FFFFFF;" d="M2251.733,1503.96c175.098-26.009,218.539-5.989,244.218,36.671
					c25.679,42.66-11.819,119.103-29.788,134.207s-24.066-18.194-24.066-18.194s-16.82,22.614-32.911,20.227
					c-16.091-2.387-7.317-26.195-7.317-26.195s-10.736,21.033-34.085,11.775c-23.35-9.258,5.329-46.338,5.329-46.338
					s-45.996,24.356-85.907-21.684S2251.733,1503.96,2251.733,1503.96z"/>
				<path style="fill:none;stroke:#383838;stroke-width:12;stroke-linecap:round;stroke-linejoin:round;stroke-miterlimit:10;" d="
					M2503.881,1564.129c5.885,42.761-22.719,98.102-37.717,110.709c-17.969,15.104-24.066-18.194-24.066-18.194
					s-16.82,22.614-32.911,20.227c-16.091-2.387-7.317-26.195-7.317-26.195s-10.736,21.033-34.085,11.775
					c-23.35-9.258,5.329-46.338,5.329-46.338s-45.996,24.356-85.907-21.684"/>
				<path style="fill:none;stroke:#383838;stroke-width:12;stroke-linecap:round;stroke-linejoin:round;stroke-miterlimit:10;" d="
					M2243.583,1506.073c150.04-29.036,219.578-10.8,246.361,25.512"/>
				<path style="fill:none;stroke:#383838;stroke-width:12;stroke-linecap:round;stroke-linejoin:round;stroke-miterlimit:10;" d="
					M2421.16,1604.817c0.342,27.794-19.289,45.859-19.289,45.859"/>
				<path style="fill:none;stroke:#383838;stroke-width:12;stroke-linecap:round;stroke-linejoin:round;stroke-miterlimit:10;" d="
					M2464.843,1600.685c-5.431,35.773-22.745,55.958-22.745,55.958"/>
			</g>
		</g>
		<g>
			
				<path style="fill:#FFFFFF;stroke:#383838;stroke-width:12;stroke-linecap:round;stroke-linejoin:round;stroke-miterlimit:10;" d="
				M2998.483,534.192c-40.109,7.713-77.132,131.124-63.248,134.209c13.884,3.085,77.132-89.473,77.132-89.473
				s-12.341,94.101,10.799,97.186c23.139,3.085,21.597-40.109,21.597-40.109s4.628,30.853,20.054,30.853
				c15.427,0,12.341-41.651,12.341-41.651s9.256,23.14,21.597,21.597c12.341-1.543,38.566-54.681,38.566-54.681h35.48
				C3172.8,592.123,3073.465,519.772,2998.483,534.192z"/>
			<path style="fill:none;stroke:#383838;stroke-width:12;stroke-linecap:round;stroke-linejoin:round;stroke-miterlimit:10;" d="
				M3049.176,577.16c-7.572,27.326-4.414,58.846-4.414,58.846"/>
			<path style="fill:none;stroke:#383838;stroke-width:12;stroke-linecap:round;stroke-linejoin:round;stroke-miterlimit:10;" d="
				M3086.379,577.16c-9.548,23.046-9.222,48.047-9.222,48.047"/>
		</g>
		<path style="fill:none;stroke:#383838;stroke-width:12;stroke-linecap:round;stroke-linejoin:round;stroke-miterlimit:10;" d="
			M1687.51,1894.654c-34.132-134.774,181.413-252.081,203.801-211.71"/>
		<path style="fill:none;stroke:#383838;stroke-width:12;stroke-linecap:round;stroke-linejoin:round;stroke-miterlimit:10;" d="
			M1851.929,1246.175c109.023,176.444,86.579,314.768,86.579,314.768"/>
	</g>
	<g>
		<path style="fill:#FFFFFF;stroke:#4187E8;stroke-width:12;stroke-linecap:round;stroke-linejoin:round;stroke-miterlimit:10;" d="
			M1343.993,478.125l-853.251-2.595c-40.859-0.124-74.083,32.898-74.207,73.757l-1.669,548.768
			c-0.124,40.859,32.898,74.083,73.757,74.207l635.356,1.932l183.176,227.394l-1.933-226.843l36.652,0.112
			c40.859,0.124,74.083-32.898,74.207-73.757l1.669-548.768C1417.874,511.472,1384.852,478.249,1343.993,478.125z"/>
		
			<rect x="493.271" y="848.91" transform="matrix(1 0.003 -0.003 1 2.9565 -1.7689)" style="fill:#B5D4FF;" width="179.701" height="244.711"/>
		
			<rect x="713.187" y="615.654" transform="matrix(1 0.003 -0.003 1 2.6038 -2.4382)" style="fill:#B5D4FF;" width="179.701" height="478.636"/>
		
			<rect x="932.541" y="751.752" transform="matrix(1 0.003 -0.003 1 2.8128 -3.105)" style="fill:#B5D4FF;" width="179.701" height="343.206"/>
		
			<rect x="1152.441" y="528.755" transform="matrix(1 0.003 -0.003 1 2.4757 -3.7743)" style="fill:#B5D4FF;" width="179.701" height="566.871"/>
		
			<polyline style="fill:none;stroke:#4187E8;stroke-width:12;stroke-linecap:round;stroke-linejoin:round;stroke-miterlimit:10;" points="
			1253.734,582.26 1299.328,582.399 986.877,875.278 847.255,698.387 528.779,1029.242 		"/>
		
			<line style="fill:none;stroke:#4187E8;stroke-width:12;stroke-linecap:round;stroke-linejoin:round;stroke-miterlimit:10;" x1="1299.194" y1="626.304" x2="1299.328" y2="582.399"/>
	</g>
	<g>
		<path style="fill:#FFFFFF;stroke:#B5D4FF;stroke-width:12;stroke-linecap:round;stroke-linejoin:round;stroke-miterlimit:10;" d="
			M3865.02,1083.464l640.385,1.948c43.812,0.133,79.221,35.758,79.087,79.57l-0.404,133.021
			c-0.133,43.812-35.758,79.22-79.57,79.087l-503.563-1.531l-119.287,182.949l21.766-183.245l-39.301-0.12
			c-43.812-0.133-79.22-35.758-79.087-79.57l0.404-133.021C3785.583,1118.74,3821.208,1083.331,3865.02,1083.464z"/>
		
			<ellipse transform="matrix(0.4356 -0.9001 0.9001 0.4356 1401.85 4700.0786)" style="fill:#B5D4FF;" cx="4448.95" cy="1232.15" rx="77.668" ry="77.668"/>
		
			<line style="fill:none;stroke:#B5D4FF;stroke-width:12;stroke-linecap:round;stroke-linejoin:round;stroke-miterlimit:10;" x1="4299.753" y1="1278.896" x2="3973.286" y2="1277.903"/>
		
			<line style="fill:none;stroke:#B5D4FF;stroke-width:12;stroke-linecap:round;stroke-linejoin:round;stroke-miterlimit:10;" x1="4299.896" y1="1231.696" x2="3922.935" y2="1230.55"/>
		
			<line style="fill:none;stroke:#B5D4FF;stroke-width:12;stroke-linecap:round;stroke-linejoin:round;stroke-miterlimit:10;" x1="4300.04" y1="1184.496" x2="4082.331" y2="1183.834"/>
	</g>
</g>
</svg>
