<?xml version="1.0" encoding="utf-8"?>
<!-- Generator: Adobe Illustrator 27.5.0, SVG Export Plug-In . SVG Version: 6.00 Build 0)  -->
<svg version="1.1" id="Layer_1" xmlns="http://www.w3.org/2000/svg" xmlns:xlink="http://www.w3.org/1999/xlink" x="0px" y="0px"
	 viewBox="0 0 4981.146 4981.146" style="enable-background:new 0 0 4981.146 4981.146;" xml:space="preserve">
<rect x="0" style="fill:#FFFFFF;" width="4981.146" height="4981.146"/>
<g>
	<g>
		<g>
			
				<path style="fill:#FFFFFF;stroke:#B5D4FF;stroke-width:12;stroke-linecap:round;stroke-linejoin:round;stroke-miterlimit:10;" d="
				M1435.326,2763.264h3239.085c63.588,0,111.63-57.623,100.192-120.175L4411.255,656.093
				c-12.332-67.436-71.093-116.426-139.647-116.426H1032.523c-63.588,0-111.63,57.623-100.192,120.175l363.348,1986.996
				C1308.011,2714.274,1366.771,2763.264,1435.326,2763.264z"/>
		</g>
		<g>
			<g>
				
					<line style="fill:#FFFFFF;stroke:#B5D4FF;stroke-width:12;stroke-linecap:round;stroke-linejoin:round;stroke-miterlimit:10;" x1="4353.227" y1="765.801" x2="1004.81" y2="765.801"/>
				<g>
					
						<line style="fill:none;stroke:#B5D4FF;stroke-width:12;stroke-linecap:round;stroke-linejoin:round;stroke-miterlimit:10;" x1="1583.977" y1="2599.976" x2="1990.593" y2="2599.976"/>
					
						<line style="fill:none;stroke:#B5D4FF;stroke-width:12;stroke-linecap:round;stroke-linejoin:round;stroke-miterlimit:10;" x1="1571.866" y1="2532.868" x2="2172.109" y2="2532.868"/>
					
						<line style="fill:none;stroke:#B5D4FF;stroke-width:12;stroke-linecap:round;stroke-linejoin:round;stroke-miterlimit:10;" x1="1559.755" y1="2465.76" x2="2115.74" y2="2465.76"/>
					
						<line style="fill:none;stroke:#B5D4FF;stroke-width:12;stroke-linecap:round;stroke-linejoin:round;stroke-miterlimit:10;" x1="1535.534" y1="2331.544" x2="2135.776" y2="2331.544"/>
				</g>
				<g>
					
						<line style="fill:none;stroke:#B5D4FF;stroke-width:12;stroke-linecap:round;stroke-linejoin:round;stroke-miterlimit:10;" x1="1522.785" y1="2260.899" x2="1929.401" y2="2260.899"/>
					
						<line style="fill:none;stroke:#B5D4FF;stroke-width:12;stroke-linecap:round;stroke-linejoin:round;stroke-miterlimit:10;" x1="1510.674" y1="2193.791" x2="2110.917" y2="2193.791"/>
					
						<line style="fill:none;stroke:#B5D4FF;stroke-width:12;stroke-linecap:round;stroke-linejoin:round;stroke-miterlimit:10;" x1="1498.563" y1="2126.683" x2="2054.548" y2="2126.683"/>
					
						<line style="fill:none;stroke:#B5D4FF;stroke-width:12;stroke-linecap:round;stroke-linejoin:round;stroke-miterlimit:10;" x1="1486.452" y1="2059.574" x2="2086.695" y2="2059.574"/>
				</g>
				<g>
					
						<line style="fill:none;stroke:#B5D4FF;stroke-width:12;stroke-linecap:round;stroke-linejoin:round;stroke-miterlimit:10;" x1="1449.249" y1="1853.426" x2="1855.865" y2="1853.426"/>
					
						<line style="fill:none;stroke:#B5D4FF;stroke-width:12;stroke-linecap:round;stroke-linejoin:round;stroke-miterlimit:10;" x1="1437.138" y1="1786.318" x2="2037.381" y2="1786.318"/>
					
						<line style="fill:none;stroke:#B5D4FF;stroke-width:12;stroke-linecap:round;stroke-linejoin:round;stroke-miterlimit:10;" x1="1425.027" y1="1719.21" x2="1981.012" y2="1719.21"/>
					
						<line style="fill:none;stroke:#B5D4FF;stroke-width:12;stroke-linecap:round;stroke-linejoin:round;stroke-miterlimit:10;" x1="1412.917" y1="1652.102" x2="2013.159" y2="1652.102"/>
				</g>
				<g>
					
						<line style="fill:none;stroke:#B5D4FF;stroke-width:12;stroke-linecap:round;stroke-linejoin:round;stroke-miterlimit:10;" x1="1375.714" y1="1445.954" x2="1782.33" y2="1445.954"/>
					
						<line style="fill:none;stroke:#B5D4FF;stroke-width:12;stroke-linecap:round;stroke-linejoin:round;stroke-miterlimit:10;" x1="1363.603" y1="1378.846" x2="1963.845" y2="1378.846"/>
					
						<line style="fill:none;stroke:#B5D4FF;stroke-width:12;stroke-linecap:round;stroke-linejoin:round;stroke-miterlimit:10;" x1="1351.492" y1="1311.738" x2="1907.477" y2="1311.738"/>
					
						<line style="fill:none;stroke:#B5D4FF;stroke-width:12;stroke-linecap:round;stroke-linejoin:round;stroke-miterlimit:10;" x1="1339.381" y1="1244.63" x2="1939.624" y2="1244.63"/>
					
						<line style="fill:none;stroke:#B5D4FF;stroke-width:12;stroke-linecap:round;stroke-linejoin:round;stroke-miterlimit:10;" x1="1304.889" y1="1053.5" x2="1651.21" y2="1053.5"/>
				</g>
				<g>
					<polygon style="fill:#B5D4FF;" points="1741.251,1571.566 1324.395,1571.566 1315.72,1523.499 1732.576,1523.499 					"/>
					<polygon style="fill:#B5D4FF;" points="2017.643,1983.389 1398.715,1983.389 1390.041,1935.323 2008.968,1935.323 					"/>
					
						<line style="fill:none;stroke:#B5D4FF;stroke-width:12;stroke-linecap:round;stroke-linejoin:round;stroke-miterlimit:10;" x1="3603.942" y1="1429.293" x2="3908.118" y2="1429.293"/>
					<g>
						
							<path style="fill:#FFFFFF;stroke:#B5D4FF;stroke-width:12;stroke-linecap:round;stroke-linejoin:round;stroke-miterlimit:10;" d="
							M3863.031,1115.796c5.342,58.874-39.1,102.343-99.265,97.091c-9.24-0.807-18.313-2.72-27.072-5.587l-23.888,138.679
							c20.786,6.803,42.314,11.343,64.241,13.257c142.763,12.463,248.219-90.684,235.542-230.384
							c-6.802-74.961-46.245-145.203-103.387-196.144l-89.741,100.428C3843.543,1054.603,3860.165,1084.205,3863.031,1115.796z"/>
						
							<path style="fill:#FFFFFF;stroke:#B5D4FF;stroke-width:12;stroke-linecap:round;stroke-linejoin:round;stroke-miterlimit:10;" d="
							M3649.261,1118.247l-143.922,16.42c28.366,96.98,109.668,179.303,207.467,211.312l23.888-138.679
							C3695.479,1193.81,3661.216,1159.117,3649.261,1118.247z"/>
						
							<path style="fill:#B5D4FF;stroke:#B5D4FF;stroke-width:12;stroke-linecap:round;stroke-linejoin:round;stroke-miterlimit:10;" d="
							M3649.261,1118.247c-2.047-7.001-3.443-14.182-4.104-21.47c-5.342-58.874,39.1-102.343,99.264-97.091
							c27.881,2.434,54.242,14.908,75.04,33.449l89.741-100.428c-49.352-43.995-111.902-73.595-178.061-79.371
							c-142.762-12.462-248.218,90.684-235.542,230.384c1.569,17.293,4.88,34.333,9.74,50.946L3649.261,1118.247z"/>
					</g>
					<g>
						
							<line style="fill:none;stroke:#B5D4FF;stroke-width:12;stroke-linecap:round;stroke-linejoin:round;stroke-miterlimit:10;" x1="2264.942" y1="1095.277" x2="2307.916" y2="1333.405"/>
						
							<line id="XMLID_00000163069054528625282640000009648521974104359079_" style="fill:none;stroke:#B5D4FF;stroke-width:12;stroke-linecap:round;stroke-linejoin:round;stroke-miterlimit:10;" x1="3204.002" y1="926.081" x2="3277.511" y2="1333.405"/>
						
							<line id="XMLID_00000050652717878316407410000000997294526699843222_" style="fill:none;stroke:#B5D4FF;stroke-width:12;stroke-linecap:round;stroke-linejoin:round;stroke-miterlimit:10;" x1="3137.15" y1="1003.368" x2="3196.711" y2="1333.405"/>
						
							<line id="XMLID_00000144337204006323728040000014947360423881492906_" style="fill:none;stroke:#B5D4FF;stroke-width:12;stroke-linecap:round;stroke-linejoin:round;stroke-miterlimit:10;" x1="3083.869" y1="1155.854" x2="3115.912" y2="1333.405"/>
						
							<line id="XMLID_00000168081944581760235760000000822989287906739879_" style="fill:none;stroke:#B5D4FF;stroke-width:12;stroke-linecap:round;stroke-linejoin:round;stroke-miterlimit:10;" x1="2988.745" y1="1076.478" x2="3035.112" y2="1333.405"/>
						
							<line id="XMLID_00000119093243356154410140000016531334093287904911_" style="fill:none;stroke:#B5D4FF;stroke-width:12;stroke-linecap:round;stroke-linejoin:round;stroke-miterlimit:10;" x1="2901.914" y1="1043.056" x2="2954.313" y2="1333.405"/>
						
							<line id="XMLID_00000109726216545894595230000006772026434258644877_" style="fill:none;stroke:#B5D4FF;stroke-width:12;stroke-linecap:round;stroke-linejoin:round;stroke-miterlimit:10;" x1="2829.408" y1="1089.011" x2="2873.513" y2="1333.405"/>
						
							<line id="XMLID_00000070119928742398269560000017414648985801857164_" style="fill:none;stroke:#B5D4FF;stroke-width:12;stroke-linecap:round;stroke-linejoin:round;stroke-miterlimit:10;" x1="2768.587" y1="1199.719" x2="2792.713" y2="1333.405"/>
						
							<line id="XMLID_00000124140045619430452920000004521760680214678716_" style="fill:none;stroke:#B5D4FF;stroke-width:12;stroke-linecap:round;stroke-linejoin:round;stroke-miterlimit:10;" x1="2663.662" y1="1066.033" x2="2711.914" y2="1333.405"/>
						
							<line id="XMLID_00000008110436046799996750000008890631824147091083_" style="fill:none;stroke:#B5D4FF;stroke-width:12;stroke-linecap:round;stroke-linejoin:round;stroke-miterlimit:10;" x1="2565.522" y1="969.946" x2="2631.114" y2="1333.405"/>
						
							<line id="XMLID_00000167360073489485511850000012049924457674284704_" style="fill:none;stroke:#B5D4FF;stroke-width:12;stroke-linecap:round;stroke-linejoin:round;stroke-miterlimit:10;" x1="2499.801" y1="1053.5" x2="2550.315" y2="1333.405"/>
						
							<line id="XMLID_00000126289878513193604730000001287317582082609556_" style="fill:none;stroke:#B5D4FF;stroke-width:12;stroke-linecap:round;stroke-linejoin:round;stroke-miterlimit:10;" x1="2448.028" y1="1214.341" x2="2469.515" y2="1333.405"/>
						
							<line id="XMLID_00000068663477131078372680000016367397984331657349_" style="fill:none;stroke:#B5D4FF;stroke-width:12;stroke-linecap:round;stroke-linejoin:round;stroke-miterlimit:10;" x1="2329.155" y1="1003.368" x2="2388.716" y2="1333.405"/>
					</g>
					<g>
						
							<path style="fill:none;stroke:#B5D4FF;stroke-width:12;stroke-linecap:round;stroke-linejoin:round;stroke-miterlimit:10;" d="
							M2199.883,1915.873c428.298-347.274,777.3,83.772,1139.171,286.13c361.872,202.358,468.138-283.133,723.25-222.364
							c204.568,48.729,417.378,222.364,417.378,222.364"/>
						
							<line style="fill:none;stroke:#B5D4FF;stroke-width:12;stroke-linecap:round;stroke-linejoin:round;stroke-miterlimit:10;" x1="4518.142" y1="2453.067" x2="4349.937" y2="1521.016"/>
						
							<line style="fill:none;stroke:#B5D4FF;stroke-width:12;stroke-linecap:round;stroke-linejoin:round;stroke-miterlimit:10;" x1="4251.741" y1="2420.362" x2="4101.896" y2="1590.042"/>
						
							<line style="fill:none;stroke:#B5D4FF;stroke-width:12;stroke-linecap:round;stroke-linejoin:round;stroke-miterlimit:10;" x1="3997.146" y1="2453.067" x2="3890.965" y2="1864.706"/>
						
							<line style="fill:none;stroke:#B5D4FF;stroke-width:12;stroke-linecap:round;stroke-linejoin:round;stroke-miterlimit:10;" x1="3730.745" y1="2420.362" x2="3583.535" y2="1604.65"/>
						
							<line style="fill:none;stroke:#B5D4FF;stroke-width:12;stroke-linecap:round;stroke-linejoin:round;stroke-miterlimit:10;" x1="3463.325" y1="2382.008" x2="3399.504" y2="2028.368"/>
						
							<line style="fill:none;stroke:#B5D4FF;stroke-width:12;stroke-linecap:round;stroke-linejoin:round;stroke-miterlimit:10;" x1="3209.748" y1="2420.362" x2="3181.645" y2="2264.637"/>
						
							<line style="fill:none;stroke:#B5D4FF;stroke-width:12;stroke-linecap:round;stroke-linejoin:round;stroke-miterlimit:10;" x1="2913.956" y1="2224.793" x2="2893.044" y2="2108.912"/>
						
							<line style="fill:none;stroke:#B5D4FF;stroke-width:12;stroke-linecap:round;stroke-linejoin:round;stroke-miterlimit:10;" x1="2688.752" y1="2420.362" x2="2615.155" y2="2012.548"/>
						
							<line style="fill:none;stroke:#B5D4FF;stroke-width:12;stroke-linecap:round;stroke-linejoin:round;stroke-miterlimit:10;" x1="2434.156" y1="2453.067" x2="2402.115" y2="2275.523"/>
						
							<polyline style="fill:none;stroke:#B5D4FF;stroke-width:12;stroke-linecap:round;stroke-linejoin:round;stroke-miterlimit:10;" points="
							2402.115,2275.523 2615.155,2012.548 2891.445,2100.057 3181.217,2262.263 3399.504,2028.368 3583.535,1604.65 
							3890.965,1864.706 4101.896,1590.042 4349.937,1521.016 						"/>
						
							<ellipse transform="matrix(0.6627 -0.7489 0.7489 0.6627 -893.868 2566.4841)" style="fill:#FFFFFF;stroke:#B5D4FF;stroke-width:12;stroke-linecap:round;stroke-linejoin:round;stroke-miterlimit:10;" cx="2402.115" cy="2275.523" rx="27.366" ry="32.756"/>
						
							<ellipse transform="matrix(0.6627 -0.7489 0.7489 0.6627 -625.0671 2637.3269)" style="fill:#FFFFFF;stroke:#B5D4FF;stroke-width:12;stroke-linecap:round;stroke-linejoin:round;stroke-miterlimit:10;" cx="2615.155" cy="2012.548" rx="27.366" ry="32.756"/>
						
							<ellipse transform="matrix(0.6627 -0.7489 0.7489 0.6627 -598.4382 2874.4307)" style="fill:#FFFFFF;stroke:#B5D4FF;stroke-width:12;stroke-linecap:round;stroke-linejoin:round;stroke-miterlimit:10;" cx="2891.714" cy="2101.547" rx="27.366" ry="32.756"/>
						
							<ellipse transform="matrix(0.6627 -0.7489 0.7489 0.6627 -619.7554 3144.5349)" style="fill:#FFFFFF;stroke:#B5D4FF;stroke-width:12;stroke-linecap:round;stroke-linejoin:round;stroke-miterlimit:10;" cx="3180.854" cy="2260.255" rx="27.366" ry="32.756"/>
						
							<ellipse transform="matrix(0.6627 -0.7489 0.7489 0.6627 -372.3427 3230.0642)" style="fill:#FFFFFF;stroke:#B5D4FF;stroke-width:12;stroke-linecap:round;stroke-linejoin:round;stroke-miterlimit:10;" cx="3399.504" cy="2028.368" rx="27.366" ry="32.756"/>
						
							<ellipse transform="matrix(0.6627 -0.7489 0.7489 0.6627 7.0541 3224.9604)" style="fill:#FFFFFF;stroke:#B5D4FF;stroke-width:12;stroke-linecap:round;stroke-linejoin:round;stroke-miterlimit:10;" cx="3583.535" cy="1604.65" rx="27.366" ry="32.756"/>
						
							<ellipse transform="matrix(0.6627 -0.7489 0.7489 0.6627 -84.0283 3542.8491)" style="fill:#FFFFFF;stroke:#B5D4FF;stroke-width:12;stroke-linecap:round;stroke-linejoin:round;stroke-miterlimit:10;" cx="3890.965" cy="1864.706" rx="27.366" ry="32.756"/>
						
							<ellipse transform="matrix(0.6627 -0.7489 0.7489 0.6627 192.8664 3608.2766)" style="fill:#FFFFFF;stroke:#B5D4FF;stroke-width:12;stroke-linecap:round;stroke-linejoin:round;stroke-miterlimit:10;" cx="4101.896" cy="1590.042" rx="27.366" ry="32.756"/>
						
							<ellipse transform="matrix(0.6627 -0.7489 0.7489 0.6627 328.2104 3770.718)" style="fill:#FFFFFF;stroke:#B5D4FF;stroke-width:12;stroke-linecap:round;stroke-linejoin:round;stroke-miterlimit:10;" cx="4349.937" cy="1521.016" rx="27.366" ry="32.756"/>
					</g>
				</g>
				
					<polyline style="fill:none;stroke:#B5D4FF;stroke-width:12;stroke-linecap:round;stroke-linejoin:round;stroke-miterlimit:10;" points="
					2154.562,1664.742 2311.23,2532.868 4587.872,2532.868 				"/>
			</g>
			
				<path style="fill:#FFFFFF;stroke:#B5D4FF;stroke-width:12;stroke-linecap:round;stroke-linejoin:round;stroke-miterlimit:10;" d="
				M3410.544,1493.158h-1198.99c-23.172,0-45.328-18.676-49.485-41.714l0,0c-4.158-23.038,11.257-41.714,34.429-41.714h1198.99
				c23.172,0,45.328,18.676,49.485,41.714l0,0C3449.131,1474.482,3433.717,1493.158,3410.544,1493.158z"/>
			
				<path style="fill:#B5D4FF;stroke:#B5D4FF;stroke-width:12;stroke-linecap:round;stroke-linejoin:round;stroke-miterlimit:10;" d="
				M2621.886,1493.158c-224.964,0-410.333,0-410.333,0c-23.172,0-45.328-18.676-49.485-41.714l0,0
				c-4.158-23.038,11.257-41.714,34.429-41.714c0,0,185.37,0,410.335,0L2621.886,1493.158z"/>
			<g>
				
					<ellipse transform="matrix(0.6627 -0.7489 0.7489 0.6627 -129.8889 1062.7166)" style="fill:#B5D4FF;stroke:#B5D4FF;stroke-width:12;stroke-linecap:round;stroke-linejoin:round;stroke-miterlimit:10;" cx="1114.765" cy="675.546" rx="37.926" ry="45.396"/>
				
					<ellipse transform="matrix(0.6627 -0.7489 0.7489 0.6627 -82.5311 1167.8615)" style="fill:none;stroke:#B5D4FF;stroke-width:12;stroke-linecap:round;stroke-linejoin:round;stroke-miterlimit:10;" cx="1255.149" cy="675.546" rx="37.926" ry="45.396"/>
				
					<ellipse transform="matrix(0.6627 -0.7489 0.7489 0.6627 -35.1849 1272.9756)" style="fill:none;stroke:#B5D4FF;stroke-width:12;stroke-linecap:round;stroke-linejoin:round;stroke-miterlimit:10;" cx="1395.532" cy="675.546" rx="37.926" ry="45.396"/>
			</g>
			<g>
				<g>
					
						<line style="fill:none;stroke:#B5D4FF;stroke-width:12;stroke-linecap:round;stroke-linejoin:round;stroke-miterlimit:10;" x1="4167.145" y1="642.543" x2="4244.149" y2="707.454"/>
					
						<line style="fill:none;stroke:#B5D4FF;stroke-width:12;stroke-linecap:round;stroke-linejoin:round;stroke-miterlimit:10;" x1="4232.434" y1="642.543" x2="4178.859" y2="707.454"/>
				</g>
				
					<polygon style="fill:none;stroke:#B5D4FF;stroke-width:12;stroke-linecap:round;stroke-linejoin:round;stroke-miterlimit:10;" points="
					4085.703,707.454 4020.414,707.454 4008.7,642.543 4073.989,642.543 				"/>
			</g>
		</g>
	</g>
	<g>
		<g>
			<g>
				
					<rect x="1194.932" y="3857.618" transform="matrix(-1 -1.224647e-16 1.224647e-16 -1 5685.6484 7803.8042)" style="fill:#FFFFFF;" width="3295.785" height="88.567"/>
				
					<line style="fill:none;stroke:#383838;stroke-width:12;stroke-linecap:round;stroke-linejoin:round;stroke-miterlimit:10;" x1="4506.186" y1="3857.618" x2="574.873" y2="3857.618"/>
				
					<line style="fill:none;stroke:#383838;stroke-width:12;stroke-linecap:round;stroke-linejoin:round;stroke-miterlimit:10;" x1="4694.02" y1="3946.186" x2="1249.916" y2="3946.186"/>
			</g>
		</g>
	</g>
	<g>
		<path style="fill:#B5D4FF;" d="M1408.201,3005.228l-342.404,646.052c-49.187,92.806,18.087,204.599,123.122,204.599h669.913
			l-134.036-7.54c-115.386-6.491-199.541-111.795-180.428-225.772l101.589-605.813L1408.201,3005.228z"/>
		<path style="fill:none;stroke:#383838;stroke-width:12;stroke-linecap:round;stroke-linejoin:round;stroke-miterlimit:10;" d="
			M1858.832,3855.879l-134.036-7.54c-115.386-6.491-199.541-111.795-180.428-225.772l101.589-605.813l-237.756-11.525
			l-342.404,646.052c-49.187,92.806,18.087,204.599,123.122,204.599"/>
		<g>
			<path style="fill:#FFFFFF;" d="M408.178,3476.727L141.751,2019.758c-2.985-16.324,4.253-32.584,16.694-42.998
				c8.327-6.97,57.202-32.683,68.686-32.683l2222.516,21.362c28.559,0,51.703,18.756,56.671,45.926l266.424,1456.969
				c4.983,27.25-18.52,54.319-47.162,54.319H464.849C436.291,3522.653,413.146,3503.897,408.178,3476.727z"/>
			<path style="fill:#B5D4FF;" d="M2814.474,3446.971l-266.425-1456.969c-4.968-27.17-28.113-45.926-56.671-45.926H230.644
				c-28.642,0-52.145,27.07-47.162,54.319L449.91,3455.365c4.969,27.17,28.113,45.926,56.671,45.926h2260.731
				C2795.954,3501.291,2819.457,3474.221,2814.474,3446.971z"/>
			<path style="fill:none;stroke:#383838;stroke-width:12;stroke-linecap:round;stroke-linejoin:round;stroke-miterlimit:10;" d="
				M1003.427,1944.076h1487.952c28.559,0,51.703,18.756,56.671,45.926l266.424,1456.969c4.983,27.25-18.52,54.319-47.162,54.319"/>
			<polygon style="fill:#FFFFFF;" points="518.061,3432.467 2739.485,3432.467 2479.898,2012.896 258.474,2012.896 			"/>
			<path style="fill:none;stroke:#383838;stroke-width:12;stroke-linecap:round;stroke-linejoin:round;stroke-miterlimit:10;" d="
				M2585.424,2194.388l229.05,1252.583c4.983,27.25-18.52,54.319-47.162,54.319H1096.146"/>
			<path style="fill:none;stroke:#383838;stroke-width:12;stroke-linecap:round;stroke-linejoin:round;stroke-miterlimit:10;" d="
				M315.928,2722.682l-132.446-724.286c-4.983-27.25,18.52-54.319,47.162-54.319h254.157"/>
			<g>
				<path style="fill:#4187E8;stroke:#4187E8;stroke-miterlimit:10;" d="M1431.965,2942.527l-795.717-11.365
					c0,0-41.61,235.242-88.689,501.306h878.36L1431.965,2942.527z"/>
			</g>
			<g>
				<path style="fill:#A9B5C4;" d="M514.24,1705.329c273.638-125.091,741.939-127.881,821.972-24.981
					c80.034,102.901-52.423,1262.181-52.423,1262.181l-647.541-11.367C636.248,2931.162,297.495,1804.412,514.24,1705.329z"/>
				
					<line style="fill:none;stroke:#383838;stroke-width:12;stroke-linecap:round;stroke-linejoin:round;stroke-miterlimit:10;" x1="636.248" y1="2931.162" x2="1283.789" y2="2942.529"/>
			</g>
			<path style="fill:#FFFFFF;" d="M791.996,1641.017c358.5-85.877,609.027,185.175,263.431,251.109
				C709.83,1958.06,631.193,1679.536,791.996,1641.017z"/>
			<g>
				<polygon style="fill:#FFFFFF;" points="1350.802,3432.469 2693.326,3432.469 2246.513,961.052 903.989,961.051 				"/>
				
					<polyline style="fill:#FFFFFF;stroke:#B5D4FF;stroke-width:12;stroke-linecap:round;stroke-linejoin:round;stroke-miterlimit:10;" points="
					2693.326,3432.469 2246.513,961.052 903.989,961.051 1350.802,3432.469 				"/>
				<path style="fill:none;stroke:#B5D4FF;stroke-width:12;stroke-linecap:round;stroke-linejoin:round;stroke-miterlimit:10;" d="
					M2246.513,961.052c0,0,262.496,1451.922,445.973,2466.771"/>
				<path style="fill:none;stroke:#B5D4FF;stroke-width:12;stroke-linecap:round;stroke-linejoin:round;stroke-miterlimit:10;" d="
					M903.989,961.051c0,0,262.496,1451.922,445.973,2466.771"/>
				<g>
					<g>
						<g>
							<path style="fill:#4187E8;stroke:#B5D4FF;stroke-miterlimit:10;" d="M1234.639,1380.979
								c20.426-56.499,55.401-104.827,101.524-141.034L1625,1573.952L1234.639,1380.979z"/>
							<path style="fill:#A9B5C4;" d="M1433.667,1317.459c56.921-44.682,130.844-70.878,215.637-70.878
								c205.7,0,403.219,153.914,464.658,353.005l-391.458,51.879L1433.667,1317.459z"/>
							<path style="fill:#B5D4FF;" d="M2113.962,1599.587c5.246,16.999,9.616,34.288,12.796,51.879
								c40.427,223.611-107.791,404.883-331.054,404.883c-165.524,0-325.751-99.683-414.068-242.341l340.868-162.542
								L2113.962,1599.587z"/>
							<path style="fill:#A9B5C4;" d="M1332.143,1458.493l390.361,192.973l-340.868,162.542
								c-30.807-49.763-52.931-104.714-63.386-162.543C1305.618,1581.595,1311.404,1515.858,1332.143,1458.493z"/>
						</g>
					</g>
				</g>
				<g>
					
						<polygon style="fill:none;stroke:#B5D4FF;stroke-width:12;stroke-linecap:round;stroke-linejoin:round;stroke-miterlimit:10;" points="
						1418.346,3241.834 2519.913,3241.835 2384.469,2492.664 1282.902,2492.664 					"/>
					<polygon style="fill:#B5D4FF;" points="2301.477,2761.768 2359.409,2761.768 2430.24,3153.545 2372.307,3153.545 					"/>
					<polygon style="fill:#B5D4FF;" points="2201.781,2905.01 2259.714,2905.01 2304.647,3153.545 2246.715,3153.545 					"/>
					<polygon style="fill:#A9B5C4;" points="2024.395,2618.525 2082.328,2618.525 2179.055,3153.545 2121.123,3153.545 					"/>
					<polygon style="fill:#B5D4FF;" points="1978.415,3058.878 2036.348,3058.878 2053.463,3153.545 1995.53,3153.545 					"/>
					<polygon style="fill:#B5D4FF;" points="1815.521,2852.555 1873.454,2852.555 1927.871,3153.545 1869.938,3153.545 					"/>
					<polygon style="fill:#A9B5C4;" points="1711.814,2973.605 1769.747,2973.605 1802.279,3153.545 1744.346,3153.545 					"/>
					<polygon style="fill:#B5D4FF;" points="1541.358,2725.453 1599.291,2725.453 1676.686,3153.545 1618.754,3153.545 					"/>
					<polygon style="fill:#A9B5C4;" points="1448.228,2905.01 1506.161,2905.01 1551.094,3153.545 1493.162,3153.545 					"/>
					
						<line style="fill:none;stroke:#B5D4FF;stroke-width:12;stroke-linecap:round;stroke-linejoin:round;stroke-miterlimit:10;" x1="2430.24" y1="3153.545" x2="1493.162" y2="3153.545"/>
				</g>
				<polygon style="fill:#B5D4FF;" points="1234.012,2222.243 2335.579,2222.243 2322.387,2149.278 1220.82,2149.278 				"/>
				<polygon style="fill:#B5D4FF;" points="1068.534,1152.417 1938.675,1152.417 1925.483,1079.452 1055.342,1079.452 				"/>
				<polygon style="fill:#B5D4FF;" points="1268.066,2350.892 2203.33,2350.892 2190.138,2277.927 1254.875,2277.927 				"/>
			</g>
			<path style="fill:#A9B5C4;" d="M514.24,1705.329c-285.835,114.334-279.431,796.886-137.267,920.464
				c142.164,123.578,325.112-46.676,279.372-301.693C610.604,2069.084,514.24,1705.329,514.24,1705.329z"/>
			<path style="fill:none;stroke:#383838;stroke-width:12;stroke-linecap:round;stroke-linejoin:round;stroke-miterlimit:10;" d="
				M514.24,1705.329c-285.835,114.334-279.431,796.886-137.267,920.464"/>
			<g>
				
					<path style="fill:#FFFFFF;stroke:#383838;stroke-width:12;stroke-linecap:round;stroke-linejoin:round;stroke-miterlimit:10;" d="
					M398.334,2582c221.093,174.821,764.449-472.307,731.125-495.899C1001.659,1995.621,240.84,2457.468,398.334,2582z"/>
				
					<path style="fill:#FFFFFF;stroke:#383838;stroke-width:12;stroke-linecap:round;stroke-linejoin:round;stroke-miterlimit:10;" d="
					M1273.415,2111.642c100.622,120.159,101.391,151.866,81.469,162.382s-120.088-92.361-124.008-118.273
					C1226.957,2129.84,1273.415,2111.642,1273.415,2111.642z"/>
				
					<path style="fill:#FFFFFF;stroke:#383838;stroke-width:12;stroke-linecap:round;stroke-linejoin:round;stroke-miterlimit:10;" d="
					M1265.585,2086.063c74.951,44.585,235.484,76.837,230.721,90.917c-8.736,25.828-155.098,10.334-197.349-9.535
					C1256.706,2147.577,1265.585,2086.063,1265.585,2086.063z"/>
				<g>
					<path style="fill:#FFFFFF;" d="M1016.609,2083.502c212.628-31.583,265.38-7.272,296.562,44.531
						c31.183,51.803-14.352,144.63-36.172,162.971c-21.82,18.342-29.224-22.094-29.224-22.094s-20.425,27.461-39.965,24.562
						s-8.885-31.809-8.885-31.809s-13.037,25.542-41.391,14.299c-28.354-11.243,6.471-56.27,6.471-56.27
						s-55.854,29.577-104.32-26.332C1011.219,2137.453,1016.609,2083.502,1016.609,2083.502z"/>
					<path style="fill:none;stroke:#383838;stroke-width:12;stroke-linecap:round;stroke-linejoin:round;stroke-miterlimit:10;" d="
						M1322.8,2156.568c7.146,51.926-27.589,119.128-45.801,134.437c-21.82,18.342-29.224-22.094-29.224-22.094
						s-20.425,27.461-39.965,24.562s-8.885-31.809-8.885-31.809s-13.037,25.542-41.391,14.299
						c-28.354-11.243,6.471-56.27,6.471-56.27s-55.854,29.577-104.32-26.332"/>
					<path style="fill:none;stroke:#383838;stroke-width:12;stroke-linecap:round;stroke-linejoin:round;stroke-miterlimit:10;" d="
						M1006.712,2086.068c182.198-35.26,266.641-13.115,299.165,30.98"/>
					<path style="fill:none;stroke:#383838;stroke-width:12;stroke-linecap:round;stroke-linejoin:round;stroke-miterlimit:10;" d="
						M1222.349,2205.976c0.415,33.751-23.424,55.688-23.424,55.688"/>
					<path style="fill:none;stroke:#383838;stroke-width:12;stroke-linecap:round;stroke-linejoin:round;stroke-miterlimit:10;" d="
						M1275.395,2200.959c-6.595,43.441-27.62,67.952-27.62,67.952"/>
				</g>
			</g>
			<g>
				
					<path style="fill:#FFFFFF;stroke:#383838;stroke-width:12;stroke-linecap:round;stroke-linejoin:round;stroke-miterlimit:10;" d="
					M1929.093,890.098c-48.705,9.366-93.663,159.228-76.804,162.974c16.859,3.746,93.663-108.65,93.663-108.65
					s-14.986,114.27,13.113,118.016c28.099,3.747,26.226-48.705,26.226-48.705s5.62,37.465,24.353,37.465
					c18.733,0,14.986-50.578,14.986-50.578s11.24,28.099,26.226,26.226c14.986-1.873,46.832-66.4,46.832-66.4h43.085
					C2140.772,960.446,2020.147,872.588,1929.093,890.098z"/>
				<path style="fill:none;stroke:#383838;stroke-width:12;stroke-linecap:round;stroke-linejoin:round;stroke-miterlimit:10;" d="
					M1990.651,942.275c-9.195,33.183-5.36,71.458-5.36,71.458"/>
				<path style="fill:none;stroke:#383838;stroke-width:12;stroke-linecap:round;stroke-linejoin:round;stroke-miterlimit:10;" d="
					M2035.828,942.275c-11.594,27.986-11.198,58.346-11.198,58.346"/>
			</g>
			<path style="fill:none;stroke:#383838;stroke-width:12;stroke-linecap:round;stroke-linejoin:round;stroke-miterlimit:10;" d="
				M331.454,2557.935c-41.447-163.66,220.295-306.11,247.483-257.086"/>
			<path style="fill:none;stroke:#383838;stroke-width:12;stroke-linecap:round;stroke-linejoin:round;stroke-miterlimit:10;" d="
				M531.113,1770.465c132.39,214.262,105.135,382.234,105.135,382.234"/>
			<g>
				<path style="fill:#383838;" d="M1072.196,914.106c200.023,61.395,47.855,368.569,163.235,481.03
					c-116.645,259.847-491.045,203.357-607.154,62.675c-116.109-140.682-1.142-489.412,181.704-579.249
					C958.943,805.373,1072.196,914.106,1072.196,914.106z"/>
				<path style="fill:#FFFFFF;" d="M769.148,1267.128l-22.467,401.187c-16.719,295.433,309.591,112.591,277.231-43.945
					l-44.952-311.44L769.148,1267.128z"/>
				
					<line style="fill:#FFFFFF;stroke:#383838;stroke-width:12;stroke-linecap:round;stroke-linejoin:round;stroke-miterlimit:10;" x1="741.902" y1="1703.446" x2="769.148" y2="1267.128"/>
				
					<line style="fill:#FFFFFF;stroke:#383838;stroke-width:12;stroke-linecap:round;stroke-linejoin:round;stroke-miterlimit:10;" x1="1033.84" y1="1685.046" x2="975.98" y2="1288.954"/>
				<path style="fill:#383838;" d="M880.019,1076.764c-104.493,307.27,11.911,624.893,11.911,624.893
					s-230.516,70.814-352.928-45.156C416.59,1540.531,533.012,1197.612,880.019,1076.764z"/>
				<path style="fill:#FFFFFF;" d="M867.813,1194.691c43.547-155.869,186.792-86.815,158.916-230.128
					c54.487-10.645,102.579,31.68,120.544,87.687c50.973,158.913,0.637,338.257-86.396,378.329s-227.038-123.298-218.24-152.678
					C768.518,1282.33,780.409,1085.318,867.813,1194.691z"/>
				<path style="fill:none;stroke:#383838;stroke-width:12;stroke-linecap:round;stroke-linejoin:round;stroke-miterlimit:10;" d="
					M1026.729,964.564c54.487-10.645,102.579,31.68,120.544,87.687c50.973,158.913,0.637,338.257-86.396,378.329
					c-48.831,22.483-114.339-19.078-160.883-65.083"/>
			</g>
		</g>
		
			<rect x="1186.682" y="3784.708" style="fill:#B5D4FF;stroke:#383838;stroke-width:12;stroke-linecap:round;stroke-linejoin:round;stroke-miterlimit:10;" width="1573.965" height="71.171"/>
		
			<rect x="1705.195" y="3784.708" style="fill:#B5D4FF;stroke:#383838;stroke-width:12;stroke-linecap:round;stroke-linejoin:round;stroke-miterlimit:10;" width="1573.965" height="71.171"/>
		
			<polyline style="fill:none;stroke:#383838;stroke-width:12;stroke-linecap:round;stroke-linejoin:round;stroke-miterlimit:10;" points="
			434.614,2976.132 518.061,3432.467 2676.806,3430.553 		"/>
	</g>
	<g>
		<g>
			
				<ellipse transform="matrix(0.9713 -0.2379 0.2379 0.9713 -421.3728 821.304)" style="fill:none;stroke:#383838;stroke-width:12;stroke-linecap:round;stroke-linejoin:round;stroke-miterlimit:10;" cx="3191.675" cy="2156.245" rx="32.303" ry="66.669"/>
			
				<path style="fill:#FFFFFF;stroke:#383838;stroke-width:12;stroke-linecap:round;stroke-linejoin:round;stroke-miterlimit:10;" d="
				M3667.498,2251.858c158.885-138.096,102.458-420.228-130.672-442.502s-259.858,37.123-286.587,112.853
				c-26.728,75.73-47.646,113.245-56.427,157.842c-8.67,44.038,20.411,52.606,19.304,94.592
				c-0.475,18.025-35.393,76.104-40.092,105.428c-2.483,15.497,44.547,25.243,44.547,25.243s5.94,177.986,71.275,215.953
				C3354.183,2559.234,3590.75,2398.053,3667.498,2251.858z"/>
			<polygon style="fill:#FFFFFF;" points="3587.188,2127.447 3789.481,2636.277 3458.237,2699.01 3392.02,2186.694 			"/>
			
				<polyline style="fill:#FFFFFF;stroke:#383838;stroke-width:12;stroke-linecap:round;stroke-linejoin:round;stroke-miterlimit:10;" points="
				3587.188,2127.447 3789.481,2636.277 3458.237,2699.01 3382.083,2454.251 			"/>
			<path style="fill:#2E2E2E;" d="M3681.834,2365.512c62.462-247.438,187.612-355.693,92.578-475.971
				c-95.034-120.277-242.04-83.155-246.494-92.064c-4.455-8.909-150.048-80.242-232.291-38.084
				c-158.24,81.115-45.387,223.698-45.387,223.698s44.547,133.641,51.972,203.432c7.424,69.791-23.482,134.734-76.938,145.128
				c-53.457,10.394-87.218,216.852,17.253,230.803c34.147,4.56,131.543-9.168,159.394-44.445l-12.047-38.719
				c-81.603-7.143-43.683-205.003-50.539-328.404c-7.425-133.642,170.292-100.355,113.837,49.438
				C3416.63,2297.279,3595.71,2358.088,3681.834,2365.512z"/>
			<path style="fill:none;stroke:#383838;stroke-width:12;stroke-linecap:round;stroke-linejoin:round;stroke-miterlimit:10;" d="
				M3191.675,1887.001c10.209,39.324,34.029,73.563,67.196,96.089"/>
			<g>
				<path style="fill:#FFFFFF;" d="M3343.631,2110.738c18.042-41.217,60.197-70.627,87.493-40.401
					c34.096,37.758,15.559,116.372-21.34,138.542C3399.523,2169.393,3377.23,2133.142,3343.631,2110.738z"/>
				
					<line style="fill:none;stroke:#383838;stroke-width:12;stroke-linecap:round;stroke-linejoin:round;stroke-miterlimit:10;" x1="3374.008" y1="2164.58" x2="3403.299" y2="2102.077"/>
				<path style="fill:none;stroke:#383838;stroke-width:12;stroke-linecap:round;stroke-linejoin:round;stroke-miterlimit:10;" d="
					M3341.55,2115.792c16.674-43.799,61.173-76.904,89.573-45.454c40.762,45.139,6.305,148.682-44.824,144.356"/>
			</g>
			<path style="fill:none;stroke:#383838;stroke-width:12;stroke-linecap:round;stroke-linejoin:round;stroke-miterlimit:10;" d="
				M3353.87,2091.094c-16.495,4.124-215.814,56.359-215.814,56.359"/>
		</g>
		<g>
			<g>
				<g>
					<g>
						<path style="fill:#2E2E2E;" d="M4004.668,4408.839c-98.189-44.968-485.704-176.931-501.247-176.083
							c-3.53,0.193-37.486,68.247-89.132,176.083H4004.668z"/>
						<path style="fill:#2E2E2E;" d="M4508.795,4408.839c68.55-186.723-83.536-420.579-83.536-420.579l-471.367-41.506
							l-1245.105,253.864c-108.751,20.603-164.555,106.507-175.361,208.222H4508.795z"/>
					</g>
				</g>
			</g>
		</g>
		<path style="fill:#FFFFFF;stroke:#383838;stroke-width:12;stroke-linecap:round;stroke-linejoin:round;stroke-miterlimit:10;" d="
			M2828.958,3029.607l-312.198,545.829c-48.134,84.154-23.618,191.162,56.352,245.967l0,0c58.702,40.231,135.206,43.471,197.1,8.349
			l578.329-328.178l202.008,48.673v-151.916l-211.916-58.348l-258.652,32.412l263.073-433.515L2828.958,3029.607z"/>
		<path style="fill:#FFFFFF;stroke:#383838;stroke-width:12;stroke-linecap:round;stroke-linejoin:round;stroke-miterlimit:10;" d="
			M4295.303,2746.448c120.401,185.01,332.62,506.725,479.724,729.351c70.233,106.29-3.721,248.351-131.072,251.806l-663.595,18.005
			l-33.347-155.621l423.873-118.101l-381.352-504.27c-74.036-92.421-45.767-229.388,58.81-284.945l0,0
			C4134.765,2636.762,4241.926,2664.429,4295.303,2746.448z"/>
		<path style="fill:#4187E8;" d="M3348.542,2600.203c277.98-204.438,476.144-133.417,482.739-42.308
			C3837.875,2649.004,3348.542,2600.203,3348.542,2600.203z"/>
		<path style="fill:#4187E8;" d="M2622.198,3316.857l418.84,152.892l143.029-135.536c0,0,193.496,486.557,370.119,694.037
			c176.623,207.479,849.084,78.887,879.31-16.49c30.226-95.378-58.901-657.892-58.901-657.892l287.534-175.702l-243.309-336.503
			c-125.832-174.03-323.841-281.548-538.326-292.33c-98.334-4.943-196.882-9.268-263.248-10.622
			c-75.64-1.543-189.866,15.023-297.4,34.879c-180.215,33.275-340.425,135.321-447.024,284.388L2622.198,3316.857z"/>
		<path style="fill:none;stroke:#383838;stroke-width:12;stroke-linecap:round;stroke-linejoin:round;stroke-miterlimit:10;" d="
			M3306.033,2576.294c372.249-68.419,640.979-20.461,640.979-20.461"/>
		
			<polyline style="fill:none;stroke:#383838;stroke-width:12;stroke-linecap:round;stroke-linejoin:round;stroke-miterlimit:10;" points="
			2622.198,3316.857 3041.037,3469.749 3222.341,3297.944 		"/>
		
			<line style="fill:#FFFFFF;stroke:#383838;stroke-width:12;stroke-linecap:round;stroke-linejoin:round;stroke-miterlimit:10;" x1="2678.72" y1="3213.367" x2="3088.765" y2="3424.522"/>
		<path style="fill:none;stroke:#383838;stroke-width:12;stroke-linecap:round;stroke-linejoin:round;stroke-miterlimit:10;" d="
			M3258.871,3363.944c84.759,353.025,358.7,664.917,358.7,664.917"/>
		<path style="fill:none;stroke:#383838;stroke-width:12;stroke-linecap:round;stroke-linejoin:round;stroke-miterlimit:10;" d="
			M4165.291,2699.01c161.658,218.079,215.514,684.474,215.514,684.474"/>
		
			<ellipse transform="matrix(0.7071 -0.7071 0.7071 0.7071 -268.6818 2906.4116)" style="fill:#2E2E2E;" cx="3374.008" cy="1777.534" rx="92.159" ry="92.159"/>
		
			<ellipse transform="matrix(0.7071 -0.7071 0.7071 0.7071 -534.8208 3272.5518)" style="fill:#2E2E2E;" cx="3682.909" cy="2281.862" rx="92.159" ry="92.159"/>
		
			<ellipse transform="matrix(0.0825 -0.9966 0.9966 0.0825 1461.9641 5572.7217)" style="fill:#2E2E2E;" cx="3757.475" cy="1992.382" rx="92.159" ry="92.159"/>
		
			<ellipse transform="matrix(0.7071 -0.7071 0.7071 0.7071 -560.3985 3210.8015)" style="fill:#2E2E2E;" cx="3595.581" cy="2281.862" rx="92.159" ry="92.159"/>
		
			<ellipse transform="matrix(0.7071 -0.7071 0.7071 0.7071 -266.7588 2981.1628)" style="fill:#2E2E2E;" cx="3465.203" cy="1812.588" rx="92.159" ry="92.159"/>
		<circle style="fill:#2E2E2E;" cx="3730.808" cy="2135.167" r="113.237"/>
		<circle style="fill:#2E2E2E;" cx="3695.62" cy="1890.771" r="113.237"/>
		<circle style="fill:#2E2E2E;" cx="3562.327" cy="1830.839" r="113.237"/>
		
			<line style="fill:#FFFFFF;stroke:#383838;stroke-width:12;stroke-linecap:round;stroke-linejoin:round;stroke-miterlimit:10;" x1="3025.294" y1="3464.002" x2="2868.358" y2="3631.457"/>
		<path style="fill:none;stroke:#383838;stroke-width:12;stroke-linecap:round;stroke-linejoin:round;stroke-miterlimit:10;" d="
			M3757.475,2586.596c161.656,378.255,235.136,1078.121,235.136,1078.121"/>
		<path style="fill:#A9B5C4;stroke:#383838;stroke-width:12;stroke-linecap:round;stroke-linejoin:round;stroke-miterlimit:10;" d="
			M4376.027,4387.459c-52.564,16.143-110.457,27.745-174.081,34.14c-17.091,1.712-34.582,3.067-52.49,4.018
			c-21.513,1.141-43.635,1.736-66.36,1.736c-1097.377,0-214.672-1448.17,326.196-1448.17
			C4775.443,2979.183,5135.622,4154.451,4376.027,4387.459z"/>
		<path style="fill:none;stroke:#383838;stroke-width:12;stroke-linecap:round;stroke-linejoin:round;stroke-miterlimit:10;" d="
			M4490.391,3058.978c-129.506-144.818-771.53,322.147-820.54,966.441"/>
		<path style="fill:#2E2E2E;stroke:#383838;stroke-width:12;stroke-linecap:round;stroke-linejoin:round;stroke-miterlimit:10;" d="
			M4452.558,3876.176l-76.531,511.284c-66.661,20.47-141.914,33.665-226.57,38.157l82.243-549.441
			c3.466-23.156,16.133-44.219,33.727-59.482c17.594-15.263,40.141-24.749,63.367-24.749h51.888
			C4427.132,3791.944,4459.494,3829.84,4452.558,3876.176z"/>
		<path style="fill:none;stroke:#383838;stroke-width:12;stroke-linecap:round;stroke-linejoin:round;stroke-miterlimit:10;" d="
			M4201.947,4421.599l81.641-545.423c5.18-34.606,30.857-64.505,62.887-77.424"/>
	</g>
	<rect x="1807.006" y="4409.3" style="fill:#FFFFFF;" width="2546.48" height="231.77"/>
</g>
<line style="fill:none;stroke:#383838;stroke-width:12;stroke-linecap:round;stroke-linejoin:round;stroke-miterlimit:10;" x1="1505.666" y1="4408.839" x2="4593.876" y2="4408.839"/>
</svg>
