<?xml version="1.0" encoding="utf-8"?>
<!-- Generator: Adobe Illustrator 27.5.0, SVG Export Plug-In . SVG Version: 6.00 Build 0)  -->
<svg version="1.1" id="Layer_1" xmlns="http://www.w3.org/2000/svg" xmlns:xlink="http://www.w3.org/1999/xlink" x="0px" y="0px"
	 viewBox="0 0 4981.146 4981.146" style="enable-background:new 0 0 4981.146 4981.146;" xml:space="preserve">
<rect x="0" style="fill:#FFFFFF;" width="4981.146" height="4981.146"/>
<g>
	<path style="fill:#FFFFFF;stroke:#B5D4FF;stroke-width:12;stroke-linecap:round;stroke-linejoin:round;stroke-miterlimit:10;" d="
		M3199.919,1889.54H513.33c-62.818,0-113.741-50.924-113.741-113.741V504.934c0-62.817,50.924-113.741,113.741-113.741h2686.589
		c62.817,0,113.741,50.924,113.741,113.741v1270.865C3313.66,1838.616,3262.736,1889.54,3199.919,1889.54z"/>
	<g>
		
			<line style="fill:none;stroke:#B5D4FF;stroke-width:12;stroke-linecap:round;stroke-linejoin:round;stroke-miterlimit:10;" x1="885.268" y1="391.193" x2="885.268" y2="1889.54"/>
		
			<line style="fill:none;stroke:#B5D4FF;stroke-width:12;stroke-linecap:round;stroke-linejoin:round;stroke-miterlimit:10;" x1="1370.946" y1="391.193" x2="1370.946" y2="1889.54"/>
		
			<line style="fill:none;stroke:#B5D4FF;stroke-width:12;stroke-linecap:round;stroke-linejoin:round;stroke-miterlimit:10;" x1="1856.625" y1="391.193" x2="1856.625" y2="1889.54"/>
		
			<line style="fill:none;stroke:#B5D4FF;stroke-width:12;stroke-linecap:round;stroke-linejoin:round;stroke-miterlimit:10;" x1="2342.303" y1="391.193" x2="2342.303" y2="1889.54"/>
		
			<line style="fill:none;stroke:#B5D4FF;stroke-width:12;stroke-linecap:round;stroke-linejoin:round;stroke-miterlimit:10;" x1="2827.981" y1="391.193" x2="2827.981" y2="1889.54"/>
	</g>
	<g>
		
			<line style="fill:none;stroke:#B5D4FF;stroke-width:12;stroke-linecap:round;stroke-linejoin:round;stroke-miterlimit:10;" x1="399.589" y1="1514.953" x2="3313.66" y2="1514.953"/>
		
			<line style="fill:none;stroke:#B5D4FF;stroke-width:12;stroke-linecap:round;stroke-linejoin:round;stroke-miterlimit:10;" x1="399.589" y1="1140.367" x2="3313.66" y2="1140.367"/>
		
			<line style="fill:none;stroke:#B5D4FF;stroke-width:12;stroke-linecap:round;stroke-linejoin:round;stroke-miterlimit:10;" x1="399.589" y1="765.78" x2="3313.66" y2="765.78"/>
	</g>
	
		<polyline style="fill:none;stroke:#B5D4FF;stroke-width:12;stroke-linecap:round;stroke-linejoin:round;stroke-miterlimit:10;" points="
		629.308,1685.317 1549.263,974.365 2013.3,1458.375 3024.178,599.091 	"/>
	
		<circle style="fill:#FFFFFF;stroke:#B5D4FF;stroke-width:12;stroke-linecap:round;stroke-linejoin:round;stroke-miterlimit:10;" cx="629.308" cy="1685.317" r="55.847"/>
	
		<circle style="fill:#FFFFFF;stroke:#B5D4FF;stroke-width:12;stroke-linecap:round;stroke-linejoin:round;stroke-miterlimit:10;" cx="1549.263" cy="974.365" r="55.847"/>
	
		<ellipse transform="matrix(0.7071 -0.7071 0.7071 0.7071 464.7383 2312.8101)" style="fill:#FFFFFF;stroke:#B5D4FF;stroke-width:12;stroke-linecap:round;stroke-linejoin:round;stroke-miterlimit:10;" cx="3024.178" cy="595.416" rx="55.847" ry="55.847"/>
	
		<ellipse transform="matrix(0.929 -0.37 0.37 0.929 -396.5835 846.9824)" style="fill:#FFFFFF;stroke:#B5D4FF;stroke-width:12;stroke-linecap:round;stroke-linejoin:round;stroke-miterlimit:10;" cx="2009.786" cy="1457.382" rx="55.847" ry="55.847"/>
</g>
<g>
	<path style="fill:#FFFFFF;stroke:#B5D4FF;stroke-width:12;stroke-linecap:round;stroke-linejoin:round;stroke-miterlimit:10;" d="
		M2642.944,1685.317H1522.746c-41.948,0-75.954,34.006-75.954,75.954v733.333c0,41.948,34.006,75.954,75.954,75.954h1120.197
		c41.948,0,75.954-34.006,75.954-75.954v-733.333C2718.898,1719.323,2684.892,1685.317,2642.944,1685.317z"/>
	<rect x="1545.92" y="2159.358" style="fill:#B5D4FF;" width="228.32" height="310.919"/>
	<rect x="1824.885" y="1862.144" style="fill:#B5D4FF;" width="228.32" height="608.133"/>
	<rect x="2103.849" y="2034.216" style="fill:#B5D4FF;" width="228.32" height="436.062"/>
	<rect x="2382.813" y="1750.037" style="fill:#B5D4FF;" width="228.32" height="720.24"/>
	
		<polyline style="fill:none;stroke:#FFFFFF;stroke-width:12;stroke-linecap:round;stroke-linejoin:round;stroke-miterlimit:10;" points="
		2510.623,1817.975 2568.553,1817.975 2172.701,2191.3 1994.621,1967.091 1591.259,2388.69 	"/>
	
		<line style="fill:none;stroke:#FFFFFF;stroke-width:12;stroke-linecap:round;stroke-linejoin:round;stroke-miterlimit:10;" x1="2568.553" y1="1873.76" x2="2568.553" y2="1817.975"/>
</g>
<polygon style="fill:#A9B5C4;stroke:#383838;stroke-width:12;stroke-linecap:round;stroke-linejoin:round;stroke-miterlimit:10;" points="
	663.328,4681.243 743.908,4681.243 885.933,4246.803 731.666,4246.803 "/>
<polygon style="fill:#A9B5C4;stroke:#383838;stroke-width:12;stroke-linecap:round;stroke-linejoin:round;stroke-miterlimit:10;" points="
	2978.051,4681.243 2897.472,4681.243 2755.447,4246.803 2909.713,4246.803 "/>
<g>
	<g>
		<path style="fill:#FFFFFF;" d="M3793.534,3909.654H2404.878c-59.875,0-101.051-47.328-91.969-105.709L2761.89,955.39
			c9.082-58.382,64.982-105.709,124.857-105.709h1388.657c59.875,0,101.051,47.328,91.969,105.709l-448.981,2848.555
			C3909.31,3862.327,3853.409,3909.654,3793.534,3909.654z"/>
		<path style="fill:#FFFFFF;stroke:#383838;stroke-width:12;stroke-linecap:round;stroke-linejoin:round;stroke-miterlimit:10;" d="
			M2547.596,2314.975L2761.89,955.39c9.082-58.382,64.982-105.709,124.857-105.709h1388.657c59.875,0,101.051,47.328,91.969,105.709
			l-448.981,2848.555c-9.082,58.381-64.982,105.709-124.857,105.709H2404.878c-59.875,0-101.051-47.328-91.969-105.709
			l188.926-1198.637"/>
		<path style="fill:#FFFFFF;" d="M3765.114,928.796c-52.102,0-103.416,27.426-138.052,70.288
			c-29.549,36.565-75.252,60.824-122.993,60.824c-47.741,0-85.897-24.259-104.07-60.824
			c-21.302-42.862-64.083-70.288-116.184-70.288H2883.44c-20.307,0-39.266,16.051-42.346,35.852l-441.241,2798.798
			c-3.08,19.801,10.885,35.852,31.192,35.852h1282.048c20.307,0,39.266-16.051,42.346-35.852L4196.68,964.648
			c3.08-19.8-10.885-35.852-31.192-35.852H3765.114z"/>
		<path style="fill:none;stroke:#383838;stroke-width:12;stroke-linecap:round;stroke-linejoin:round;stroke-miterlimit:10;" d="
			M2399.853,3763.446c-3.08,19.801,10.885,35.852,31.192,35.852h1282.048c20.307,0,39.266-16.051,42.346-35.852L4196.68,964.648
			c3.08-19.8-10.885-35.852-31.192-35.852h-400.374c-52.102,0-103.416,27.426-138.052,70.288
			c-29.549,36.565-75.252,60.824-122.993,60.824c-47.741,0-85.897-24.259-104.07-60.824
			c-21.302-42.862-64.083-70.288-116.184-70.288H2883.44c-20.307,0-39.266,16.051-42.346,35.852l-211.113,1339.091"/>
		<polygon style="fill:#B5D4FF;" points="3918.338,2195.028 2717.863,2195.028 2873.634,1193.654 4074.109,1193.654 		"/>
		<g>
			
				<ellipse transform="matrix(0.7866 -0.6175 0.6175 0.7866 -825.5571 2549.6641)" style="fill:#B5D4FF;" cx="3275.474" cy="2469.053" rx="213.994" ry="183.174"/>
			<g>
				<polygon style="fill:#FFFFFF;" points="3220.944,2592.415 3160.972,2592.415 3197.845,2355.379 3257.816,2355.379 				"/>
				<polygon style="fill:#FFFFFF;" points="3351.596,2592.415 3291.625,2592.415 3328.497,2355.379 3388.469,2355.379 				"/>
			</g>
		</g>
		<polygon style="fill:#B5D4FF;" points="3796.89,2473.897 3604.796,2355.379 3567.923,2592.415 		"/>
		<polygon style="fill:#B5D4FF;" points="2752.551,2473.897 2944.646,2592.415 2981.518,2355.379 		"/>
	</g>
	<g>
		<path style="fill:#FFFFFF;stroke:#383838;stroke-width:12;stroke-linecap:round;stroke-linejoin:round;stroke-miterlimit:10;" d="
			M1996.634,970.702c49.622-98.844,535.419,389.85,535.419,389.85s509.173-162.725,551.167,0
			c41.994,162.725-393.69,292.218-619.406,208.231C2238.097,1484.795,1983.495,996.873,1996.634,970.702z"/>
		<path style="fill:#4187E8;stroke:#383838;stroke-width:12;stroke-linecap:round;stroke-linejoin:round;stroke-miterlimit:10;" d="
			M2600.292,1322.399l83.987,341.198c0,0,414.688,0,447.538-299.205C3157.169,1133.487,2600.292,1322.399,2600.292,1322.399z"/>
		<path style="fill:#4187E8;" d="M2878.5,1248.91c282.933-85.737,887.116,83.987,929.11,167.975s83.987,778.144,83.987,778.144
			h-860.87C3030.728,2195.028,2705.277,1301.402,2878.5,1248.91z"/>
		<path style="fill:#4187E8;stroke:#383838;stroke-width:12;stroke-linecap:round;stroke-linejoin:round;stroke-miterlimit:10;" d="
			M3030.728,2195.028c0,0-129.22-354.815-181.474-630.426"/>
		<path style="fill:#4187E8;stroke:#383838;stroke-width:12;stroke-linecap:round;stroke-linejoin:round;stroke-miterlimit:10;" d="
			M2837.017,1298.574c7.955-26.101,21.351-43.563,41.483-49.664c282.933-85.737,887.116,83.987,929.11,167.975
			s83.987,778.144,83.987,778.144"/>
		<path style="fill:#FFFFFF;stroke:#383838;stroke-width:12;stroke-linecap:round;stroke-linejoin:round;stroke-miterlimit:10;" d="
			M3620.769,1469.378c176.602-190.431,400.458,241.462,400.458,241.462s213.385-465.981,299.311-412.182
			c45.985,28.792-98.24,721.885-299.311,748.131C3937.298,2057.745,3528.584,1568.782,3620.769,1469.378z"/>
		<path style="fill:#4187E8;" d="M3741.606,1877.215l279.621-212.797c0,0-164.98-380.457-452.556-291.56
			C3346.739,1441.463,3741.606,1877.215,3741.606,1877.215z"/>
		<path style="fill:none;stroke:#383838;stroke-width:12;stroke-linecap:round;stroke-linejoin:round;stroke-miterlimit:10;" d="
			M3625.66,1731.943c58.666,82.062,115.946,145.273,115.946,145.273l279.621-212.797c0,0-132.353-305.216-366.604-305.022"/>
		<g>
			<g>
				
					<path style="fill:#FFFFFF;stroke:#383838;stroke-width:12;stroke-linecap:round;stroke-linejoin:round;stroke-miterlimit:10;" d="
					M2086.324,1137.323c-43.813,15.412-106.293-32.728-106.293-32.728s-101.076-62.508-84.46-87.375
					c16.616-24.868,35.565-9.562,35.565-9.562s-27.977-18.889-10.595-35.571c17.382-16.682,30.661-9.533,30.661-9.533
					c-9.985-15.045-1.9-40.47,12.978-42.372c-57.179-51.026-80.858-77.241-67.153-92.593
					c12.464-13.961,139.54,68.174,184.521,104.15c34.081,27.258,16.105,59.259,81.288,110.658"/>
			</g>
			
				<line style="fill:#FFFFFF;stroke:#383838;stroke-width:12;stroke-linecap:round;stroke-linejoin:round;stroke-miterlimit:10;" x1="2023.09" y1="961.712" x2="1964.18" y2="920.182"/>
			
				<path style="fill:#FFFFFF;stroke:#383838;stroke-width:12;stroke-linecap:round;stroke-linejoin:round;stroke-miterlimit:10;" d="
				M2007.33,964.873c29.121,46.945,11.584,65.039-2.285,56.912c-13.869-8.126-21.911-18.177-21.911-18.177
				s30.132,29.708,20.946,45.575c-9.186,15.867-48.672-12.508-48.672-12.508s34.063,43.422,16.061,55.635
				c-18.002,12.214-73.614-36.16-83.685-65.099c-10.07-28.94,18.492-32.012,36.484-23.979
				c-25.837-29.048-2.246-65.315,26.933-40.678c-19.45-35.73-3.65-57.666,23.537-41.229
				C1989.537,930.272,2007.33,964.873,2007.33,964.873z"/>
			
				<line style="fill:#FFFFFF;stroke:#383838;stroke-width:12;stroke-linecap:round;stroke-linejoin:round;stroke-miterlimit:10;" x1="1924.269" y1="1003.232" x2="1955.408" y2="1036.676"/>
			<path style="fill:#FFFFFF;" d="M2078.434,861.87c-35.669,15.11,12.397,96.799,6.49,132.044
				c-5.906,35.245,51.034,72.964,51.034,72.964s28.739,8.27,27.805-40.086C2162.83,978.436,2078.434,861.87,2078.434,861.87z"/>
			
				<path style="fill:#FFFFFF;stroke:#383838;stroke-width:12;stroke-linecap:round;stroke-linejoin:round;stroke-miterlimit:10;" d="
				M2162.837,1042.398c0.696-4.402,1.043-9.561,0.927-15.606c-0.934-48.356-85.33-164.922-85.33-164.922
				c-35.669,15.11,12.397,96.799,6.49,132.044"/>
		</g>
		<g>
			<path style="fill:#FFFFFF;" d="M4205.064,1372.979c40.726-60.248,120.915-149.805,132.739-193.405
				c13.599-50.143,42.849-7.566,39.092,26.164c-3.757,33.731-40.556,65.809-32.762,89.99c6.103,18.934,16.711,16.886,71.521,4.42
				c54.811-12.465,183.13-52.413,201.216-32.337c12.441,13.809-0.42,24.861-0.42,24.861s32.382-2.175,30.752,18.839
				c-1.63,21.014-35.565,24.55-35.565,24.55s23.165,23.93-7.708,30.508c-10.401,2.216-11.868,2.166-31.247,5.388
				c-36.36,28.418-97.479,100.236-132.098,102.659c-33.036,2.312-112.487,8.907-159.786,8.138
				C4202.775,1481.484,4176.943,1414.579,4205.064,1372.979z"/>
			<path style="fill:none;stroke:#383838;stroke-width:12;stroke-linecap:round;stroke-linejoin:round;stroke-miterlimit:10;" d="
				M4280.798,1482.754c47.299,0.77,126.75-5.825,159.786-8.138c34.618-2.422,95.738-74.241,132.098-102.659
				c19.379-3.222,20.846-3.172,31.247-5.388c30.873-6.578,7.708-30.508,7.708-30.508s33.935-3.536,35.565-24.55
				c1.63-21.014-30.752-18.839-30.752-18.839s12.861-11.051,0.42-24.861c-18.086-20.076-146.406,19.872-201.216,32.337
				c-54.81,12.466-65.419,14.514-71.521-4.42c-7.793-24.181,29.005-56.259,32.762-89.99c3.757-33.73-25.493-76.307-39.092-26.164
				c-11.824,43.599-92.013,133.157-132.739,193.405l-45.646,76.959"/>
			<path style="fill:none;stroke:#383838;stroke-width:12;stroke-linecap:round;stroke-linejoin:round;stroke-miterlimit:10;" d="
				M4616.45,1292.672c-62.81-0.619-178.87,36.779-178.87,36.779"/>
			<path style="fill:none;stroke:#383838;stroke-width:12;stroke-linecap:round;stroke-linejoin:round;stroke-miterlimit:10;" d="
				M4611.637,1336.061c-67.564-3.189-172.265,36.408-172.265,36.408"/>
			<path style="fill:none;stroke:#383838;stroke-width:12;stroke-linecap:round;stroke-linejoin:round;stroke-miterlimit:10;" d="
				M4572.682,1371.958c9.294-13.252-9.699-31.251-33.28-14.365c-24.75,17.724-93.717,61.52-93.717,61.52"/>
		</g>
		<path style="fill:#FFFFFF;stroke:#383838;stroke-width:12;stroke-linecap:round;stroke-linejoin:round;stroke-miterlimit:10;" d="
			M3314.771,1246.702c305.745,64.956,264.753,194.356-34.32,160.345C2981.379,1373.037,3110.279,1203.257,3314.771,1246.702z"/>
		<g>
			<polygon style="fill:#FFFFFF;" points="3156.244,1086.982 3222.096,1329.809 3460.177,1329.809 3354.584,964.665 			"/>
			
				<polyline style="fill:none;stroke:#383838;stroke-width:12;stroke-linecap:round;stroke-linejoin:round;stroke-miterlimit:10;" points="
				3460.177,1329.809 3354.584,964.665 3156.244,1086.982 3222.096,1329.809 			"/>
			<g>
				<g>
					<g>
						<g>
							<g>
								<g>
									<g>
										
											<path style="fill:#FFFFFF;stroke:#383838;stroke-width:12;stroke-linecap:round;stroke-linejoin:round;stroke-miterlimit:10;" d="
											M3267.256,707.118c201.392,43.373,150.591,257.709,37.18,375.689c-51.551,53.627-144.02,83.36-182.439,75.086
											c-53.486-11.519-58.472-143.238-36.523-255.666C3107.789,787.926,3138.243,679.332,3267.256,707.118z"/>
									</g>
									<g>
										<path style="fill:#383838;" d="M3109.666,804.353c18.841-56.047,47.676-51.867,68.684-36.568
											c73.064,53.208,168.109,5.026,183.145,50.087c15.035,45.061-46.996,120.112-33.586,140.884
											c13.41,20.771,50.425,13.898,25.147,108.079c114.838-26.619,168.727-144.531,158.045-197.19
											c-5.99-29.532-74.566-86.048-8.857-91.137c-38.253-34.827-123.965-59.526-154.368-65.501
											C3314.055,706.359,3123.23,552.865,3109.666,804.353z"/>
									</g>
									<g>
										<path style="fill:#FFFFFF;" d="M3302.905,1029.171c-26.334-57.255,72.707-110.466,86.707-62.11
											C3403.613,1015.418,3327.544,1082.741,3302.905,1029.171z"/>
										
											<path style="fill:none;stroke:#383838;stroke-width:12;stroke-linecap:round;stroke-linejoin:round;stroke-miterlimit:10;" d="
											M3331.216,958.461c23.203-14.367,51.405-15.549,58.396,8.601c11.99,41.411-42.077,96.734-73.329,78.124"/>
									</g>
									<path style="fill:#FFFFFF;" d="M3099.944,1031.42c0.6-2.719,1.667-5,3.116-6.887c8.281,2.101,26.847,1.916,40.663-5.274
										c10.571,15.605,25.07,24.542,37.046,29.102c1.41,3.418,1.668,6.072,1.454,10.248c-0.953,18.62-23.175,43.628-54.965,31.31
										C3095.469,1077.601,3098.376,1038.526,3099.944,1031.42z"/>
									
										<path style="fill:none;stroke:#383838;stroke-width:12;stroke-linecap:round;stroke-linejoin:round;stroke-miterlimit:10;" d="
										M3104.799,1044.218c0,0,30.744,14.439,60.729,8.672"/>
								</g>
							</g>
						</g>
					</g>
				</g>
			</g>
		</g>
		<g>
			<path style="fill:#383838;" d="M3354.988,956.818l-21.549,143.983c0,0-103.762,131.052-195.106,124.932
				c-115.469-7.735-93.284-146.392-65.087-181.515c-4.397-10.62-2.683-59.139,67.439-45.678c92.309,17.72,74.33,79.117,74.33,79.117
				l74.698-34.964l46.633-88.059L3354.988,956.818z"/>
		</g>
	</g>
</g>
<path style="fill:#A9B5C4;stroke:#383838;stroke-width:12;stroke-linecap:round;stroke-linejoin:round;stroke-miterlimit:10;" d="
	M2558.77,3884.698H880.119c-58.26,0-105.488-47.229-105.488-105.488v-926.23c0-58.26,47.229-105.488,105.488-105.488H2558.77
	c58.26,0,105.488,47.229,105.488,105.488v926.23C2664.258,3837.469,2617.029,3884.698,2558.77,3884.698z"/>
<g>
	<path style="fill:#FFFFFF;stroke:#383838;stroke-width:12;stroke-linecap:round;stroke-linejoin:round;stroke-miterlimit:10;" d="
		M2419.516,2411.935c-62.025-83.611-470.922,267.872-470.922,267.872s-536.269-10.95-582.293,80.745
		c-122.662,244.384,502.031,120.156,635.997,48.771C2202.416,2702.69,2458.583,2464.598,2419.516,2411.935z"/>
	<path style="fill:#FFFFFF;stroke:#383838;stroke-width:12;stroke-linecap:round;stroke-linejoin:round;stroke-miterlimit:10;" d="
		M2725.43,2402.752c13.117,30.004-129.114,24.539-122.012,31.98c43.372,45.44,55.061,75.789,40.802,79.624
		c-16.594,4.463-84.892-61.418-84.892-61.418s52.35,63.453,25.872,77.82c-16.19,8.785-45.909-40.242-69.434-77.465
		c-31.306,21.115-82.004,28.848-84.17,24.59c-32.633-64.148,73.347-75.22,73.347-75.22S2712.313,2372.749,2725.43,2402.752z"/>
	<path style="fill:#FFFFFF;" d="M2740.983,2319.571c10.176,29.155-151.498,98.146-202.773,107.594
		c-64.262,11.842-85.468,42.485-85.468,42.485s106.095,44.679,91.726,76.341c-5.057,11.142-103.997-15.809-126.303-20.303
		s-52.985-23.808-61.87-63.141c-8.886-39.333-7.133-55.211,27.193-66.304c34.326-11.092,87.766-23.981,172.028-22.802
		C2621.144,2374.361,2732,2293.835,2740.983,2319.571z"/>
	<path style="fill:none;stroke:#383838;stroke-width:12;stroke-linecap:round;stroke-linejoin:round;stroke-miterlimit:10;" d="
		M2354.222,2417.407c3.932-9.494,12.894-15.873,29.266-21.164c34.326-11.092,87.766-23.981,172.028-22.802
		c65.628,0.919,176.485-79.607,185.468-53.871c10.176,29.155-151.498,98.146-202.773,107.594
		c-64.262,11.842-85.468,42.485-85.468,42.485s106.095,44.679,91.726,76.341c-5.057,11.142-103.997-15.809-126.303-20.303
		c-14.312-2.883-32.071-11.868-45.309-28.327"/>
</g>
<g>
	<path style="fill:#4187E8;stroke:#383838;stroke-width:12;stroke-linecap:round;stroke-linejoin:round;stroke-miterlimit:10;" d="
		M1696.36,2655.174c51.404,75.571-6.46,327.261-6.46,327.261s-407.78,55.807-426.504-123.569
		C1236.625,2602.391,1696.36,2655.174,1696.36,2655.174z"/>
</g>
<g>
	<g>
		<path style="fill:#383838;" d="M1308.678,2075.217c253.226-31.117,299.648,406.032,219.86,666.673
			c-79.788,260.64-489.367,379.436-611.708,235.818C794.489,2834.09,890.234,2126.636,1308.678,2075.217z"/>
	</g>
	<g>
		<g>
			<g>
				
					<path style="fill:#FFFFFF;stroke:#383838;stroke-width:12;stroke-linecap:round;stroke-linejoin:round;stroke-miterlimit:10;" d="
					M3645.629,3241.386c-184.899-34.583-499.656-301.219-499.656-301.219l-51.662,181.898l457.718,272.698
					c33.032,89.112,69.339,128.274,159.91,34.66c44.599-46.097,161.136-97.531,184.279-110.709
					c23.478-13.369,33.982-66.919,41.422-78.499C3955.609,3212.249,3785.413,3267.531,3645.629,3241.386z"/>
			</g>
			
				<path style="fill:#4187E8;stroke:#383838;stroke-width:12;stroke-linecap:round;stroke-linejoin:round;stroke-miterlimit:10;" d="
				M4060.948,3150.527c-40.892-42.645-224.659,97.337-285.112,90.794c51.516,45.221,42.77,172.101,42.77,172.101
				s157.913-140.948,189.698-179.649C4040.09,3195.072,4060.948,3150.527,4060.948,3150.527z"/>
			
				<path style="fill:#4187E8;stroke:#383838;stroke-width:12;stroke-linecap:round;stroke-linejoin:round;stroke-miterlimit:10;" d="
				M3651.477,3553.901c82.154-96.077,325.281-282.882,411.097-421.845l24.41,24.272c-78.513,136.2-326.357,316.622-412.78,420.171
				L3651.477,3553.901z"/>
		</g>
		<path style="fill:#4187E8;stroke:#383838;stroke-width:12;stroke-linecap:round;stroke-linejoin:round;stroke-miterlimit:10;" d="
			M3871.005,3142.173c-30.168-11.928-64.294,2.858-76.223,33.026c-8.594,21.734-3.322,45.522,11.578,61.585
			c2.828,3.049,31.621,2.778,55.874-7.942c25.334-11.198,46.099-33.031,45.661-37.602
			C3905.856,3169.966,3892.242,3150.57,3871.005,3142.173z"/>
	</g>
	<path style="fill:#383838;" d="M3506.411,3179.691c0,0-18.526,177.586-237.263,132.504
		c-148.281-30.561-535.903-194.663-639.82-384.13c-209.112,359.468-601.453,902.736-838.3,805.74
		c-267.764-109.658,487.154-1152.127,831.999-1128.088C2877.341,2623.445,3506.411,3179.691,3506.411,3179.691z"/>
	<g>
		<g>
			<g>
				
					<path style="fill:#FFFFFF;stroke:#383838;stroke-width:12;stroke-linecap:round;stroke-linejoin:round;stroke-miterlimit:10;" d="
					M3515.87,3642.042c-154.321-107.558-407.863-419.547-407.863-419.547l-111.946,162.735l371.417,358.13
					c-6.535,94.812,10.456,145.44,131.511,97.352c59.61-23.679,186.988-22.64,213.503-25.135
					c26.898-2.531,58.494-47.025,70.038-54.521C3810.41,3742.953,3632.537,3723.356,3515.87,3642.042z"/>
			</g>
			
				<path style="fill:#4187E8;stroke:#383838;stroke-width:12;stroke-linecap:round;stroke-linejoin:round;stroke-miterlimit:10;" d="
				M3931.811,3730.008c-19.738-55.688-244.812-3.659-297.226-34.482c28.363,62.405-31.785,174.464-31.785,174.464
				s201.904-63.542,246.792-85.748C3894.481,3762.036,3931.811,3730.008,3931.811,3730.008z"/>
			
				<path style="fill:#4187E8;stroke:#383838;stroke-width:12;stroke-linecap:round;stroke-linejoin:round;stroke-miterlimit:10;" d="
				M3392.688,3929.315c114.395-53.795,412.833-124.095,548.201-215.474l12.27,32.163
				c-127.576,91.865-427.688,154.406-549.047,213.256L3392.688,3929.315z"/>
		</g>
		<path style="fill:#4187E8;stroke:#383838;stroke-width:12;stroke-linecap:round;stroke-linejoin:round;stroke-miterlimit:10;" d="
			M3762.107,3644.285c-22.594-23.279-59.781-23.834-83.061-1.24c-16.771,16.277-21.748,40.129-14.771,60.897
			c1.324,3.942,27.681,15.536,54.197,15.737c27.698,0.21,55.604-11.152,57.084-15.499
			C3782.446,3683.951,3778.012,3660.672,3762.107,3644.285z"/>
	</g>
	<path style="fill:#383838;" d="M3392.592,3515.141c0,0-65.157,97.806-184.804,85.777
		c-119.646-12.03-546.777-368.815-631.457-492.854c-173.832,434.673-577.122,970.902-857.106,774.456
		c-279.984-196.446,577.355-1178.801,849.547-1133.512C2840.964,2794.296,3392.592,3515.141,3392.592,3515.141z"/>
	<path style="fill:#4187E8;" d="M1461.436,2716.392c-266.136-111.536-493.399,78.759-515.658,178.924
		c-22.259,100.164,166.197,539.311,330.785,715.104c204.055,217.947,385.643,249.574,385.643,249.574
		s39.181-304.269,167.573-490.586c-87.665-54.516-135.39-121.116-166.017-214.496c24.666-20.349,37.677-61.683,30.143-98.49
		c-8.674-42.376-64.187-115.875-81.172-154.048C1534.996,2727.663,1461.436,2716.392,1461.436,2716.392z"/>
	<path style="fill:none;stroke:#383838;stroke-width:12;stroke-linecap:round;stroke-linejoin:round;stroke-miterlimit:10;" d="
		M945.778,2895.315c-22.259,100.164,166.197,539.311,330.785,715.104c204.055,217.947,385.643,249.574,385.643,249.574
		s39.181-304.269,167.573-490.586c-87.665-54.516-135.39-121.116-166.017-214.496c24.666-20.349,37.677-61.683,30.143-98.49
		c-8.674-42.376-64.187-115.875-81.172-154.048"/>
	<path style="fill:#FFFFFF;stroke:#383838;stroke-width:12;stroke-linecap:round;stroke-linejoin:round;stroke-miterlimit:10;" d="
		M1023.877,2873.365c-182.161,19.345,133.414,763.901,246.367,776.067s691.461-291.993,670.263-373.719
		c-9.374-36.14-142.38-4.49-245.571,25.119c-163.603,46.943-321.877,116.892-321.877,116.892S1190.178,2855.705,1023.877,2873.365z"
		/>
	<g>
		<g>
			<g>
				<g>
					
						<path style="fill:#FFFFFF;stroke:#383838;stroke-width:12;stroke-linecap:round;stroke-linejoin:round;stroke-miterlimit:10;" d="
						M1431.642,2912.13c-101.195-93.759-129.9,63.785-129.9,63.785s-303.687-273.425-89.559-319.121
						c235.246-50.202,357.582,225.179,357.582,225.179S1473.789,2778.735,1431.642,2912.13z"/>
					
						<path style="fill:#FFFFFF;stroke:#383838;stroke-width:12;stroke-linecap:round;stroke-linejoin:round;stroke-miterlimit:10;" d="
						M1461.436,2446.302c-10.666,115.6-41.163,157.07-23.286,244.143c18.121,88.262-19.212,185.377-19.212,185.377
						s-232.218-135.907-204.449-192.651c20.471-41.832,23.237-260.039,23.237-260.039L1461.436,2446.302z"/>
					<g>
						<path style="fill:#FFFFFF;" d="M1261.122,2490.469c75.205,107.56,149.336,133.143,209.873,121.552
							c101.726-19.479,87.179-177.196,71.468-250.407c-23.765-110.746-100.289-240.979-239.077-192.973
							c-206.768,71.519-69.508,244.07-69.508,244.07s-52.99-2.654-40.041,44C1202.13,2486.587,1261.122,2490.469,1261.122,2490.469z
							"/>
						
							<path style="fill:none;stroke:#383838;stroke-width:12;stroke-linecap:round;stroke-linejoin:round;stroke-miterlimit:10;" d="
							M1340.602,2576.297c46.869,35.251,91.445,43.182,130.394,35.724c101.726-19.479,87.179-177.196,71.468-250.407
							c-23.765-110.746-100.289-240.979-239.077-192.973c-206.768,71.519-69.508,244.07-69.508,244.07s-52.99-2.654-40.041,44
							c8.292,29.875,67.284,33.757,67.284,33.757"/>
						<path style="fill:#383838;" d="M1361.381,2131.067c91.855,151.116-132.239,272.433-132.239,272.433
							s-104.269-128.808-36.755-209.394C1266.28,2105.904,1361.381,2131.067,1361.381,2131.067z"/>
						<path style="fill:#383838;" d="M1293.439,2135.367c104.924-55.042,193.507,85.143,193.507,85.143
							s-96.324-8.601-135.025-49.882C1313.219,2129.346,1293.439,2135.367,1293.439,2135.367z"/>
					</g>
				</g>
			</g>
		</g>
	</g>
	<path style="fill:#4187E8;" d="M1318.591,3192.523c-125.496,110.028-317.401,79.988-317.401,79.988s-161.268-378.671,6.838-443.991
		C1248.387,2735.124,1318.591,3192.523,1318.591,3192.523z"/>
	<path style="fill:none;stroke:#383838;stroke-width:12;stroke-linecap:round;stroke-linejoin:round;stroke-miterlimit:10;" d="
		M1275.089,3028.022c31.389,85.582,43.502,164.501,43.502,164.501c-125.496,110.028-317.401,79.988-317.401,79.988
		s-161.268-378.671,6.838-443.991c44.669-17.357,83.462-15.691,117.019-1.472"/>
	<path style="fill:none;stroke:#383838;stroke-width:12;stroke-linecap:round;stroke-linejoin:round;stroke-miterlimit:10;" d="
		M1663.761,3154.912c-143.263,68.232-240.734,85.69-240.734,85.69"/>
	<path style="fill:#FFFFFF;stroke:#383838;stroke-width:12;stroke-linecap:round;stroke-linejoin:round;stroke-miterlimit:10;" d="
		M1801.768,3282.35c3.206,2.4,201.191-365.453,263.681-481.766c11.922-22.191,32.564-38.392,56.951-44.705l170.792-44.213
		c27.247-5.548,41.693,24.125,30.219,38.604l-312.716,404.642L1801.768,3282.35z"/>
	<path style="fill:none;stroke:#383838;stroke-width:12;stroke-linecap:round;stroke-linejoin:round;stroke-miterlimit:10;" d="
		M2005.205,3163.952l-190.677,135.43c3.206,2.4,201.191-365.453,263.681-481.766c11.922-22.191,32.564-38.392,56.951-44.705"/>
	<path style="fill:#FFFFFF;" d="M1765.162,3434.547c210.896-144.306,210.497-136.052,231.552-198.69
		c26.299-78.239,21.039-159.765-25.796-110.165c0,0,37.63-57.489,21.193-81.815c-22.605-33.455-113.742,131.494-113.742,131.494
		s10.618-111.517-5.26-107.825c-28.271,6.575-37.391,117.07-52.259,164.26c-14.868,47.19-125.915,69.026-125.915,69.026
		L1765.162,3434.547z"/>
	<path style="fill:none;stroke:#383838;stroke-width:12;stroke-linecap:round;stroke-linejoin:round;stroke-miterlimit:10;" d="
		M1765.162,3434.547c210.896-144.306,210.497-136.052,231.552-198.69c26.299-78.239,21.039-159.765-25.796-110.165
		c0,0,37.63-57.489,21.193-81.815c-22.605-33.455-113.742,131.494-113.742,131.494s10.618-111.517-5.26-107.825
		c-28.271,6.575-37.391,117.07-52.259,164.26c-14.868,47.19-125.915,69.026-125.915,69.026"/>
</g>
<path style="fill:#A9B5C4;stroke:#383838;stroke-width:12;stroke-linecap:round;stroke-linejoin:round;stroke-miterlimit:10;" d="
	M1078.515,4320.093h-422.11c-30.372,0-54.994-24.622-54.994-54.994v-987.611c0-30.372,24.622-54.994,54.994-54.994h422.11
	c30.372,0,54.994,24.622,54.994,54.994V4265.1C1133.509,4295.472,1108.887,4320.093,1078.515,4320.093z"/>
<path style="fill:#A9B5C4;stroke:#383838;stroke-width:12;stroke-linecap:round;stroke-linejoin:round;stroke-miterlimit:10;" d="
	M2996.986,4320.093h-422.11c-30.372,0-54.994-24.622-54.994-54.994v-987.611c0-30.372,24.622-54.994,54.994-54.994h422.11
	c30.372,0,54.994,24.622,54.994,54.994V4265.1C3051.979,4295.472,3027.358,4320.093,2996.986,4320.093z"/>
<g>
	<path style="fill:#A9B5C4;" d="M2527.836,3839.563c19.647,138.042,39.292,276.083,58.938,414.125
		c4.453,31.284-17.413,60.434-48.741,64.563c-480.6,63.333-967.437,63.333-1448.037,0c-31.328-4.128-53.194-33.279-48.742-64.563
		c19.646-138.042,39.293-276.083,58.939-414.125c4.403-30.938,32.906-52.304,63.892-48.25c431.447,56.451,868.411,56.451,1299.858,0
		C2494.929,3787.26,2523.433,3808.625,2527.836,3839.563z"/>
	<path style="fill:none;stroke:#383838;stroke-width:12;stroke-linecap:round;stroke-linejoin:round;stroke-miterlimit:10;" d="
		M2527.836,3839.563c19.647,138.042,39.292,276.083,58.938,414.125c4.453,31.284-17.413,60.434-48.741,64.563
		c-480.6,63.333-967.437,63.333-1448.037,0c-31.328-4.128-53.194-33.279-48.742-64.563
		c19.646-138.042,39.293-276.083,58.939-414.125c4.403-30.938,32.906-52.304,63.892-48.25c431.447,56.451,868.411,56.451,1299.858,0
		C2494.929,3787.26,2523.433,3808.625,2527.836,3839.563z"/>
</g>
<g>
	<path style="fill:#A9B5C4;stroke:#383838;stroke-width:12;stroke-linecap:round;stroke-linejoin:round;stroke-miterlimit:10;" d="
		M3384.118,4386.681c188.924-133.938,318.5-128.141,424.366-94.833c105.865,33.308,220.677,170.568,190.011,254.698
		c-15.644,42.917-37.086,67.468-74.211,90.641c-46.367,28.942-87.568,49.721-187.542,42.675
		c-62.697-4.418-154.953-41.879-251.486-36.125c-51.115,3.046-56.81-17.289-55.907-35.272
		c-41.905,38.788-73.688,51.643-97.727,54.351c-55.514,6.253-43.517-39.368-38.869-48.286
		c-27.981,24.187-77.344,30.827-87.737,9.766c-9.362-18.972,1.897-38.696,33.658-51.658
		C3263.376,4562.556,3384.118,4386.681,3384.118,4386.681z"/>
	<path style="fill:none;stroke:#383838;stroke-width:12;stroke-linecap:round;stroke-linejoin:round;stroke-miterlimit:10;" d="
		M3525.458,4446.617c71.591-78.3,172.484-96.572,226.502-85.022"/>
	<path style="fill:none;stroke:#383838;stroke-width:12;stroke-linecap:round;stroke-linejoin:round;stroke-miterlimit:10;" d="
		M3836.716,4571.139c-5.209,42.561-95.626,38.91-136.012,30.256c-40.386-8.654-117.91-28.83-168.296-32.991
		c-50.385-4.162-101.627,13-103.592,42.737"/>
	<path style="fill:#A9B5C4;stroke:#383838;stroke-width:12;stroke-linecap:round;stroke-linejoin:round;stroke-miterlimit:10;" d="
		M3323.427,4347.633c-137.756,48.044-115.827,180.173-84.754,225.004c29.131,42.029,114.021,71.201,190.676,35.827
		c1.682-6.313,6.875-28.37,54.724-37.533c51.39-53.133,52.459-133.39,27.197-170.208
		C3481.604,4357.485,3414.97,4315.707,3323.427,4347.633z"/>
	<path style="fill:none;stroke:#383838;stroke-width:12;stroke-linecap:round;stroke-linejoin:round;stroke-miterlimit:10;" d="
		M3318.538,4549.767c19.453-25.128,52.813-17.03,52.813-17.03"/>
	<path style="fill:none;stroke:#383838;stroke-width:12;stroke-linecap:round;stroke-linejoin:round;stroke-miterlimit:10;" d="
		M3449.96,4490.975c16.438-34.346,37.195-29.291,37.195-29.291"/>
	<path style="fill:none;stroke:#383838;stroke-width:12;stroke-linecap:round;stroke-linejoin:round;stroke-miterlimit:10;" d="
		M3424.212,4557.66c4.012-16.842,22.444-13.643,22.444-13.643"/>
	<path style="fill:none;stroke:#383838;stroke-width:12;stroke-linecap:round;stroke-linejoin:round;stroke-miterlimit:10;" d="
		M3415.533,4510.401c-20.94,6.9-8.82,24.519,10.546,17.293S3429.563,4497.374,3415.533,4510.401z"/>
	<path style="fill:none;stroke:#383838;stroke-width:12;stroke-linecap:round;stroke-linejoin:round;stroke-miterlimit:10;" d="
		M3427.952,4526.893c7.282,11.144,6.732,18.349,6.732,18.349"/>
	<path style="fill:#A9B5C4;" d="M3458.528,4270.145c-15.111-2.537-37.822,14.508-60.336,90.589l94.274,37.777
		C3495.006,4339.417,3473.639,4272.681,3458.528,4270.145z"/>
	<path style="fill:none;stroke:#383838;stroke-width:12;stroke-linecap:round;stroke-linejoin:round;stroke-miterlimit:10;" d="
		M3398.191,4360.735c22.514-76.082,45.226-93.126,60.337-90.59c15.111,2.536,36.478,69.272,33.937,128.366"/>
	<path style="fill:none;stroke:#383838;stroke-width:12;stroke-linecap:round;stroke-linejoin:round;stroke-miterlimit:10;" d="
		M3427.319,4357.763c5.809-38.38,20.562-48.4,20.562-48.4"/>
	<path style="fill:#A9B5C4;" d="M3231.14,4488.889c-21.838-11.615-73.299-81.821-60.222-101.517
		c13.077-19.696,64.383-12.854,105.19,7.29L3231.14,4488.889z"/>
	<path style="fill:none;stroke:#383838;stroke-width:12;stroke-linecap:round;stroke-linejoin:round;stroke-miterlimit:10;" d="
		M3276.108,4394.662c-40.807-20.144-92.113-26.986-105.19-7.29c-13.077,19.696,38.384,89.902,60.222,101.517"/>
	<path style="fill:none;stroke:#383838;stroke-width:12;stroke-linecap:round;stroke-linejoin:round;stroke-miterlimit:10;" d="
		M3203.268,4394.857c25.44,1.356,51.493,18.476,51.493,18.476"/>
</g>
<line style="fill:#4187E8;stroke:#383838;stroke-width:12;stroke-linecap:round;stroke-linejoin:round;stroke-miterlimit:10;" x1="2728.825" y1="2233.023" x2="3885.928" y2="2233.023"/>
</svg>
